<svg width="400" height="104" viewBox="0 0 400 104" fill="none" xmlns="http://www.w3.org/2000/svg">
    <g opacity="0.3" clip-path="url(#clip0_17_98602)">
        <path d="M372.871 14.0351L370.128 13.4769C369.332 13.315 368.536 13.1552 367.741 12.9898C367.686 12.972 367.628 12.9756 367.576 12.9999C367.525 13.0241 367.484 13.0671 367.464 13.1201C366.633 14.6093 365.8 16.0971 364.965 17.5836C364.947 17.6156 364.929 17.6461 364.896 17.7021L364.746 16.4466C364.586 15.1188 364.428 13.7923 364.272 12.4671C364.272 12.4082 364.25 12.3513 364.21 12.3079C364.17 12.2645 364.115 12.2379 364.057 12.2334C362.398 11.8989 360.74 11.561 359.082 11.2197C359.038 11.2112 358.994 11.1984 358.917 11.1797C359.21 11.0434 359.466 10.9267 359.724 10.8071C359.775 10.7874 359.825 10.7643 359.873 10.738C360.282 10.481 360.744 10.4862 361.201 10.4708C363.53 10.3913 365.84 10.6065 368.141 10.9864C368.191 10.9952 368.242 11.0018 368.292 11.0084C368.292 11.0084 368.304 10.998 368.328 10.9852C368.146 10.8724 367.967 10.7567 367.786 10.6432C366.592 9.90178 365.336 9.30319 363.974 8.94227C363.93 8.93326 363.892 8.90912 363.864 8.87416C363.837 8.83921 363.823 8.79573 363.825 8.75153C363.646 7.22446 363.466 5.69635 363.284 4.16721L363.203 3.50349L363.314 3.62488L366.753 7.36018C366.906 7.52558 366.909 7.52938 367.11 7.43565L371.753 5.31821C371.776 5.30831 371.8 5.29917 371.854 5.27609C371.82 5.33937 371.799 5.37991 371.775 5.42109C370.944 6.90484 370.112 8.3886 369.28 9.87236C369.249 9.91635 369.237 9.97067 369.246 10.0237C369.255 10.0767 369.284 10.1243 369.328 10.1561C370.483 11.4111 371.638 12.6656 372.793 13.9195L372.886 14.0204L372.871 14.0351Z" fill="#6E6A97"/>
    </g>
    <g opacity="0.3" clip-path="url(#clip1_17_98602)">
        <path d="M292.297 86.1422L290.94 83.6935C290.547 82.9833 290.151 82.274 289.76 81.5621C289.739 81.5093 289.698 81.4669 289.646 81.4435C289.594 81.4201 289.535 81.4174 289.481 81.4361C287.809 81.7715 286.137 82.1045 284.465 82.4351C284.429 82.4422 284.394 82.4484 284.329 82.4593L285.187 81.5299C286.093 80.5462 286.999 79.5645 287.905 78.5849C287.95 78.547 287.979 78.4933 287.986 78.4347C287.993 78.3761 287.978 78.317 287.943 78.2695C287.12 76.7909 286.3 75.3106 285.483 73.8286C285.461 73.7896 285.442 73.7478 285.406 73.677C285.7 73.8111 285.955 73.9301 286.213 74.0484C286.262 74.0747 286.312 74.0977 286.363 74.1174C286.824 74.2611 287.12 74.6157 287.428 74.953C289.002 76.6725 290.339 78.5693 291.544 80.5656C291.57 80.6092 291.597 80.652 291.625 80.6949C291.625 80.6949 291.641 80.6967 291.666 80.707C291.634 80.4954 291.606 80.2842 291.574 80.0727C291.363 78.6833 291.002 77.3393 290.392 76.0691C290.37 76.0303 290.364 75.9851 290.372 75.9416C290.381 75.8981 290.405 75.8592 290.44 75.8318C291.485 74.7041 292.53 73.5747 293.575 72.4435L294.027 71.9505L294.007 72.1143L293.4 77.1553C293.373 77.3785 293.372 77.3836 293.574 77.4754L298.2 79.631C298.222 79.642 298.245 79.654 298.297 79.6801C298.227 79.6956 298.183 79.7058 298.136 79.7147C296.467 80.0457 294.799 80.3767 293.13 80.7077C293.077 80.713 293.028 80.7391 292.993 80.7804C292.959 80.8217 292.942 80.8749 292.946 80.9286C292.742 82.6222 292.538 84.3152 292.334 86.0075L292.318 86.1437L292.297 86.1422Z" fill="#6E6A97"/>
    </g>
    <g opacity="0.3" clip-path="url(#clip2_17_98602)">
        <path d="M347.444 52.1456L339.609 51.3015C337.337 51.0567 335.064 50.8182 332.793 50.5631C332.636 50.5277 332.472 50.5533 332.334 50.6347C332.196 50.7162 332.094 50.8473 332.05 51.0014C330.102 55.3946 328.148 59.7848 326.188 64.1718C326.146 64.2661 326.104 64.3563 326.025 64.5222L325.283 61.0415C324.495 57.3609 323.712 53.6835 322.934 50.0093C322.92 49.8442 322.844 49.6904 322.72 49.5792C322.597 49.468 322.437 49.4077 322.271 49.4107C317.535 48.9087 312.8 48.3971 308.065 47.8759C307.939 47.8637 307.813 47.8391 307.592 47.807C308.378 47.3481 309.066 46.9535 309.758 46.5505C309.897 46.4817 310.031 46.4039 310.16 46.3176C311.239 45.4897 312.535 45.3828 313.812 45.2195C320.322 44.3846 326.855 44.3807 333.402 44.8413C333.545 44.8528 333.688 44.858 333.832 44.8632C333.832 44.8632 333.861 44.831 333.927 44.7889C333.388 44.5202 332.856 44.2431 332.319 43.9723C328.782 42.2075 325.107 40.8594 321.195 40.2055C321.072 40.1916 320.957 40.1341 320.871 40.0433C320.785 39.9525 320.735 39.8343 320.728 39.7099C319.836 35.4756 318.939 31.2388 318.039 26.9994L317.64 25.1601L317.984 25.4711L328.583 35.0395C329.052 35.4633 329.063 35.473 329.602 35.1575L342.077 28.0009C342.138 27.9672 342.202 27.9353 342.348 27.8564C342.269 28.0427 342.22 28.1619 342.165 28.2835C340.213 32.662 338.261 37.0404 336.309 41.4188C336.234 41.5502 336.214 41.7057 336.253 41.852C336.292 41.9983 336.386 42.1239 336.516 42.2018C340.077 45.4166 343.636 48.6301 347.194 51.8422L347.481 52.1007L347.444 52.1456Z" fill="#6E6A97"/>
    </g>
    <g opacity="0.3" clip-path="url(#clip3_17_98602)">
        <path d="M392.35 33.5433L390.861 37.7132C390.429 38.9225 390 40.1335 389.563 41.3406C389.523 41.4216 389.516 41.5147 389.542 41.6009C389.568 41.6871 389.627 41.7599 389.705 41.8045C391.85 43.4465 393.992 45.0916 396.132 46.7397C396.178 46.7751 396.221 46.8101 396.302 46.8753L394.303 46.8227C392.188 46.7691 390.076 46.7131 387.967 46.6548C387.875 46.6407 387.781 46.6622 387.704 46.7149C387.627 46.7676 387.573 46.8475 387.553 46.9384C386.657 49.4602 385.756 51.9803 384.85 54.4986C384.827 54.5657 384.797 54.6315 384.75 54.7481C384.603 54.2585 384.477 53.8304 384.348 53.3993C384.329 53.3143 384.304 53.2308 384.273 53.1491C383.963 52.4503 384.074 51.728 384.153 51.0089C384.551 47.3421 385.406 43.7718 386.517 40.2548C386.542 40.1787 386.563 40.1008 386.585 40.023C386.585 40.023 386.571 40.0029 386.557 39.9616C386.34 40.2207 386.118 40.4746 385.9 40.7324C384.472 42.4331 383.253 44.264 382.382 46.315C382.358 46.3809 382.312 46.4362 382.251 46.471C382.19 46.5058 382.119 46.5178 382.05 46.505C379.62 46.4355 377.187 46.3681 374.753 46.3026L373.695 46.2784L373.91 46.1311L380.529 41.5988C380.822 41.3981 380.829 41.3935 380.727 41.0576L378.454 33.2997C378.444 33.2615 378.435 33.2224 378.411 33.1325C378.502 33.1998 378.561 33.2423 378.62 33.2884C380.756 34.9311 382.892 36.5739 385.028 38.2166C385.09 38.2746 385.173 38.306 385.258 38.304C385.343 38.3021 385.424 38.267 385.483 38.2062C387.707 36.6835 389.93 35.1614 392.152 33.6398L392.331 33.5174L392.35 33.5433Z" fill="#6E6A97"/>
    </g>
    <g opacity="0.3">
        <path d="M342.558 100.663L341.329 96.2276C340.973 94.9413 340.613 93.6554 340.262 92.3677C340.248 92.2749 340.199 92.1913 340.125 92.1338C340.051 92.0764 339.958 92.0494 339.864 92.0584C337.06 91.947 334.255 91.8315 331.452 91.7119C331.391 91.7093 331.333 91.7057 331.226 91.6984L332.956 90.5462C334.785 89.3259 336.613 88.1091 338.44 86.8956C338.527 86.8524 338.594 86.7779 338.628 86.687C338.662 86.5962 338.66 86.496 338.622 86.4066C337.875 83.7271 337.134 81.046 336.397 78.3633C336.377 78.2924 336.363 78.2185 336.333 78.0916C336.751 78.4193 337.113 78.7081 337.481 78.997C337.549 79.0576 337.62 79.1137 337.694 79.165C338.376 79.5729 338.713 80.2536 339.077 80.9117C340.932 84.2663 342.34 87.8126 343.5 91.4667C343.525 91.5462 343.553 91.6254 343.581 91.7046C343.581 91.7046 343.604 91.7135 343.641 91.7399C343.671 91.3894 343.707 91.0413 343.739 90.6914C343.935 88.3908 343.876 86.1051 343.389 83.8408C343.37 83.7705 343.376 83.6957 343.407 83.6297C343.438 83.5637 343.491 83.5108 343.557 83.4805C345.664 82.0843 347.772 80.6853 349.879 79.2834L350.792 78.6709L350.697 78.9249L347.784 86.7395C347.655 87.0855 347.652 87.0935 347.94 87.3181L354.511 92.5503C354.543 92.5766 354.574 92.6044 354.648 92.6664C354.53 92.664 354.455 92.6631 354.377 92.6594C351.579 92.5421 348.782 92.4249 345.984 92.3077C345.897 92.2955 345.808 92.3181 345.737 92.3707C345.666 92.4232 345.618 92.5016 345.604 92.5889C344.625 95.2144 343.647 97.8388 342.669 100.462L342.59 100.673L342.558 100.663Z" fill="#6E6A97"/>
    </g>
    <g opacity="0.3" clip-path="url(#clip4_17_98602)">
        <path d="M26.9687 14.0351L29.7122 13.4769C30.5079 13.315 31.3043 13.1552 32.0991 12.9898C32.1534 12.972 32.2123 12.9756 32.2638 12.9999C32.3153 13.0241 32.3555 13.0671 32.3762 13.1201C33.2069 14.6093 34.0397 16.0971 34.8747 17.5836C34.8927 17.6156 34.9106 17.6461 34.944 17.7021L35.0939 16.4466C35.2536 15.1188 35.4116 13.7923 35.568 12.4671C35.5676 12.4082 35.5897 12.3513 35.6296 12.3079C35.6696 12.2645 35.7245 12.2379 35.7832 12.2334C37.442 11.8989 39.1001 11.561 40.7577 11.2197C40.8017 11.2112 40.8456 11.1984 40.9227 11.1797C40.6301 11.0434 40.3739 10.9267 40.1161 10.8071C40.0648 10.7874 40.0148 10.7643 39.9665 10.738C39.5579 10.481 39.0961 10.4862 38.6393 10.4708C36.31 10.3913 33.9994 10.6065 31.6986 10.9864C31.6488 10.9952 31.5981 11.0018 31.5474 11.0084C31.5474 11.0084 31.5361 10.998 31.5116 10.9852C31.6935 10.8724 31.8725 10.7567 32.0537 10.6432C33.2477 9.90178 34.5039 9.30319 35.866 8.94227C35.9094 8.93326 35.9482 8.90912 35.9755 8.87416C36.0029 8.83921 36.0169 8.79573 36.0152 8.75153C36.1939 7.22446 36.3741 5.69635 36.5557 4.16721L36.6372 3.50349L36.5255 3.62488L33.0864 7.36018C32.9341 7.52558 32.9306 7.52938 32.7298 7.43565L28.0866 5.31821C28.0637 5.30831 28.0401 5.29917 27.9861 5.27609C28.0198 5.33937 28.041 5.37991 28.0644 5.42109C28.8963 6.90484 29.7283 8.3886 30.5602 9.87236C30.5908 9.91635 30.6029 9.97067 30.5939 10.0237C30.5849 10.0767 30.5556 10.1243 30.5121 10.1561C29.3567 11.4111 28.2017 12.6656 27.0472 13.9195L26.9543 14.0204L26.9687 14.0351Z" fill="#6E6A97"/>
    </g>
    <g opacity="0.3" clip-path="url(#clip5_17_98602)">
        <path d="M107.542 86.1422L108.9 83.6935C109.293 82.9833 109.689 82.274 110.079 81.5621C110.101 81.5093 110.142 81.4669 110.194 81.4435C110.246 81.4201 110.305 81.4174 110.359 81.4361C112.03 81.7715 113.703 82.1045 115.375 82.4351C115.411 82.4422 115.446 82.4484 115.51 82.4593L114.653 81.5299C113.747 80.5462 112.841 79.5645 111.935 78.5849C111.89 78.547 111.861 78.4933 111.854 78.4347C111.847 78.3761 111.862 78.317 111.897 78.2695C112.72 76.7909 113.54 75.3106 114.357 73.8286C114.379 73.7896 114.398 73.7478 114.434 73.677C114.14 73.8111 113.885 73.9301 113.626 74.0484C113.578 74.0747 113.528 74.0977 113.477 74.1174C113.016 74.2611 112.72 74.6157 112.411 74.953C110.838 76.6725 109.501 78.5693 108.296 80.5656C108.27 80.6092 108.242 80.652 108.214 80.6949C108.214 80.6949 108.199 80.6967 108.174 80.707C108.206 80.4954 108.234 80.2842 108.266 80.0727C108.477 78.6833 108.838 77.3393 109.448 76.0691C109.469 76.0303 109.476 75.9851 109.467 75.9416C109.459 75.8981 109.435 75.8592 109.4 75.8318C108.355 74.7041 107.31 73.5747 106.265 72.4435L105.813 71.9505L105.833 72.1143L106.44 77.1553C106.467 77.3785 106.467 77.3836 106.266 77.4754L101.64 79.631C101.618 79.642 101.595 79.654 101.543 79.6801C101.613 79.6956 101.657 79.7058 101.704 79.7147C103.372 80.0457 105.041 80.3767 106.71 80.7077C106.763 80.713 106.812 80.7391 106.846 80.7804C106.881 80.8217 106.898 80.8749 106.894 80.9286C107.098 82.6222 107.302 84.3152 107.505 86.0075L107.522 86.1437L107.542 86.1422Z" fill="#6E6A97"/>
    </g>
    <g opacity="0.3" clip-path="url(#clip6_17_98602)">
        <path d="M52.3958 52.1456L60.2305 51.3015C62.5025 51.0567 64.7763 50.8182 67.0468 50.5631C67.2036 50.5277 67.3678 50.5533 67.506 50.6347C67.6441 50.7162 67.7458 50.8473 67.7903 51.0014C69.7377 55.3946 71.6914 59.7848 73.6513 64.1718C73.6935 64.2661 73.7359 64.3563 73.8153 64.5222L74.557 61.0415C75.3449 57.3609 76.1279 53.6835 76.9059 50.0093C76.9199 49.8442 76.9962 49.6904 77.1194 49.5792C77.2426 49.468 77.4033 49.4077 77.569 49.4107C82.3051 48.9087 87.0403 48.3971 91.7747 47.8759C91.9004 47.8637 92.0268 47.8391 92.2478 47.807C91.4623 47.3481 90.7739 46.9535 90.0818 46.5505C89.943 46.4817 89.8088 46.4039 89.6801 46.3176C88.6005 45.4897 87.3044 45.3828 86.0277 45.2195C79.518 44.3846 72.9849 44.3807 66.4374 44.8413C66.2953 44.8528 66.1515 44.858 66.0078 44.8632C66.0078 44.8632 65.9787 44.831 65.9133 44.7889C66.4523 44.5202 66.9836 44.2431 67.5207 43.9723C71.058 42.2075 74.7333 40.8594 78.6444 40.2055C78.7683 40.1916 78.8833 40.1341 78.9689 40.0433C79.0545 39.9525 79.105 39.8343 79.1114 39.7099C80.0038 35.4756 80.9004 31.2388 81.8012 26.9994L82.1999 25.1601L81.8555 25.4711L71.257 35.0395C70.7876 35.4633 70.7769 35.473 70.238 35.1575L57.7632 28.0009C57.7015 27.9672 57.6375 27.9353 57.4921 27.8564C57.5704 28.0427 57.6194 28.1619 57.6745 28.2835C59.6267 32.662 61.5789 37.0404 63.5312 41.4188C63.6057 41.5502 63.6257 41.7057 63.5869 41.852C63.5481 41.9983 63.4536 42.1239 63.3237 42.2018C59.7629 45.4166 56.2035 48.6301 52.6455 51.8422L52.3592 52.1007L52.3958 52.1456Z" fill="#6E6A97"/>
    </g>
    <g opacity="0.3" clip-path="url(#clip7_17_98602)">
        <path d="M7.48952 33.5433L8.97881 37.7132C9.4107 38.9225 9.83942 40.1335 10.2768 41.3406C10.3167 41.4216 10.3242 41.5147 10.2979 41.6009C10.2715 41.6871 10.2132 41.7599 10.1348 41.8045C7.99007 43.4465 5.84783 45.0916 3.70812 46.7397C3.66212 46.7751 3.61839 46.8101 3.5382 46.8753L5.53724 46.8227C7.65158 46.7691 9.76353 46.7131 11.8731 46.6548C11.9651 46.6407 12.0592 46.6622 12.1361 46.7149C12.213 46.7676 12.2671 46.8475 12.2872 46.9384C13.183 49.4602 14.0839 51.9803 14.9899 54.4986C15.0131 54.5657 15.0431 54.6315 15.0896 54.7481C15.2373 54.2585 15.3625 53.8304 15.4919 53.3993C15.5113 53.3143 15.5362 53.2308 15.5664 53.1491C15.8771 52.4503 15.7654 51.728 15.6871 51.0089C15.289 47.3421 14.4338 43.7718 13.323 40.2548C13.2981 40.1787 13.2763 40.1008 13.2546 40.023C13.2546 40.023 13.2684 40.0029 13.2828 39.9616C13.5003 40.2207 13.7215 40.4746 13.9399 40.7324C15.3683 42.4331 16.5872 44.264 17.4577 46.315C17.4815 46.3809 17.528 46.4362 17.5889 46.471C17.6497 46.5058 17.7209 46.5178 17.7898 46.505C20.2203 46.4355 22.6528 46.3681 25.0873 46.3026L26.1446 46.2784L25.9295 46.1311L19.3108 41.5988C19.0177 41.3981 19.011 41.3935 19.1126 41.0576L21.3857 33.2997C21.396 33.2615 21.405 33.2224 21.4291 33.1325C21.3376 33.1998 21.2788 33.2423 21.2196 33.2884C19.0836 34.9311 16.9476 36.5739 14.8115 38.2166C14.7495 38.2746 14.6672 38.306 14.5822 38.304C14.4971 38.3021 14.4161 38.267 14.3565 38.2062C12.1328 36.6835 9.90995 35.1614 7.68803 33.6398L7.50922 33.5174L7.48952 33.5433Z" fill="#6E6A97"/>
    </g>
    <g opacity="0.3">
        <path d="M57.2822 100.663L58.5108 96.2276C58.8671 94.9413 59.2272 93.6554 59.5775 92.3677C59.5921 92.2749 59.6413 92.1913 59.7153 92.1338C59.7892 92.0764 59.8823 92.0494 59.9756 92.0584C62.7802 91.947 65.5844 91.8315 68.3883 91.7119C68.4486 91.7093 68.5067 91.7057 68.6138 91.6984L66.8838 90.5462C65.0551 89.3259 63.227 88.1091 61.3996 86.8956C61.313 86.8524 61.2459 86.7779 61.2121 86.687C61.1782 86.5962 61.1801 86.496 61.2173 86.4066C61.9645 83.7271 62.7063 81.046 63.4427 78.3633C63.4631 78.2924 63.477 78.2185 63.5071 78.0916C63.0889 78.4193 62.7264 78.7081 62.3586 78.997C62.2913 79.0576 62.2202 79.1137 62.1456 79.165C61.4637 79.5729 61.1266 80.2536 60.763 80.9117C58.9081 84.2663 57.4993 87.8126 56.3397 91.4667C56.3153 91.5462 56.2872 91.6254 56.2591 91.7046C56.2591 91.7046 56.2354 91.7135 56.1984 91.7399C56.1686 91.3894 56.1325 91.0413 56.1011 90.6914C55.9046 88.3908 55.964 86.1051 56.451 83.8408C56.4702 83.7705 56.4637 83.6957 56.4328 83.6297C56.4019 83.5637 56.3486 83.5108 56.2825 83.4805C54.1756 82.0843 52.0683 80.6853 49.9606 79.2834L49.0477 78.6709L49.1424 78.9249L52.0556 86.7395C52.1846 87.0855 52.1876 87.0935 51.9002 87.3181L45.3287 92.5503C45.2971 92.5766 45.266 92.6044 45.1919 92.6664C45.3098 92.664 45.3851 92.6631 45.463 92.6594C48.2606 92.5421 51.0582 92.4249 53.8558 92.3077C53.9431 92.2955 54.0318 92.3181 54.1029 92.3707C54.174 92.4232 54.2219 92.5016 54.2362 92.5889C55.215 95.2144 56.1933 97.8388 57.1713 100.462L57.25 100.673L57.2822 100.663Z" fill="#6E6A97"/>
    </g>
    <defs>
        <clipPath id="clip0_17_98602">
            <rect width="14.3033" height="13.5484" fill="white" transform="translate(367.006) rotate(47.3642)"/>
        </clipPath>
        <clipPath id="clip1_17_98602">
            <rect width="14.3033" height="13.5484" fill="white" transform="translate(299.161 72.5674) rotate(96.8642)"/>
        </clipPath>
        <clipPath id="clip2_17_98602">
            <rect width="40.2243" height="38.1905" fill="white" transform="translate(327.407 14.3398) rotate(42.0762)"/>
        </clipPath>
        <clipPath id="clip3_17_98602">
            <rect width="22.5979" height="21.468" fill="white" transform="translate(369.065 39.5186) rotate(-34.4024)"/>
        </clipPath>
        <clipPath id="clip4_17_98602">
            <rect width="14.3033" height="13.5484" fill="white" transform="matrix(-0.677336 0.735674 0.735674 0.677336 32.8335 0)"/>
        </clipPath>
        <clipPath id="clip5_17_98602">
            <rect width="14.3033" height="13.5484" fill="white" transform="matrix(0.119516 0.992832 0.992832 -0.119516 100.679 72.5674)"/>
        </clipPath>
        <clipPath id="clip6_17_98602">
            <rect width="40.2243" height="38.1905" fill="white" transform="matrix(-0.742254 0.670119 0.670119 0.742254 72.4331 14.3398)"/>
        </clipPath>
        <clipPath id="clip7_17_98602">
            <rect width="22.5979" height="21.468" fill="white" transform="matrix(-0.82509 -0.565002 -0.565002 0.82509 30.7749 39.5186)"/>
        </clipPath>
    </defs>
</svg>