<svg width="88" height="48" viewBox="0 0 88 48" fill="none" xmlns="http://www.w3.org/2000/svg">
<g opacity="0.2">
<path fill-rule="evenodd" clip-rule="evenodd" d="M32.082 4.75C32.082 0.193651 35.7757 -3.5 40.332 -3.5H47.6654C52.2217 -3.5 55.9154 0.193651 55.9154 4.75V8.41667H32.082V4.75ZM26.582 8.41667V4.75C26.582 -2.84392 32.7381 -9 40.332 -9H47.6654C55.2593 -9 61.4154 -2.84392 61.4154 4.75V8.41667H65.9987C74.0989 8.41667 80.6654 14.9832 80.6654 23.0833V31.3333H50.799C49.7111 28.6458 47.0763 26.75 43.9987 26.75C40.9211 26.75 38.2863 28.6458 37.1984 31.3333H7.33203V23.0833C7.33203 14.9832 13.8985 8.41667 21.9987 8.41667H26.582ZM50.799 36.8333H80.6654V52.4167C80.6654 60.5168 74.0989 67.0833 65.9987 67.0833H21.9987C13.8985 67.0833 7.33203 60.5168 7.33203 52.4167V36.8333H37.1984C38.2863 39.5208 40.9211 41.4167 43.9987 41.4167C47.0763 41.4167 49.7111 39.5208 50.799 36.8333Z" fill="#EAEBF3"/>
</g>
</svg>
