<svg width="107" height="48" viewBox="0 0 107 48" fill="none" xmlns="http://www.w3.org/2000/svg">
<g opacity="0.2">
<path fill-rule="evenodd" clip-rule="evenodd" d="M53.5013 31.0391C60.8881 31.0391 66.8763 25.0509 66.8763 17.6641C66.8763 10.2773 60.8881 4.28906 53.5013 4.28906C46.1145 4.28906 40.1263 10.2773 40.1263 17.6641C40.1263 25.0509 46.1145 31.0391 53.5013 31.0391ZM53.5013 66.7057C68.2749 66.7057 80.2513 60.7175 80.2513 53.3307C80.2513 45.9439 68.2749 39.9557 53.5013 39.9557C38.7277 39.9557 26.7513 45.9439 26.7513 53.3307C26.7513 60.7175 38.7277 66.7057 53.5013 66.7057ZM28.4528 40.0434C17.4422 40.7225 8.91797 45.4159 8.91797 51.1049C8.91797 55.7949 14.7115 59.8084 22.9155 61.4537C21.0822 58.9713 20.0638 56.224 20.0638 53.3341C20.0638 48.2363 23.2326 43.5826 28.4528 40.0434ZM86.9391 53.3341C86.9391 56.224 85.9207 58.9713 84.0874 61.4537C92.2914 59.8084 98.085 55.7949 98.085 51.1049C98.085 45.4159 89.5607 40.7225 78.5501 40.0434C83.7703 43.5826 86.9391 48.2363 86.9391 53.3341ZM70.0785 28.9677C72.2776 25.7488 73.5636 21.8566 73.5636 17.6641C73.5636 16.2728 73.422 14.9146 73.1524 13.6031C73.9867 13.3448 74.8735 13.2057 75.7927 13.2057C80.7173 13.2057 84.7094 17.1979 84.7094 22.1224C84.7094 27.0469 80.7173 31.0391 75.7927 31.0391C73.6184 31.0391 71.6259 30.2608 70.0785 28.9677ZM31.2096 13.2057C32.1289 13.2057 33.0156 13.3448 33.85 13.6031C33.5804 14.9146 33.4388 16.2728 33.4388 17.6641C33.4388 21.8566 34.7248 25.7488 36.9239 28.9677C35.3765 30.2608 33.384 31.0391 31.2096 31.0391C26.2851 31.0391 22.293 27.0469 22.293 22.1224C22.293 17.1979 26.2851 13.2057 31.2096 13.2057Z" fill="#EAEBF3"/>
</g>
</svg>
