<svg viewBox="0 0 247 247" version="1.1" xmlns="http://www.w3.org/2000/svg" xmlns:xlink="http://www.w3.org/1999/xlink" class="icon-component" style="width: 18px; height: auto;"><g id="Page-1" stroke="none" stroke-width="1" fill="none" fill-rule="evenodd"><g id="Desktop-HD" transform="translate(-729.000000, -291.000000)"><g id="Group-2" transform="translate(729.000000, 291.000000)"><path d="M147,-8.52651283e-14 C202.228475,-8.52651283e-14 247,45.2192403 247,101 C247,130.598658 234.394007,157.223585 214.308762,175.696773 C216.719059,166.366812 218,156.582996 218,146.5 C218,82.1588266 165.841173,30 101.5,30 C91.4804915,30 81.756407,31.2648607 72.4787118,33.6436169 C90.7892179,12.9962389 117.391919,-8.52651283e-14 147,-8.52651283e-14 Z" id="Combined-Shape" fill="#4D8749"></path> <path d="M101,45.5 C128.752309,45.5 153.877309,56.7488457 172.064232,74.9357685 C190.251154,93.1226913 201.5,118.247691 201.5,146 C201.5,173.752309 190.251154,198.877309 172.064232,217.064232 C153.877309,235.251154 128.752309,246.5 101,246.5 C73.2476913,246.5 48.1226913,235.251154 29.9357685,217.064232 C11.7488457,198.877309 0.5,173.752309 0.5,146 C0.5,118.247691 11.7488457,93.1226913 29.9357685,74.9357685 C48.1226913,56.7488457 73.2476913,45.5 101,45.5 Z M101.492563,121.213343 C98.8414024,121.213343 96.1523446,122.216824 93.9946105,124.256652 L93.9946105,124.256652 L79.8474567,138.403806 L79.6013486,138.65819 C77.7538588,140.632245 76.8111768,143.145507 76.7732688,145.669823 C76.7336351,148.309047 77.6796307,150.963073 79.8425557,153.248147 L79.8425557,153.248147 L93.9895924,167.395184 L94.2439765,167.641292 C96.2180312,169.488782 98.731293,170.431464 101.255609,170.469372 C103.894834,170.509006 106.54886,169.56301 108.833934,167.400085 L108.833934,167.400085 L122.98097,153.253048 L123.227079,152.998664 C125.074568,151.024609 126.01725,148.511348 126.055158,145.987031 C126.094792,143.347807 125.148796,140.693781 122.985871,138.408707 L122.985871,138.408707 L108.838835,124.26167 L108.582758,124.01398 C106.595396,122.154895 104.060996,121.213343 101.492563,121.213343 Z" id="Combined-Shape" stroke="#979797" fill="#96F168"></path></g></g></g></svg>