<svg width="18" height="18" viewBox="0 0 18 18" fill="none" xmlns="http://www.w3.org/2000/svg" class="icon-component" style="width: 18px; height: auto;"><path d="M15.4721 9.12563C15.4458 9.13414 15.4191 9.14128 15.3917 9.14705L15.3467 9.15653C15.1395 9.20047 14.9274 9.16106 14.7499 9.04557C14.5722 8.93007 14.4501 8.75237 14.4061 8.545C14.3143 8.11228 14.5051 7.66472 14.8809 7.4314L16.8223 6.22592C17.206 5.98766 17.401 5.53063 17.3072 5.08884L17.2438 4.7896C17.1207 4.20938 16.5485 3.83736 15.9681 3.96041C15.6867 4.01987 15.446 4.18563 15.2893 4.4265C15.1327 4.66751 15.0793 4.95494 15.1389 5.23606L15.1912 5.48297C15.2278 5.65505 15.3974 5.76532 15.5694 5.72879C15.6528 5.71135 15.7242 5.66205 15.7706 5.59064C15.8172 5.51923 15.833 5.43395 15.8153 5.35073C15.7769 5.16986 15.8922 4.99257 16.0733 4.95384C16.2542 4.91553 16.4317 5.03102 16.47 5.21175C16.5832 5.74486 16.2419 6.27056 15.7083 6.38372C15.4501 6.43851 15.186 6.38935 14.9646 6.24556C14.7433 6.10164 14.5912 5.88013 14.5365 5.62195L14.4841 5.37503C14.3875 4.9191 14.4741 4.45259 14.728 4.06176C14.9822 3.67092 15.3732 3.40258 15.8293 3.30576C16.7705 3.10608 17.6989 3.70951 17.8985 4.6509L17.962 4.95C18.114 5.66686 17.7979 6.40816 17.1754 6.79474L15.2341 8.00022C15.097 8.08536 15.0274 8.24851 15.0609 8.4063C15.0701 8.44997 15.0985 8.474 15.1146 8.48458C15.1307 8.49501 15.1643 8.51108 15.208 8.50188L15.253 8.49227C15.2964 8.48307 15.3206 8.45464 15.331 8.43857C15.3415 8.4225 15.3577 8.389 15.3485 8.34532C15.31 8.16446 15.4257 7.98676 15.6064 7.94844C15.7871 7.91013 15.9648 8.02562 16.0031 8.20635C16.0472 8.41371 16.0078 8.62575 15.8923 8.80345C15.7921 8.95754 15.6448 9.06987 15.4721 9.12563Z" fill="url(#paint0_radial_453_1445)"></path> <path d="M2.52766 9.12563C2.55389 9.13414 2.58067 9.14128 2.608 9.14705L2.65304 9.15653C2.86027 9.20047 3.07231 9.16106 3.24988 9.04557C3.42758 8.93007 3.54967 8.75237 3.59361 8.545C3.68548 8.11228 3.4946 7.66472 3.11886 7.4314L1.17744 6.22592C0.793607 5.98766 0.598737 5.53063 0.692533 5.08884L0.755979 4.7896C0.879026 4.20938 1.45128 3.83736 2.03163 3.96041C2.31288 4.01987 2.55375 4.18563 2.71045 4.4265C2.867 4.66751 2.92042 4.95494 2.86082 5.23606L2.8085 5.48297C2.77197 5.65505 2.60237 5.76532 2.4303 5.72879C2.34694 5.71135 2.27553 5.66205 2.22911 5.59064C2.18255 5.51923 2.16676 5.43395 2.18448 5.35073C2.22279 5.16986 2.10743 4.99257 1.92644 4.95384C1.74557 4.91553 1.56801 5.03102 1.52969 5.21175C1.41653 5.74486 1.7578 6.27056 2.29132 6.38372C2.54963 6.43851 2.81372 6.38935 3.03509 6.24556C3.25647 6.10164 3.40849 5.88013 3.46329 5.62195L3.51561 5.37503C3.61229 4.9191 3.52563 4.45259 3.27157 4.06176C3.01751 3.67092 2.6264 3.40258 2.17047 3.30576C1.22922 3.10608 0.300871 3.70951 0.101194 4.6509L0.0377481 4.94986C-0.114275 5.66672 0.201856 6.40802 0.824369 6.7946L2.76579 8.00008C2.90271 8.08522 2.97233 8.24837 2.93883 8.40616C2.92962 8.44983 2.9012 8.474 2.88513 8.48444C2.86906 8.49488 2.83555 8.51108 2.79175 8.50174L2.7467 8.49227C2.70331 8.48293 2.67914 8.45464 2.6687 8.43843C2.65812 8.42237 2.64206 8.38886 2.65126 8.34519C2.68957 8.16432 2.57408 7.98662 2.39335 7.94831C2.21249 7.90999 2.03493 8.02549 1.99647 8.20635C1.95253 8.41358 1.99194 8.62561 2.10743 8.80332C2.20769 8.95754 2.3549 9.06987 2.52766 9.12563Z" fill="url(#paint1_radial_453_1445)"></path> <path d="M14.4843 5.37675L14.5367 5.62367C14.5915 5.88199 14.7435 6.10336 14.9649 6.24728C15.1862 6.39107 15.4503 6.44023 15.7085 6.38544C16.2422 6.27228 16.5834 5.74658 16.4703 5.21361C16.4319 5.03275 16.2542 4.91725 16.0735 4.95557C15.8925 4.99429 15.7772 5.17172 15.8155 5.35245C15.8332 5.43581 15.8174 5.52095 15.7708 5.5925C15.7244 5.66391 15.653 5.71321 15.5696 5.73065C15.3976 5.76704 15.228 5.65677 15.1914 5.48483L15.1391 5.23792C15.0895 5.00432 15.1184 4.76646 15.2192 4.55443L14.7282 4.06348C14.4743 4.45432 14.3877 4.92082 14.4843 5.37675Z" fill="url(#paint2_linear_453_1445)"></path> <path d="M15.8927 8.80489C16.0082 8.62718 16.0476 8.41515 16.0037 8.20778C15.9652 8.02705 15.7876 7.91156 15.6068 7.94987C15.4262 7.98819 15.3104 8.16589 15.3489 8.34676C15.3581 8.39043 15.342 8.42393 15.3316 8.44C15.3211 8.45607 15.297 8.4845 15.2534 8.4937L15.2084 8.50331C15.1647 8.51251 15.1312 8.49644 15.1151 8.48601C15.0989 8.47557 15.0706 8.4514 15.0613 8.40773C15.0336 8.27658 15.0771 8.142 15.1712 8.05122L14.6979 7.57812C14.4465 7.82655 14.3313 8.19144 14.4065 8.54657C14.4506 8.75394 14.5727 8.93164 14.7503 9.04713C14.928 9.16263 15.14 9.20204 15.3471 9.1581L15.3921 9.14862C15.4196 9.14272 15.4464 9.13557 15.4726 9.1272C15.6452 9.07144 15.7925 8.95911 15.8927 8.80489Z" fill="url(#paint3_linear_453_1445)"></path> <path d="M13.2184 15.6379C13.2184 15.0445 11.3298 14.5635 9.00029 14.5635C6.67078 14.5635 4.78223 15.0445 4.78223 15.6379C4.78223 16.2313 6.67078 16.7124 9.00029 16.7124C11.3298 16.7124 13.2184 16.2313 13.2184 15.6379Z" fill="url(#paint4_radial_453_1445)"></path> <path d="M12.4695 16.2489C11.708 16.5288 10.4382 16.7121 8.99983 16.7121C8.73685 16.7121 8.47949 16.7061 8.22983 16.6943L6.76961 15.2341C6.74571 15.215 6.72758 15.1955 6.71619 15.1753C6.71385 15.1716 6.71179 15.1681 6.71014 15.1644C6.70836 15.1607 6.70712 15.157 6.70575 15.1534C6.70479 15.1507 6.70369 15.1477 6.703 15.1447C6.70067 15.1366 6.69971 15.1282 6.69971 15.1198C6.69971 15.1131 6.70067 15.1059 6.70204 15.0992H6.69971L6.70245 15.0975C6.71687 15.0349 6.79282 14.9755 6.91833 14.9216C6.94498 14.9102 6.97189 14.8988 6.9984 14.887C7.04756 14.8655 7.09659 14.8432 7.14507 14.8204C7.14905 14.8186 7.15317 14.8167 7.15688 14.8151C7.22787 14.7814 7.29819 14.7467 7.36781 14.7108C7.40736 14.6904 7.44637 14.6689 7.48537 14.6474C7.49457 14.6422 7.50391 14.6372 7.51311 14.632H7.51379C7.97591 14.5876 8.47675 14.5635 8.99983 14.5635C9.52292 14.5635 10.0238 14.5876 10.4859 14.632C10.6784 14.7406 10.8781 14.8346 11.0813 14.9216C11.1368 14.9455 11.1828 14.9704 11.2182 14.9963L11.2185 14.998L12.4695 16.2489Z" fill="url(#paint5_linear_453_1445)"></path> <path d="M14.6645 3.79555L14.3108 2.34082H3.68898L3.33536 3.79555C3.0585 4.93387 3.03035 6.09348 3.22797 7.20515C3.6199 9.40929 5.23064 11.1324 7.28742 11.7571C7.95813 11.9607 8.41846 12.5769 8.41846 13.278V13.2783C8.41846 13.7956 8.1416 14.2733 7.69281 14.5306L7.54367 14.6161C7.34207 14.7316 7.13196 14.8308 6.91855 14.9224C6.79289 14.9762 6.71695 15.0357 6.70239 15.0984L6.69965 15.1001H6.70226C6.70075 15.1068 6.69965 15.1137 6.69965 15.1205C6.69965 15.3776 7.72962 15.5859 8.99991 15.5859C10.2702 15.5859 11.3002 15.3776 11.3002 15.1205C11.3002 15.1137 11.2991 15.1068 11.2976 15.1001H11.3002L11.2974 15.0984C11.2829 15.0357 11.2068 14.9762 11.0813 14.9224C10.8677 14.8308 10.6576 14.7316 10.456 14.6161L10.307 14.5306C9.85822 14.2733 9.58136 13.7956 9.58136 13.2783C9.58136 12.5766 10.0425 11.9607 10.7139 11.7569C12.762 11.135 14.3696 9.4248 14.767 7.23248C14.8549 6.74744 14.8998 6.25333 14.8998 5.75565C14.8998 5.10374 14.8228 4.44608 14.6645 3.79555Z" fill="url(#paint6_linear_453_1445)"></path> <path d="M14.6645 3.79555L14.3108 2.34082H3.68898L3.33536 3.79555C3.0585 4.93387 3.03035 6.09348 3.22797 7.20515C3.6199 9.40929 5.23064 11.1324 7.28742 11.7571C7.60245 11.8526 7.87106 12.0394 8.06731 12.283L9.76401 13.9797C9.64659 13.7687 9.58136 13.5282 9.58136 13.2783C9.58136 12.5766 10.0425 11.9607 10.7139 11.7569C12.762 11.135 14.3696 9.4248 14.767 7.23248C14.8549 6.74744 14.8998 6.25333 14.8998 5.75565C14.8998 5.10374 14.8228 4.44608 14.6645 3.79555Z" fill="url(#paint7_linear_453_1445)"></path> <path d="M14.9002 5.75578C14.9002 6.25346 14.8553 6.74757 14.7675 7.23262C14.2643 10.0083 11.8215 12.0113 9.00045 12.0113C6.16914 12.0113 3.72399 9.99294 3.22851 7.20515C3.03089 6.09361 3.05891 4.93401 3.33576 3.79568L3.68939 2.34082H14.3114L14.6649 3.79568C14.8232 4.44621 14.9002 5.10388 14.9002 5.75578Z" fill="url(#paint8_radial_453_1445)"></path> <path d="M14.3108 2.34009C14.3108 1.74669 11.933 1.26562 9.00011 1.26562C6.06717 1.26562 3.68945 1.74669 3.68945 2.34009C3.68945 2.93349 6.06717 3.41455 9.00011 3.41455C11.933 3.41455 14.3108 2.93349 14.3108 2.34009Z" fill="url(#paint9_linear_453_1445)"></path> <path d="M13.8007 2.24954C13.8007 1.80652 11.6514 1.44727 8.99997 1.44727C6.34856 1.44727 4.19922 1.80652 4.19922 2.24954C4.19922 2.69257 6.34856 3.05168 8.99997 3.05168C11.6514 3.05168 13.8007 2.69257 13.8007 2.24954Z" fill="url(#paint10_linear_453_1445)"></path> <defs><radialGradient id="paint0_radial_453_1445" cx="0" cy="0" r="1" gradientUnits="userSpaceOnUse" gradientTransform="translate(14.1669 5.28557) rotate(-17.8787) scale(3.77756)"><stop stop-color="#FFE548"></stop> <stop offset="0.4308" stop-color="#FFE346"></stop> <stop offset="0.636" stop-color="#FFDC3E"></stop> <stop offset="0.7935" stop-color="#FFD031"></stop> <stop offset="0.9257" stop-color="#FFBF1F"></stop> <stop offset="1" stop-color="#FFB211"></stop></radialGradient> <radialGradient id="paint1_radial_453_1445" cx="0" cy="0" r="1" gradientUnits="userSpaceOnUse" gradientTransform="translate(3.83279 5.28557) rotate(-162.121) scale(3.77756)"><stop stop-color="#FFE548"></stop> <stop offset="0.4308" stop-color="#FFE346"></stop> <stop offset="0.636" stop-color="#FFDC3E"></stop> <stop offset="0.7935" stop-color="#FFD031"></stop> <stop offset="0.9257" stop-color="#FFBF1F"></stop> <stop offset="1" stop-color="#FFB211"></stop></radialGradient> <linearGradient id="paint2_linear_453_1445" x1="15.7717" y1="5.3107" x2="13.8133" y2="5.09509" gradientUnits="userSpaceOnUse"><stop stop-color="#FFB211" stop-opacity="0"></stop> <stop offset="0.2281" stop-color="#FF9F19" stop-opacity="0.227451"></stop> <stop offset="0.6863" stop-color="#FF6F2E" stop-opacity="0.686275"></stop> <stop offset="1" stop-color="#FF4B3E"></stop></linearGradient> <linearGradient id="paint3_linear_453_1445" x1="15.4402" y1="8.4344" x2="13.9037" y2="8.26525" gradientUnits="userSpaceOnUse"><stop stop-color="#FFB211" stop-opacity="0"></stop> <stop offset="0.2281" stop-color="#FF9F19" stop-opacity="0.227451"></stop> <stop offset="0.6863" stop-color="#FF6F2E" stop-opacity="0.686275"></stop> <stop offset="1" stop-color="#FF4B3E"></stop></linearGradient> <radialGradient id="paint4_radial_453_1445" cx="0" cy="0" r="1" gradientUnits="userSpaceOnUse" gradientTransform="translate(8.53477 14.4466) scale(5.13203 2.26887)"><stop stop-color="#FFE548"></stop> <stop offset="0.4412" stop-color="#FFE346"></stop> <stop offset="0.6434" stop-color="#FFDC3E"></stop> <stop offset="0.7968" stop-color="#FFD032"></stop> <stop offset="0.9248" stop-color="#FFC020"></stop> <stop offset="1" stop-color="#FFB211"></stop></radialGradient> <linearGradient id="paint5_linear_453_1445" x1="9.66679" y1="16.2094" x2="9.24342" y2="13.5243" gradientUnits="userSpaceOnUse"><stop stop-color="#FFB211" stop-opacity="0"></stop> <stop offset="0.2281" stop-color="#FF9F19" stop-opacity="0.227451"></stop> <stop offset="0.6863" stop-color="#FF6F2E" stop-opacity="0.686275"></stop> <stop offset="1" stop-color="#FF4B3E"></stop></linearGradient> <linearGradient id="paint6_linear_453_1445" x1="8.67923" y1="8.96334" x2="10.199" y2="8.96334" gradientUnits="userSpaceOnUse"><stop stop-color="#FFE548"></stop> <stop offset="1" stop-color="#FFB211"></stop></linearGradient> <linearGradient id="paint7_linear_453_1445" x1="10.9099" y1="13.1304" x2="9.76492" y2="8.67775" gradientUnits="userSpaceOnUse"><stop stop-color="#FFB211" stop-opacity="0"></stop> <stop offset="0.181" stop-color="#FF931F" stop-opacity="0.180392"></stop> <stop offset="0.4007" stop-color="#FF732C" stop-opacity="0.4"></stop> <stop offset="0.6147" stop-color="#FF5D36" stop-opacity="0.615686"></stop> <stop offset="0.8182" stop-color="#FF503C" stop-opacity="0.819608"></stop> <stop offset="1" stop-color="#FF4B3E"></stop></linearGradient> <radialGradient id="paint8_radial_453_1445" cx="0" cy="0" r="1" gradientUnits="userSpaceOnUse" gradientTransform="translate(5.27773 3.28827) scale(10.5048)"><stop stop-color="#FFE548"></stop> <stop offset="0.4308" stop-color="#FFE346"></stop> <stop offset="0.636" stop-color="#FFDC3E"></stop> <stop offset="0.7935" stop-color="#FFD031"></stop> <stop offset="0.9257" stop-color="#FFBF1F"></stop> <stop offset="1" stop-color="#FFB211"></stop></radialGradient> <linearGradient id="paint9_linear_453_1445" x1="6.17054" y1="0.548775" x2="12.0754" y2="4.2872" gradientUnits="userSpaceOnUse"><stop stop-color="#FFE548"></stop> <stop offset="1" stop-color="#FFB211"></stop></linearGradient> <linearGradient id="paint10_linear_453_1445" x1="8.99997" y1="4.28498" x2="8.99997" y2="0.0858264" gradientUnits="userSpaceOnUse"><stop stop-color="#FFB211" stop-opacity="0"></stop> <stop offset="0.2281" stop-color="#FF9F19" stop-opacity="0.227451"></stop> <stop offset="0.6863" stop-color="#FF6F2E" stop-opacity="0.686275"></stop> <stop offset="1" stop-color="#FF4B3E"></stop></linearGradient></defs></svg>