<svg width="16" height="16" viewBox="0 0 16 16" xmlns="http://www.w3.org/2000/svg" class="icon-component icon-img" style="width: 16px; height: auto;"><path d="M4.25 4.6875C4.96594 4.6875 5.59656 4.49207 6.11731 4.24268C5.58862 5.23743 5.27185 6.38892 5.20898 7.57642C3.09509 7.80334 1.4375 9.57678 1.4375 11.75C1.4375 14.0763 3.32996 16 5.65625 16C6.37292 16 7.05945 15.7981 7.67517 15.4603C6.71997 14.5239 6.125 13.1902 6.125 11.75C6.125 10.3098 6.71997 9.00732 7.67517 8.07092C7.20105 7.81079 6.68445 7.63391 6.14502 7.56519C6.34888 4.25195 8.85107 1.51904 12.0773 1.02039C11.2556 2.17395 10.8125 3.55042 10.8125 4.99561V7.57861C8.70886 7.81531 7.0625 9.58411 7.0625 11.75C7.0625 14.0763 8.95496 16 11.2812 16C13.6075 16 15.5 14.0763 15.5 11.75C15.5 9.58411 13.8536 7.81531 11.75 7.57861V4.99561C11.75 3.41077 12.3671 1.92078 13.4877 0.800171L14.2878 0H13.1562C10.9546 0 8.95923 0.897827 7.5155 2.34607C7.13647 1.98218 5.92114 0.9375 4.25 0.9375C2.27246 0.9375 0.919312 2.41101 0.853882 2.47375L0.5 2.8125L0.853882 3.15125C0.919312 3.21399 2.27246 4.6875 4.25 4.6875ZM11.2812 10.3438C10.5059 10.3438 9.875 10.9746 9.875 11.75H8.9375C8.9375 10.4578 9.98901 9.40625 11.2812 9.40625V10.3438ZM5.65625 10.3438C4.88086 10.3438 4.25 10.9746 4.25 11.75H3.3125C3.3125 10.4578 4.36401 9.40625 5.65625 9.40625V10.3438Z"></path></svg>