<svg xmlns="http://www.w3.org/2000/svg" width="32" height="32" viewBox="0 0 32 32" fill="none" class="icon-component eighteenPlus" icon-size="100"><path d="M27.3137 4.68625C24.2917 1.66431 20.2737 0 16 0C11.7263 0 7.70825 1.66431 4.68625 4.68625C1.66431 7.70831 0 11.7263 0 16C0 20.2737 1.66431 24.2917 4.68625 27.3137C7.70825 30.3357 11.7263 32 16 32C20.2737 32 24.2917 30.3357 27.3137 27.3137C30.3357 24.2917 32 20.2737 32 16C32 11.7263 30.3357 7.70831 27.3137 4.68625V4.68625ZM25.9879 25.9879C23.32 28.6558 19.7729 30.125 16 30.125C12.2271 30.125 8.68 28.6558 6.01213 25.9879C3.34425 23.32 1.875 19.7729 1.875 16C1.875 12.2271 3.34425 8.68 6.01213 6.01213C8.68 3.34425 12.2271 1.875 16 1.875C19.7729 1.875 23.32 3.34425 25.9879 6.01213C28.6558 8.68 30.125 12.2271 30.125 16C30.125 19.7729 28.6558 23.32 25.9879 25.9879Z" fill="#6E6A97"></path> <path d="M13.0759 9.3418C12.8527 9.3418 12.7039 9.41623 12.5738 9.54636L10.6396 11.4061C10.3978 11.5736 10.249 11.8897 10.249 12.1687C10.249 12.5592 10.528 12.9684 10.9185 12.9684C11.0301 12.9684 11.1975 12.9125 11.3276 12.7823L11.9786 11.964V22.3042C11.9786 22.7321 12.4621 22.9552 12.9642 22.9552C13.4478 22.9552 13.9499 22.7321 13.9499 22.3042V9.9928C13.95 9.58361 13.485 9.3418 13.0759 9.3418Z" fill="#EAEBF3"></path> <path d="M23.36 15.5356C24.4015 15.1451 25.1082 14.2153 25.1082 12.6345C25.1082 10.254 23.5088 9.36133 21.3329 9.36133C19.157 9.36133 17.5576 10.254 17.5576 12.6345C17.5576 14.2153 18.2644 15.1451 19.2872 15.5356C18.004 16.0006 17.1484 17.0979 17.1484 19.0135V19.2366C17.1484 22.0077 18.9896 23.0678 21.3329 23.0678C23.6762 23.0678 25.4988 22.0077 25.4988 19.2366V19.0135C25.4987 17.0979 24.6433 16.0006 23.36 15.5356ZM21.3329 10.9979C22.5045 10.9979 23.1926 11.5372 23.1926 12.8576C23.1926 14.1966 22.5045 14.736 21.3329 14.736C20.1612 14.736 19.4731 14.1966 19.4731 12.8576C19.4731 11.5372 20.1612 10.9979 21.3329 10.9979ZM23.5273 19.0321C23.5273 20.65 22.7276 21.4311 21.3329 21.4311C19.9752 21.4311 19.1198 20.6873 19.1198 19.0321V18.6973C19.1198 17.0979 19.9566 16.3726 21.3329 16.3726C22.7091 16.3726 23.5273 17.0979 23.5273 18.6973V19.0321Z" fill="#EAEBF3"></path> <path d="M8.54199 15.0625H7.60449V14.125C7.60449 13.6072 7.18474 13.1875 6.66699 13.1875C6.14924 13.1875 5.72949 13.6072 5.72949 14.125V15.0625H4.79199C4.27424 15.0625 3.85449 15.4822 3.85449 16C3.85449 16.5178 4.27424 16.9375 4.79199 16.9375H5.72949V17.875C5.72949 18.3927 6.14924 18.8125 6.66699 18.8125C7.18474 18.8125 7.60449 18.3927 7.60449 17.875V16.9375H8.54199C9.05974 16.9375 9.47949 16.5178 9.47949 16C9.47949 15.4822 9.05974 15.0625 8.54199 15.0625Z" fill="#EAEBF3"></path></svg>