<svg data-v-2ce3d928="" width="16" height="16" viewBox="0 0 16 16" xmlns="http://www.w3.org/2000/svg" class="icon-component icon-img" style="width: 16px; height: auto;"><path d="M15.5592 5.37598L13.3872 6.27566C13.5617 6.81948 13.6562 7.39876 13.6562 7.99976C13.6562 8.60076 13.5617 9.18004 13.3872 9.72385L15.5592 10.6235C15.8445 9.80154 16 8.91885 16 7.99976C16 7.08066 15.8445 6.19798 15.5592 5.37598Z"></path> <path d="M8.00022 0C7.08112 0 6.19843 0.155469 5.37646 0.44075L6.27615 2.61278C6.81997 2.43831 7.39921 2.34375 8.00022 2.34375C8.60122 2.34375 9.18046 2.43831 9.72431 2.61278L10.624 0.44075C9.802 0.155469 8.91931 0 8.00022 0Z"></path> <path d="M9.72382 13.3877C9.18001 13.5622 8.60076 13.6567 7.99976 13.6567C7.39876 13.6567 6.81951 13.5622 6.27566 13.3877L5.37598 15.5597C6.19798 15.845 7.08066 16.0005 7.99976 16.0005C8.91885 16.0005 9.80154 15.845 10.6235 15.5597L9.72382 13.3877Z"></path> <path d="M13.0275 10.5898C12.4879 11.6331 11.6331 12.4879 10.5898 13.0275L11.4899 15.2004C13.1048 14.4162 14.4162 13.1048 15.2004 11.4899L13.0275 10.5898Z"></path> <path d="M2.97268 10.5898L0.799805 11.4899C1.58399 13.1048 2.89537 14.4162 4.51034 15.2004L5.41037 13.0275C4.36712 12.4879 3.51227 11.6331 2.97268 10.5898Z"></path> <path d="M4.51034 0.799805C2.8954 1.58399 1.58399 2.89537 0.799805 4.51034L2.97268 5.41037C3.51227 4.36712 4.36712 3.51227 5.41037 2.97268L4.51034 0.799805Z"></path> <path d="M11.4899 0.799805L10.5898 2.97268C11.6331 3.51227 12.4879 4.36712 13.0275 5.41037L15.2004 4.51034C14.4162 2.8954 13.1048 1.58399 11.4899 0.799805Z"></path> <path d="M2.61278 6.27566L0.44075 5.37598C0.155469 6.19798 0 7.08066 0 7.99976C0 8.91885 0.155469 9.80154 0.44075 10.6235L2.61278 9.72385C2.43831 9.18004 2.34375 8.60076 2.34375 7.99976C2.34375 7.39876 2.43831 6.81948 2.61278 6.27566Z"></path> <path d="M8 3.28125C5.39806 3.28125 3.28125 5.39806 3.28125 8C3.28125 10.6019 5.39806 12.7188 8 12.7188C10.6019 12.7188 12.7188 10.6019 12.7188 8C12.7188 5.39806 10.6019 3.28125 8 3.28125ZM8 11.3125C6.1735 11.3125 4.6875 9.82653 4.6875 8C4.6875 6.17347 6.1735 4.6875 8 4.6875C9.8265 4.6875 11.3125 6.17347 11.3125 8C11.3125 9.82653 9.8265 11.3125 8 11.3125Z"></path> <path d="M8 5.625C6.69044 5.625 5.625 6.69041 5.625 8C5.625 9.30959 6.69044 10.375 8 10.375C9.30956 10.375 10.375 9.30959 10.375 8C10.375 6.69041 9.30956 5.625 8 5.625Z"></path></svg>