<svg width="22" height="22" viewBox="0 0 22 22" fill="none" xmlns="http://www.w3.org/2000/svg" class="icon-component"><circle cx="11" cy="11" r="8.25" fill="#9DE9EE"></circle> <g clip-path="url(#clip0_801_10920)"><path d="M22 11C22 17.0751 17.0751 22 11 22C7.79743 22 4.91453 20.6315 2.90445 18.4472C2.37645 17.8739 1.90906 17.244 1.51127 16.5682C0.550898 14.9349 0 13.0316 0 11C0 4.92486 4.92486 0 11 0C13.0321 0 14.9353 0.550898 16.5682 1.51171C17.244 1.90906 17.8734 2.37645 18.4468 2.9049C20.6311 4.91408 22 7.79743 22 11Z" fill="#1D6AFF"></path> <path d="M21.9999 11.0002C21.9999 16.9384 17.2951 21.7775 11.4094 21.9925C5.5237 21.7775 0.818848 16.9384 0.818848 11.0002C0.818848 5.06198 5.5237 0.222874 11.4094 0.0078125C17.2951 0.222874 21.9999 5.06198 21.9999 11.0002Z" fill="#7CA1FF"></path> <path d="M18.4467 2.9049L2.90441 18.4472C2.37641 17.8739 1.90903 17.244 1.51123 16.5682L16.5682 1.51172C17.2439 1.90907 17.8734 2.37645 18.4467 2.9049Z" fill="#1D6AFF"></path> <path d="M21.2413 6.97883L6.97814 21.242C5.96838 20.8451 5.03136 20.3032 4.19312 19.6418L19.6416 4.19336C20.303 5.0316 20.8449 5.96862 21.2413 6.97883Z" fill="#1D6AFF"></path> <path d="M19.5477 10.9998C19.5477 15.7204 15.7206 19.5475 11.0001 19.5475C9.3559 19.5475 7.82039 19.0832 6.517 18.2787C5.94905 17.9285 5.42553 17.5132 4.9559 17.0435C4.61064 16.6987 4.29456 16.3238 4.01215 15.9238C3.62333 15.3729 3.29782 14.7739 3.04684 14.1377C2.67509 13.1971 2.46586 12.1744 2.45329 11.1049C2.45239 11.0699 2.45239 11.0348 2.45239 10.9998C2.45239 6.27925 6.27905 2.45215 11.0001 2.45215C11.0351 2.45215 11.0706 2.45215 11.1056 2.45305C12.175 2.46562 13.1974 2.67529 14.138 3.0466C14.7742 3.29803 15.3731 3.62309 15.924 4.0119C16.3241 4.29476 16.6985 4.61039 17.0438 4.95566C17.5134 5.42484 17.9287 5.9488 18.2789 6.51676C19.0835 7.82015 19.5477 9.35566 19.5477 10.9998Z" fill="#4478FF"></path> <path d="M17.0438 4.95566L4.9559 17.0435C4.61064 16.6987 4.29456 16.3238 4.01215 15.9238C3.62333 15.3729 3.29782 14.7739 3.04684 14.1377C2.67509 13.1971 2.46586 12.1744 2.45329 11.1049C2.45239 11.0699 2.45239 11.0348 2.45239 10.9998C2.45239 6.27925 6.27905 2.45215 11.0001 2.45215C11.0351 2.45215 11.0706 2.45215 11.1056 2.45305C12.175 2.46562 13.1974 2.67529 14.138 3.0466C14.7742 3.29803 15.3731 3.62309 15.924 4.0119C16.3241 4.29476 16.6985 4.61039 17.0438 4.95566Z" fill="#4478FF"></path> <path d="M19.5474 10.9998C19.5474 15.7204 15.7203 19.5475 10.9997 19.5475C10.8377 19.5475 10.6769 19.543 10.5171 19.534C15.0132 19.2839 18.5817 15.5583 18.5817 10.9998C18.5817 6.44133 15.0132 2.7157 10.5171 2.46562C10.6769 2.45664 10.8377 2.45215 10.9997 2.45215C15.7203 2.45215 19.5474 6.27925 19.5474 10.9998Z" fill="#1D6AFF"></path> <g clip-path="url(#clip1_801_10920)"><path d="M7.61914 12.387V13.0516C7.61914 14.1512 8.51359 15.0457 9.61316 15.0457H10.2778V16.7295H11.6072V15.0457H12.1083C13.2981 15.0457 14.2659 14.0778 14.2659 12.8881C14.2659 11.8959 13.5937 11.0352 12.6314 10.7947L11.6072 10.5386V8.39893H12.2719C12.6383 8.39893 12.9365 8.69719 12.9365 9.0636V9.72827H14.2659V9.0636C14.2659 7.96403 13.3714 7.06958 12.2719 7.06958H11.6072V5.38574H10.2778V7.06958H9.77674C8.58695 7.06958 7.61914 8.03739 7.61914 9.22717C7.61914 10.2193 8.29128 11.08 9.25357 11.3205L10.2778 11.5766V13.7163H9.61316C9.24675 13.7163 8.94849 13.418 8.94849 13.0516V12.387H7.61914ZM11.6072 11.909L12.3089 12.0845C12.6785 12.1766 12.9365 12.507 12.9365 12.8881C12.9365 13.3447 12.5649 13.7163 12.1083 13.7163H11.6072V11.909ZM9.57616 10.0307C9.20649 9.93857 8.94849 9.60819 8.94849 9.22715C8.94849 8.77052 9.32008 8.3989 9.77674 8.3989H10.2778V10.2062L9.57616 10.0307Z" fill="white"></path></g></g> <defs><clipPath id="clip0_801_10920"><rect width="22" height="22" fill="white"></rect></clipPath> <clipPath id="clip1_801_10920"><rect width="11.3438" height="11.3438" fill="white" transform="translate(5.27075 5.38574)"></rect></clipPath></defs></svg>