<svg width="18" height="18" viewBox="0 0 18 18" xmlns="http://www.w3.org/2000/svg" class="icon-component" style="width: 21px; height: auto;"><g clip-path="url(#clip0_453_2242)"><path d="M8.99223 2.79334H9.00775C9.16861 2.79591 9.32384 2.73412 9.43894 2.62171C9.55403 2.50929 9.61946 2.35556 9.62068 2.19468V0.620925C9.62156 0.456259 9.55547 0.298309 9.43758 0.183339C9.2557 0.00181778 8.98078 -0.048866 8.74613 0.0558655C8.51148 0.160597 8.36563 0.399087 8.3793 0.655684V2.19468C8.38052 2.35556 8.44595 2.50929 8.56105 2.62171C8.67614 2.73412 8.83137 2.79591 8.99223 2.79334Z"></path> <path d="M9.00784 15.2071H8.99233C8.83146 15.2045 8.67623 15.2663 8.56114 15.3787C8.44604 15.4912 8.38062 15.6449 8.37939 15.8058V17.3795C8.37989 17.5625 8.46094 17.7361 8.60097 17.8539C8.741 17.9718 8.92581 18.022 9.10622 17.9912C9.41193 17.9271 9.62832 17.6539 9.62077 17.3417V15.8058C9.61955 15.6449 9.55413 15.4912 9.43903 15.3787C9.32393 15.2663 9.16871 15.2045 9.00784 15.2071Z"></path> <path d="M5.81939 2.94838C5.96255 3.24557 6.31276 3.3794 6.61763 3.25341C6.9225 3.12743 7.07607 2.78542 6.96767 2.47387L6.36839 1.02114C6.29773 0.847666 6.15194 0.715792 5.97226 0.662826C5.79259 0.609861 5.59858 0.641565 5.44512 0.748969C5.20176 0.937259 5.11793 1.26709 5.24184 1.54873L5.81939 2.94838Z"></path> <path d="M12.1805 15.0515C12.0374 14.7544 11.6872 14.6205 11.3823 14.7465C11.0774 14.8725 10.9238 15.2145 11.0323 15.5261L11.6315 16.9788C11.7626 17.2959 12.126 17.4466 12.4431 17.3155C12.7602 17.1844 12.9109 16.821 12.7798 16.504L12.1805 15.0515Z"></path> <path d="M3.51315 2.63543C3.39033 2.51141 3.22083 2.44506 3.04646 2.45275C2.87208 2.46043 2.70907 2.54143 2.59764 2.67577C2.39384 2.93656 2.42067 3.30931 2.65971 3.53822L3.74964 4.62815C3.90653 4.78504 4.1352 4.84631 4.34951 4.78889C4.56382 4.73146 4.73122 4.56406 4.78865 4.34975C4.84607 4.13544 4.7848 3.90677 4.62791 3.74988L3.51315 2.63543Z"></path> <path d="M14.2506 13.3723C14.0937 13.2155 13.8651 13.1542 13.6507 13.2116C13.4364 13.269 13.269 13.4364 13.2116 13.6507C13.1542 13.8651 13.2155 14.0937 13.3723 14.2506L14.462 15.3402C14.6776 15.5661 15.024 15.6053 15.2847 15.4333C15.4344 15.3277 15.5297 15.1613 15.5452 14.9788C15.5607 14.7962 15.4948 14.6162 15.3651 14.4868L14.2506 13.3723Z"></path> <path d="M6.63068 14.7388C6.48192 14.6697 6.31148 14.6641 6.15849 14.7232C6.00551 14.7823 5.88312 14.9011 5.81944 15.0522L5.22017 16.5046C5.08905 16.8217 5.2398 17.1851 5.55689 17.3162C5.87398 17.4473 6.23732 17.2966 6.36844 16.9795L6.96896 15.5261C7.02898 15.3769 7.02703 15.2099 6.96354 15.0621C6.90004 14.9143 6.78025 14.798 6.63068 14.7388Z"></path> <path d="M2.1944 9.62126C2.35528 9.62004 2.50901 9.55461 2.62143 9.43952C2.73384 9.32442 2.79563 9.1692 2.79306 9.00833V8.99281C2.79563 8.83195 2.73384 8.67672 2.62143 8.56163C2.50901 8.44653 2.35528 8.3811 2.1944 8.37988H0.620645C0.446484 8.3799 0.280342 8.45308 0.162773 8.58157C0.0452033 8.71006 -0.0129755 8.88203 0.00243768 9.0555C0.0425263 9.38378 0.324763 9.62832 0.655403 9.62126H2.1944Z"></path> <path d="M17.379 8.37988H15.8053C15.6444 8.3811 15.4907 8.44653 15.3783 8.56163C15.2658 8.67672 15.204 8.83195 15.2066 8.99281V9.00833C15.204 9.1692 15.2658 9.32442 15.3783 9.43952C15.4907 9.55461 15.6444 9.62004 15.8053 9.62126H17.3412C17.6535 9.62878 17.9267 9.41223 17.9907 9.1064C18.0219 8.92594 17.9719 8.7409 17.8539 8.60081C17.736 8.46071 17.5622 8.37986 17.379 8.37988Z"></path> <path d="M3.26702 11.3818C3.21036 11.2287 3.09414 11.105 2.94483 11.039C2.79552 10.9729 2.62583 10.9701 2.4744 11.0311L1.02106 11.6317C0.788954 11.7282 0.637314 11.9544 0.63623 12.2058C0.644297 12.4206 0.759908 12.6169 0.943835 12.7281C1.12776 12.8393 1.35531 12.8505 1.54927 12.7579L2.94892 12.1807C3.09771 12.1177 3.2151 11.9978 3.27487 11.8477C3.33464 11.6976 3.33182 11.5298 3.26702 11.3818Z"></path> <path d="M1.02095 6.36837L2.4743 6.96889C2.78585 7.07729 3.12786 6.92372 3.25385 6.61885C3.37983 6.31398 3.24601 5.96377 2.94882 5.82061L1.54916 5.24337C1.2674 5.11942 0.937431 5.20309 0.748782 5.44634C0.641864 5.59973 0.610442 5.7934 0.663378 5.97274C0.716315 6.15207 0.847873 6.29763 1.02095 6.36837Z"></path> <path d="M16.9789 11.6323L15.5256 11.0318C15.214 10.9234 14.872 11.0769 14.746 11.3818C14.62 11.6867 14.7539 12.0369 15.0511 12.18L16.5041 12.7806C16.8212 12.9117 17.1845 12.7609 17.3156 12.4438C17.4468 12.1267 17.296 11.7634 16.9789 11.6323Z"></path> <path d="M4.60756 13.3838C4.49564 13.2679 4.34204 13.2014 4.1809 13.1993C4.01976 13.1971 3.86444 13.2594 3.74946 13.3723L2.63501 14.4868C2.5053 14.6162 2.43936 14.7962 2.45487 14.9788C2.47037 15.1613 2.56572 15.3277 2.71539 15.4333C2.97607 15.6053 3.32245 15.5661 3.53811 15.3402L4.62773 14.2506C4.74233 14.1342 4.80486 13.9763 4.80105 13.8129C4.79725 13.6496 4.72745 13.4948 4.60756 13.3838Z"></path> <path d="M12.0706 8.44471L7.72577 5.96195C7.53337 5.8658 7.30491 5.87612 7.12196 5.98922C6.939 6.10231 6.82764 6.30207 6.82764 6.51715V11.4827C6.82764 11.6978 6.939 11.8975 7.12196 12.0106C7.30491 12.1237 7.53337 12.134 7.72577 12.0379L12.0706 9.55512C12.2809 9.45 12.4138 9.23505 12.4138 8.99991C12.4138 8.76478 12.2809 8.54983 12.0706 8.44471Z"></path> <path d="M11.4939 2.97953C11.57 3.01107 11.6555 3.0111 11.7315 2.97961C11.8076 2.94812 11.868 2.8877 11.8996 2.81163L12.4932 1.37784C12.553 1.22092 12.4771 1.04497 12.322 0.980724C12.1668 0.916478 11.9888 0.987238 11.92 1.14042L11.326 2.5736C11.2944 2.64968 11.2943 2.73523 11.3258 2.81138C11.3573 2.88752 11.4178 2.94802 11.4939 2.97953Z"></path> <path d="M13.8277 4.48273C13.91 4.48296 13.9891 4.45021 14.0471 4.3918L15.1448 3.29473C15.2661 3.17347 15.2661 2.97686 15.1448 2.8556C15.0235 2.73433 14.8269 2.73433 14.7057 2.8556L13.6083 3.95267C13.5193 4.04139 13.4926 4.175 13.5407 4.29109C13.5887 4.40717 13.702 4.48283 13.8277 4.48273Z"></path> <path d="M15.0208 6.50639C15.0523 6.58246 15.1127 6.64288 15.1888 6.67437C15.2649 6.70586 15.3503 6.70583 15.4264 6.67429L16.8599 6.0806C17.0182 6.01504 17.0935 5.8335 17.0279 5.67513C16.9623 5.51676 16.7808 5.44152 16.6224 5.50708L15.1886 6.10077C15.1126 6.13228 15.0522 6.19272 15.0207 6.26879C14.9892 6.34487 14.9892 6.43034 15.0208 6.50639Z"></path></g> <defs><clipPath id="clip0_453_2242"><rect width="18" height="18" fill="white"></rect></clipPath></defs></svg>