<svg width="18" height="18" viewBox="0 0 18 18" fill="none" xmlns="http://www.w3.org/2000/svg" class="icon-component"><path d="M9 0.210938C4.14594 0.210938 0.210938 4.14594 0.210938 9C0.210938 13.8541 4.14594 17.7891 9 17.7891C13.8541 17.7891 17.7891 13.8541 17.7891 9C17.7891 4.14594 13.8541 0.210938 9 0.210938ZM11.9985 9.95397L9.02697 12.1016C8.91914 13.2621 7.92657 14.1704 6.73088 14.1704C6.20561 14.1707 5.69587 13.9923 5.28549 13.6645C4.87511 13.3366 4.58852 12.8789 4.47286 12.3665L2.90939 11.7452V8.85649L5.55117 9.91297C5.96345 9.66688 6.42656 9.55659 6.96561 9.60391L8.89379 6.86658C8.90648 5.18882 10.2924 3.82961 11.9922 3.82961C13.7016 3.82961 15.0875 5.2046 15.0906 6.88866C15.0906 8.58516 13.7016 9.95397 11.9985 9.95397Z" fill="#62798E"></path> <path d="M6.73087 10.1936C6.60708 10.1932 6.48366 10.207 6.363 10.2346L7.07023 10.5184C7.23436 10.5823 7.38418 10.6781 7.511 10.8003C7.63782 10.9225 7.73913 11.0686 7.80904 11.2302C7.87896 11.3919 7.91609 11.5658 7.91828 11.7419C7.92048 11.918 7.8877 12.0928 7.82184 12.2561C7.75509 12.4205 7.65658 12.57 7.53194 12.6963C7.40731 12.8225 7.259 12.9229 7.0955 12.9918C6.93201 13.0606 6.75654 13.0965 6.57914 13.0974C6.40175 13.0984 6.22592 13.0643 6.06171 12.9972C5.7858 12.89 5.50357 12.7733 5.22766 12.6692C5.36605 12.9368 5.5732 13.1627 5.82782 13.3237C6.08244 13.4847 6.37534 13.575 6.67642 13.5853C6.9775 13.5956 7.27589 13.5256 7.54093 13.3824C7.80596 13.2391 8.02807 13.0279 8.18443 12.7704C8.34079 12.5129 8.42575 12.2184 8.43059 11.9172C8.43542 11.616 8.35996 11.3189 8.21194 11.0565C8.06393 10.7941 7.84871 10.5759 7.58841 10.4242C7.32812 10.2726 7.03212 10.193 6.73087 10.1936Z" fill="#62798E"></path> <path d="M11.9953 4.83887C10.8441 4.83887 9.91492 5.75975 9.91492 6.89199C9.91492 8.03046 10.8473 8.94512 11.9953 8.94512C13.1339 8.94828 14.0695 8.03056 14.0662 6.89199C14.0663 5.75975 13.1339 4.83887 11.9953 4.83887ZM11.9906 8.12489C11.7473 8.12228 11.5102 8.04776 11.3091 7.91069C11.1081 7.77363 10.9521 7.58015 10.8608 7.35461C10.7695 7.12908 10.747 6.88157 10.796 6.64325C10.8451 6.40493 10.9636 6.18645 11.1365 6.01533C11.3095 5.8442 11.5292 5.72807 11.7681 5.68155C12.0069 5.63504 12.2541 5.66023 12.4787 5.75394C12.7032 5.84766 12.895 6.00571 13.0299 6.2082C13.1649 6.41069 13.2368 6.64857 13.2368 6.89189C13.2362 7.05475 13.2035 7.2159 13.1405 7.3661C13.0775 7.51629 12.9855 7.65256 12.8697 7.76711C12.7539 7.88166 12.6167 7.97223 12.4658 8.03363C12.315 8.09502 12.1535 8.12603 11.9906 8.12489H11.9906Z" fill="#62798E"></path></svg>