<svg width="23px" viewBox="0 0 162 155" version="1.1" xmlns="http://www.w3.org/2000/svg" xmlns:xlink="http://www.w3.org/1999/xlink" class="icon-component"><g id="Page-1" stroke="none" stroke-width="1" fill="none" fill-rule="evenodd"><g id="Mobile-Copy" transform="translate(-1925.000000, -1025.000000)"><g id="Group-6" transform="translate(1925.000000, 985.000000)"><g id="Group-8" transform="translate(0.000000, 40.501901)"><path d="M85.696626,19.4980989 C91.5658417,19.8916757 96.8536218,22.2642042 101.559966,26.6156844 C106.266311,30.9671646 108.746322,36.5446387 109,43.3481067 L109,43.3481067 L108.619483,49.2205252 L96.9786753,49.2205252 L96.9786753,43.3481067 C97.08887,39.3683501 96.1939398,36.3772417 94.2938846,34.3747813 C92.3938294,32.3723209 89.5280766,31.3304219 85.696626,31.2490843 L85.696626,31.2490843 L58.3558735,31.2490843 C54.3810275,31.3265037 51.4058786,32.3684027 49.4304267,34.3747813 C47.4549749,36.3811599 46.430943,39.3722684 46.3583312,43.3481067 L46.3583312,43.3481067 L46.3583312,106.035134 C46.4125413,111.414034 47.4365731,115.26514 49.4304267,117.588453 C51.4242803,119.911765 54.3994293,120.979767 58.3558735,120.79246 L58.3558735,120.79246 L85.696626,120.79246 C89.5473166,120.930566 92.4130695,119.862564 94.2938846,117.588453 C95.6813273,115.910882 96.2193313,114.33969 96.9786753,109.32824 C97.1586897,108.140197 97.1586897,106.188753 96.9786753,103.473908 L96.9786753,103.473908 L109,103.473908 C108.92833,106.157186 108.820825,108.10863 108.677484,109.32824 C107.929563,115.691927 105.880805,120.579033 102.53121,123.989559 C98.218684,128.380533 92.6071559,130.962209 85.696626,131.734585 L85.696626,131.734585 L71.7093307,132.498099 L58.3558735,131.734585 C51.6435986,131.734585 45.820791,129.15291 40.8874509,123.989559 C35.9541108,118.826208 33.6710086,112.8414 34.0381443,106.035134 L34.0381443,106.035134 L34.7991784,75.9980989 L34.7991784,43.3481067 C35.6475653,35.5619108 37.6769894,29.9844367 40.8874509,26.6156844 C44.0979124,23.246932 49.9207199,20.8744035 58.3558735,19.4980989 L58.3558735,19.4980989 Z M128.688761,52.7753778 L152.386934,76.2638257 L128.688761,99.7522735 L120.711122,92.5745323 L132.097342,80.8431863 L71,80.8431863 L71,70.7705062 L132.097342,70.7705062 L120.711122,59.7706215 L128.688761,52.7753778 Z" id="Combined-Shape" fill="#6E6A97"></path> <rect id="Rectangle" x="0" y="0" width="162" height="154"></rect></g></g></g></g></svg>