<svg width="24" height="16" viewBox="0 0 24 16" fill="none" xmlns="http://www.w3.org/2000/svg" class="icon-component"><path d="M15.2377 2.58765H8.74295V14.2562H15.2377V2.58765Z" fill="#FF5A00"></path> <path d="M9.17534 8.42194C9.17534 6.05124 10.2898 3.94716 12 2.58767C10.7414 1.59808 9.15372 1 7.42194 1C3.31946 1 0 4.31946 0 8.42194C0 12.5244 3.31946 15.8439 7.42194 15.8439C9.15372 15.8439 10.7414 15.2458 12 14.2562C10.2874 12.9159 9.17534 10.7926 9.17534 8.42194Z" fill="#EB001B"></path> <path d="M24 8.42194C24 12.5244 20.6805 15.8439 16.5781 15.8439C14.8463 15.8439 13.2586 15.2458 12 14.2562C13.7318 12.8943 14.8247 10.7926 14.8247 8.42194C14.8247 6.05124 13.7102 3.94716 12 2.58767C13.2562 1.59808 14.8439 1 16.5757 1C20.6805 1 24 4.34107 24 8.42194Z" fill="#F79E1B"></path></svg>