<svg width="274px" height="247px" viewBox="0 0 274 247" xmlns="http://www.w3.org/2000/svg" class="icon-component" style="width: 14px; height: auto;"><g stroke="none" stroke-width="1" fill-rule="evenodd"><g transform="translate(-29.000000, -235.000000)"><g transform="translate(29.000000, 235.000000)"><path d="M76.1587056,55.3079384 L134.259105,6.22822616 C152.321978,-9.03027913 178.098813,5.48616936 178.098813,30.9169446 L178.098813,216.082104 C178.098813,241.513464 152.321978,256.030022 134.259105,240.772302 L76.1587056,191.691293 C71.2130386,187.514497 64.9465177,185.22164 58.4708449,185.22164 L27.3998173,185.22164 C12.2672636,185.22164 0,171.404987 0,154.36081 L0,92.6389688 C0,75.5949743 12.2672636,61.7779567 27.3998173,61.7779567 L58.4708449,61.7779567 C64.9465177,61.7779567 71.2130386,59.4858301 76.1587056,55.3079384 Z M210.96946,36.5057829 C205.409124,35.2337585 199.985787,39.2825858 198.856914,45.5492407 C197.728042,51.8158957 201.321071,57.9271987 206.881407,59.199223 C233.45375,65.2771189 253.450137,91.7681944 253.450137,123.495965 C253.450137,155.223735 233.45375,181.714811 206.881407,187.791976 C201.321071,189.064366 197.728042,195.176216 198.856914,201.443236 C199.985787,207.708431 205.409124,211.757441 210.96946,210.486877 C246.930807,202.261071 274,166.453439 274,123.495965 C274,80.5383078 246.930807,44.7312239 210.96946,36.5057829 Z M214.07112,86.7293861 C209.159246,83.5274189 202.873728,85.4188432 200.031453,90.9540111 C197.191005,96.4889966 198.867874,103.57166 203.781575,106.773445 C208.925434,110.127478 212.350411,116.367846 212.350411,123.495965 C212.350411,130.623901 208.925434,136.864269 203.781575,140.218302 C198.867874,143.420087 197.191005,150.50275 200.031453,156.037736 C202.873728,161.572904 209.159246,163.464328 214.07112,160.262361 C225.305045,152.939641 232.900274,139.224122 232.900274,123.495965 C232.900274,107.767625 225.305045,94.0522886 214.07112,86.7293861 Z"></path></g></g></g></svg>