<svg width="15" height="15" viewBox="0 0 15 15" xmlns="http://www.w3.org/2000/svg" class="icon-component icon-img" style="width: 16px; height: auto;"><path d="M6.07661 3.3623L12.03 9.31651C11.9965 10.8284 11.3793 12.2458 10.3277 13.2975C8.05802 15.5675 4.36598 15.5676 2.09622 13.2975C-0.173115 11.0278 -0.173467 7.33447 2.09587 5.06482C3.12222 4.03832 4.53054 3.39655 6.07661 3.3623Z"></path> <path d="M13.0335 6.59038L11.9149 7.70958L7.68311 3.47723L8.80178 2.35842C9.00825 2.15265 9.34136 2.15268 9.54779 2.35842L13.0335 5.84465C13.2396 6.05074 13.2388 6.38507 13.0335 6.59038Z"></path> <path d="M14.9787 0.754012V1.25365C14.9787 2.49801 13.9669 3.50995 12.7228 3.50995C12.7228 3.50995 12.7224 3.50995 12.7221 3.50995C12.5667 3.50995 12.4165 3.53912 12.2766 3.59573L11.4976 2.81656C11.859 2.58133 12.2808 2.45508 12.7217 2.45508H12.7235C13.3855 2.45508 13.924 1.91642 13.924 1.25362V0.753977C13.924 0.462848 14.1603 0.226562 14.4514 0.226562C14.7428 0.226598 14.9787 0.462883 14.9787 0.754012Z"></path></svg>