<svg width="18" height="16" viewBox="0 0 18 16" fill="none" xmlns="http://www.w3.org/2000/svg" class="icon-component" style="width: 21px; height: auto;"><path d="M4.5 2.75L5.0625 2.75V2.75H4.5ZM6 1.25L6 1.8125L6 1.25ZM4.5 7.25H5.0625L5.0625 7.25L4.5 7.25ZM13.5 7.25H12.9375H13.5ZM13.5 2.75L14.0625 2.75V2.75H13.5ZM12 1.25V0.6875V1.25ZM6.75 14.1875C6.43934 14.1875 6.1875 14.4393 6.1875 14.75C6.1875 15.0607 6.43934 15.3125 6.75 15.3125V14.1875ZM11.25 15.3125C11.5607 15.3125 11.8125 15.0607 11.8125 14.75C11.8125 14.4393 11.5607 14.1875 11.25 14.1875V15.3125ZM4.5 4.25L3.9375 4.25V4.25H4.5ZM16.5 4.25H17.0625H16.5ZM13.5 4.25H14.0625V4.25L13.5 4.25ZM12.9375 2.75L12.9375 7.25H14.0625L14.0625 2.75L12.9375 2.75ZM5.0625 7.25L5.0625 2.75L3.9375 2.75L3.9375 7.25L5.0625 7.25ZM6 1.8125L12 1.8125V0.6875L6 0.6875L6 1.8125ZM5.0625 2.75C5.0625 2.23223 5.48223 1.8125 6 1.8125L6 0.6875C4.86091 0.6875 3.9375 1.61091 3.9375 2.75H5.0625ZM9 11.1875C6.82538 11.1875 5.0625 9.42462 5.0625 7.25L3.9375 7.25C3.9375 10.0459 6.20406 12.3125 9 12.3125V11.1875ZM12.9375 7.25C12.9375 9.42462 11.1746 11.1875 9 11.1875V12.3125C11.7959 12.3125 14.0625 10.0459 14.0625 7.25H12.9375ZM14.0625 2.75C14.0625 1.61091 13.1391 0.6875 12 0.6875V1.8125C12.5178 1.8125 12.9375 2.23223 12.9375 2.75H14.0625ZM8.4375 11.75V14.75H9.5625V11.75H8.4375ZM9 14.1875H6.75V15.3125H9V14.1875ZM9 15.3125H11.25V14.1875H9V15.3125ZM3.9375 4.25L3.9375 7.25L5.0625 7.25L5.0625 4.25L3.9375 4.25ZM2.0625 4.25C2.0625 3.73223 2.48223 3.3125 3 3.3125V2.1875C1.86091 2.1875 0.9375 3.11091 0.9375 4.25H2.0625ZM4.5 6.6875C3.15381 6.6875 2.0625 5.59619 2.0625 4.25H0.9375C0.9375 6.21751 2.53249 7.8125 4.5 7.8125L4.5 6.6875ZM5.0625 4.25C5.0625 3.11091 4.13909 2.1875 3 2.1875V3.3125C3.51777 3.3125 3.9375 3.73223 3.9375 4.25L5.0625 4.25ZM12.9375 4.25L12.9375 7.25H14.0625L14.0625 4.25L12.9375 4.25ZM17.0625 4.25C17.0625 3.11091 16.1391 2.1875 15 2.1875V3.3125C15.5178 3.3125 15.9375 3.73223 15.9375 4.25H17.0625ZM13.5 7.8125C15.4675 7.8125 17.0625 6.21751 17.0625 4.25H15.9375C15.9375 5.59619 14.8462 6.6875 13.5 6.6875V7.8125ZM14.0625 4.25C14.0625 3.73223 14.4822 3.3125 15 3.3125V2.1875C13.8609 2.1875 12.9375 3.11091 12.9375 4.25L14.0625 4.25Z" fill="#6E6A97"></path></svg>