<svg width="18" height="18" viewBox="0 0 18 18" fill="none" xmlns="http://www.w3.org/2000/svg" class="icon-component"><g clip-path="url(#clip0_58_2112)"><path d="M9.00003 17.0259C13.4326 17.0259 17.0259 13.4326 17.0259 9.00003C17.0259 4.56744 13.4326 0.974121 9.00003 0.974121C4.56744 0.974121 0.974121 4.56744 0.974121 9.00003C0.974121 13.4326 4.56744 17.0259 9.00003 17.0259Z" fill="black"></path> <path d="M9.00001 0C7.21997 0 5.47992 0.527841 3.99987 1.51677C2.51983 2.50571 1.36628 3.91131 0.685088 5.55585C0.00389953 7.20038 -0.17433 9.00998 0.172937 10.7558C0.520204 12.5016 1.37737 14.1053 2.63604 15.364C3.89472 16.6226 5.49836 17.4798 7.24419 17.8271C8.99002 18.1743 10.7996 17.9961 12.4442 17.3149C14.0887 16.6337 15.4943 15.4802 16.4832 14.0001C17.4722 12.5201 18 10.78 18 9C18.0034 7.82154 17.7747 6.65393 17.3269 5.56386C16.8791 4.47379 16.221 3.48259 15.3901 2.64686C14.5593 1.81113 13.5719 1.14724 12.4845 0.693091C11.397 0.238942 10.2308 0.00342908 9.05231 0H9.00001ZM9.15255 9.30508L8.2155 12.4649H13.2276C13.2608 12.4637 13.2939 12.4691 13.325 12.4808C13.3561 12.4924 13.3847 12.5101 13.4089 12.5327C13.4332 12.5554 13.4528 12.5826 13.4666 12.6129C13.4803 12.6431 13.488 12.6758 13.4891 12.709V12.7918L13.0533 14.2954C13.0341 14.3665 12.9912 14.429 12.9318 14.4725C12.8724 14.5161 12.8 14.5382 12.7264 14.5351H5.0557L6.34141 10.155L4.90315 10.5908L5.23003 9.58838L6.66829 9.15254L8.477 3.00726C8.49691 2.93656 8.53991 2.87454 8.59915 2.8311C8.65839 2.78766 8.73046 2.76529 8.80388 2.76755H10.7433C10.7765 2.76639 10.8097 2.77178 10.8408 2.78342C10.8719 2.79506 10.9004 2.81272 10.9247 2.83538C10.949 2.85805 10.9686 2.88528 10.9823 2.91552C10.9961 2.94576 11.0037 2.97842 11.0048 3.01162V3.09443L9.47942 8.28087L10.9177 7.84504L10.6126 8.89104L9.15255 9.30508Z" fill="#345D9D"></path></g> <defs><clipPath id="clip0_58_2112"><rect width="18" height="18" fill="white"></rect></clipPath></defs></svg>