<svg width="18" height="18" viewBox="0 0 18 18" fill="none" xmlns="http://www.w3.org/2000/svg" class="icon-component" style="width: 21px; height: auto;"><ellipse cx="9" cy="12.375" rx="4.5" ry="1.875" stroke="#6E6A97" stroke-width="1.125" stroke-linejoin="round"></ellipse> <circle cx="9" cy="6" r="2.25" stroke="#6E6A97" stroke-width="1.125" stroke-linejoin="round"></circle> <path fill-rule="evenodd" clip-rule="evenodd" d="M4.8341 9.94629C3.90517 9.98495 3.05185 10.1523 2.38944 10.4173C2.01091 10.5687 1.66684 10.763 1.4082 11.0076C1.14836 11.2533 0.9375 11.5886 0.9375 12.0002C0.9375 12.4118 1.14836 12.747 1.4082 12.9927C1.66684 13.2373 2.01091 13.4317 2.38944 13.5831C2.76428 13.733 3.20026 13.8517 3.67648 13.9335C3.30625 13.5342 3.07389 13.0879 3.01489 12.6148C2.94255 12.5904 2.87328 12.565 2.80726 12.5386C2.50717 12.4185 2.30207 12.2897 2.18119 12.1754C2.06235 12.063 2.06249 12.0036 2.0625 12.0002L2.0625 12.0002L2.0625 12.0001C2.06249 11.9967 2.06235 11.9374 2.18119 11.825C2.30207 11.7107 2.50717 11.5818 2.80726 11.4618C2.95948 11.4009 3.12901 11.3451 3.3134 11.2958C3.62367 10.7784 4.15085 10.3172 4.8341 9.94629Z" fill="#6E6A97"></path> <path fill-rule="evenodd" clip-rule="evenodd" d="M14.9852 12.6148C14.9262 13.0879 14.6939 13.5342 14.3236 13.9335C14.7999 13.8517 15.2358 13.733 15.6107 13.5831C15.9892 13.4317 16.3333 13.2373 16.5919 12.9927C16.8518 12.747 17.0626 12.4118 17.0626 12.0002C17.0626 11.5886 16.8518 11.2533 16.5919 11.0076C16.3333 10.763 15.9892 10.5687 15.6107 10.4173C14.9483 10.1523 14.0949 9.98495 13.166 9.94629C13.8493 10.3172 14.3764 10.7784 14.6867 11.2958C14.8711 11.3451 15.0406 11.4009 15.1929 11.4618C15.4929 11.5818 15.698 11.7107 15.8189 11.825C15.9378 11.9374 15.9376 11.9967 15.9376 12.0001V12.0002V12.0002C15.9376 12.0036 15.9378 12.063 15.8189 12.1754C15.698 12.2897 15.4929 12.4185 15.1929 12.5386C15.1268 12.565 15.0576 12.5904 14.9852 12.6148Z" fill="#6E6A97"></path> <path fill-rule="evenodd" clip-rule="evenodd" d="M12.3858 7.61413C12.2209 7.95944 12.0047 8.27557 11.7471 8.55267C12.0439 8.71819 12.386 8.8125 12.75 8.8125C13.8891 8.8125 14.8125 7.88909 14.8125 6.75C14.8125 5.61091 13.8891 4.6875 12.75 4.6875C12.6718 4.6875 12.5946 4.69185 12.5186 4.70033C12.6477 5.04954 12.7262 5.42322 12.7454 5.81251C12.7469 5.8125 12.7484 5.8125 12.75 5.8125C13.2677 5.8125 13.6875 6.23223 13.6875 6.75C13.6875 7.26777 13.2677 7.6875 12.75 7.6875C12.6208 7.6875 12.4977 7.66138 12.3858 7.61413Z" fill="#6E6A97"></path> <path fill-rule="evenodd" clip-rule="evenodd" d="M5.48134 4.70033C5.40539 4.69185 5.3282 4.6875 5.25 4.6875C4.11091 4.6875 3.1875 5.61091 3.1875 6.75C3.1875 7.88909 4.11091 8.8125 5.25 8.8125C5.61403 8.8125 5.95604 8.71819 6.25291 8.55267C5.99531 8.27557 5.77912 7.95944 5.6142 7.61413C5.50223 7.66138 5.37917 7.6875 5.25 7.6875C4.73223 7.6875 4.3125 7.26777 4.3125 6.75C4.3125 6.23223 4.73223 5.8125 5.25 5.8125C5.25154 5.8125 5.25307 5.8125 5.25461 5.81251C5.27377 5.42322 5.3523 5.04954 5.48134 4.70033Z" fill="#6E6A97"></path></svg>