<svg width="20" height="21" viewBox="0 0 20 21" fill="none" xmlns="http://www.w3.org/2000/svg" class="icon-component"><g clip-path="url(#clip0_58_1951)"><g clip-path="url(#clip1_58_1951)"><path d="M10.01 20.0699C15.45 20.1499 19.92 15.6799 20 10.0899C19.91 4.48994 15.44 0.0199342 10.01 0.0999342C4.57 0.0199342 0.1 4.48994 0.0200005 10.0899C0.1 15.6799 4.57 20.1499 10.01 20.0699Z" fill="#FFC800"></path> <path d="M14.3 17.5299C10.91 19.4899 7.23 19.8399 4.88 18.6699C8 20.5299 11.85 20.5499 14.99 18.7399C18.1 16.9799 20.02 13.5999 19.98 9.93994C19.84 12.5599 17.69 15.5699 14.3 17.5299Z" fill="black"></path> <path d="M11.27 0.839962C11.96 2.02996 10.3 4.27996 7.56 5.85996C4.82 7.43996 2.05 7.75996 1.36 6.56996C1.33 6.50996 1.3 6.44996 1.28 6.38996C1.15 5.65996 1.35 4.91996 1.83 4.35996C1.91 4.23996 2 4.12996 2.09 4.00996C2.89 2.96996 3.89 2.09996 5.02 1.44996C6.15 0.779962 7.4 0.359962 8.69 0.189962C8.84 0.169962 8.98 0.149962 9.12 0.139962C9.84 0.00996215 10.58 0.199962 11.15 0.679962C11.19 0.729962 11.24 0.779962 11.27 0.839962Z" fill="black"></path> <path d="M15.52 2.12003C16.72 4.20003 14.3 7.84003 10.11 10.26C5.92 12.68 1.55 12.95 0.36 10.87C0.16 10.52 0.0500003 10.13 0.0300003 9.72003C-0.0199997 11.15 0.23 12.57 0.78 13.89C0.86 14.09 0.95 14.29 1.05 14.49L1.06 14.52C1.44 15.15 1.98 15.66 2.62 15.99C4.97 17.25 8.94 16.82 12.66 14.67C16.37 12.53 18.73 9.30003 18.82 6.64003C18.86 5.91003 18.69 5.19003 18.33 4.56003C18.19 4.36003 18.05 4.16003 17.9 3.97003C17.03 2.85003 15.94 1.93003 14.7 1.28003C15.04 1.49003 15.32 1.78003 15.52 2.12003Z" fill="black"></path> <path d="M10.01 20.0699C15.45 20.1499 19.92 15.6799 20 10.0899C19.91 4.48994 15.44 0.0199342 10.01 0.0999342C4.57 0.0199342 0.1 4.48994 0.0200005 10.0899C0.1 15.6799 4.57 20.1499 10.01 20.0699Z" fill="url(#paint0_radial_58_1951)"></path></g></g> <defs><radialGradient id="paint0_radial_58_1951" cx="0" cy="0" r="1" gradientUnits="userSpaceOnUse" gradientTransform="translate(10.0079 10.0885) scale(9.98376 9.98707)"><stop offset="0.5" stop-color="white" stop-opacity="0"></stop> <stop offset="1" stop-color="white" stop-opacity="0.35"></stop></radialGradient> <clipPath id="clip0_58_1951"><rect width="20" height="20.1" fill="white" transform="translate(0 0.100098)"></rect></clipPath> <clipPath id="clip1_58_1951"><rect width="20" height="20.1" fill="white"></rect></clipPath></defs></svg>