<svg width="52" height="26" viewBox="0 0 52 26" fill="none" xmlns="http://www.w3.org/2000/svg" class="icon-component logoX" icon-size="30"><path d="M17.1208 0H12.5517L26.0347 14.4444L28.4406 12.1276C28.4277 12.1112 17.1392 0.0181714 17.1208 0Z" fill="white"></path> <path d="M33.693 17.4717C35.2062 19.1232 38.0193 22.1686 40.5033 24.8545H35.9325L30.9534 19.4717L23.6797 24.8545H14.3448L35.9839 8.96558C38.9773 9.36039 41.2094 9.90349 43.2337 10.5078L33.693 17.4717Z" fill="white"></path> <path d="M18.6857 8.07865L14.3563 3.34341C6.05879 4.67305 0.285588 7.92865 0.0104115 12.0954C-0.284945 16.5287 5.73042 20.7751 14.659 23.1436L16.1614 22.0455C1.83025 18.0528 4.26098 10.3083 18.6857 8.07865ZM33.1435 23.8899C31.1898 23.914 28.5022 23.8418 27.8931 23.8029L26.3026 24.9659C29.0104 25.127 31.6319 25.1122 34.103 24.9418L33.1435 23.8899ZM50.7255 19.3417C49.467 20.3547 47.1482 22.064 41.6336 23.0325L42.2427 23.6974C46.13 22.7214 49.1368 21.3658 50.8832 19.5177C50.9823 19.4103 50.8392 19.2492 50.7255 19.3417ZM51.9931 13.7028C50.1751 8.37865 40.2981 3.71749 27.2492 2.83599C25.8183 2.7397 24.4094 2.69155 23.0335 2.6897L27.4052 7.47123C28.3628 7.47679 29.3387 7.50272 30.3257 7.55272C45.255 8.30273 50.5145 12.525 51.8005 13.825C51.8867 13.9158 52.0335 13.8213 51.9931 13.7028Z" fill="#8045FA"></path></svg>