<svg width="88" height="19" viewBox="0 0 88 19" fill="none" xmlns="http://www.w3.org/2000/svg" class="icon-component"><g clip-path="url(#clip0_58_2057)"><path d="M17.8926 11.1784C16.6794 15.9998 11.751 18.934 6.88435 17.7317C2.01973 16.5296 -0.941684 11.6461 0.272059 6.82497C1.48467 2.00301 6.41316 -0.931503 11.2783 0.27054C16.1447 1.47258 19.1058 6.35669 17.8926 11.1784Z" fill="#FFA800"></path> <path d="M13.0871 7.71898C13.2679 6.52144 12.3476 5.87767 11.0893 5.4482L11.4975 3.82598L10.5009 3.57989L10.1035 5.15936C9.84152 5.09468 9.57242 5.03365 9.30504 4.97318L9.70527 3.3833L8.70924 3.13721L8.30078 4.75887C8.08392 4.70993 7.87103 4.66156 7.66438 4.61066L7.66552 4.60559L6.29112 4.26556L6.02601 5.32023C6.02601 5.32023 6.76544 5.48814 6.74982 5.49854C7.15346 5.59839 7.2264 5.86304 7.2142 6.07285L6.74925 7.92091C6.77707 7.92795 6.81313 7.93807 6.85286 7.95382C6.81965 7.94566 6.78417 7.93666 6.74756 7.92794L6.09583 10.5168C6.04644 10.6383 5.92127 10.8206 5.63912 10.7514C5.64906 10.7657 4.91474 10.5722 4.91474 10.5722L4.41998 11.7025L5.71689 12.0229C5.95817 12.0828 6.19461 12.1455 6.42737 12.2046L6.01494 13.8454L7.0104 14.0914L7.41886 12.4681C7.69079 12.5412 7.95477 12.6087 8.21307 12.6723L7.80603 14.288L8.80263 14.5341L9.21506 12.8964C10.9145 13.2151 12.1924 13.0865 12.7303 11.5636C13.1637 10.3374 12.7087 9.63005 11.8146 9.1688C12.4657 9.02003 12.9562 8.59563 13.0871 7.71898ZM10.81 10.8827C10.502 12.1089 8.41829 11.446 7.74273 11.2798L8.28999 9.10608C8.96556 9.27314 11.1319 9.60389 10.81 10.8827ZM11.1183 7.70126C10.8373 8.81668 9.10294 8.24997 8.54035 8.11103L9.03652 6.13951C9.59911 6.27844 11.4109 6.53775 11.1183 7.70126Z" fill="black"></path> <path d="M26.6182 5.44657C27.3548 5.44657 27.9912 5.57735 28.526 5.83412C29.0633 6.09343 29.5067 6.44274 29.8624 6.88205C30.2132 7.3236 30.4743 7.83969 30.6429 8.43115C30.8104 9.02429 30.8944 9.66188 30.8944 10.3445C30.8944 11.3929 30.7006 12.3835 30.3091 13.3172C29.9177 14.2524 29.3866 15.0635 28.7111 15.7553C28.0361 16.4464 27.239 16.9911 26.3199 17.3936C25.4022 17.7963 24.4045 17.9977 23.3332 17.9977C23.1947 17.9977 22.9512 17.9938 22.6071 17.9868C22.2631 17.9797 21.8677 17.9446 21.4249 17.8852C20.9793 17.8236 20.5081 17.7325 20.0105 17.6104C19.5132 17.4906 19.0409 17.3227 18.5961 17.1095L22.5734 0.550931L26.1357 0.00390625L24.7116 5.87997C25.0165 5.74385 25.3236 5.63838 25.6301 5.5616C25.937 5.48594 26.2663 5.44657 26.6182 5.44657ZM23.6301 15.1976C24.1666 15.1976 24.6722 15.0669 25.147 14.8101C25.6233 14.553 26.0344 14.206 26.3787 13.7737C26.723 13.3394 26.9955 12.8504 27.1942 12.3039C27.3929 11.7574 27.4933 11.1874 27.4933 10.5942C27.4933 9.8655 27.3704 9.29711 27.1255 8.88621C26.8805 8.47699 26.4272 8.27112 25.769 8.27112C25.5532 8.27112 25.2753 8.3119 24.9307 8.38474C24.585 8.46208 24.2756 8.62268 23.9983 8.86427L22.482 15.1045C22.5734 15.1206 22.6543 15.1358 22.7232 15.1501C22.7908 15.1656 22.8654 15.1765 22.9398 15.1841C23.0184 15.1929 23.1084 15.1974 23.2171 15.1974C23.3259 15.1974 23.4618 15.1976 23.6301 15.1976Z" fill="white"></path> <path d="M34.5887 17.6808H31.1862L34.0596 5.70057H37.4854L34.5887 17.6808ZM36.2444 4.2409C35.7695 4.2409 35.3389 4.10084 34.9569 3.82016C34.5717 3.54116 34.381 3.1117 34.381 2.5329C34.381 2.21453 34.4462 1.91584 34.5757 1.63404C34.7071 1.35279 34.8788 1.11064 35.094 0.904769C35.3089 0.700585 35.5578 0.537459 35.8405 0.414555C36.1249 0.293619 36.4275 0.233154 36.75 0.233154C37.2246 0.233154 37.6529 0.373215 38.0364 0.653898C38.4184 0.935988 38.6106 1.36545 38.6106 1.94116C38.6106 2.26065 38.5456 2.56046 38.415 2.84171C38.2853 3.12295 38.1136 3.3651 37.8984 3.57097C37.6853 3.77544 37.434 3.938 37.1519 4.05978C36.8672 4.18268 36.5657 4.2409 36.2444 4.2409Z" fill="white"></path> <path d="M40.4673 2.71573L44.031 2.1687L43.1559 5.70002H46.9725L46.2833 8.47816H42.4897L41.4792 12.6687C41.3861 13.018 41.3333 13.3443 41.3185 13.6475C41.3018 13.952 41.3407 14.2136 41.4326 14.4338C41.524 14.6546 41.6884 14.8248 41.9268 14.9451C42.1641 15.0675 42.5039 15.1291 42.9495 15.1291C43.3165 15.1291 43.6742 15.0945 44.0199 15.0258C44.3637 14.9583 44.7119 14.8644 45.0645 14.7415L45.3183 17.3391C44.8584 17.5061 44.3605 17.6499 43.8241 17.7708C43.2867 17.8934 42.6506 17.9525 41.9155 17.9525C40.8584 17.9525 40.0389 17.797 39.4551 17.4873C38.872 17.1754 38.4599 16.7493 38.2132 16.2099C37.9699 15.6724 37.8612 15.0528 37.8916 14.3548C37.9231 13.6551 38.0296 12.9196 38.2132 12.145L40.4673 2.71573Z" fill="white"></path> <path d="M46.8227 12.8966C46.8227 11.8647 46.9913 10.8916 47.3282 9.98069C47.6646 9.06889 48.1491 8.27155 48.7778 7.58728C49.4043 6.90639 50.1675 6.36696 51.0659 5.97096C51.9601 5.57722 52.9612 5.37866 54.0645 5.37866C54.7551 5.37866 55.3719 5.44335 55.9146 5.57301C56.4596 5.70378 56.9527 5.87282 57.3986 6.08487L56.2252 8.72858C55.9186 8.6054 55.6004 8.49683 55.2714 8.3984C54.9422 8.29799 54.5402 8.24962 54.0648 8.24962C52.9291 8.24962 52.0313 8.63745 51.3631 9.4106C50.6975 10.1843 50.3623 11.2258 50.3623 12.5321C50.3623 13.3064 50.5309 13.9325 50.8692 14.4114C51.2059 14.8904 51.8278 15.1286 52.7307 15.1286C53.1763 15.1286 53.6064 15.0825 54.0182 14.9925C54.4332 14.9014 54.7997 14.7866 55.1224 14.651L55.3765 17.3611C54.9462 17.5265 54.4716 17.6758 53.951 17.8066C53.4293 17.9329 52.8082 17.9984 52.0881 17.9984C51.1375 17.9984 50.3327 17.8606 49.6745 17.5892C49.016 17.3136 48.4718 16.9477 48.0432 16.4842C47.6123 16.0196 47.3029 15.4771 47.1116 14.8544C46.9203 14.2323 46.8227 13.5787 46.8227 12.8966Z" fill="white"></path> <path d="M61.9376 17.9984C61.1255 17.9984 60.4202 17.8758 59.8218 17.6331C59.2252 17.3904 58.731 17.0498 58.3401 16.6082C57.9487 16.1689 57.6558 15.6483 57.4551 15.0484C57.2544 14.4488 57.1579 13.7848 57.1579 13.0572C57.1579 12.1446 57.3058 11.2322 57.6047 10.3224C57.9022 9.4106 58.3435 8.59133 58.9277 7.86319C59.5073 7.13392 60.2223 6.53767 61.0642 6.07277C61.9053 5.61097 62.8726 5.37866 63.9592 5.37866C64.7566 5.37866 65.4582 5.50156 66.0648 5.74428C66.6686 5.98643 67.1659 6.32983 67.559 6.76914C67.9479 7.2107 68.2434 7.72903 68.4421 8.32978C68.6422 8.92827 68.741 9.59397 68.741 10.3221C68.741 11.2319 68.5951 12.1443 68.3055 13.0569C68.0157 13.9651 67.5857 14.7863 67.018 15.5162C66.4514 16.2443 65.7429 16.8403 64.892 17.3032C64.0421 17.7661 63.0566 17.9984 61.9376 17.9984ZM63.6382 8.2499C63.1338 8.2499 62.6879 8.39502 62.3061 8.68161C61.9229 8.97157 61.601 9.33607 61.3416 9.77566C61.0793 10.2172 60.8848 10.6987 60.7534 11.2221C60.6231 11.7466 60.5593 12.2425 60.5593 12.7136C60.5593 13.4738 60.683 14.0658 60.9263 14.4919C61.173 14.9157 61.616 15.1289 62.2601 15.1289C62.7662 15.1289 63.2099 14.9849 63.5939 14.6952C63.9748 14.4075 64.297 14.0427 64.5584 13.6023C64.819 13.163 65.0151 12.6801 65.1466 12.1558C65.2751 11.633 65.3407 11.1344 65.3407 10.6641C65.3407 9.90587 65.2175 9.31244 64.972 8.88692C64.7268 8.46308 64.2817 8.2499 63.6382 8.2499Z" fill="white"></path> <path d="M72.4486 17.6808H69.0433L71.9167 5.70057H75.3442L72.4486 17.6808ZM74.1018 4.2409C73.6272 4.2409 73.1968 4.10084 72.8154 3.82016C72.4322 3.54116 72.2397 3.1117 72.2397 2.5329C72.2397 2.21453 72.3058 1.91584 72.4356 1.63404C72.5653 1.35279 72.7381 1.11064 72.9533 0.904769C73.167 0.700585 73.4182 0.537459 73.7004 0.414555C73.9831 0.293619 74.2857 0.233154 74.607 0.233154C75.0827 0.233154 75.5125 0.373215 75.8951 0.653898C76.278 0.935988 76.4713 1.36545 76.4713 1.94116C76.4713 2.26065 76.4026 2.56046 76.2741 2.84171C76.1455 3.12295 75.9726 3.3651 75.7583 3.57097C75.5426 3.77544 75.2945 3.938 75.0118 4.05978C74.7268 4.18268 74.4248 4.2409 74.1018 4.2409Z" fill="white"></path> <path d="M77.7963 6.24527C78.0546 6.17046 78.343 6.08047 78.6567 5.98259C78.9715 5.88472 79.3232 5.7936 79.716 5.71148C80.1046 5.62682 80.5432 5.55819 81.0254 5.50504C81.5077 5.45076 82.0572 5.42432 82.6678 5.42432C84.4623 5.42432 85.6993 5.9421 86.3822 6.97455C87.0646 8.007 87.1827 9.41998 86.7399 11.2109L85.1747 17.6796H81.7498L83.2667 11.3471C83.3592 10.9516 83.4319 10.5694 83.4855 10.1959C83.5398 9.82581 83.5366 9.49957 83.4733 9.2172C83.4129 8.93821 83.2704 8.70983 83.0493 8.53293C82.8247 8.35884 82.4855 8.27137 82.0254 8.27137C81.5818 8.27137 81.1304 8.31862 80.6697 8.40974L78.4395 17.6793H75.0132L77.7963 6.24527Z" fill="white"></path></g> <defs><clipPath id="clip0_58_2057"><rect width="87.0018" height="19" fill="white"></rect></clipPath></defs></svg>