<svg viewBox="0 0 663 560" version="1.1" xmlns="http://www.w3.org/2000/svg" xmlns:xlink="http://www.w3.org/1999/xlink" class="icon-component" style="width: 21px; height: auto;"><g stroke="none" stroke-width="1" fill-rule="evenodd"><g transform="translate(-413.000000, -382.000000)"><g transform="translate(414.000000, 382.916163)"><g transform="translate(0.000000, -0.000000)"><path d="M330.404814,0 C421.643583,0 504.244787,36.9818185 564.036299,96.7733295 C623.827809,156.56484 660.809627,239.166044 660.809627,330.404814 C660.809627,406.285547 635.230106,476.191866 592.223563,531.971255 C587.875519,537.610658 583.349343,543.105662 578.65346,548.447841 C574.429988,553.252589 572.827459,555.780662 565.549895,555.568902 C558.27233,555.357142 555.677381,552.585202 550.727403,547.635258 C545.822019,542.729908 541.184533,542.368693 541.184533,535.083837 C541.184533,527.798981 542.953113,525.634352 546.280769,521.858926 C550.996266,516.508909 555.51736,510.983445 559.833001,505.293581 C596.693553,456.695594 618.566089,396.104508 618.566089,330.404814 C618.566089,250.414659 586.143673,177.997166 533.723718,125.577211 C481.303764,73.1572562 408.88627,40.73484 328.896116,40.73484 C248.905961,40.73484 176.488468,73.1572562 124.068513,125.577211 C71.6485584,177.997166 39.2261423,250.414659 39.2261423,330.404814 C39.2261423,404.765182 67.2453046,472.581334 113.301913,523.871479 C117.014928,528.006413 120.620822,530.541017 120.02277,537.296544 C119.424718,544.052071 115.604678,545.131829 111.013307,549.72333 C106.25455,554.48222 102.163908,556.28739 99.122024,557.501144 C96.0801404,558.714898 92.3074027,557.501144 89.6983195,555.568902 C87.0892362,553.636659 86.5840145,553.40526 84.5621549,551.155066 C31.9875614,492.643076 0,415.259494 0,330.404814 C0,239.166044 36.9818185,156.56484 96.7733295,96.7733295 C156.56484,36.9818185 239.166044,0 330.404814,0 Z"></path> <path d="M328.896116,129.748009 C383.889348,129.748009 433.676375,152.03842 469.715094,188.077139 C505.75381,224.115858 528.044223,273.902885 528.044223,328.896116 C528.044223,371.776783 514.491625,411.492075 491.436108,443.992294 C488.120589,448.666017 484.608548,453.19053 480.912029,457.553792 C477.819127,461.204563 475.583664,461.606008 470.97492,461.606008 C466.366176,461.606008 462.064166,458.972162 457.469785,454.378051 C452.817518,449.726057 450.594881,448.196723 449.059917,442.026053 C447.524953,435.855383 450.38464,433.020586 453.55288,429.083571 C455.838461,426.243393 458.02897,423.323473 460.119575,420.328643 C478.208519,394.415906 488.81808,362.895009 488.81808,328.896116 C488.81808,284.734885 470.918205,244.754394 441.97802,215.81421 C413.037838,186.874027 373.057347,168.974151 328.896116,168.974151 C284.734885,168.974151 244.754394,186.874027 215.81421,215.81421 C186.874027,244.754394 168.974151,284.734885 168.974151,328.896116 C168.974151,366.381023 184.343136,401.583837 203.469319,428.119161 C205.026458,430.279509 206.173769,432.2557 207.310167,434.2514 C209.094385,437.384777 210.177118,437.990607 211.496474,443.192996 C212.81583,448.395384 208.317291,452.422196 203.827427,456.912416 C200.656705,460.083388 195.406609,461.99315 188.077139,462.641701 C179.943596,460.425385 177.441546,458.509231 172.030566,451.601607 C145.540179,417.784145 129.748009,375.184368 129.748009,328.896116 C129.748009,273.902885 152.03842,224.115858 188.077139,188.077139 C224.115858,152.03842 273.902885,129.748009 328.896116,129.748009 Z"></path> <circle id="Oval" cx="330.404814" cy="330.404814" r="64.8740045"></circle></g></g></g></g></svg>