<svg viewBox="0 0 512 301" version="1.1" xmlns="http://www.w3.org/2000/svg" xmlns:xlink="http://www.w3.org/1999/xlink" class="icon-component" style="width: 18px; height: auto;"><defs><linearGradient x1="50%" y1="0%" x2="50%" y2="64.8601399%" id="linearGradient-xow6ueogzq-1"><stop stop-color="#ED8F42" offset="0%"></stop> <stop stop-color="#F9EE60" offset="100%"></stop></linearGradient></defs> <g id="Page-1" stroke="none" stroke-width="1" fill="none" fill-rule="evenodd"><g id="Desktop-HD" transform="translate(-795.000000, -323.000000)" fill="url(#linearGradient-xow6ueogzq-1)" fill-rule="nonzero"><g id="Group" transform="translate(795.000000, 323.000000)"><g transform="translate(256.000000, 150.019680) scale(-1, 1) rotate(-180.000000) translate(-256.000000, -150.019680) translate(0.000000, 0.000000)" id="Shape"><path d="M34.5,298.7 C26.1,296.6 19.8,293 13.5,286.6 C7,280.1 3,272.9 1.1,264.3 C0.4,260.9 -7.17691225e-14,246.7 -7.17691225e-14,225.5 C-7.17691225e-14,194.5 0.1,191.7 1.9,188.3 C5.2,181.9 8.6,180.7 24,180.1 C36.2,179.6 38.1,179.3 43.2,176.8 C53.9,171.6 59.5,162.4 59.5,150.1 C59.5,137.8 53.9,128.6 43.2,123.4 C38.1,120.9 36.2,120.6 24,120.1 C8.4,119.5 5.2,118.3 2,112.1 C0.1,108.4 -7.17691225e-14,106.3 -7.17691225e-14,73.9 C-7.17691225e-14,37.5 0.4,34.2 5.1,24.4 C6.4,21.7 10.1,16.9 13.4,13.6 C20,7.1 27.2,3.1 35.8,1.2 C43.3,-0.4 468.6,-0.4 476.2,1.2 C492.9,4.7 506,17.4 510.6,34.6 C511.6,38.3 512,48.3 512,73.9 C512,106.3 511.9,108.4 510,112.1 C506.8,118.3 503.6,119.5 488,120.1 C473.1,120.8 468.4,122.1 461.7,128 C452.5,136.2 449.6,151.7 455.3,163.3 C458.5,169.7 463.3,174.5 469.9,177.4 C473.5,179.1 477.4,179.6 488,180.1 C503.6,180.7 506.8,181.9 510,188.1 C511.9,191.8 512,193.9 512,225.5 C512,261.1 511.5,265.8 507.2,275.1 C504.1,281.8 494.3,291.9 487.7,295 C476.6,300.4 489.2,300.1 256,300 C86.2,299.9 38.4,299.7 34.5,298.7 Z M205.2,239 C228.3,234.1 244.1,211.1 240.2,188.1 C236.9,168.9 222.3,154.2 203.1,150.9 C184.7,147.7 165.4,157.3 156.7,173.9 C147.1,192 150.2,212.5 164.5,226.6 C175.8,237.8 190.2,242.2 205.2,239 Z M323,238.1 C329.9,234.6 332.9,225.6 329.4,218.9 C328.5,217.3 300.6,181.8 267.4,140.2 C225.7,88 205.8,63.9 203.2,62.4 C201.2,61.1 198,60.1 196.2,60.1 C185.5,60.1 177.8,72 182.6,81.3 C183.5,82.9 211.4,118.4 244.6,160 C286.3,212.2 306.2,236.3 308.8,237.8 C313.4,240.6 317.9,240.7 323,238.1 Z M325.2,149 C348.4,144.1 364.2,121.1 360.2,98.1 C356.9,78.9 342.3,64.2 323.1,60.9 C304.7,57.7 285.4,67.3 276.7,83.9 C267.3,101.7 270.2,122.4 284,136.2 C295.3,147.5 310.2,152.1 325.2,149 Z"></path></g></g></g></g></svg>