<svg width="72" height="15" viewBox="0 0 72 15" fill="none" xmlns="http://www.w3.org/2000/svg" class="icon-component"><path d="M13.6804 0C9.48572 0 6.14905 3.37026 6.14905 7.5C6.14905 11.6772 9.53341 15 13.6804 15C17.8274 15 21.2118 11.6297 21.2118 7.5C21.2595 3.37026 17.8274 0 13.6804 0ZM13.6804 10.3006C12.1551 10.3006 10.8681 9.01899 10.8681 7.5C10.8681 5.98101 12.1551 4.69938 13.6804 4.69938C15.2058 4.69938 16.4928 5.98101 16.4928 7.5C16.4928 9.01899 15.2534 10.3006 13.6804 10.3006Z" fill="#864EFF"></path> <path d="M6.14904 2.18359V13.1013H3.43202L0 2.18359H6.14904Z" fill="#864EFF"></path> <path d="M69.6891 4.12988L68.0207 8.21216C67.9731 8.25962 67.9731 8.35454 67.9731 8.40203L67.9252 8.49695L67.8776 8.40203C67.8776 8.35454 67.83 8.25962 67.83 8.21216L66.1617 4.12988H64.0168L66.829 11.1077L65.6375 13.7659H67.7824L71.7388 4.12988H69.6891Z" fill="white"></path> <path d="M53.8635 4.50961C53.4822 4.22479 53.0056 4.03492 52.4335 3.98746C51.4803 3.89251 50.5747 4.22479 49.9551 4.84189V4.08241H48.0005V11.0603H49.9551V7.40518C49.9551 6.59821 50.0979 6.36088 50.241 6.17101C50.4792 5.79127 50.9082 5.6014 51.4327 5.6014C51.9569 5.6014 52.4335 5.83873 52.6721 6.21847C52.8149 6.50329 52.8625 6.88303 52.8625 7.0729C52.8625 7.69 52.8625 11.0603 52.8625 11.0603H54.817V6.83557C54.817 5.74378 54.4832 4.9843 53.8635 4.50961Z" fill="white"></path> <path d="M44.2824 4.17728C43.3292 3.845 42.2806 3.89249 41.3271 4.31969C40.7074 4.60451 40.1356 5.07917 39.8018 5.69627C39.468 6.21842 39.3252 6.88298 39.3252 7.595C39.3252 8.30702 39.468 8.97158 39.8018 9.49373C40.1356 10.0159 40.5646 10.4906 41.1364 10.7754C41.7085 11.0602 42.3757 11.2501 42.9954 11.2501C43.3292 11.2501 43.6627 11.2026 43.9965 11.1077C44.2824 11.0127 44.5686 10.9178 44.8545 10.7754C45.4266 10.4431 45.9031 10.0159 46.1893 9.49373C46.5228 8.97158 46.6659 8.30702 46.6659 7.595C46.7135 6.02855 45.8079 4.69943 44.2824 4.17728ZM44.8545 7.68995C44.8069 8.30702 44.6162 8.82917 44.2348 9.16145C43.9489 9.39881 43.5199 9.54122 42.9954 9.58868C42.4712 9.58868 42.0899 9.44627 41.7561 9.16145C41.375 8.82917 41.1843 8.30702 41.1364 7.68995C41.0888 6.97793 41.375 6.40829 41.8992 6.02855C42.1851 5.83868 42.5664 5.69627 42.9478 5.69627C43.3768 5.69627 43.7106 5.83868 44.0441 6.02855C44.6162 6.36083 44.9021 6.97793 44.8545 7.68995Z" fill="white"></path> <path d="M37.0848 4.50945C36.7034 4.22466 36.2268 4.03479 35.6547 3.9873C35.5595 3.9873 35.4165 3.9873 35.3213 3.9873C34.5585 3.9873 33.8912 4.31958 33.3191 4.98414L33.2239 5.12656H33.0332C32.8901 4.88923 32.6994 4.69936 32.5087 4.55695C32.1274 4.27212 31.6508 4.08225 31.0787 4.03479C30.1731 3.93984 29.4581 4.22467 28.8385 4.88923V4.1772H26.8841V11.155H28.8385V7.49998V7.40503C28.8385 6.64555 28.9338 6.45568 29.0768 6.21834C29.3151 5.83857 29.7441 5.60124 30.2207 5.64871C30.6976 5.64871 31.1266 5.88607 31.3649 6.26581C31.5556 6.5506 31.5556 6.88288 31.5556 7.21516V11.1076H33.5098V7.35756C33.5098 6.64555 33.605 6.40821 33.7481 6.17085C33.9864 5.79111 34.4154 5.60125 34.8923 5.60125C35.3689 5.60125 35.7502 5.83857 35.9885 6.21834C36.1316 6.45568 36.1792 6.74049 36.1792 6.93037C36.1792 7.02529 36.1792 7.12024 36.1792 7.1677V11.0601H38.1335V6.78796C38.1335 6.40822 38.0859 6.02845 37.9904 5.69617C37.8 5.22151 37.5138 4.79427 37.0848 4.50945Z" fill="white"></path> <path d="M62.1577 8.97154C61.8718 9.25636 61.2042 9.77851 60.2986 9.82597C59.5359 9.87343 58.9641 9.6361 58.5351 9.2089C58.3444 9.019 58.2013 8.73421 58.1061 8.44939H63.4922V8.40193C63.5401 8.11711 63.5877 7.87978 63.5877 7.59496C63.5877 7.35763 63.5401 7.02535 63.4446 6.59812C63.2064 5.79115 62.7298 5.17408 62.1101 4.69939C61.3949 4.17724 60.7276 4.03483 60.5369 4.03483C59.1548 3.7975 57.5816 4.41457 56.7712 5.69623C56.1992 6.59812 56.247 7.50001 56.247 7.78483C56.247 8.11711 56.2946 9.16141 57.1526 10.1108C58.1537 11.2025 59.5359 11.25 59.9648 11.2975C61.8718 11.345 63.1588 10.1582 63.4446 9.92092L62.1577 8.97154ZM58.821 6.02851C59.1069 5.83864 59.4407 5.69623 59.8696 5.69623C60.2986 5.69623 60.6324 5.83864 60.9659 6.02851C61.2521 6.26584 61.4904 6.55066 61.6332 6.88294H58.2013C58.2489 6.55066 58.4872 6.21838 58.821 6.02851Z" fill="white"></path></svg>