<svg fill="none" height="479" viewBox="0 0 1172 479" width="1172" xmlns="http://www.w3.org/2000/svg" class="icon-component"><path d="M401.059 0L280.772 71.3791L235.094 98.5368L235.196 4.10067L204.589 3.9054L173.981 3.69514V134.872L156.666 145.162L77.3494 192.387L0 238.832L173.981 342.881V479H204.21H234.424L234.54 389.22C234.547 383.932 234.562 384.201 234.569 379.111L398.888 477.393L414.089 450.025L429.276 422.642L309.15 350.977L234.744 306.666C234.754 305.153 234.765 295.133 234.773 294.814C234.828 292.687 234.915 232.536 234.992 171.042L431.885 54.4957L416.465 27.2478L401.059 0ZM173.981 207.153V241.355V270.496L120.608 238.756L173.981 207.153Z" fill="url(#paint0_linear_2001_118)"></path> <path d="M607.042 24.874C607.757 22.9203 609.07 21.0887 610.978 19.3793C612.887 17.4256 615.035 16.4487 617.421 16.4487C619.807 16.4487 621.954 17.3035 623.863 19.013C625.771 20.7224 627.203 22.6761 628.157 24.874L716.558 234.774C717.035 235.751 717.274 237.216 717.274 239.17C717.274 242.101 716.319 244.665 714.411 246.863C712.502 249.061 709.877 250.16 706.537 250.16C701.526 250.16 698.067 247.839 696.158 243.199L667.526 176.163H566.957L538.325 243.199C537.371 245.397 535.939 247.107 534.031 248.328C532.122 249.549 530.094 250.16 527.946 250.16C524.606 250.16 521.862 249.061 519.715 246.863C517.806 244.665 516.852 242.101 516.852 239.17C516.852 237.705 517.209 236.239 517.925 234.774L607.042 24.874ZM617.421 58.9416L576.62 153.452H657.863L617.421 58.9416Z" fill="white"></path> <path d="M741.938 27.8046C741.938 24.6298 743.011 21.9435 745.159 19.7456C747.306 17.5477 749.931 16.4487 753.032 16.4487C756.134 16.4487 758.759 17.5477 760.906 19.7456C763.053 21.9435 764.127 24.6298 764.127 27.8046V227.814H855.033C858.135 227.814 860.759 228.913 862.907 231.111C865.054 233.309 866.128 235.995 866.128 239.17C866.128 242.345 865.054 245.031 862.907 247.229C860.759 249.427 858.135 250.526 855.033 250.526H753.032C749.931 250.526 747.306 249.427 745.159 247.229C743.011 245.031 741.938 242.345 741.938 239.17V27.8046Z" fill="white"></path> <path d="M879.656 27.8046C879.656 24.6298 880.73 21.9435 882.877 19.7456C885.025 17.5477 887.649 16.4487 890.751 16.4487H999.91C1003.01 16.4487 1005.64 17.5477 1007.78 19.7456C1009.93 21.9435 1011 24.6298 1011 27.8046C1011 30.9793 1009.93 33.6656 1007.78 35.8635C1005.64 38.0614 1003.01 39.1604 999.91 39.1604H901.846V120.849H963.762C966.864 120.849 969.488 121.948 971.636 124.146C973.783 126.344 974.857 129.03 974.857 132.205C974.857 135.38 973.783 138.066 971.636 140.264C969.488 142.462 966.864 143.561 963.762 143.561H901.846V239.17C901.846 242.345 900.772 245.031 898.625 247.229C896.477 249.427 893.853 250.526 890.751 250.526C887.649 250.526 885.025 249.427 882.877 247.229C880.73 245.031 879.656 242.345 879.656 239.17V27.8046Z" fill="white"></path> <path d="M1061.38 24.874C1062.09 22.9203 1063.41 21.0887 1065.31 19.3793C1067.22 17.4256 1069.37 16.4487 1071.76 16.4487C1074.14 16.4487 1076.29 17.3035 1078.2 19.013C1080.11 20.7224 1081.54 22.6761 1082.49 24.874L1170.89 234.774C1171.37 235.751 1171.61 237.216 1171.61 239.17C1171.61 242.101 1170.66 244.665 1168.75 246.863C1166.84 249.061 1164.21 250.16 1160.87 250.16C1155.86 250.16 1152.4 247.839 1150.49 243.199L1121.86 176.163H1021.29L992.661 243.199C991.707 245.397 990.275 247.107 988.367 248.328C986.458 249.549 984.43 250.16 982.282 250.16C978.942 250.16 976.198 249.061 974.051 246.863C972.142 244.665 971.188 242.101 971.188 239.17C971.188 237.705 971.545 236.239 972.261 234.774L1061.38 24.874ZM1071.76 58.9416L1030.96 153.452H1112.2L1071.76 58.9416Z" fill="white"></path> <path d="M643.13 329.323C636.823 323.718 629.464 318.655 621.055 314.135C612.645 309.615 603.622 307.355 593.986 307.355C584.7 307.355 575.94 309.163 567.705 312.779C559.471 316.395 552.288 321.367 546.155 327.695C540.199 334.023 535.468 341.436 531.964 349.934C528.46 358.431 526.708 367.471 526.708 377.054C526.708 386.636 528.46 395.676 531.964 404.174C535.468 412.671 540.199 420.084 546.155 426.412C552.287 432.559 559.471 437.441 567.705 441.057C575.94 444.673 584.7 446.481 593.986 446.481C603.797 446.481 612.908 444.582 621.317 440.786C629.902 436.808 637.261 431.384 643.393 424.514C644.269 423.429 645.32 422.615 646.547 422.073C647.948 421.53 649.35 421.259 650.751 421.259C653.029 421.259 654.693 422.073 655.745 423.7C656.971 425.327 657.584 427.135 657.584 429.124C657.584 432.017 656.796 434.277 655.219 435.904C647.51 444.582 638.4 451.362 627.887 456.244C617.375 460.945 606.075 463.295 593.986 463.295C582.422 463.295 571.56 461.035 561.398 456.515C551.236 451.995 542.389 445.848 534.855 438.074C527.321 430.299 521.364 421.169 516.984 410.682C512.604 400.196 510.414 388.986 510.414 377.054C510.414 365.121 512.604 353.911 516.984 343.425C521.364 332.939 527.321 323.808 534.855 316.034C542.389 308.079 551.236 301.841 561.398 297.321C571.56 292.801 582.422 290.541 593.986 290.541C605.724 290.541 616.675 292.891 626.836 297.592C637.173 302.293 646.196 308.711 653.905 316.847C654.781 317.751 655.57 318.927 656.27 320.373C656.971 321.819 657.322 323.266 657.322 324.712C657.322 327.063 656.533 328.871 654.956 330.136C653.38 331.402 651.54 332.035 649.437 332.035C646.809 332.035 644.707 331.131 643.13 329.323Z" fill="white"></path> <path d="M762.59 290.541C774.208 290.541 785.122 292.801 795.331 297.321C805.541 301.841 814.43 308.079 822 316.034C829.745 323.808 835.818 332.939 840.219 343.425C844.619 353.911 846.82 365.121 846.82 377.054C846.82 388.986 844.619 400.196 840.219 410.682C835.818 421.169 829.745 430.299 822 438.074C814.43 445.848 805.541 451.995 795.331 456.515C785.122 461.035 774.208 463.295 762.59 463.295C750.972 463.295 740.059 461.035 729.849 456.515C719.639 451.995 710.75 445.848 703.181 438.074C695.612 430.299 689.627 421.169 685.226 410.682C680.825 400.196 678.625 388.986 678.625 377.054C678.625 365.121 680.825 353.911 685.226 343.425C689.627 332.939 695.612 323.808 703.181 316.034C710.75 308.079 719.639 301.841 729.849 297.321C740.059 292.801 750.972 290.541 762.59 290.541ZM762.59 307.355C753.261 307.355 744.459 309.163 736.186 312.779C727.913 316.395 720.696 321.367 714.535 327.695C708.55 334.023 703.797 341.436 700.276 349.934C696.756 358.431 694.996 367.471 694.996 377.054C694.996 386.636 696.756 395.676 700.276 404.174C703.797 412.671 708.55 420.084 714.535 426.412C720.696 432.559 727.913 437.441 736.186 441.057C744.459 444.673 753.261 446.481 762.59 446.481C771.92 446.481 780.721 444.673 788.994 441.057C797.268 437.441 804.485 432.559 810.646 426.412C816.807 420.084 821.648 412.671 825.168 404.174C828.689 395.676 830.449 386.636 830.449 377.054C830.449 367.471 828.689 358.431 825.168 349.934C821.648 341.436 816.807 334.023 810.646 327.695C804.485 321.367 797.268 316.395 788.994 312.779C780.721 309.163 771.92 307.355 762.59 307.355Z" fill="white"></path> <path d="M867.82 298.922C867.82 296.579 868.645 294.596 870.294 292.974C871.943 291.352 873.958 290.541 876.34 290.541C878.722 290.541 880.737 291.352 882.386 292.974C884.035 294.596 884.86 296.579 884.86 298.922V454.914C884.86 457.257 884.035 459.24 882.386 460.862C880.737 462.484 878.722 463.295 876.34 463.295C873.958 463.295 871.943 462.484 870.294 460.862C868.645 459.24 867.82 457.257 867.82 454.914V298.922Z" fill="white"></path> <path d="M909.844 298.922C909.844 296.579 910.658 294.596 912.285 292.974C913.913 291.352 915.902 290.541 918.253 290.541C920.243 290.541 921.69 290.992 922.594 291.893C923.679 292.614 924.764 293.695 925.849 295.137L1019.17 426.798V298.922C1019.17 296.579 1019.98 294.596 1021.61 292.974C1023.24 291.352 1025.23 290.541 1027.58 290.541C1029.93 290.541 1031.92 291.352 1033.55 292.974C1035.18 294.596 1035.99 296.579 1035.99 298.922V454.914C1035.99 457.257 1035.18 459.24 1033.55 460.862C1031.92 462.484 1029.93 463.295 1027.58 463.295C1025.59 463.295 1023.96 462.754 1022.7 461.673C1021.43 460.411 1020.35 459.06 1019.44 457.618L926.663 326.768V454.914C926.663 457.257 925.849 459.24 924.222 460.862C922.594 462.484 920.605 463.295 918.253 463.295C915.902 463.295 913.913 462.484 912.285 460.862C910.658 459.24 909.844 457.257 909.844 454.914V298.922Z" fill="white"></path> <path d="M1110.21 376.377C1105.1 374.752 1099.65 372.767 1093.85 370.42C1088.22 367.893 1083.02 364.914 1078.25 361.484C1073.64 358.055 1069.81 354.083 1066.73 349.57C1063.67 344.877 1062.13 339.552 1062.13 333.595C1062.13 326.735 1063.58 320.688 1066.48 315.453C1069.38 310.037 1073.13 305.524 1077.74 301.914C1082.34 298.123 1087.45 295.325 1093.08 293.52C1098.88 291.534 1104.59 290.541 1110.21 290.541C1113.97 290.541 1117.8 290.902 1121.72 291.625C1125.82 292.166 1129.83 293.249 1133.75 294.873C1137.67 296.498 1141.42 298.755 1145 301.643C1148.75 304.531 1152.16 308.232 1155.24 312.745C1156.25 314.37 1156.76 316.265 1156.76 318.431C1156.76 320.958 1156 323.125 1154.46 324.93C1153.1 326.554 1151.22 327.366 1148.84 327.366C1145.77 327.366 1143.38 325.922 1141.68 323.034C1139.63 319.424 1137.24 316.626 1134.52 314.64C1131.79 312.474 1128.98 310.849 1126.08 309.766C1123.35 308.683 1120.53 308.051 1117.63 307.871C1114.9 307.51 1112.43 307.33 1110.21 307.33C1106.81 307.33 1103.23 307.781 1099.47 308.683C1095.72 309.586 1092.23 311.03 1088.99 313.015C1085.92 315.001 1083.36 317.709 1081.32 321.138C1079.27 324.388 1078.25 328.54 1078.25 333.595C1078.25 337.205 1079.69 340.454 1082.59 343.342C1085.66 346.231 1089.33 348.758 1093.59 350.924C1097.85 353.09 1102.29 354.985 1106.89 356.61C1111.49 358.235 1115.42 359.679 1118.66 360.943C1125.14 363.47 1131.02 366.177 1136.31 369.066C1141.59 371.954 1146.11 375.384 1149.86 379.355C1153.78 383.327 1156.77 387.93 1158.81 393.165C1161.03 398.4 1162.14 404.628 1162.14 411.848C1162.14 419.069 1160.69 425.838 1157.79 432.157C1154.89 438.475 1150.97 443.98 1146.03 448.673C1141.25 453.186 1135.71 456.797 1129.4 459.505C1123.09 462.032 1116.52 463.295 1109.7 463.295C1104.93 463.295 1099.9 462.663 1094.61 461.4C1089.5 459.956 1084.56 458.061 1079.78 455.714C1075.18 453.186 1070.91 450.208 1066.99 446.778C1063.24 443.348 1060.34 439.558 1058.3 435.405C1057.44 433.961 1057.02 432.517 1057.02 431.073C1057.02 428.907 1057.78 426.921 1059.32 425.116C1061.02 423.311 1063.07 422.408 1065.46 422.408C1068.7 422.408 1071.08 423.852 1072.62 426.74C1074.15 429.99 1076.37 432.878 1079.27 435.405C1082.34 437.752 1085.66 439.828 1089.25 441.634C1092.82 443.258 1096.4 444.522 1099.98 445.424C1103.74 446.146 1107.06 446.507 1109.96 446.507C1114.56 446.507 1119.08 445.605 1123.51 443.8C1127.95 441.995 1131.79 439.558 1135.03 436.489C1138.44 433.42 1141.16 429.809 1143.21 425.658C1145.26 421.325 1146.28 416.722 1146.28 411.848C1146.28 406.974 1145.34 402.732 1143.47 399.122C1141.76 395.512 1139.29 392.353 1136.05 389.645C1132.81 386.937 1128.97 384.5 1124.54 382.333C1120.11 380.168 1115.33 378.182 1110.21 376.377Z" fill="white"></path> <defs><linearGradient id="paint0_linear_2001_118" gradientUnits="userSpaceOnUse" x1="12662.7" x2="12813.6" y1="44697" y2="3524.28"><stop stop-color="#048ACC"></stop> <stop offset="1" stop-color="#65B8E1"></stop></linearGradient></defs></svg>