<svg width="284px" height="284px" viewBox="0 0 284 284" version="1.1" xmlns="http://www.w3.org/2000/svg" xmlns:xlink="http://www.w3.org/1999/xlink">
    <g id="Page-1" stroke="none" stroke-width="1" fill="none" fill-rule="evenodd">
        <g id="Group">
            <path d="M142,284 C220.299983,284 284,220.296699 284,141.999408 C284,63.7050762 220.299983,0 142,0 C63.7014367,0 0,63.7050762 0,141.999408 C0,220.296699 63.7014367,284 142,284 Z M222.274967,107.348239 L131.457683,198.164908 C128.604667,201.017912 124.733983,202.623689 120.7,202.623689 C116.664597,202.623689 112.794623,201.017912 109.941843,198.164908 L61.7250333,149.949009 C55.787185,144.011067 55.7855283,134.371673 61.72669,128.434915 C67.6691533,122.496973 77.300185,122.49579 83.2408733,128.436098 L120.7,165.890809 L200.757233,85.836394 C206.69875,79.8963221 216.331083,79.8973871 222.2726,85.835329 C228.21175,91.7720876 228.212933,101.409824 222.274967,107.348239 Z" id="Shape" fill="#6EE750"></path>
            <path d="M219.166394,86.8414877 C214.060813,81.7178505 205.770725,81.721158 200.659251,86.8414877 L117.36473,170.330172 L80.3441966,133.224142 C75.2322508,128.100978 66.9458167,128.100978 61.8338709,133.224142 C56.722043,138.348488 56.722043,146.653992 61.8338709,151.777157 L108.107858,198.157331 C110.662299,200.717142 114.011688,202 117.361194,202 C120.710701,202 124.063743,200.720685 126.617712,198.157331 L219.166394,105.393794 C224.277869,100.2737 224.277869,91.9647705 219.166394,86.8414877 Z" id="Path" fill="#110F22" fill-rule="nonzero"></path>
        </g>
    </g>
</svg>