<svg width="20px" height="17px" viewBox="0 0 20 17" version="1.1" xmlns="http://www.w3.org/2000/svg" xmlns:xlink="http://www.w3.org/1999/xlink" class="icon-component" style="width: 18px; height: auto;"><g id="Page-1-Copy" stroke="none" stroke-width="1" fill="none" fill-rule="evenodd"><g id="Desktop-Copy-3" transform="translate(-1769.000000, -701.000000)" stroke="#F3F3F3" stroke-width="1.74887"><g id="Group" transform="translate(1770.000000, 702.000000)"><path d="M13.3237293,0.000374644564 L13.3237293,0.000386079846 L13.3291042,0.000386079846 C15.9087094,0.000386079846 18,2.0914761 18,4.67095558 C18,5.74630665 17.533871,6.88850838 16.7134566,8.05105348 C15.8977309,9.20687463 14.7854713,10.3059196 13.6276966,11.2734588 C11.6647173,12.9139644 9.66231826,14.1012898 9.0010807,14.4765957 C8.34295371,14.0988884 6.33911378,12.8965828 4.37407599,11.2465859 C3.21542073,10.2736721 2.10224621,9.171471 1.28580006,8.01792547 C0.463784598,6.85650103 0,5.72461392 0,4.67095558 C0,2.09146466 2.09119909,0.000386079846 4.6708501,0.000386079846 L4.6708501,0.00045469154 L4.68266343,0.000317468153 C6.05201447,-0.0158520209 7.35559742,0.586375683 8.23092723,1.63946226 L8.99495103,2.55863025 L9.76487578,1.6444023 C10.6484052,0.595352379 11.9522168,-0.00695537135 13.3237293,0.000374644564 Z" id="Path"></path></g></g></g></svg>