<svg width="12" height="12" viewBox="0 0 12 12" xmlns="http://www.w3.org/2000/svg" class="icon-component link-icon" icon-size="12"><path fill-rule="evenodd" clip-rule="evenodd" d="M1.7436 0H5.05645C5.05645 0 5.53303 0 5.53303 0.581395C5.53303 1.16279 5.05645 1.16279 5.05645 1.16279H2.09232C1.57873 1.16279 1.1624 1.57926 1.1624 2.09302V9.90698C1.1624 10.4207 1.57873 10.8372 2.09232 10.8372H9.90367C10.4173 10.8372 10.8336 10.4207 10.8336 9.90698V6.94186C10.8336 6.94186 10.8336 6.46512 11.4148 6.46512C11.996 6.46512 11.996 6.94186 11.996 6.94186V10.2558C11.996 11.2191 11.2153 12 10.2524 12H1.7436C0.780648 12 0 11.2191 0 10.2558V1.74419C0 0.780887 0.780648 0 1.7436 0ZM7.3115 0.000108809C7.3115 0.000108809 6.74193 -0.0230107 6.74193 0.60476C6.74193 1.23258 7.3115 1.23267 7.3115 1.23267H9.94823L4.39912 6.78363C4.39912 6.78363 4.07458 7.09181 4.47935 7.4967C4.89652 7.91403 5.22106 7.60585 5.22106 7.60585L10.7638 2.06125V4.59313C10.7638 4.59313 10.6708 5.20941 11.3799 5.20941C12.089 5.20941 11.996 4.59313 11.996 4.59313V0.697783C11.996 0.312473 11.6837 0.000108809 11.2985 0.000108809H7.3115Z"></path></svg>