<svg width="278px" height="279px" viewBox="0 0 278 279" version="1.1" xmlns="http://www.w3.org/2000/svg" xmlns:xlink="http://www.w3.org/1999/xlink" class="icon-component" style="width: 21px; height: auto;"><g id="Page-1-Copy" stroke="none" stroke-width="1" fill-rule="evenodd"><g id="Desktop-Copy" transform="translate(-180.000000, -621.000000)" stroke="#000000"><g id="Group" transform="translate(181.000000, 621.562446)"><path d="M109,27.4375543 L109,86.4375543 C109,100.244673 97.8071187,111.437554 84,111.437554 L25,111.437554 C11.1928813,111.437554 1.69088438e-15,100.244673 0,86.4375543 L0,27.4375543 C-1.69088438e-15,13.6304355 11.1928813,2.43755427 25,2.43755427 L84,2.43755427 C97.8071187,2.43755427 109,13.6304355 109,27.4375543 Z M80,21.4375543 L29,21.4375543 C23.4771525,21.4375543 19,25.9147068 19,31.4375543 L19,82.4375543 C19,87.9604018 23.4771525,92.4375543 29,92.4375543 L80,92.4375543 C85.5228475,92.4375543 90,87.9604018 90,82.4375543 L90,31.4375543 C90,25.9147068 85.5228475,21.4375543 80,21.4375543 Z M109,193.437554 L109,252.437554 C109,266.244673 97.8071187,277.437554 84,277.437554 L25,277.437554 C11.1928813,277.437554 1.69088438e-15,266.244673 0,252.437554 L0,193.437554 C-1.69088438e-15,179.630436 11.1928813,168.437554 25,168.437554 L84,168.437554 C97.8071187,168.437554 109,179.630436 109,193.437554 Z M80,187.437554 L29,187.437554 C23.4771525,187.437554 19,191.914707 19,197.437554 L19,248.437554 C19,253.960402 23.4771525,258.437554 29,258.437554 L80,258.437554 C85.5228475,258.437554 90,253.960402 90,248.437554 L90,197.437554 C90,191.914707 85.5228475,187.437554 80,187.437554 Z M274,193.437554 L274,252.437554 C274,266.244673 262.807119,277.437554 249,277.437554 L190,277.437554 C176.192881,277.437554 165,266.244673 165,252.437554 L165,193.437554 C165,179.630436 176.192881,168.437554 190,168.437554 L249,168.437554 C262.807119,168.437554 274,179.630436 274,193.437554 Z M245,187.437554 L194,187.437554 C188.477153,187.437554 184,191.914707 184,197.437554 L184,248.437554 C184,253.960402 188.477153,258.437554 194,258.437554 L245,258.437554 C250.522847,258.437554 255,253.960402 255,248.437554 L255,197.437554 C255,191.914707 250.522847,187.437554 245,187.437554 Z M268.703842,47.7738637 C273.683027,52.7530488 276.172619,59.279068 276.172619,65.8050866 C276.172619,72.1827868 273.794904,78.5604876 269.039474,83.4944411 L268.703842,83.8363096 L228.398755,124.141396 C223.41957,129.120581 216.893551,131.610173 210.367532,131.610173 C203.989832,131.610173 197.612131,129.232458 192.678178,124.477028 L192.336309,124.141396 L152.031223,83.8363096 C147.052038,78.8571245 144.562446,72.3311052 144.562446,65.8050866 C144.562446,59.4273865 146.940161,53.0496857 151.695591,48.1157322 L152.031223,47.7738637 L192.336309,7.46877719 C197.315494,2.48959216 203.841514,-1.70530257e-13 210.367532,-9.23705556e-14 C216.745232,-9.23705556e-14 223.122933,2.37771514 228.056887,7.13314542 L228.398755,7.46877719 L268.703842,47.7738637 Z M252.440386,56.9662519 L219.206367,23.7322332 L218.944994,23.4782298 C216.567696,21.2333029 213.524695,20.0984694 210.447045,20.0984694 C207.283848,20.0984694 204.082653,21.2975089 201.532968,23.7279629 L201.532968,23.7279629 L168.294679,56.9662519 L168.040676,57.2276247 C165.795749,59.6049234 164.660915,62.6479242 164.660915,65.7255739 C164.660915,68.8887708 165.859955,72.0899663 168.290409,74.6396512 L168.290409,74.6396512 L201.528698,107.87794 L201.79007,108.131943 C204.167369,110.37687 207.21037,111.511704 210.28802,111.511704 C213.451217,111.511704 216.652412,110.312664 219.202097,107.88221 L219.202097,107.88221 L252.440386,74.6439214 L252.697228,74.3795427 C254.966777,71.9746428 256.101551,68.8898647 256.101551,65.8050866 C256.101551,62.6060578 254.881163,59.4070289 252.440386,56.9662519 L252.440386,56.9662519 Z"></path></g></g></g></svg>