<svg width="16" height="16" viewBox="0 0 16 16" fill="none" xmlns="http://www.w3.org/2000/svg">
<path d="M10.6012 7.66879C10.8848 7.25475 11.0361 6.76446 11.0352 6.26265L11.0288 2.6113C11.0333 2.53582 11.0325 2.4601 11.0262 2.38474C10.9654 1.71271 10.6787 1.14757 10.1647 0.688668C9.65078 0.231049 9.04148 0.00128005 8.33553 0.00128005L5.82471 0L5.82727 7.66879H10.6012ZM8.93075 1.96744C9.09844 2.11848 9.19316 2.30985 9.21428 2.54154L9.22068 2.6113L9.22708 6.26265C9.22388 6.5065 9.13556 6.71259 8.96019 6.88028C8.87589 6.96252 8.77604 7.02712 8.66647 7.07031C8.55691 7.1135 8.43983 7.1344 8.32209 7.13181L7.60782 7.13117L7.60654 1.74023L8.32081 1.74087C8.5589 1.74087 8.76306 1.81639 8.93075 1.96744ZM11.2022 9.51526C11.1676 9.09188 11.0255 8.68434 10.7894 8.33121H5.82919L5.83239 15.9987L8.52241 16C9.26356 16 9.89527 15.7453 10.4175 15.2358C10.9398 14.7263 11.2048 14.1119 11.2112 13.3932L11.2048 9.74119C11.2092 9.66591 11.2084 9.59042 11.2022 9.51526ZM9.40117 13.3919C9.39989 13.6351 9.31157 13.8412 9.13556 14.0095C9.05398 14.0904 8.95715 14.1543 8.85069 14.1975C8.74423 14.2406 8.63025 14.2623 8.51537 14.2611H7.62318L7.62574 8.87012L8.52561 8.87076C8.7541 8.87076 8.95251 8.94692 9.12212 9.09732C9.29173 9.24837 9.38645 9.4391 9.40757 9.67079L9.41397 9.74119L9.40117 13.3919Z" fill="#FFFEFE"/>
<path d="M1 10.9566V4.94287L4.14701 7.97723L1 10.9572V10.9566Z" fill="#FCC42C"/>
<path d="M15.028 4.97937V10.9937L11.8804 7.98621L15.028 4.97937Z" fill="#FCC42C"/>
</svg>
