<svg viewBox="0 0 16 16" xmlns="http://www.w3.org/2000/svg" class="icon-component" color="red" style="width: 15px; height: auto; opacity: 0.4;"><g clip-path="url(#clip0_912_7237)"><path d="M8 7.99999C10.2091 7.99999 12 6.20913 12 4C12 1.79086 10.2091 0 8 0C5.79086 0 4 1.79086 4 4C4 6.20913 5.79086 7.99999 8 7.99999Z" fill="#F3F3F3"></path> <path d="M13.9329 12.3C13.3853 13.4105 12.5377 14.3457 11.4862 14.9996C10.4347 15.6535 9.22115 16.0001 7.98288 16.0001C6.74461 16.0001 5.53106 15.6535 4.47953 14.9996C3.42801 14.3457 2.58049 13.4105 2.03287 12.3C1.98684 12.2066 1.96289 12.104 1.96289 12C1.96289 11.8959 1.98684 11.7933 2.03287 11.7C2.71632 10.3142 3.86231 9.21064 5.27288 8.57996C6.09575 9.0729 7.03699 9.33326 7.99621 9.33326C8.95544 9.33326 9.89667 9.0729 10.7195 8.57996C12.1159 9.22191 13.2501 10.3231 13.9329 11.7C13.9789 11.7933 14.0029 11.8959 14.0029 12C14.0029 12.104 13.9789 12.2066 13.9329 12.3Z" fill="#F3F3F3"></path></g> <defs><clipPath id="clip0_912_7237"><rect width="16" height="16" fill="white"></rect></clipPath></defs></svg>