<svg width="16" height="16" viewBox="0 0 16 16" xmlns="http://www.w3.org/2000/svg" class="icon-component" style="width: 21px; height: auto;"><path d="M1.19833 14.8014C1.19833 14.8014 0.9325 12.2739 1.89667 11.3097C2.06763 11.1055 2.28129 10.9413 2.52261 10.8286C2.76392 10.7159 3.02701 10.6575 3.29333 10.6575C3.55966 10.6575 3.82275 10.7159 4.06406 10.8286C4.30537 10.9413 4.51904 11.1055 4.69 11.3097C4.89421 11.4807 5.05845 11.6944 5.17114 11.9357C5.28383 12.177 5.34223 12.4401 5.34223 12.7064C5.34223 12.9727 5.28383 13.2358 5.17114 13.4771C5.05845 13.7184 4.89421 13.9321 4.69 14.1031C3.72583 15.0672 1.19833 14.8014 1.19833 14.8014ZM13.19 7.87766L7.48333 12.7064L6.5 9.49974L3.29333 8.51641L8.12208 2.80974C8.96424 1.81445 10.0853 1.09434 11.3407 0.742301C12.596 0.390267 13.928 0.422466 15.1649 0.834742C15.5772 2.07162 15.6095 3.40367 15.2574 4.65904C14.9054 5.91441 14.1853 7.03549 13.19 7.87766ZM12.49 4.75966C12.49 4.51243 12.4167 4.27076 12.2793 4.0652C12.142 3.85963 11.9468 3.69942 11.7184 3.60481C11.4899 3.5102 11.2386 3.48545 10.9961 3.53368C10.7537 3.58191 10.5309 3.70096 10.3561 3.87578C10.1813 4.05059 10.0623 4.27332 10.014 4.5158C9.96579 4.75827 9.99054 5.00961 10.0852 5.23801C10.1798 5.46642 10.34 5.66164 10.5455 5.799C10.7511 5.93635 10.9928 6.00966 11.24 6.00966C11.4042 6.00967 11.5667 5.97735 11.7184 5.91453C11.87 5.85172 12.0079 5.75965 12.1239 5.64357C12.24 5.5275 12.3321 5.38969 12.3949 5.23803C12.4577 5.08637 12.4901 4.92382 12.4901 4.75966H12.49ZM12.3716 13.4047V10.7537L9.5035 13.1803L10.2766 15.4997L12.3716 13.4047ZM5.24633 3.62808H2.595L0.5 5.72316L2.8195 6.49633L5.24633 3.62808Z"></path></svg>