<svg width="11" height="18" viewBox="0 0 11 18" fill="none" xmlns="http://www.w3.org/2000/svg" class="icon-component"><path d="M5.50131 0C6.66738 0 7.03379 0.878586 7.3412 1.75579C7.47033 2.1283 10.5005 10.8453 10.5916 11.107C10.6159 11.1799 10.5995 11.2997 10.4927 11.3431C10.3852 11.3858 8.81075 12.0289 8.72357 12.0633C8.6364 12.0985 8.53873 12.0475 8.50727 11.9559C8.4745 11.8657 7.821 9.96534 7.74759 9.75327H3.25635C3.18556 9.96534 2.52419 11.8699 2.4947 11.9559C2.46455 12.0434 2.37081 12.1026 2.27774 12.0633C2.18466 12.0248 0.604338 11.3817 0.509951 11.3431C0.419497 11.3059 0.378203 11.1978 0.409665 11.107C0.521094 10.7806 3.50542 2.20335 3.65749 1.75579C3.95376 0.891668 4.33262 0 5.50131 0ZM0.169765 15.5977C0.0753783 15.5977 0 15.6803 0 15.7808V17.8182C0 17.9188 0.0753783 18 0.169765 18H10.8283C10.9246 18 11 17.9188 11 17.8182V15.7808C11 15.6803 10.9246 15.5977 10.8283 15.5977H0.169765ZM5.49082 2.84646L3.97277 7.6353H7.03379L5.51049 2.84646H5.49082Z" fill="#FF3737"></path></svg>