<svg width="18.75px" height="20px" viewBox="0 0 18.75 20" version="1.1" xmlns="http://www.w3.org/2000/svg" xmlns:xlink="http://www.w3.org/1999/xlink">
    <g id="Page-1" stroke="none" stroke-width="1" fill="none" fill-rule="evenodd">
        <g id="MacBook-Pro-14&quot;" transform="translate(-835.000000, -427.000000)" fill="#FFD569" fill-rule="nonzero">
            <g id="Group" transform="translate(835.000000, 427.000000)">
                <path d="M4.6875,5.859375 C5.582425,5.859375 6.3707,5.6150875 7.0216375,5.30335 C6.360775,6.5467875 5.9648125,7.98615 5.886225,9.470525 C3.2438625,9.754175 1.171875,11.970975 1.171875,14.6875 C1.171875,17.595375 3.53745,20 6.4453125,20 C7.34115,20 8.1993125,19.747625 8.9689625,19.325375 C7.7749625,18.154875 7.03125,16.48775 7.03125,14.6875 C7.03125,12.88725 7.7749625,11.25915 8.9689625,10.08865 C8.3763125,9.7634875 7.7305625,9.5423875 7.056275,9.4564875 C7.3111,5.3149375 10.4388375,1.8988 14.471625,1.2754875 C13.4445,2.7174375 12.890625,4.438025 12.890625,6.2445125 L12.890625,9.4732625 C10.261075,9.7691375 8.203125,11.9801375 8.203125,14.6875 C8.203125,17.595375 10.5687,20 13.4765,20 C16.384375,20 18.75,17.595375 18.75,14.6875 C18.75,11.9801375 16.692,9.7691375 14.0625,9.4732625 L14.0625,6.2445125 C14.0625,4.2634625 14.833875,2.400975 16.234625,1.00021375 L17.23475,0 L15.82025,0 C13.06825,0 10.5740375,1.12228375 8.769375,2.9325875 C8.2955875,2.477725 6.776425,1.171875 4.6875,1.171875 C2.215575,1.171875 0.52414,3.0137625 0.4423525,3.0921875 L0,3.515625 L0.4423525,3.9390625 C0.52414,4.0174875 2.215575,5.859375 4.6875,5.859375 Z M13.4765,12.92975 C12.507375,12.92975 11.71875,13.71825 11.71875,14.6875 L10.546875,14.6875 C10.546875,13.07225 11.8612625,11.7578125 13.4765,11.7578125 L13.4765,12.92975 Z M6.4453125,12.92975 C5.476075,12.92975 4.6875,13.71825 4.6875,14.6875 L3.515625,14.6875 C3.515625,13.07225 4.8300125,11.7578125 6.4453125,11.7578125 L6.4453125,12.92975 Z" id="Shape"></path>
            </g>
        </g>
    </g>
</svg>