<svg width="53" height="14" viewBox="0 0 53 14" fill="none" xmlns="http://www.w3.org/2000/svg" class="icon-component"><path d="M29.9997 4.09715H33.2909V13.1875H36.806V4.09715H40.0799V0.75H29.9997V4.09715Z" fill="#FF3F3F"></path> <path d="M47.5929 4.09715H52.745V0.75H47.5929C42.8544 0.75 40.3211 3.25578 40.3211 6.96874C40.3211 10.6817 42.8544 13.1875 47.5929 13.1875H52.745V9.82205H47.5929C45.4043 9.82205 43.957 8.99896 43.957 6.96874C43.957 4.93848 45.4043 4.09715 47.5929 4.09715Z" fill="#FF3F3F"></path> <path d="M22.8487 0.75L20.9877 8.17591L19.1095 0.75H12.889V13.1875H16.4042V3.07288L18.9717 13.1875H23.0038L25.554 3.05459V13.1875H29.0692V0.75H22.8487Z" fill="#FF3F3F"></path> <path d="M4.6869 13.9373C1.44743 13.9373 0 11.1754 0 8.43187C0 6.56626 0.603095 4.40797 1.58528 2.6704C2.55023 0.987682 3.70473 0 4.6869 0C5.66911 0 6.82358 1.00597 7.78855 2.6704C8.78796 4.40797 9.37381 6.56626 9.37381 8.43187C9.37381 11.1754 7.92639 13.9373 4.6869 13.9373Z" fill="#FF3F3F"></path></svg>