<svg xmlns="http://www.w3.org/2000/svg" width="18" height="18" viewBox="0 0 18 18" fill="none" class="icon-component protectedShield" icon-size="50"><path d="M4.03316 3.70771L3.8047 3.19369L4.03316 3.70771ZM7.78152 2.04177L8.00997 2.55579V2.55579L7.78152 2.04177ZM10.2184 2.04177L10.4468 1.52775V1.52775L10.2184 2.04177ZM13.9519 3.7011L13.7234 4.21512L13.9519 3.7011ZM2.30244 6.45318L1.74089 6.48589L2.30244 6.45318ZM7.45179 15.508L7.76714 15.0422L7.45179 15.508ZM10.5484 15.5085L10.8643 15.9739L10.5484 15.5085ZM15.6838 6.46922L15.1224 6.43321V6.43321L15.6838 6.46922ZM4.26161 4.22173L8.00997 2.55579L7.55307 1.52775L3.8047 3.19369L4.26161 4.22173ZM9.9899 2.55579L13.7234 4.21512L14.1803 3.18708L10.4468 1.52775L9.9899 2.55579ZM1.74089 6.48589C1.8785 8.8484 2.29634 10.6143 3.17169 12.107C4.0461 13.5982 5.34459 14.7607 7.13644 15.9738L7.76714 15.0422C6.03539 13.8698 4.89407 12.8202 4.14214 11.538C3.39114 10.2573 2.9961 8.68863 2.86399 6.42048L1.74089 6.48589ZM10.8643 15.9739C12.6639 14.7527 13.9522 13.5792 14.818 12.0867C15.6841 10.5937 16.0955 8.83672 16.2451 6.50524L15.1224 6.43321C14.9786 8.67507 14.5896 10.2385 13.8449 11.5222C13.1 12.8063 11.9674 13.8658 10.2326 15.043L10.8643 15.9739ZM7.13644 15.9738C8.25976 16.7343 9.74024 16.7367 10.8643 15.9739L10.2326 15.043C9.49108 15.5462 8.51071 15.5456 7.76714 15.0422L7.13644 15.9738ZM8.00997 2.55579C8.64023 2.27568 9.35965 2.27567 9.9899 2.55579L10.4468 1.52775C9.52567 1.11835 8.47421 1.11835 7.55307 1.52775L8.00997 2.55579ZM13.7234 4.21512C14.618 4.61273 15.1826 5.49489 15.1224 6.43321L16.2451 6.50524C16.3379 5.05896 15.4693 3.75995 14.1803 3.18708L13.7234 4.21512ZM3.8047 3.19369C2.52494 3.76247 1.65714 5.04804 1.74089 6.48589L2.86399 6.42048C2.80975 5.48939 3.37294 4.61669 4.26161 4.22173L3.8047 3.19369Z" fill="#6EE750"></path> <path d="M7.10139 8.81076C6.85881 8.61669 6.50483 8.65602 6.31076 8.89861C6.11669 9.14119 6.15602 9.49517 6.39861 9.68924L7.10139 8.81076ZM8.06462 10.3017L8.41601 9.86245L8.06462 10.3017ZM9.09757 10.2099L8.67425 9.83951L9.09757 10.2099ZM11.6733 8.12041C11.8779 7.88661 11.8542 7.53125 11.6204 7.32668C11.3866 7.1221 11.0312 7.1458 10.8267 7.37959L11.6733 8.12041ZM6.39861 9.68924L7.71323 10.7409L8.41601 9.86245L7.10139 8.81076L6.39861 9.68924ZM9.52089 10.5803L11.6733 8.12041L10.8267 7.37959L8.67425 9.83951L9.52089 10.5803ZM7.71323 10.7409C8.26169 11.1797 9.05838 11.1089 9.52089 10.5803L8.67425 9.83951C8.60817 9.91502 8.49436 9.92514 8.41601 9.86245L7.71323 10.7409Z" fill="#6EE750"></path></svg>