<svg width="18" height="18" viewBox="0 0 18 18" fill="none" xmlns="http://www.w3.org/2000/svg">
<g filter="url(#filter0_i_3019_108827)">
<path d="M15.2158 11.4463C14.756 12.262 14.014 12.8817 13.1294 13.1888C12.2447 13.4958 11.2784 13.4692 10.4121 13.1138L11.2117 15.5127C11.2494 15.6254 11.2599 15.7455 11.242 15.863C11.2242 15.9806 11.1787 16.0922 11.1092 16.1886C11.0397 16.2851 10.9483 16.3636 10.8424 16.4178C10.7366 16.4719 10.6194 16.5001 10.5005 16.5H7.50046C7.38158 16.5001 7.26437 16.4719 7.15853 16.4178C7.05269 16.3636 6.96124 16.2851 6.89176 16.1886C6.82227 16.0922 6.77674 15.9806 6.75892 15.863C6.7411 15.7455 6.75151 15.6254 6.78928 15.5127L7.58657 13.1208C6.75768 13.4519 5.83991 13.4867 4.9883 13.2194C4.1367 12.9521 3.40348 12.399 2.91249 11.6536C2.4215 10.9082 2.20285 10.0162 2.29347 9.12823C2.38409 8.24027 2.77844 7.41081 3.40988 6.77997L8.47022 1.71973C8.53984 1.65007 8.6225 1.59481 8.71349 1.55711C8.80448 1.51941 8.902 1.5 9.00049 1.5C9.09898 1.5 9.1965 1.51941 9.28749 1.55711C9.37847 1.59481 9.46114 1.65007 9.53076 1.71973L14.5911 6.77997C15.1915 7.38223 15.5777 8.16483 15.6906 9.00772C15.8034 9.85062 15.6367 10.7073 15.2158 11.4463V11.4463Z" fill="#8755F2"/>
</g>
<defs>
<filter id="filter0_i_3019_108827" x="2.27344" y="1.5" width="13.4515" height="19" filterUnits="userSpaceOnUse" color-interpolation-filters="sRGB">
<feFlood flood-opacity="0" result="BackgroundImageFix"/>
<feBlend mode="normal" in="SourceGraphic" in2="BackgroundImageFix" result="shape"/>
<feColorMatrix in="SourceAlpha" type="matrix" values="0 0 0 0 0 0 0 0 0 0 0 0 0 0 0 0 0 0 127 0" result="hardAlpha"/>
<feOffset dy="4"/>
<feGaussianBlur stdDeviation="2"/>
<feComposite in2="hardAlpha" operator="arithmetic" k2="-1" k3="1"/>
<feColorMatrix type="matrix" values="0 0 0 0 0 0 0 0 0 0 0 0 0 0 0 0 0 0 0.25 0"/>
<feBlend mode="normal" in2="shape" result="effect1_innerShadow_3019_108827"/>
</filter>
</defs>
</svg>
