<svg width="134" height="25" viewBox="0 0 134 25" fill="none" xmlns="http://www.w3.org/2000/svg" class="icon-component logo-main_crazy-x" icon-size="200"><path d="M99.2977 0H94.7871L108.098 14.2596L110.473 11.9724C110.46 11.9562 99.3159 0.0179388 99.2977 0Z" fill="white"></path> <path d="M116.026 17.6648C117.52 19.2952 120.297 22.3016 122.749 24.9531H118.237L113.322 19.6392L106.141 24.9531H96.9258L118.288 9.26758C121.243 9.65734 123.446 10.1935 125.445 10.79L116.026 17.6648Z" fill="white"></path> <path d="M101.113 8.17154L96.8386 3.49691C88.6473 4.80953 82.9479 8.02346 82.6763 12.1368C82.3847 16.5135 88.3231 20.7055 97.1374 23.0437L98.6206 21.9596C84.4728 18.0181 86.8725 10.3727 101.113 8.17154ZM115.385 23.7805C113.457 23.8042 110.803 23.7329 110.202 23.6945L108.632 24.8426C111.305 25.0017 113.893 24.9871 116.333 24.8189L115.385 23.7805ZM132.742 19.2905C131.5 20.2905 129.211 21.9779 123.767 22.934L124.368 23.5903C128.206 22.6269 131.174 21.2887 132.898 19.4642C132.996 19.3581 132.855 19.1991 132.742 19.2905ZM133.994 13.7237C132.199 8.46771 122.448 3.8662 109.566 2.99599C108.154 2.90092 106.763 2.85339 105.405 2.85156L109.72 7.5719C110.666 7.57738 111.629 7.60298 112.604 7.65234C127.342 8.39275 132.534 12.561 133.804 13.8444C133.889 13.9339 134.034 13.8407 133.994 13.7237Z" fill="#8045FA"></path> <path d="M13.6901 22.1576C10.0557 22.4681 7.04062 22.6233 4.64486 22.6233C3.04768 22.6233 1.87424 22.2663 1.12454 21.5522C0.374848 20.8381 0 19.7204 0 18.1991V10.7479C0 9.11789 0.382997 7.93811 1.14899 7.20851C1.93128 6.46338 3.17806 6.09082 4.88932 6.09082H13.6901V9.35075H5.86719C4.88932 9.35075 4.40039 9.81645 4.40039 10.7479V18.1991C4.40039 18.5561 4.50632 18.8433 4.7182 19.0607C4.94636 19.2625 5.23157 19.3634 5.57383 19.3634C5.91608 19.3634 6.29093 19.3634 6.69837 19.3634C7.10581 19.3478 7.52956 19.3323 7.96959 19.3168C8.40963 19.3013 8.84967 19.2858 9.28971 19.2702C9.74605 19.2547 10.3246 19.2237 11.0254 19.1771C11.7425 19.1305 12.6307 19.0762 13.6901 19.0141V22.1576Z" fill="#EAEBF3"></path> <path d="M15.6487 6.09082H25.9163C27.6275 6.09082 28.8662 6.46338 29.6322 7.20851C30.4144 7.93811 30.8056 9.11789 30.8056 10.7479V12.8435C30.8056 14.132 30.5774 15.1332 30.1211 15.8473C29.681 16.5614 28.9721 17.0349 27.9942 17.2677L31.0501 22.3904H26.283L23.4716 17.5006H20.0491V22.3904H15.6487V6.09082ZM26.4052 10.7479C26.4052 9.81645 25.9163 9.35075 24.9384 9.35075H20.0491V14.2406H24.9384C25.9163 14.2406 26.4052 13.7749 26.4052 12.8435V10.7479Z" fill="#EAEBF3"></path> <path d="M36.2994 22.3904H31.5323L38.0107 6.09082H42.9L49.3783 22.3904H44.6112L43.5111 19.4798H37.3995L36.2994 22.3904ZM38.4996 16.4527H42.411L40.4553 10.9807L38.4996 16.4527Z" fill="#EAEBF3"></path> <path d="M63.5564 9.35075L55.0001 19.1305H63.5564V22.3904H49.6218V19.1305L58.1782 9.35075H49.6218V6.09082H63.5564V9.35075Z" fill="#EAEBF3"></path> <path d="M63.565 6.09082H68.2099L72.2435 14.0078L76.2772 6.09082H80.9221L74.4437 18.0827V22.3904H70.0434V18.0827L63.565 6.09082Z" fill="#EAEBF3"></path></svg>