<svg width="40" height="15" viewBox="0 0 40 15" fill="none" xmlns="http://www.w3.org/2000/svg" class="icon-component"><g clip-path="url(#clip0_56_2002)"><path fill-rule="evenodd" clip-rule="evenodd" d="M34.4325 0.248484C35.9149 0.0301016 37.2719 0.384366 38.186 1.24378C39.0309 2.02113 39.4602 3.1254 39.3494 4.29804C39.1553 6.46643 38.089 8.21216 35.0974 11.0895L30.2082 11.2532C30.2082 11.2532 33.6018 8.19849 34.8896 6.71216C35.7207 5.74422 36.0807 4.70746 35.7344 4.01216C35.5129 3.5754 35.0285 3.35745 34.4329 3.38481V0.248043L34.4325 0.248484ZM24.4191 1.96643V4.78951L28.6571 4.33951V1.3801L24.4191 1.96687V1.96643ZM20.9568 14.7442V2.44422L23.865 2.03437V14.7447H20.9568V14.7442ZM9.44736 4.03907V6.42584L12.6604 6.07113V3.60275L9.44736 4.03951V4.03907ZM6.80206 14.7442V4.40745L9.03177 4.09422V14.7442H6.80206ZM0.264709 5.30746V7.42113L6.02647 6.79422V4.51643L0.264709 5.30746ZM2.10662 7.54378V14.7442H4.21192V7.32584L2.10662 7.54378ZM9.44736 10.6126V8.18481L11.5522 8.00746V10.5032L9.44736 10.6126ZM9.44736 12.3579V14.7442H12.6604V12.2617L9.44736 12.3575V12.3579ZM24.4191 9.8079V6.93054L27.2029 6.68525V9.6579L24.4191 9.8079ZM24.4191 11.922V14.7442H28.6571V11.7848L24.4191 11.9216V11.922ZM13.5053 14.7442V3.4801L16.0399 3.1254V14.7442H13.5053ZM16.5106 12.1532V14.7442H20.1812V12.0442L16.5106 12.1532ZM29.599 11.7579L29.6127 14.7447H39.5294V11.4711L29.599 11.7579ZM29.7375 6.39804C29.5712 2.98907 30.9838 0.902749 33.8647 0.302749L33.8784 3.49378C33.2696 3.73907 32.674 4.20319 32.8121 6.1254L29.7371 6.39804H29.7375Z" fill="white"></path></g> <defs><clipPath id="clip0_56_2002"><rect width="39.7059" height="15" fill="white"></rect></clipPath></defs></svg>