<svg width="20" height="25" viewBox="0 0 20 25" fill="none" xmlns="http://www.w3.org/2000/svg">
<path d="M3.61566 7.80921L9.56739 10.5833C9.42748 10.4895 6.59742 8.58284 5.72339 7.07563C4.82713 5.53029 4.89133 4.38713 5.65014 3.28074C6.40896 2.17434 8.28377 1.47917 11.1369 1.66215C13.99 1.84513 17.1289 2.71149 19.4825 4.82964C19.4825 4.82964 17.474 1.2597 12.3623 0.263036C7.25062 -0.733628 3.31828 1.27808 1.05062 3.34466C0.449271 3.89251 0.140643 4.41539 0.0388641 4.91386C0.0849526 6.43368 3.61566 7.80921 3.61566 7.80921Z" fill="#2899D5"/>
<path d="M5.65041 21.6188C4.89133 20.5124 4.82741 19.3692 5.72366 17.8239C6.61992 16.2785 9.57343 14.3124 9.57343 14.3124L3.61566 17.0889C3.61566 17.0889 0.083581 18.465 0.0388641 19.9854C0.140643 20.4838 0.449271 21.0067 1.05062 21.5548C3.31856 23.6214 7.25062 25.6334 12.3623 24.6365C17.474 23.6398 19.4825 20.0699 19.4825 20.0699C17.1289 22.188 13.99 23.0544 11.1369 23.2373C8.28405 23.4203 6.4095 22.7252 5.65041 21.6188Z" fill="#FBAD18"/>
<path d="M3.61566 17.0889L9.57342 14.3121C9.57342 14.3121 11.2653 13.4068 11.2653 12.5105C11.2653 12.4899 11.2644 12.4696 11.2633 12.4493C11.2644 12.429 11.2653 12.4087 11.2653 12.3882C11.2653 11.4919 9.57342 10.5866 9.57342 10.5866C9.57342 10.5866 9.57123 10.5849 9.56766 10.5828L3.61566 7.80921C3.61566 7.80921 0.0849501 6.43369 0.0388616 4.91386C-0.243156 6.2957 1.06598 7.48988 2.14796 8.51151C3.59371 9.87634 4.23648 11.2324 4.22469 12.4499C4.23648 13.6674 3.59371 15.0234 2.14796 16.3883C1.06625 17.4096 -0.242882 18.6038 0.0388616 19.9854C0.0835785 18.4653 3.61566 17.0889 3.61566 17.0889Z" fill="#EE212E"/>
</svg>
