<svg width="18" height="20" viewBox="0 0 18 20" fill="none" xmlns="http://www.w3.org/2000/svg" class="icon-component"><g clip-path="url(#clip0_53_1835)"><path d="M14.038 12.5603C14.3409 12.6794 14.4575 13.1433 14.4806 13.3457C14.5273 13.7149 14.4227 13.8577 14.3062 13.8577C14.1896 13.8577 14.0264 13.7149 13.852 13.4293C13.6771 13.1433 13.6073 12.8222 13.7007 12.6554C13.7586 12.5481 13.8863 12.5008 14.038 12.5603ZM12.2681 13.9054C12.4545 13.9054 12.6641 13.9886 12.8505 14.1551C13.2113 14.4647 13.3163 14.8217 13.1299 15.0836C13.0249 15.2146 12.8505 15.2978 12.6525 15.2978C12.4545 15.2978 12.245 15.2264 12.1053 15.0955C11.7792 14.8099 11.6861 14.3334 11.8953 14.0719C11.9771 13.9646 12.1053 13.9054 12.2681 13.9054ZM8.19275 17.345C3.76738 17.345 0.180969 13.679 0.180969 9.15622C0.180969 4.63343 3.76774 0.967773 8.19239 0.967773C12.6174 0.967773 16.2042 4.6338 16.2042 9.15622C16.2042 10.6914 15.785 12.132 15.0749 13.3579C15.0514 13.3934 14.9931 13.3816 14.9816 13.3339C14.7021 11.3225 13.5027 10.2153 11.756 9.88239C11.6043 9.85835 11.5812 9.76328 11.7792 9.7396C12.3148 9.69188 13.0716 9.70372 13.4676 9.77511C13.4907 9.57276 13.5027 9.35857 13.5027 9.14438C13.5027 6.15681 11.127 3.72858 8.20397 3.72858C5.28135 3.72858 2.90561 6.15681 2.90561 9.14438C2.90561 12.132 5.28135 14.5602 8.20433 14.5602H8.44864C8.36564 14.077 8.33047 13.5864 8.34367 13.096C8.35562 12.7627 8.42547 12.715 8.56518 12.9769C9.29882 14.2742 10.347 15.4406 12.3963 15.9049C14.0731 16.2859 15.7499 16.7261 17.5549 19.0708C17.7178 19.2731 17.4735 19.4873 17.2871 19.3208C15.4474 17.6543 13.7705 17.1068 12.245 17.1068C10.533 17.119 9.36903 17.345 8.19275 17.345Z" fill="#FF9635"></path></g> <defs><clipPath id="clip0_53_1835"><rect width="18" height="18.7826" fill="white" transform="translate(0 0.782715)"></rect></clipPath></defs></svg>