<svg width="14" height="16" viewBox="0 0 14 16" fill="none" xmlns="http://www.w3.org/2000/svg" class="icon-component"><path fill-rule="evenodd" clip-rule="evenodd" d="M0.8125 0.5C1.12316 0.5 1.375 0.75184 1.375 1.0625V1.25H9.25C10.0784 1.25 10.75 1.92157 10.75 2.75V4.25V8V8.5625C10.75 9.08027 10.3303 9.5 9.8125 9.5H9.25H3.25H1.375V14.9375C1.375 15.2482 1.12316 15.5 0.8125 15.5C0.50184 15.5 0.25 15.2482 0.25 14.9375V9.5V1.25V1.0625C0.25 0.75184 0.50184 0.5 0.8125 0.5ZM3.25 11V10.625H9.8125C10.9516 10.625 11.875 9.70159 11.875 8.5625V4.25H12.25C13.0784 4.25 13.75 4.92157 13.75 5.75V11C13.75 11.8284 13.0784 12.5 12.25 12.5H4.75C3.92157 12.5 3.25 11.8284 3.25 11Z" fill="#6E6A97"></path></svg>