<svg width="22" height="22" viewBox="0 0 22 22" fill="none" xmlns="http://www.w3.org/2000/svg" class="icon-component"><path d="M18.9062 15.0922V6.89099C18.9062 6.48966 18.6734 6.12477 18.3093 5.95565L11.4343 2.7629C11.1588 2.63502 10.841 2.63502 10.5657 2.7629L3.69067 5.95565C3.32664 6.12477 3.09375 6.48966 3.09375 6.89099V15.0922C3.09375 15.4935 3.32664 15.8584 3.69067 16.0275L10.5657 19.2203C10.8412 19.3481 11.159 19.3481 11.4343 19.2203L18.3093 16.0275C18.6734 15.8584 18.9062 15.4935 18.9062 15.0922Z" fill="#8049CE"></path> <path d="M18.9062 8.36343V15.0923C18.9066 15.4935 18.6737 15.8584 18.3098 16.0273L11.4348 19.2208C11.2984 19.2832 11.15 19.3155 11 19.3153V11.7477C11.0945 11.7477 11.1882 11.7282 11.275 11.6909L18.9062 8.36343Z" fill="#6D3BBC"></path> <path d="M7.90625 10.462V17.985L6.53125 17.3473V9.86218L7.90625 10.462Z" fill="#FBBC05"></path> <path d="M15.4688 9.86218V17.3473L14.0938 17.985V10.462L15.4688 9.86218Z" fill="#F4950C"></path> <path d="M19.4219 7.68824V6.68346C19.4219 6.41 19.2598 6.1625 19.0092 6.05319L11.2748 2.68135C11.0997 2.60504 10.9005 2.60504 10.7253 2.68135L2.99097 6.05319C2.7402 6.1625 2.57812 6.41 2.57812 6.68346V7.68824C2.57812 7.96169 2.7402 8.20919 2.99097 8.31851L10.7253 11.6903C10.9005 11.7667 11.0997 11.7667 11.2748 11.6903L19.0092 8.31851C19.2598 8.20919 19.4219 7.96169 19.4219 7.68824Z" fill="#A867F4"></path> <path d="M19.4219 6.6825V7.68796C19.4219 7.96142 19.26 8.20909 19.0094 8.31875L11.275 11.6909C11.1882 11.7282 11.0945 11.7477 11 11.7477V9.96703C11.0947 9.9672 11.1885 9.94726 11.275 9.90859L19.3548 6.38687C19.3988 6.47917 19.4217 6.58023 19.4219 6.6825Z" fill="#965CEA"></path> <path d="M7.5625 8.53016V10.3125L6.1875 9.71266V7.93031L7.5625 8.53016Z" fill="#FBBC05"></path> <path d="M15.8125 7.93031V9.71266L14.4375 10.3125V8.53016L15.8125 7.93031Z" fill="#F4950C"></path> <path d="M11.7017 6.70312C11.7017 6.70312 11.5298 8.25 12.3892 8.59375C13.1416 8.8947 13.4988 9.45914 13.5759 10.2872C13.5825 10.3821 13.6648 10.4536 13.7597 10.4469C13.8018 10.444 13.8415 10.4256 13.8711 10.3953C14.1308 10.1446 14.3222 9.83194 14.4278 9.48681C14.4518 9.39297 14.5476 9.33642 14.6414 9.36048C14.6524 9.36323 14.6631 9.36719 14.6732 9.372C14.8184 9.43852 14.9573 9.51809 15.0879 9.60987C15.1649 9.66488 15.272 9.647 15.327 9.57C15.3445 9.54542 15.3554 9.51655 15.3581 9.48647C15.3908 9.15527 15.3908 8.62727 15.1392 8.25C14.7954 7.73438 13.5923 7.73438 13.5923 7.21875L11.7017 6.70312Z" fill="#6D3BBC"></path> <path d="M19.3548 6.38688L11.275 9.9086C11.0998 9.98594 10.9001 9.98594 10.725 9.9086L2.64514 6.38688C2.71647 6.23786 2.83919 6.11944 2.99061 6.05344L10.725 2.68125C10.9001 2.60391 11.0998 2.60391 11.275 2.68125L19.0094 6.05344C19.1608 6.11944 19.2835 6.23786 19.3548 6.38688Z" fill="#BA8BFC"></path> <path d="M11.4058 6.56735C11.4058 6.56735 11.5777 8.11423 10.7183 8.45798C9.96583 8.75893 9.60868 9.32337 9.5315 10.1515C9.52497 10.2463 9.44282 10.3178 9.34794 10.3113C9.30566 10.3084 9.26613 10.29 9.23657 10.2597C8.97686 10.009 8.78539 9.69634 8.67986 9.35121C8.6558 9.25737 8.56024 9.20082 8.46622 9.22488C8.45522 9.22763 8.44457 9.23159 8.43443 9.2364C8.28919 9.30291 8.15032 9.38249 8.01969 9.47427C7.94269 9.52927 7.83561 9.51157 7.78061 9.4344C7.76308 9.40982 7.75225 9.38095 7.7495 9.35087C7.71685 9.01966 7.71685 8.49166 7.96847 8.1144C8.31222 7.59877 9.51535 7.59877 9.51535 7.08315L11.4058 6.56735Z" fill="#6D3BBC"></path> <path d="M15.8125 7.93032L14.4375 8.53017L6.4281 4.5547L7.72576 3.98923L15.8125 7.93032Z" fill="#D98100"></path> <path d="M15.9672 4.72656L7.5625 8.53016L6.1875 7.93031L14.7727 4.20578L15.9672 4.72656Z" fill="#FFE161"></path> <path d="M15.3588 9.48578C15.3496 9.58048 15.2656 9.64992 15.1711 9.64081C15.1408 9.63789 15.1119 9.62706 15.0872 9.60953C14.9564 9.51844 14.8179 9.43903 14.673 9.37234C14.5853 9.33075 14.4803 9.36805 14.4387 9.4557C14.4384 9.45656 14.4378 9.45742 14.4375 9.45828V8.53016L15.125 8.23109C15.13 8.23711 15.1346 8.24347 15.1388 8.25C15.3914 8.62813 15.3914 9.15578 15.3588 9.48578Z" fill="#D98100"></path> <path d="M10.9999 6.70312C10.9999 6.70312 11.1718 8.25 10.3124 8.59375C9.55993 8.8947 9.20277 9.45914 9.1256 10.2872C9.11907 10.3821 9.03674 10.4536 8.94187 10.4469C8.89976 10.444 8.86006 10.4256 8.83066 10.3953C8.57096 10.1446 8.37949 9.83194 8.27396 9.48681C8.2499 9.39297 8.15434 9.33642 8.06032 9.36048C8.04932 9.36323 8.03866 9.36719 8.02852 9.372C7.88329 9.43852 7.74441 9.51809 7.61379 9.60987C7.53679 9.66488 7.42971 9.64717 7.37471 9.57C7.35718 9.54542 7.34635 9.51655 7.3436 9.48647C7.31077 9.15527 7.31077 8.62744 7.5624 8.25C7.90615 7.73438 9.10927 7.73438 9.10927 7.21875L10.9999 6.70312Z" fill="#FFE161"></path> <path d="M11.3437 6.70312C11.3437 6.70312 11.1719 8.25 12.0312 8.59375C12.7837 8.8947 13.1409 9.45914 13.218 10.2872C13.2246 10.3821 13.3069 10.4536 13.4018 10.4469C13.4439 10.444 13.4836 10.4256 13.513 10.3953C13.7727 10.1446 13.9641 9.83194 14.0697 9.48681C14.0937 9.39297 14.1893 9.33642 14.2833 9.36048C14.2943 9.36323 14.305 9.36719 14.3151 9.372C14.4604 9.43852 14.5992 9.51809 14.7299 9.60987C14.8069 9.66488 14.9139 9.64717 14.9689 9.57C14.9865 9.54542 14.9973 9.51655 15 9.48647C15.0327 9.15527 15.0327 8.62727 14.7811 8.25C14.4373 7.73438 13.2342 7.73438 13.2342 7.21875L11.3437 6.70312Z" fill="#FFE161"></path> <path d="M15.0012 8.92719C14.5699 8.87786 14.1485 8.76563 13.7499 8.59375C13.2893 8.36344 12.5468 7.73438 11.8593 7.73438C11.7137 7.75053 11.5695 7.77752 11.4279 7.81516C11.3375 7.45181 11.3089 7.07592 11.3437 6.70312L13.2343 7.21875C13.2343 7.73438 14.4374 7.73438 14.7812 8.25C14.9072 8.45505 14.9826 8.68725 15.0012 8.92719Z" fill="#FBBC05"></path> <path d="M10.9157 7.81516C10.774 7.77752 10.6298 7.75053 10.4843 7.73438C9.79677 7.73438 9.05427 8.36344 8.59364 8.59375C8.20899 8.72283 7.79219 8.71991 7.40942 8.58516C7.44363 8.46656 7.49519 8.35364 7.56239 8.25C7.90614 7.73438 9.10927 7.73438 9.10927 7.21875L10.9999 6.70312C11.0346 7.07592 11.0061 7.45181 10.9157 7.81516Z" fill="#FBBC05"></path> <path d="M9.47645 4.08014C8.93333 3.53702 7.97667 2.99698 7.31014 3.41361C6.64361 3.83023 6.56025 4.12242 6.89351 5.6222C7.03119 6.24164 6.49184 7.06853 6.81015 7.70516C7.00351 8.09205 7.36204 8.18589 7.80995 8.10597C8.18773 8.02278 8.55211 7.88786 8.89311 7.70516C9.55964 7.37189 10.2289 7.03862 10.7262 7.03862V5.33002L9.47645 4.08014Z" fill="#FFE161"></path> <path d="M6.81014 7.70516C7.0035 8.09171 7.36169 8.18589 7.80994 8.10597C8.18772 8.02279 8.5521 7.88786 8.8931 7.70516C9.55963 7.3719 10.2287 7.03863 10.7261 7.03863V6.5395L10.3095 6.622C10.3095 6.622 8.81816 5.78704 7.97666 5.95547C7.56003 6.03883 7.22677 6.29699 7.14341 5.79718C7.07088 5.51668 6.94592 5.25233 6.77525 5.01807C6.80602 5.20472 6.84521 5.40547 6.8935 5.62221C7.031 6.24113 6.49183 7.06854 6.81014 7.70516Z" fill="#FBBC05"></path> <path d="M10.7267 5.32985V7.03828C10.6162 7.03949 10.506 7.05272 10.3984 7.07782C10.2176 6.84957 10.1007 6.57732 10.0598 6.28891C10.0118 5.77775 10.0443 5.26213 10.1561 4.76094C10.4706 5.07375 10.7267 5.32985 10.7267 5.32985Z" fill="#FBBC05"></path> <path d="M10.7261 6.79353V7.03845C10.2287 7.03845 9.55958 7.37171 8.89305 7.70498C8.76552 7.76823 8.64057 7.82753 8.51819 7.87995H8.51647C8.3049 7.91656 7.38416 8.03498 7.31008 7.37171C7.23669 6.70931 7.89326 6.37192 8.4766 6.45528C9.04637 6.53692 9.53724 6.85695 10.7261 6.79353Z" fill="#F4950C"></path> <path d="M12.9378 4.08014C13.4809 3.53702 14.4376 2.99698 15.1041 3.41361C15.7707 3.83023 15.854 4.12242 15.5208 5.6222C15.3831 6.24164 15.9224 7.06853 15.6041 7.70516C15.4106 8.09205 15.0522 8.18589 14.6043 8.10597C14.2265 8.02278 13.8622 7.88786 13.5212 7.70516C12.8546 7.37189 12.1853 7.03862 11.6881 7.03862V5.33002L12.9378 4.08014Z" fill="#FFE161"></path> <path d="M12.3544 6.37141C12.303 6.63163 12.1865 6.87484 12.0158 7.07782C11.9082 7.05273 11.798 7.03949 11.6875 7.03829V5.32985C11.6875 5.32985 11.947 5.07204 12.2616 4.75751C12.3839 5.28637 12.4154 5.83207 12.3544 6.37141Z" fill="#FBBC05"></path> <path d="M15.604 7.70516C15.4106 8.09171 15.0524 8.18589 14.6042 8.10597C14.2264 8.02279 13.862 7.88786 13.521 7.70516C12.8545 7.3719 12.1854 7.03863 11.688 7.03863V6.5395L12.1046 6.622C12.1046 6.622 13.596 5.78704 14.4376 5.95547C14.8543 6.03883 15.1875 6.29699 15.2709 5.79718C15.3434 5.51668 15.4684 5.25233 15.6392 5.01807C15.6085 5.20472 15.5693 5.40547 15.521 5.62221C15.3833 6.24113 15.9223 7.06854 15.604 7.70516Z" fill="#FBBC05"></path> <path d="M11.6881 6.79353V7.03845C12.1855 7.03845 12.8546 7.37171 13.5212 7.70498C13.6487 7.76823 13.7736 7.82753 13.8962 7.87995H13.8979C14.1095 7.91656 15.0302 8.03498 15.1043 7.37171C15.1777 6.70931 14.5211 6.37192 13.9378 6.45528C13.3677 6.53692 12.877 6.85695 11.6881 6.79353Z" fill="#F4950C"></path> <path d="M11.8084 6.95526C11.4332 7.21703 10.9346 7.21703 10.5594 6.95526C10.0085 6.51011 10.0586 5.31334 10.5594 4.8125C10.9236 4.5179 11.4442 4.5179 11.8084 4.8125C12.3093 5.31334 12.3593 6.51011 11.8084 6.95526Z" fill="#FFE161"></path></svg>