<svg width="25" height="17" viewBox="0 0 25 17" fill="none" xmlns="http://www.w3.org/2000/svg">
<path fill-rule="evenodd" clip-rule="evenodd" d="M5.94648 13.7412C5.95438 13.6893 6.00628 13.6972 6.01392 13.6453C6.0832 13.6559 6.10823 13.6064 6.17725 13.6169C6.20886 13.5689 6.24311 13.5795 6.29658 13.5286C6.43542 13.4233 6.62114 13.3229 6.76577 13.2283C6.70676 13.1121 6.69095 13.1485 6.70123 12.9536C7.11061 12.8421 7.32057 12.5234 7.60324 12.241L8.07242 11.9406L8.15541 11.7409C8.20335 11.6909 8.33191 11.7107 8.37854 11.6685C8.48392 11.5726 8.49182 11.4261 8.5885 11.3289C8.86248 11.0536 9.06216 11.0518 9.32745 10.645L9.22365 10.6292C9.11169 10.7454 8.98313 10.781 8.77791 10.7741L8.80136 10.6187C9.33456 10.3421 10.5408 9.05282 10.7303 8.36445L10.6784 8.35655C10.6138 8.39291 10.6283 8.3829 10.515 8.385C10.7611 7.48852 11.5469 7.04015 12.2911 6.79673C12.2998 6.64736 12.2463 6.68134 12.3222 6.5894C12.4184 6.48456 13.1091 6.19794 13.2811 6.20373C13.362 5.83439 14.028 5.20688 14.5852 5.28644C14.6273 5.4034 14.6489 5.39181 14.65 5.5612C14.3828 5.76142 13.7311 6.97323 13.6283 7.42187L13.6802 7.42977C13.773 7.12761 14.047 6.98904 14.248 6.82597C14.3399 6.87286 14.2943 6.83704 14.3438 6.89341C14.3992 6.9951 14.3554 7.20085 14.3254 7.3676C14.1099 7.53462 14.0728 7.8057 13.9055 8.04675L13.7785 8.18637L13.6747 8.17109L13.5683 8.52594L13.4648 8.5104C13.4611 8.51435 13.3328 8.73511 13.322 8.75408L13.4774 8.77753C13.5533 8.6134 13.5678 8.60814 13.768 8.60893C13.7867 8.70324 13.7909 8.77937 13.7732 8.92769C13.4086 9.10024 13.0082 9.77227 12.5804 9.80863C12.5393 10.002 12.5106 9.99751 12.4302 10.1042L12.4819 10.1121C12.6673 9.94324 12.8077 9.80098 13.1584 9.84261C13.1391 9.98276 13.1249 10.0831 13.0598 10.1458C12.8804 10.4646 12.4858 10.6369 12.2537 10.9256L12.4092 10.9493C12.7548 10.6661 13.4231 10.4646 14.0575 10.5607L14.0888 10.3534C14.4658 10.3184 14.5438 10.115 15.0167 10.1748C15.0175 10.2886 15.009 10.2741 15.0451 10.3381C15.2348 10.1761 15.4866 10.106 15.6853 9.95747C16.0501 9.6856 16.0957 9.17637 16.7432 9.26831C16.8065 9.43849 16.983 9.24012 17.2772 9.2425L17.2614 9.34629C17.0823 9.48618 16.945 9.86447 16.8336 10.0771L16.8025 10.2844C16.6758 10.4456 16.4627 10.5497 16.3618 10.748L16.258 10.7325L16.2814 10.5771C16.3378 10.5225 16.3368 10.498 16.3644 10.3774L16.3125 10.3695L16.3046 10.4216C16.141 10.5254 15.9113 10.7992 15.7604 10.8698L15.6049 10.8463L15.3586 11.0744C15.0888 11.2041 14.8096 11.2059 14.5264 11.3205C14.3694 11.384 13.9408 11.5884 13.8135 11.4783L13.7619 11.4704C13.8918 11.3708 14.0082 11.3416 14.1197 11.2062L13.6012 11.1285C13.4698 11.2199 13.2479 11.1898 13.1476 11.3252C12.8359 11.4201 12.8046 11.8305 12.6083 12.0921C12.4687 12.2784 11.1209 12.9551 10.8377 12.9391L10.8456 12.8874C11.1523 12.7096 11.4447 12.4836 11.6439 12.1593L11.5922 12.1514C11.4966 12.2423 11.5006 12.2309 11.3175 12.2162L11.294 12.3716C10.911 12.4304 10.6383 12.7799 10.3114 12.9132C10.0806 13.007 9.68072 13.0497 9.47945 13.159L9.40437 13.3066L9.19704 13.2757C8.98102 13.3479 8.86854 13.5674 8.61643 13.6124C8.61906 13.595 8.54635 13.7257 8.54899 13.7083C8.5316 13.7057 8.48576 13.5397 8.46864 13.5371C8.4739 13.5028 8.58271 13.4836 8.58797 13.4491C8.77844 13.4083 8.88303 13.275 9.04926 13.2004C9.0482 13.0687 9.02502 13.1709 9.0727 13.045L9.0208 13.0371C8.78107 13.226 8.46574 13.2647 8.17306 13.3866C8.02896 13.4472 7.86036 13.6277 7.70414 13.6872L7.54844 13.6638C7.47916 13.6938 7.47205 13.8166 7.41357 13.8556L6.95992 14.0526L6.80449 14.0289C6.20306 14.2597 4.9217 14.9965 4.20962 15.0703C4.21489 15.0358 4.94831 14.7397 4.95357 14.7052C5.2207 14.5927 5.46096 14.3635 5.71333 14.2362C5.95886 14.1124 6.16434 14.1161 6.34558 13.9069L6.24205 13.8917C6.08741 14.0294 6.10059 13.8872 5.96729 13.9562L5.89221 14.104C5.76207 14.1699 5.6343 14.1427 5.50574 14.2049C5.46359 14.2515 5.37718 14.2386 5.33477 14.2852C5.2286 14.2871 5.16617 14.3485 5.06 14.35C4.64904 14.5474 3.83739 14.9067 3.36478 15.0492C3.37005 15.015 3.76915 14.8274 3.77416 14.7929C3.92959 14.7312 4.04313 14.5993 4.18381 14.5363C4.56131 14.3674 4.88798 14.2871 5.25442 14.1143C5.5089 13.9944 5.58846 13.9154 5.94648 13.7412Z" fill="#DE3F2A"/>
<path fill-rule="evenodd" clip-rule="evenodd" d="M8.54899 13.7084C8.44045 13.6744 8.15383 13.907 8.10299 13.8533C8.12038 13.8559 8.43571 13.6383 8.4531 13.641L8.461 13.5891L8.57217 13.553L8.54899 13.7084Z" fill="#DE3F2A"/>
<path fill-rule="evenodd" clip-rule="evenodd" d="M12.4018 8.88086C12.2416 8.8208 12.3098 8.89535 12.2622 8.75388C12.4308 8.67854 12.5633 8.52891 12.6431 8.33396L12.5912 8.32606C12.5216 8.44355 12.2751 8.52548 12.249 8.48675C12.1976 8.39297 12.2319 8.222 12.2595 8.06446C12.4097 7.9172 12.4247 7.64296 12.5604 7.47357L12.7316 7.39322L12.7471 7.28943L12.8507 7.30523C12.9376 7.22699 13.1183 6.93668 13.1879 6.82577L13.136 6.81787C12.347 7.43616 11.7872 6.77361 11.583 8.3337L11.5311 8.32579C11.3944 8.59029 11.0806 8.57553 10.927 8.81842L10.8754 8.81052L10.8675 8.86216L10.9194 8.87006L10.9115 8.92196L11.2303 8.91669C11.2039 9.03734 11.2034 9.06237 11.1473 9.11637C10.8588 9.75363 10.0303 9.88693 9.74473 10.3366L9.69284 10.3287L9.68493 10.3806L9.78873 10.3964C9.8862 10.3047 10.0169 10.3016 10.1749 10.2953L10.1517 10.4507C10.0801 10.5131 10.0788 10.6164 10.009 10.6944L9.77819 10.8187L9.68757 11.07C9.58008 11.1696 9.38066 11.2207 9.27792 11.3266C9.10853 11.5008 9.00263 11.6802 8.82928 11.8422L8.88118 11.8501L8.87328 11.902C9.25711 11.7742 9.7313 11.2974 10.0867 11.2363L10.0632 11.3917C9.77108 11.5253 9.47445 12.045 9.22839 12.0081C9.25131 12.1222 9.21206 12.1038 9.25685 12.1715C9.55717 11.9462 9.97208 11.9022 10.2835 11.6899C10.3406 11.6507 10.3593 11.5382 10.4183 11.4981L10.6412 11.4254L10.657 11.3219C10.7137 11.2818 10.9921 11.2094 11.0509 11.1691L11.1259 11.0216C11.2071 10.9834 11.2745 11.0426 11.3412 11.0005C11.4684 10.9201 11.5229 10.7526 11.6547 10.6767C11.5485 10.4415 11.6963 10.4454 11.8285 10.2257L11.7769 10.2181C11.6668 10.3319 11.676 10.2289 11.6057 10.2984C11.5619 10.2183 11.5793 10.1198 11.6007 9.97966C11.9157 9.76522 12.2774 9.33002 12.4018 8.88086ZM8.68676 12.0859C8.74604 12.0195 8.89172 11.9987 8.81374 11.946L8.82164 11.8941C8.73919 11.9502 8.63329 12.0253 8.68676 12.0859Z" fill="#F76F3F"/>
<path fill-rule="evenodd" clip-rule="evenodd" d="M12.1939 10.9699L12.2174 10.8145C12.4803 10.6812 12.9993 10.231 13.0988 9.88666L12.995 9.87112C12.8704 9.97123 12.7132 10.0273 12.5854 10.1277L12.5778 10.1793L12.3704 10.1483C12.4165 9.96886 12.4753 9.90405 12.5364 9.74915C12.8536 9.65247 13.6713 9.02759 13.7601 8.66115L13.7082 8.65324C13.5754 8.78364 13.5311 8.83159 13.2624 8.79813C13.3491 8.4143 13.4081 8.59687 13.5243 8.46646L13.5633 8.20724C13.6128 8.13084 13.739 8.14006 13.7941 8.0829C14.0101 7.85898 14.2735 7.29996 14.3438 6.89347L14.292 6.88557C14.1997 6.99885 13.7105 7.45539 13.5685 7.46592C13.7069 6.54705 14.3752 6.11132 14.5696 5.39003L14.518 5.38239L14.5259 5.33049C14.1834 5.41769 13.8325 5.53545 13.6107 5.77623C13.3815 6.02492 13.469 6.30864 13.0066 6.26833L13.0145 6.21644C13.2445 6.0128 13.3981 5.73679 13.45 5.43402L13.6054 5.45721C13.8272 5.01199 14.4274 5.12237 14.8033 4.89529C14.7909 4.57548 14.7427 4.30782 14.788 3.93901C14.9772 3.87315 14.8926 3.79306 15.0343 3.71087L15.1379 3.72641L15.1537 3.62262L15.3607 3.65397C15.5193 3.61419 15.6579 3.46403 15.7988 3.56071C15.8386 3.62446 15.8159 3.57178 15.8352 3.67215C15.6231 3.74933 15.3684 4.51462 15.293 4.80994L15.3449 4.81784C15.4363 4.78149 15.4824 4.82574 15.6558 4.86447C15.5362 5.57786 15.0593 5.98171 14.8649 6.60053L14.9168 6.60843C15.0267 6.4941 15.6618 6.03703 15.8033 5.99989L15.7954 6.05152C15.8352 6.11528 15.8128 6.06259 15.8317 6.16296C15.5085 6.43456 15.3465 6.80469 15.0981 7.16587C15.1152 7.1685 15.0651 7.26677 15.0823 7.2694C15.1468 7.23331 15.1323 7.24358 15.2456 7.24095C15.1747 7.60344 15.0185 7.61371 14.8412 7.8163L14.8931 7.8242C15.0301 7.7046 15.5741 7.37267 15.6887 7.46672C15.7285 7.53047 15.7061 7.47752 15.7251 7.57815C15.4087 7.74254 15.2127 8.09791 14.8826 8.24649L14.8747 8.29839L15.0301 8.32184C15.1386 8.17431 15.1887 8.24781 15.3647 8.21304L15.3336 8.42036C14.9998 8.68222 14.764 9.05709 14.4519 9.34793C14.0965 9.67934 13.5873 9.8561 13.3033 10.2884L13.3552 10.2963C13.5865 10.1145 13.8636 10.1182 14.1434 9.99072L14.2185 9.8432L14.4337 9.82212C14.5836 9.74967 14.748 9.59319 14.9029 9.5218L15.1181 9.50125C15.6803 9.13402 16.1861 8.68933 16.777 8.69039C16.744 8.80498 16.7093 8.73517 16.7538 8.84582C16.9872 8.66036 17.9061 8.31183 18.2622 8.33053C18.2775 8.44908 18.2362 8.51099 18.2751 8.59766C18.4503 8.50335 18.7024 8.58185 18.9206 8.53549C19.3112 8.45277 19.7451 8.20171 20.139 8.18854C20.1153 8.39033 20.1411 8.55472 20.2243 8.67853L20.2399 8.57474C20.3413 8.49044 20.3906 8.31288 20.5017 8.24307L22.2462 7.9222L22.2307 8.026C22.1092 8.10081 22.12 8.26467 22.0204 8.3653C21.8511 8.44908 21.7823 8.28864 21.6422 8.41457C21.5439 8.50282 21.1021 9.1003 21.0586 9.1219L20.8513 9.09082C20.8007 9.11821 20.7762 9.25494 20.7164 9.2826L20.2267 9.36795L20.2112 9.47148L19.8481 9.41695C19.7994 9.42617 19.6664 9.53155 19.6176 9.5413L19.1432 9.52285C19.023 9.55736 19.0099 9.6335 18.8089 9.63192L18.8244 9.52812C19.0304 9.46542 19.0765 9.40009 19.1901 9.212L18.3605 9.08739C18.071 9.25362 17.572 9.1522 17.3573 9.41379C17.2058 9.59846 17.0718 10.1124 16.87 10.1883C16.8059 10.2283 16.8592 10.2057 16.7585 10.2247L16.8052 9.9138C16.9437 9.78893 17.0575 9.48255 17.1579 9.33054L17.0541 9.315C16.8441 9.49677 16.6579 9.23992 16.4166 9.32528C16.239 9.3885 16.1629 9.59978 16.0354 9.74493C15.8133 9.99836 15.3462 10.3983 14.9337 10.3746C14.9234 10.2036 14.9745 10.291 14.8533 10.2033C14.6774 10.3121 14.2835 10.3032 14.1328 10.4133C14.0746 10.456 14.1373 10.5642 13.998 10.6048C13.7311 10.618 13.464 10.6306 13.1971 10.6435C12.8291 10.7378 12.6792 11.0229 12.1939 10.9699Z" fill="#E36332"/>
<path fill-rule="evenodd" clip-rule="evenodd" d="M15.5962 4.90843C15.4727 4.90764 15.357 4.85469 15.2335 4.8539C15.3381 4.32254 15.655 3.79329 15.8067 3.50878C16.1537 3.53881 16.504 3.46004 16.6023 3.15156C16.4798 3.11046 16.3067 3.04355 16.2035 2.98559L16.219 2.8818C16.5354 2.72426 16.5633 2.31409 16.8181 2.07067C16.9722 1.92367 17.5446 1.75243 17.777 1.68473L17.7849 1.63283L17.733 1.62493C17.6929 1.56829 17.6534 1.54195 17.5934 1.49822L17.601 1.44632L17.6526 1.45422C17.9282 1.27851 18.8882 0.877819 19.0009 0.596466L19.4751 0.614907L19.6619 0.430763C19.7994 0.391511 21.3561 0.480289 21.5434 0.607794C21.5383 0.642323 21.5331 0.676834 21.5278 0.711325C21.6901 0.821179 21.9712 0.735035 22.0903 0.84884C22.1279 0.917861 22.1195 0.941044 22.1108 1.06407C21.8129 0.997156 21.5046 0.877818 21.2531 0.776131C20.6856 0.547203 20.036 0.740303 19.6074 0.793782L19.5994 0.845679C19.8537 0.854109 19.9777 0.802212 20.2889 0.843045L20.2654 0.998474C19.732 0.981877 19.3955 1.36044 19.0159 1.55301C18.7865 1.66945 18.184 1.73847 18.272 1.91814L18.1685 1.90259L18.145 2.05802C18.0884 2.14338 17.9424 2.21135 17.8987 2.28616L17.8052 2.90814C17.7116 3.05435 17.3262 3.30145 17.2451 3.46004C17.1529 3.6405 17.2791 4.02617 17.2319 4.25299C17.1908 4.45189 17.0325 4.8892 16.9363 5.16291L16.988 5.17082L17.0038 5.06702C17.2435 4.97455 17.0388 4.83282 17.3615 4.80279C17.3083 5.08862 16.6734 6.32283 16.8452 6.47431C16.919 6.29517 16.9864 6.2114 17.2029 6.21008C17.1223 6.61525 16.8463 6.87921 16.6402 7.13264L16.7438 7.14819C16.8291 6.98327 16.9363 6.89133 17.1534 6.8916C17.0183 7.52912 16.4687 7.62527 16.233 8.07839C16.4466 8.23434 16.1895 8.38082 16.111 8.5373L16.1629 8.5452C16.2907 8.42033 17.6474 7.87422 17.8581 7.84577C18.1658 7.80441 18.1389 8.08313 18.4725 7.99119C18.9295 7.86474 19.2659 7.52227 19.8618 7.56389C19.83 7.68349 19.8199 7.68876 19.7789 7.76332L19.8824 7.77912C20.0059 7.65531 20.2839 7.60341 20.4915 7.60525C20.5091 7.71063 20.4862 7.83681 20.5044 7.87238C20.6619 7.77701 21.2654 7.58075 21.4556 7.53834C21.542 7.55151 21.6263 7.39661 21.8497 7.38554C21.914 7.3534 21.9907 7.3426 22.1401 7.21721C22.1833 7.169 22.2657 7.1358 22.3189 7.08496C22.5795 7.01225 22.9802 6.87289 23.1901 6.57995L23.2963 6.22483C23.3706 6.10102 23.5173 5.86023 23.5816 5.73747C23.7599 5.39843 23.5663 5.24695 23.639 5.00406C23.737 4.67608 23.6962 4.43714 23.8985 3.98297C23.9501 3.99087 24.0176 3.89498 24.0695 3.90288C24.0505 4.24009 24.0971 4.59836 24.1369 4.90395C24.1751 5.19953 23.9823 5.591 24.1 5.81545C24.1891 5.22377 24.1859 5.29463 24.2557 4.77882C24.2731 4.78145 24.3371 4.47323 24.3545 4.47586C24.4038 4.5325 24.3598 4.49509 24.4504 4.54304L24.3255 5.37235C24.5323 5.77225 23.7968 6.66109 23.7136 6.97669C23.3669 6.96246 23.4451 7.09497 23.1121 7.0984L23.0732 7.35736C22.6835 7.39503 22.5979 7.78992 22.2981 7.93007C22.1624 7.9933 22.0181 7.98855 21.86 8.02333C21.2504 8.15663 20.6124 8.15716 20.2762 8.68614C20.2559 8.7167 20.2004 8.75911 20.1724 8.6706C20.1519 8.62739 20.0984 8.57866 20.0844 8.55126C19.9812 8.37476 20.16 8.3226 20.0275 8.2246C19.8228 8.35394 19.174 8.53624 18.9129 8.58735C18.7543 8.61844 18.2325 8.66428 18.2156 8.64162C18.12 8.45063 18.3929 8.38556 18.0834 8.3903C18.0033 8.45721 16.7451 8.89979 16.7459 8.89768C16.6516 8.80258 16.7406 8.83709 16.6247 8.74752C16.5488 8.74963 16.4219 8.76491 16.2796 8.82761C15.9619 8.96776 15.646 9.27861 15.341 9.42851C15.15 9.52256 15.077 9.58657 14.8794 9.6772C14.3525 9.91956 13.8193 10.2475 13.2437 10.3326C13.249 10.2979 13.3733 10.1754 13.3786 10.1408C13.5135 9.97804 13.6568 9.88927 13.8038 9.78073C14.4413 9.30996 14.8441 8.98119 15.3491 8.3168C15.3317 8.31417 15.3223 8.25963 15.3051 8.257C15.1974 8.33524 14.9743 8.33577 14.8151 8.34235C14.8204 8.30811 14.9527 8.13345 14.9577 8.09894C15.1642 8.00383 15.4888 7.7101 15.6294 7.51068C15.612 7.50804 15.1879 7.76042 15.4582 7.59103C15.2411 7.70272 14.9358 7.84577 14.7814 7.86026C14.7867 7.82575 15.0902 7.571 15.0952 7.53623C15.1861 7.45983 15.1276 7.46352 15.1784 7.33681C15.161 7.33417 15.1758 7.32311 15.1342 7.27727C15.0791 7.31968 15.0338 7.33338 14.9629 7.35762C14.9708 7.30572 15.1057 7.11394 15.1136 7.06204C15.3923 6.66899 15.4714 6.40871 15.8318 6.16293C15.8223 6.10839 15.9319 5.96587 15.9226 5.9116C15.6078 6.0507 15.0968 6.62948 14.7456 6.68875C14.7509 6.65424 14.8831 6.47984 14.8884 6.44533C15.042 6.02778 15.5206 5.33415 15.5962 4.90843Z" fill="#EFA840"/>
<path fill-rule="evenodd" clip-rule="evenodd" d="M16.0515 8.58136C16.1031 8.38747 16.1892 8.36033 16.2614 8.24179C16.2493 8.14168 16.1297 8.12403 16.1966 7.96702C16.2983 7.72913 16.6445 7.59346 16.8086 7.42302C16.9261 7.30105 16.9946 7.13587 17.086 6.98755L16.9825 6.97201C16.87 7.12401 16.8357 7.19646 16.5804 7.1767C16.6753 6.85847 16.9577 6.59582 17.1355 6.30604L17.0317 6.29023C16.939 6.4288 16.9474 6.4562 16.7414 6.45883C16.8012 5.99913 16.9456 5.61214 17.1281 5.29786L17.2317 5.3134L17.2159 5.41693C17.3099 5.57236 17.3563 5.7897 17.3378 6.01836L17.5968 6.05735C17.7127 6.36215 17.8818 6.61189 18.1771 6.78049L18.3847 6.81184C18.4783 6.86927 18.4754 7.00731 18.5088 7.04235C18.7383 7.28287 19.1482 7.35452 19.6182 7.42117C19.654 7.52102 19.6727 7.51654 19.6906 7.64431C19.1598 7.63166 18.871 8.03578 18.405 8.08688C18.2001 8.10954 18.1418 7.96307 18.0578 7.92882C17.9142 7.87007 17.4082 8.02998 17.293 8.07898C16.9261 8.23494 16.5091 8.59743 16.0515 8.58136ZM20.6003 7.93988L20.4448 7.91644L20.4604 7.81291C20.4224 7.74441 20.4311 7.72097 20.4398 7.59768L20.4915 7.60558C20.6039 7.69515 21.0478 7.60505 21.2407 7.55922L21.2172 7.71464C20.9967 7.72782 20.7467 7.81844 20.6003 7.93988ZM19.7191 7.80738L19.7504 7.60005C19.8444 7.58161 19.9206 7.57713 20.0692 7.59504C20.1377 7.55711 20.1611 7.5658 20.2841 7.5745L20.2609 7.72992C20.0059 7.7344 20.0239 7.83504 19.7191 7.80738ZM16.8689 5.25887C16.945 4.98753 17.1042 4.51676 17.18 4.24542L17.2319 4.25332L17.224 4.30496C17.3189 4.43457 17.3426 4.6685 17.3536 4.85449C17.2319 4.90981 17.1858 4.96935 17.1073 5.08263C17.0554 5.07473 16.9205 5.26651 16.8689 5.25887ZM24.2686 5.04601C24.217 5.03811 24.1077 5.76388 24.056 5.75598C24.0803 4.3666 23.8761 3.51148 23.6135 3.41032C23.5284 3.11053 23.354 2.3513 23.1596 2.24645C23.1095 2.21905 22.7578 2.23486 22.585 2.14239C22.4296 2.05967 22.331 1.93506 22.261 1.8289C22.2225 1.74565 22.1116 1.64713 21.9733 1.62658C21.9114 1.59576 21.8571 1.60866 21.766 1.59523C21.7157 1.58812 21.4496 1.58864 21.3953 1.59259C21.1477 1.61103 20.9069 1.39185 20.5816 1.36419C20.4883 1.35181 20.325 1.30808 20.2628 1.36946C20.159 1.35366 20.0399 1.44191 19.9361 1.42636C19.404 1.79623 18.8755 1.73986 18.4588 1.73432C18.4664 1.68243 19.0238 1.50118 19.0317 1.44928C19.4377 1.27436 19.6972 0.977728 20.2214 0.939003L20.2293 0.887369C20.1084 0.868928 19.7204 0.863659 19.5995 0.845745C19.6071 0.793848 19.8819 0.729042 19.8898 0.677145C20.1777 0.681887 20.4741 0.619188 20.7504 0.594689C21.0744 0.56571 21.9135 0.986685 22.2146 1.07968C22.2915 1.10365 22.36 1.02409 22.4296 1.05913C22.5879 1.13843 22.7249 1.34628 22.8495 1.44006C23.9201 2.24724 24.526 3.46459 24.2686 5.04601Z" fill="#F8D255"/>
<path fill-rule="evenodd" clip-rule="evenodd" d="M20.0462 5.63037L19.9891 6.36405C19.5968 6.52896 19.4045 6.45362 19.2167 6.56584C19.3368 6.69282 19.5518 6.9394 19.7322 7.01448C19.8521 7.06427 20.5117 6.96969 20.585 6.98366C20.6261 7.0453 20.6448 6.9394 20.6448 6.9394C20.7256 6.8414 20.5607 6.77343 20.7588 6.53265C20.9174 6.33981 21.3076 5.95019 21.5339 5.95993C21.5384 6.04897 21.6464 6.15356 21.6506 6.2426C21.9219 6.42253 22.2657 6.41278 22.2934 6.55135C22.389 6.43491 22.6385 6.33533 22.8066 6.31031C22.7973 6.3219 22.7857 6.44861 22.7831 6.46573C22.7963 6.56742 22.7676 6.62854 22.7441 6.72496C22.6461 6.88434 22.6577 6.84351 22.6092 6.91674C22.3782 7.26712 21.885 7.41359 21.7304 7.47365C21.5418 7.54741 21.292 7.39884 21.0489 7.42439C20.7565 7.45495 20.1877 7.64831 19.7736 7.44467C19.6837 7.40042 19.4801 7.21943 19.39 7.17491C19.199 7.08086 18.8755 7.07612 18.724 7.02212C18.6569 6.80504 18.5607 6.64593 18.4988 6.40488C19.1116 6.37827 19.5252 5.67779 20.0462 5.63037Z" fill="#EED1A9"/>
<path fill-rule="evenodd" clip-rule="evenodd" d="M18.3874 6.44114C18.1719 6.31206 17.8889 6.18824 17.8874 5.88897C17.8563 5.80178 17.8805 5.88107 17.9105 5.73355C18.1329 5.7641 18.3621 5.74935 18.4601 5.60393C18.5928 4.89607 18.3189 4.76752 18.4553 4.60497C18.7177 4.2928 18.777 4.73037 19.36 4.20191C19.3771 4.20455 19.4698 4.05966 19.487 4.06229C19.5049 4.16372 19.5199 4.22773 19.4999 4.32915C19.4991 4.44243 19.4266 4.62157 19.238 4.66082C19.2024 4.77911 19.2267 4.8534 19.1911 4.97168C18.9888 5.2562 18.6845 5.45535 18.5325 5.8268L18.5844 5.83471C18.6922 5.7022 18.7723 5.63028 18.9862 5.63001C19.0051 5.72433 19.0093 5.8002 18.9914 5.94878C18.7709 6.01463 18.9277 6.06732 18.7891 6.23645C18.7125 6.33023 18.4862 6.3629 18.3874 6.44114Z" fill="#EED1A9"/>
<path fill-rule="evenodd" clip-rule="evenodd" d="M20.3284 7.634C20.1421 7.54206 20.1345 7.63874 20.0044 7.48937C20.5589 7.55971 20.7799 7.26624 21.575 7.45039L21.5594 7.55392C20.5449 7.77415 20.3863 7.60397 20.3284 7.634Z" fill="#D69D66"/>
<path fill-rule="evenodd" clip-rule="evenodd" d="M18.3181 3.72705L18.4738 3.75076C18.4896 4.10746 18.3405 4.40198 18.2738 4.72759C18.1982 4.84719 18.2051 4.78291 18.131 4.97127C18.1403 5.04451 18.076 5.17307 18.1519 5.1865C18.1545 5.16911 18.2011 5.21153 18.2038 5.1944C18.3068 5.12986 18.3829 5.0777 18.4501 4.96627C18.4137 4.90172 18.4237 4.91621 18.4216 4.80293C18.5818 4.863 18.5133 4.78871 18.5615 4.92991C18.4601 5.03898 18.6808 5.46548 18.4445 5.70758C18.2504 5.72365 18.1727 5.76633 17.9105 5.73314L17.9158 6.0519C17.9848 6.1059 18.1927 6.20759 18.3434 6.3812L18.4988 6.4049C18.4962 6.42203 18.5375 6.49895 18.5349 6.51608C18.889 6.90939 18.6953 7.03268 18.724 7.02188L19.346 7.11514C19.4991 7.28189 19.8819 7.35829 20.1208 7.6025L19.6545 7.53242C19.5555 7.30191 19.0362 7.45471 18.7965 7.24448C18.6861 7.15729 18.5583 7.16624 18.4648 6.98263C18.4553 6.92836 18.3971 6.91229 18.4364 6.81929L18.1255 6.77267C17.8629 6.62382 17.5604 6.23156 17.6202 5.90174C17.7203 5.84062 17.6866 5.87882 17.6877 5.80585L17.483 5.40384C17.5662 5.16885 17.698 5.03344 17.8278 4.87275C17.556 4.75631 17.5876 4.57453 17.6621 4.21151C17.7138 4.1641 17.7683 4.03238 17.8049 3.9681C18.003 3.99945 18.1334 3.99418 18.2791 3.98654L18.3181 3.72731V3.72705Z" fill="#D69D66"/>
<path fill-rule="evenodd" clip-rule="evenodd" d="M21.2749 5.92118L21.2359 6.18014C21.2138 6.18699 20.8263 6.43673 20.8263 6.43673C20.8305 6.52578 20.7989 6.58953 20.7433 6.63642L20.6838 6.68041C20.6601 6.76392 20.6972 6.8643 20.6964 6.94728L20.6448 6.93937L20.6369 6.99127C20.3618 6.98653 19.8136 7.16066 19.5847 6.93911C19.4111 6.86219 19.2628 6.69253 19.2246 6.51392C19.4912 6.50523 19.9459 6.45491 20.0202 6.1567C19.9517 6.0371 20.0265 5.5687 20.0621 5.52682C20.1319 5.47887 20.2936 5.50627 20.189 5.38693L20.4483 5.42592L20.4638 5.32213L20.5673 5.33793C20.7249 5.25258 20.7299 5.00705 20.9174 5.12534C21.0676 5.01654 20.9472 4.83555 21.2196 4.84451C21.2791 4.80737 21.4928 4.95041 21.6303 4.96727L21.6148 5.07107C21.4541 5.1285 21.3803 5.16907 21.3086 5.3432L21.3605 5.3511L21.3526 5.40274L21.1896 5.43119C21.0623 5.53525 20.9741 5.80843 20.8524 5.91065C20.6237 6.10243 20.6371 6.05159 20.4351 6.21887C20.3958 6.32187 20.6637 6.246 20.694 6.25786C20.88 6.14142 20.8334 6.14985 21.1192 5.89774L21.2749 5.92118ZM21.9899 6.45254C21.8202 6.46782 21.7162 6.37035 21.6506 6.24258C21.6116 6.17988 21.4606 6.00311 21.5497 5.85638C21.806 5.78341 21.8063 5.5118 22.0863 5.4599L22.0784 5.5118C22.1859 5.72018 21.9786 6.31898 21.9899 6.45254Z" fill="#D69D66"/>
<path fill-rule="evenodd" clip-rule="evenodd" d="M18.4393 6.44861C18.5278 6.19386 18.8207 6.0877 18.963 5.78527L18.9111 5.77737L18.919 5.72573L18.8152 5.70993C18.7146 5.83163 18.6732 5.87062 18.473 5.87062C18.5641 5.36245 18.9361 5.27762 19.1395 4.96387C19.3078 4.70412 19.1021 4.67619 19.4843 4.43251C19.5489 4.55264 19.5128 4.85243 19.5375 4.92857C19.5871 5.14854 19.7056 5.40671 19.9064 5.50313C20.0576 5.30818 20.1938 5.05212 20.3265 4.82424C20.3439 4.82688 20.4564 4.81002 20.4301 4.83979C20.4277 4.85717 20.4535 5.03737 20.4509 5.05502C20.468 5.2115 20.4306 5.1704 20.4043 5.36587C19.9393 5.70176 19.6097 5.97521 19.2117 6.24681C19.0552 6.35351 18.8476 6.373 18.6982 6.4876L18.4393 6.44861ZM21.7183 5.08637C21.5411 4.99487 21.3584 4.91429 21.1714 4.84506C21.0934 4.99601 21.1287 4.96677 20.9409 4.96966C20.8726 5.01234 20.0879 4.46017 20.0415 4.25127C20.188 4.14958 20.4285 3.94989 20.4901 3.73572C20.3824 3.64061 20.3742 3.63772 20.3284 3.41379C20.3776 3.30262 20.4335 3.17143 20.5726 3.11084C20.7578 3.36242 21.047 3.44646 21.0007 3.86533C20.9243 3.93646 20.8697 4.13114 20.9021 4.16855C21.0681 4.43883 21.3861 4.57213 21.7288 4.66381C21.9253 4.45938 22.0497 4.20701 22.0687 3.81396C21.5305 3.11637 22.2078 3.35768 22.2423 3.36295L22.1566 3.93303C22.266 4.03735 22.3987 4.21491 22.4053 4.39458C22.2004 4.50759 21.9043 4.91092 21.7183 5.08637ZM23.2294 5.2605C23.153 5.11772 23.1883 4.7871 23.227 4.57108C23.3039 4.52972 23.4404 4.4441 23.5173 4.40248C23.4965 4.54105 23.512 4.79052 23.4912 4.92883C23.3816 5.02209 23.2755 5.08558 23.2294 5.26076V5.2605Z" fill="#DFAA82"/>
<path fill-rule="evenodd" clip-rule="evenodd" d="M22.0212 6.24514C22.0755 5.8131 22.1617 5.57521 22.3168 5.33548C22.5423 5.34233 22.683 5.34839 22.8872 5.42136L22.8611 5.94745C22.6343 6.07337 22.6272 6.30309 22.2805 6.28412C22.1812 6.32364 22.1819 6.28597 22.0212 6.24514ZM18.144 5.23827C18.0768 5.13369 18.0773 5.03411 18.095 4.85998C18.1824 4.82151 18.2106 4.79886 18.2738 4.72773L18.3257 4.73563L18.3099 4.83943C18.3539 4.91925 18.3365 5.01804 18.3152 5.15819C18.2443 5.18111 18.1988 5.19639 18.144 5.23827ZM20.1242 5.11209L19.9688 5.08838L19.9533 5.19217L19.694 5.15345L19.7096 5.04965L19.5462 5.0781L19.5776 4.87078C19.6542 4.79622 19.6719 4.62288 19.6917 4.46403C19.7794 4.44638 19.8221 4.43953 19.9585 4.45085C19.9749 4.47904 19.9322 4.53331 20.0028 4.51066L20.0104 4.45876C20.0829 4.53041 20.0412 4.5233 20.1503 4.58574C20.0815 4.75434 20.1495 4.84022 20.1242 5.11209Z" fill="#804C36"/>
<path fill-rule="evenodd" clip-rule="evenodd" d="M22.8698 2.71518C22.8682 2.60902 22.8587 2.55448 22.8358 2.50127C22.8029 2.41618 22.7259 2.36033 22.6651 2.31344C22.5415 2.31238 22.4259 2.2597 22.3023 2.25891C22.2122 2.20701 21.9986 1.8619 21.7944 1.75837C21.4477 1.58266 21.0452 1.69778 20.8458 1.72175C20.7428 1.7344 20.688 1.72939 20.5866 1.68303C20.3676 1.67565 20.2212 1.64562 20.0086 1.64904C19.8526 1.70173 19.7051 1.91564 19.5394 1.94936L19.1247 1.88719C18.8263 1.91933 18.6002 1.99784 18.4343 2.20121C18.311 2.35295 18.3563 2.58662 18.1474 2.74732C18.0944 2.78815 18.0027 2.8606 17.9606 2.93146C17.8407 3.1351 17.7767 3.32557 17.6158 3.46256C17.5649 3.50602 17.5236 3.59454 17.4811 3.65434C17.3713 3.80819 17.3881 3.88748 17.3228 4.00155C17.3075 4.08269 17.2527 4.11483 17.2554 4.09744C17.2072 4.01077 17.1529 3.53527 17.3125 3.36403C17.3676 3.29422 17.7246 2.99232 17.7612 2.84848C17.9048 2.28367 17.8465 2.02392 18.3992 1.77813C18.6579 1.62007 19.1029 1.75389 19.4229 1.66696C19.6103 1.61638 19.8012 1.43303 19.9959 1.38218C20.3974 1.27681 20.7475 1.32949 21.0921 1.49388C21.4525 1.6659 21.7391 1.47518 22.0771 1.64193C22.3281 1.76575 22.3508 2.03525 22.5331 2.13456L23.1551 2.22808C23.3621 2.69753 23.7702 3.50919 23.7223 3.74444C23.6878 3.73917 23.5742 3.68305 23.5305 3.60956C23.4686 3.4997 23.3419 3.44412 23.3102 3.31134C23.2681 3.13537 23.3508 2.96518 23.2768 2.82925L23.2844 2.77762C23.1464 2.75654 23.0513 2.89353 22.8698 2.71518Z" fill="#571D09"/>
<path fill-rule="evenodd" clip-rule="evenodd" d="M17.641 6.11674C17.1729 6.12912 17.0765 5.32116 17.3389 4.58801C16.8304 3.93573 17.9224 3.10906 18.2641 3.03003L18.4195 3.05348L18.404 3.15701C18.2172 3.59958 18.327 3.72682 18.2791 3.98631C18.1 4.09511 17.8376 3.91149 17.7296 4.11592C17.6729 4.17388 17.5986 4.41018 17.6079 4.57457C17.6129 4.63279 17.7812 4.83037 17.8278 4.87278C17.8855 5.16336 17.4701 5.05271 17.5349 5.41178C17.5794 5.65888 17.7593 5.67891 17.641 6.11674Z" fill="#9A370D"/>
<path fill-rule="evenodd" clip-rule="evenodd" d="M17.9917 3.78425C18.0726 3.67624 18.0973 3.68125 18.1421 3.48867C18.1248 3.48606 18.1075 3.48342 18.0902 3.48077L18.0978 3.42914L17.9943 3.41333C17.9134 3.52134 17.8787 3.51765 17.8439 3.70891L17.9917 3.78425Z" fill="#822A12"/>
<path fill-rule="evenodd" clip-rule="evenodd" d="M23.3461 4.48334C23.1277 4.09819 23.3585 3.4986 23.0149 3.1614C23.0955 3.53944 22.982 3.90166 22.8511 4.24967L22.7994 4.24203C22.7757 3.79682 22.6585 2.50728 22.2428 2.30312L22.2504 2.25122L22.8208 2.3371C22.8827 2.89823 23.1883 2.5634 23.3284 2.83737L23.3102 3.31156L23.6264 3.67721L23.5408 4.24756C23.4844 4.30183 23.4854 4.32659 23.4578 4.44698C23.3561 4.4649 23.4101 4.44382 23.3461 4.48334Z" fill="#9A370D"/>
<path fill-rule="evenodd" clip-rule="evenodd" d="M21.9383 6.44467L21.9772 6.18545C22.1751 6.2168 22.3055 6.21153 22.4514 6.20389C22.6485 5.97575 22.7626 5.92491 22.8276 5.46521L22.3611 5.39513L22.3455 5.49866C22.2328 5.59376 22.2025 5.73602 22.1717 5.94967L22.0162 5.92622C22.0407 5.76632 22.0397 5.65752 22.0189 5.55557C21.7728 5.72733 21.5802 6.02054 21.2515 6.07638C21.2101 5.93624 21.2828 6.03924 21.1635 5.95705C21.0067 6.13487 20.6527 6.31954 20.3676 6.31453L20.3987 6.10721C20.9114 5.96495 21.0357 5.20467 21.511 5.0553C21.6221 5.00103 21.6751 5.0553 21.7778 5.04212C21.9132 4.82637 22.129 4.49048 22.3534 4.38669C22.2059 3.91856 22.0199 3.87035 22.2423 3.36297L22.1906 3.35506C22.1298 3.39036 21.9878 3.4038 21.9159 3.41987L21.908 3.47177C22.1801 3.70228 22.08 4.42989 21.7807 4.67173C21.694 4.71941 21.5589 4.69412 21.4101 4.66909C21.2325 4.47547 20.9519 4.46493 20.9022 4.16856C20.8445 4.03157 20.9872 3.79184 20.9878 3.59848C20.8118 3.44437 20.776 3.26655 20.5241 3.15775C20.4938 3.27867 20.3613 3.43041 20.3658 3.50496C20.374 3.63958 20.5486 3.68357 20.4667 3.89116C20.3908 4.08373 20.2098 4.13247 20.1297 4.37062C20.4108 4.49628 20.6648 4.83901 20.9409 4.96942L21.1039 4.94096L21.0808 5.09639C20.7941 5.20625 20.6171 5.46494 20.2849 5.45414L20.2926 5.40225C20.4917 5.28897 20.3927 5.09349 20.3705 4.8838C20.3532 4.88114 20.3359 4.87851 20.3186 4.87589C20.2436 5.16067 20.0576 5.31715 19.9064 5.50314C19.8144 5.45625 19.86 5.4926 19.8105 5.4357C19.3226 5.20282 19.4899 4.69702 19.4793 4.11377C19.4224 4.16303 19.4596 4.11904 19.4119 4.20966C19.2933 4.28158 19.184 4.42041 19.0541 4.47389C18.7662 4.59243 18.5512 4.38669 18.4293 4.75102C18.5407 4.89855 18.4851 4.99497 18.4187 5.17358L18.2633 5.15013C18.268 4.99997 18.2251 4.87616 18.2143 4.77184C18.1798 4.44465 18.4698 4.03315 18.414 3.79448L18.3104 3.77894L18.4011 3.52762L18.5644 3.49916C18.8047 3.37508 18.9617 3.63167 19.1189 3.68858L19.3861 3.67567C19.5447 3.28104 19.7868 3.33478 20.1896 3.26655C20.2422 3.0421 20.2338 3.09847 20.296 2.91143C20.463 2.89141 20.4606 2.84926 20.6745 2.86217C20.7483 2.8216 20.8097 2.83319 20.9414 2.84926C20.9311 2.98915 20.9348 3.13536 20.9907 3.22782C21.0874 3.55765 21.2857 3.35796 21.208 3.89643C21.1545 3.9478 21.1682 3.937 21.1329 4.04422C21.3171 4.20623 21.3424 4.35376 21.6564 4.44096C21.7536 4.29185 21.9414 4.09058 21.8898 3.94596C21.835 3.64432 21.5955 3.69095 21.6126 3.32134C21.8437 3.21649 21.9138 3.04183 22.2373 3.04421C22.2986 3.15222 22.4045 3.18225 22.4654 3.29052C22.5597 3.48178 22.3837 3.4802 22.5739 3.62509C22.6516 3.56713 22.6772 3.56502 22.7971 3.55238C22.7607 3.83768 22.9177 4.09164 22.7839 4.34533L22.6722 4.38168L22.6256 4.69254C22.7336 4.77368 22.7286 4.79844 22.9209 4.84323C23.0157 4.72995 23.1435 4.63748 23.2789 4.579C23.242 4.77394 23.1696 5.08375 23.237 5.20862C23.237 5.20862 23.2742 5.0084 23.3044 5.11273L23.2889 5.21652C23.4114 5.34982 23.5023 5.42148 23.4857 5.67016C23.2802 5.79977 23.4298 5.82559 23.2757 6.00947C23.2349 6.05847 23.148 6.08192 23.0969 6.14172L23.045 6.13381C22.9512 6.29978 23.0797 6.47839 23.0708 6.6678C22.874 6.80216 22.7481 7.01396 22.4823 7.05638L22.4978 6.95284C22.6772 6.85959 22.7544 6.63672 22.7986 6.36195L22.747 6.35405C22.6258 6.45758 22.4609 6.57534 22.2855 6.60273C22.1835 6.47075 22.1432 6.49156 21.9383 6.44467Z" fill="#A36C4E"/>
<path fill-rule="evenodd" clip-rule="evenodd" d="M19.7357 4.52344C19.7117 4.70837 19.6732 4.87328 19.6137 4.98208C19.7944 5.04426 19.7296 5.06797 19.9093 5.13251C19.9846 4.99104 20.0215 5.00948 20.0673 4.7853C20.0347 4.73788 20.0202 4.66148 19.987 4.61406C19.9282 4.55347 19.8663 4.54688 19.7357 4.52344Z" fill="#804C36"/>
<path fill-rule="evenodd" clip-rule="evenodd" d="M22.7726 6.88839C23.1042 6.49955 22.9272 6.47163 22.9854 6.17815C23.1485 5.97636 23.3047 5.7693 23.3977 5.55117C23.3685 5.3607 23.2773 5.34648 23.2449 5.15707C23.5149 4.98004 23.5126 4.61228 23.5018 4.47081C23.5344 4.40548 23.4923 4.4521 23.4578 4.44684C23.4862 4.25663 23.5755 4.0227 23.6029 3.8325C23.6161 3.74372 23.6351 3.46816 23.673 3.36621C23.7128 3.42996 23.7549 3.4953 23.8052 3.54482C23.8838 3.72607 23.888 3.81827 23.9061 3.93129C23.9301 4.08013 23.8192 4.27692 23.7921 4.33804C23.6237 4.71581 23.6996 5.40233 23.6569 5.5899C23.6332 5.69422 23.6077 5.75376 23.5739 5.78958C23.1272 6.78327 23.0592 6.82174 22.7726 6.88812V6.88839Z" fill="#652B17"/>
<path fill-rule="evenodd" clip-rule="evenodd" d="M23.0149 3.1611C23.084 3.17164 23.1374 3.28571 23.2064 3.29598C23.2446 3.66085 23.2038 4.16849 23.398 4.49094C23.0737 4.53915 23.2554 4.92509 22.8094 4.87951C22.7602 4.82287 22.7083 4.79258 22.6177 4.74463L22.6801 4.32998C22.9248 4.24305 22.9741 3.51069 23.0149 3.1611ZM18.3676 3.04572C18.0647 3.00831 17.9237 3.28993 17.7351 3.37475C17.7454 3.30573 17.8984 2.99277 17.909 2.92375C18.1495 2.75383 18.2778 2.49592 18.3963 2.14897C18.5296 2.0054 18.8982 1.7683 19.4877 1.94191C19.727 1.88395 19.8555 1.65871 20.1203 1.61287C20.3937 1.56572 20.8028 1.71351 20.9572 1.68585C21.1332 1.65423 21.8432 1.47878 21.9422 1.8339C22.4175 2.06573 22.8635 2.98434 22.8411 3.61211L22.7373 3.59657C22.6459 3.66427 22.6177 3.6648 22.4625 3.66137C22.428 3.45932 22.4562 3.30784 22.2657 3.20773C22.1917 3.12159 22.1917 3.10499 22.1179 3.13239C21.9941 3.16558 21.6145 3.35526 21.7006 3.44061C21.7283 3.5963 21.8637 3.74225 21.9572 3.85026C21.9174 4.26649 21.8479 4.51939 21.4411 4.46196C21.2804 4.25148 21.0789 4.24594 21.1045 3.88108C21.3213 3.65505 20.9949 3.47802 20.9232 3.32391C20.8402 3.14635 20.9517 2.99487 20.7781 2.87817C20.6724 2.9356 20.4928 2.91584 20.3919 2.97907C20.2873 3.05968 20.2433 3.24224 20.174 3.37027C19.585 3.30283 19.654 3.67138 19.2746 3.71222C18.9748 3.84815 18.9272 3.45905 18.6163 3.50726C18.5267 3.52096 18.3162 3.83103 18.243 3.87502L18.3131 3.40874C18.3091 3.31284 18.37 3.159 18.3676 3.04572Z" fill="#652B17"/>
<path fill-rule="evenodd" clip-rule="evenodd" d="M21.576 4.26982C21.6706 4.16971 21.7243 4.05775 21.742 3.87097C21.6632 3.8283 21.6169 3.86123 21.4543 3.82882C21.3914 3.91918 21.3995 4.02693 21.3763 4.1871C21.443 4.21476 21.4741 4.27535 21.576 4.27008V4.26982ZM19.4327 3.36491C19.4767 3.2403 19.5072 3.18103 19.5391 3.00979L19.4872 3.00189L19.4951 2.94999C19.3934 2.96791 19.4474 2.94683 19.3837 2.98635C19.208 3.01796 19.2333 3.01664 19.1893 3.22212C19.2288 3.28588 19.2064 3.23319 19.2254 3.33356L19.4327 3.36491ZM18.43 2.63123C18.4435 2.67602 18.6115 2.50636 18.64 2.2914L18.5881 2.28349C18.5046 2.23344 18.5254 2.29298 18.4248 2.31221C18.3792 2.39651 18.4048 2.4758 18.3781 2.62307L18.43 2.63097V2.63123ZM20.409 2.51321C20.4535 2.40151 20.478 2.39862 20.4996 2.26189C20.4901 2.20736 20.5241 2.15994 20.4635 2.15046C20.4994 2.07406 20.3687 2.08196 20.2119 2.05957C20.125 2.07327 20.1619 2.1581 20.1369 2.2071C20.0831 2.25847 20.0892 2.2993 20.0539 2.40678C20.1616 2.48766 20.2164 2.46869 20.409 2.51321Z" fill="#50200A"/>
<path fill-rule="evenodd" clip-rule="evenodd" d="M4.18091 15.9671C4.12691 15.9494 4.01495 15.9434 4.2639 15.7677C4.6688 15.5103 5.5205 15.2123 7.01683 14.3793C7.01156 14.4136 6.41804 14.8369 6.41277 14.8714C6.28105 14.9721 5.9096 15.1881 5.71281 15.2964C5.42724 15.4534 5.23203 15.5398 4.79789 15.7416C4.65747 15.8072 4.43619 15.9017 4.18091 15.9671ZM6.35191 11.0458C6.285 11.0774 6.18595 11.1061 6.19648 11.0223C6.21044 10.9881 6.23231 10.9559 6.26366 10.9264C6.55713 10.5987 7.73786 9.86847 8.27896 9.6788C8.41411 9.61926 8.15673 9.83423 8.11721 9.88007C7.92095 10.0068 7.50367 10.3648 7.11141 10.5769C6.87695 10.7036 6.61561 10.884 6.35191 11.0458ZM16.9237 11.9457C16.8895 11.9404 16.8104 11.9254 16.8876 11.8343C16.8918 11.8179 16.9437 11.7853 16.9983 11.7442C17.293 11.4781 18.5799 10.623 19.5915 10.0676C19.5863 10.1019 19.301 10.3327 19.2259 10.3838C18.4435 11.0337 18.2591 11.182 17.6337 11.5666C17.4097 11.7039 17.0918 11.9191 16.9237 11.946V11.9457Z" fill="#A1D1DF"/>
<path fill-rule="evenodd" clip-rule="evenodd" d="M8.96074 14.141C8.70916 14.2604 8.66385 14.2736 8.63408 14.1982C8.63671 14.1808 8.67096 14.1126 8.76132 14.0581C8.89936 13.9664 9.09404 13.8431 9.11117 13.8457C9.34642 13.7164 9.5785 13.5989 9.89937 13.5401C9.89674 13.5575 9.78267 13.611 9.78004 13.6281C9.76265 13.6255 9.50711 13.7994 9.48973 13.7967C9.29373 13.9158 9.15937 14.0164 8.96074 14.141ZM11.4671 14.0407C10.9463 14.3666 10.705 14.463 10.6352 14.2867C10.5772 14.141 13.2335 12.5299 14.7906 11.6782C14.7854 11.7124 14.1244 12.2316 14.1191 12.2662C13.8336 12.4482 13.7793 12.5375 13.2846 12.8826C12.2419 13.6107 11.9331 13.777 11.4674 14.0409L11.4671 14.0407ZM2.70434 13.0949C2.57789 13.1771 2.49885 13.1698 2.42957 13.1595C2.43484 13.125 2.32762 13.1013 2.40902 12.9442C2.53126 12.831 2.75255 12.7008 2.93774 12.5997C3.43406 12.3289 4.6551 11.6205 5.2373 11.4081C5.23466 11.4255 5.20569 11.4556 5.11006 11.548C4.96754 11.6508 4.88877 11.7269 4.87165 11.7243C4.66985 11.8902 3.98439 12.277 3.62268 12.5341C3.31552 12.7527 2.91878 12.9738 2.70434 13.0947V13.0949ZM11.6979 5.80638C11.5203 5.9265 11.3011 5.92071 11.4465 5.71575C12.2345 5.14172 13.2743 4.39751 14.1581 3.89697C14.1529 3.93148 13.8496 4.18649 13.8446 4.221C13.3802 4.53871 13.2108 4.69625 12.8905 4.9257C12.2716 5.3688 11.9866 5.67518 11.6979 5.80638Z" fill="#DFB958"/>
<path fill-rule="evenodd" clip-rule="evenodd" d="M5.82951 15.5788C5.7323 15.519 5.78578 15.4663 5.85269 15.4233C6.06344 15.2916 6.51366 15.0796 8.03291 14.3198C8.0769 14.3019 8.12511 14.2895 8.20415 14.2394C8.15831 14.3132 8.12959 14.3332 8.0769 14.3796C7.13538 15.04 6.04474 15.6971 5.82951 15.5788ZM2.12056 14.8622C2.08262 14.8664 1.96249 14.8949 1.91323 14.8311C1.83683 14.7576 1.87635 14.6109 2.01176 14.5282C2.18036 14.3709 2.70144 14.0851 3.06182 13.8907C4.1219 13.3195 5.00785 12.6451 6.03262 12.1109C6.51024 11.8622 7.27184 11.2739 7.77474 11.1006C7.76947 11.1351 7.23548 11.5142 7.23021 11.549C6.62378 11.9799 6.00601 12.501 5.27023 12.9504C4.69541 13.3019 4.15641 13.707 3.57237 14.0205C3.06788 14.2911 2.39269 14.7642 2.12082 14.8622H2.12056ZM14.2487 12.8158C14.1476 12.8343 14.0796 12.7223 14.1892 12.6567C14.5704 12.3835 14.96 12.2386 15.4413 11.9349C15.5665 11.8559 16.1041 11.5192 16.4316 11.3416C16.429 11.359 16.3549 11.4409 16.3044 11.4818C16.2641 11.516 16.2288 11.5437 16.1255 11.6138C15.7287 11.9346 14.9521 12.6609 14.2487 12.8158ZM4.78102 10.9156C4.61295 10.9317 4.57818 10.849 4.70094 10.7444L6.56213 9.64613C6.55686 9.68064 6.44174 9.76389 6.37535 9.83028C6.11956 10.035 5.90169 10.1799 5.60032 10.4027C5.31818 10.6114 4.98387 10.8277 4.78102 10.9156ZM8.69072 7.47487C8.59878 7.49911 8.54319 7.39979 8.55083 7.3479C8.706 7.19905 9.05795 6.94299 9.32587 6.77518C9.58509 6.61317 9.76555 6.52439 10.0258 6.35052C10.2982 6.16874 10.6006 6.01964 11.068 5.76489L11.0601 5.81679L11.0084 5.80889C10.5977 6.1698 10.1101 6.51859 9.51001 6.96196C9.28899 7.12529 9.01475 7.32866 8.69072 7.47487Z" fill="#DD3D2D"/>
<path fill-rule="evenodd" clip-rule="evenodd" d="M0.474068 17C0.409262 16.9494 0.421116 16.9584 0.393982 16.829C0.418482 16.7023 1.52203 16.3327 3.36188 15.4199C3.35661 15.4544 3.22805 15.5461 3.17537 15.6038C2.71066 15.8735 2.08289 16.2927 1.43325 16.6143C1.1187 16.7697 0.709581 16.9694 0.474331 17H0.474068ZM8.04055 15.3279C7.98365 15.1699 8.32375 15.0271 8.47338 14.9162C9.82719 14.01 11.6041 13.1382 13.0072 12.2581C13.0022 12.2926 12.8778 12.4154 12.8725 12.4499C12.4189 12.7858 12.136 13.0186 11.8588 13.1986C11.046 13.7217 10.2267 14.2347 9.40121 14.7376C8.98155 14.9923 8.22022 15.554 8.04029 15.3279H8.04055ZM7.4926 9.09709C7.45835 9.09182 7.33217 9.0992 7.40461 8.97775C7.63723 8.72169 8.613 8.12237 9.18572 7.70824C9.85196 7.22641 10.6233 6.645 11.4205 6.24194C11.4152 6.27645 11.0733 6.53937 10.9357 6.64606C10.4937 6.94348 9.74526 7.60761 9.19073 8.027C8.47602 8.56758 7.67859 9.06522 7.49286 9.09709H7.4926Z" fill="#D98C82"/>
</svg>
