<svg width="24" height="24" viewBox="0 0 24 24" fill="none" xmlns="http://www.w3.org/2000/svg">
    <path d="M21.6772 10.224C21.2227 6.93975 18.4958 4.5 15.2805 4.5H8.7195C5.50425 4.5 2.778 6.93975 2.32275 10.224C2.271 10.5982 1.5 16.032 1.5 16.41C1.5 18.1162 2.841 19.5 4.49475 19.5C5.6295 19.5 6.666 18.8385 7.17375 17.7915L9 14.25H15L16.8262 17.7915C17.3332 18.8385 18.3705 19.5 19.5052 19.5C21.159 19.5 22.5 18.1162 22.5 16.41C22.5 16.032 21.729 10.5982 21.6772 10.224V10.224ZM16.5 6.75C17.052 6.75 17.4998 7.19775 17.4998 7.74975C17.4998 8.30175 17.052 8.7495 16.5 8.7495C15.948 8.7495 15.5002 8.30175 15.5002 7.74975C15.5002 7.19775 15.948 6.75 16.5 6.75ZM9.75 10.5H8.25V12H6.75V10.5H5.25V9H6.75V7.5H8.25V9H9.75V10.5ZM14.4998 10.7498C13.9478 10.7498 13.5 10.302 13.5 9.75C13.5 9.198 13.9478 8.75025 14.4998 8.75025C15.0518 8.75025 15.4995 9.198 15.4995 9.75C15.5003 10.302 15.0525 10.7498 14.4998 10.7498ZM16.5 12.75C15.948 12.75 15.5002 12.3022 15.5002 11.7502C15.5002 11.1982 15.948 10.7505 16.5 10.7505C17.052 10.7505 17.4998 11.1982 17.4998 11.7502C17.4998 12.3022 17.052 12.75 16.5 12.75ZM18.5002 10.7498C17.9482 10.7498 17.5005 10.302 17.5005 9.75C17.5005 9.198 17.9482 8.75025 18.5002 8.75025C19.0522 8.75025 19.5 9.198 19.5 9.75C19.5 10.302 19.0522 10.7498 18.5002 10.7498Z" fill="#FFD569"/>
</svg>
