<svg width="166px" height="166px" viewBox="0 0 166 166" version="1.1" xmlns="http://www.w3.org/2000/svg" xmlns:xlink="http://www.w3.org/1999/xlink">
    <g id="Page-1-Copy" stroke="none" stroke-width="1" fill="none" fill-rule="evenodd">
        <g id="Desktop-Copy-3" transform="translate(-255.000000, -55.000000)" fill="#6EE750" fill-rule="nonzero">
            <path d="M255,136.906169 C255,133.203166 258.835827,130.83886 262.005263,132.587706 L262.005263,132.587706 L335.916295,173.368067 C337.322503,174.143871 339.012911,174.142623 340.417664,173.364072 L340.417664,173.364072 L413.988117,132.607212 C417.158208,130.851053 421,133.215358 421,136.921775 L421,136.921775 L421,172.845704 C421,174.648756 420.038764,176.306485 418.496518,177.160444 L418.496518,177.160444 L340.417664,220.415211 C339.012911,221.193512 337.322503,221.19501 335.916295,220.419206 L335.916295,220.419206 L257.51066,177.158946 C255.964777,176.305986 255,174.646259 255,172.84046 L255,172.84046 Z M255,59.9061686 C255,56.2031656 258.835827,53.8388604 262.005263,55.5877059 L262.005263,55.5877059 L335.916295,96.3680672 C337.322503,97.1438714 339.012911,97.1426229 340.417664,96.3640721 L340.417664,96.3640721 L413.988117,55.6072121 C417.158208,53.8510531 421,56.2153582 421,59.9217746 L421,59.9217746 L421,95.845704 C421,97.6487559 420.038764,99.3064849 418.496518,100.160444 L418.496518,100.160444 L340.417664,143.415211 C339.012911,144.193512 337.322503,144.19501 335.916295,143.419206 L335.916295,143.419206 L257.51066,100.158946 C255.964777,99.3059855 255,97.6462589 255,95.8404604 L255,95.8404604 Z" id="Combined-Shape"></path>
        </g>
    </g>
</svg>