<svg width="166px" height="166px" viewBox="0 0 166 166" version="1.1" xmlns="http://www.w3.org/2000/svg" xmlns:xlink="http://www.w3.org/1999/xlink">
    <g id="Page-1-Copy" stroke="none" stroke-width="1" fill="none" fill-rule="evenodd">
        <g id="Desktop-Copy-3" transform="translate(-661.000000, -50.000000)" fill="#7E8D25" fill-rule="nonzero">
            <path d="M744,50 C766.577323,50 787.049195,59.1722039 802.012696,74.0541856 C817.011062,88.9708416 826.475404,109.623899 826.978859,132.526694 C826.987784,132.640341 826.994205,132.748461 826.997494,132.855525 L827,133.01589 L827,168.579384 C827,169.428363 826.770174,170.243 826.356234,170.94564 C825.969885,171.601447 825.423151,172.159689 824.753193,172.557246 L824.607758,172.639954 L745.977473,215.453818 C744.683663,216.158228 743.137385,216.181211 741.827402,215.523171 L741.687972,215.450061 L663.385353,172.641606 C662.650717,172.240177 662.054435,171.649864 661.641785,170.948012 C661.256548,170.292786 661.031354,169.540351 661.00304,168.753653 L661,168.584574 L661,133.031335 C661,132.9235 661.003494,132.816871 661.01036,132.711524 L661.023172,132.554475 L661.044367,131.664088 C661.768338,108.950562 671.307261,88.5041537 686.293362,73.7513465 C701.229356,59.0478674 721.576224,50 744,50 Z M744,80.9737599 C728.97015,80.9737599 717.176175,86.0974059 708.611654,96.3315882 C703.883568,101.981419 698.467126,108.937826 695.694975,117.713541 C693.474878,124.741639 692.570387,133 692.570387,142.063418 L692.570387,142.076431 L741.462845,169.310755 L741.593755,169.378524 C743.042113,170.086804 744.601642,170.163268 746.043002,169.378524 L795.90907,142.076431 L795.838644,141.46643 C795.838644,117.713541 788.011529,106.313929 779.440927,96.2384012 C770.788012,86.0661083 758.976369,80.9737599 744,80.9737599 Z" id="Combined-Shape-Copy"></path>
        </g>
    </g>
</svg>