<svg width="170px" height="238px" viewBox="0 0 170 238" version="1.1" xmlns="http://www.w3.org/2000/svg" xmlns:xlink="http://www.w3.org/1999/xlink">
    <g id="Page-1-Copy" stroke="none" stroke-width="1" fill="none" fill-rule="evenodd">
        <g id="Desktop-Copy-3" transform="translate(-457.000000, -55.000000)" fill="#E7D050" fill-rule="nonzero">
            <path d="M457,208.906169 C457,205.203166 460.835827,202.83886 464.005263,204.587706 L464.005263,204.587706 L537.916295,245.368067 C539.322503,246.143871 541.012911,246.142623 542.417664,245.364072 L542.417664,245.364072 L615.988117,204.607212 C619.158208,202.851053 623,205.215358 623,208.921775 L623,208.921775 L623,244.845704 C623,246.648756 622.038764,248.306485 620.496518,249.160444 L620.496518,249.160444 L542.417664,292.415211 C541.012911,293.193512 539.322503,293.19501 537.916295,292.419206 L537.916295,292.419206 L459.51066,249.158946 C457.964777,248.305986 457,246.646259 457,244.84046 L457,244.84046 Z M463.831751,132.496377 L464.005263,132.587706 L537.916295,173.368067 C539.248492,174.10304 540.835761,174.140602 542.19357,173.480542 L542.417664,173.364072 L615.988117,132.607212 C619.10057,130.882983 622.860521,133.130746 622.996217,136.720954 L623,136.921775 L623,172.845704 C623,174.570362 622.120533,176.16206 620.694354,177.044554 L620.496518,177.160444 L542.417664,220.415211 C541.086845,221.152549 539.49965,221.192701 538.140607,220.535242 L537.916295,220.419206 L459.51066,177.158946 C458.031989,176.343071 457.084992,174.789058 457.00544,173.075117 L457,172.84046 L457,136.906169 C457,133.270493 460.69761,130.925278 463.831751,132.496377 Z M467.831751,55.4963768 L468.005263,55.5877059 L541.916295,96.3680672 C543.248492,97.1030396 544.835761,97.1406019 546.19357,96.4805416 L546.417664,96.3640721 L619.988117,55.6072121 C623.10057,53.8829832 626.860521,56.1307456 626.996217,59.7209542 L627,59.9217746 L627,95.845704 C627,97.5703623 626.120533,99.1620599 624.694354,100.044554 L624.496518,100.160444 L546.417664,143.415211 C545.086845,144.152549 543.49965,144.192701 542.140607,143.535242 L541.916295,143.419206 L463.51066,100.158946 C462.031989,99.3430708 461.084992,97.7890579 461.00544,96.0751167 L461,95.8404604 L461,59.9061686 C461,56.2704929 464.69761,53.9252777 467.831751,55.4963768 Z" id="Combined-Shape"></path>
        </g>
    </g>
</svg>