<svg width="204" height="38" viewBox="0 0 204 38" fill="none" xmlns="http://www.w3.org/2000/svg">
    <path d="M151.026 0H144.165L164.41 21.6881L168.022 18.2094C168.003 18.1848 151.053 0.0272841 151.026 0Z" fill="#EAEBF3"/>
    <path d="M176.47 26.8667C178.742 29.3465 182.966 33.9191 186.695 37.9519H179.832L172.356 29.8697L161.435 37.9519H147.419L179.91 14.095C184.404 14.6878 187.756 15.5032 190.795 16.4105L176.47 26.8667Z" fill="#EAEBF3"/>
    <path d="M153.787 12.4287L147.286 5.31882C134.828 7.31526 126.159 12.2035 125.746 18.4597C125.303 25.1164 134.335 31.4922 147.741 35.0486L149.997 33.3997C128.478 27.4048 132.128 15.7765 153.787 12.4287ZM175.495 36.1691C172.561 36.2053 168.526 36.0968 167.612 36.0384L165.223 37.7846C169.289 38.0265 173.225 38.0043 176.935 37.7485L175.495 36.1691ZM201.894 29.3401C200.004 30.861 196.523 33.4275 188.243 34.8817L189.157 35.88C194.994 34.4146 199.509 32.3792 202.131 29.6042C202.28 29.443 202.065 29.201 201.894 29.3401ZM203.797 20.8733C201.068 12.8792 186.237 5.88049 166.645 4.55694C164.496 4.41235 162.381 4.34006 160.315 4.33728L166.879 11.5167C168.317 11.525 169.782 11.564 171.264 11.639C193.68 12.7652 201.577 19.1048 203.508 21.0568C203.638 21.193 203.858 21.0512 203.797 20.8733Z" fill="#8045FA"/>
    <path d="M20.822 33.7008C15.2942 34.173 10.7084 34.4091 7.0646 34.4091C4.63537 34.4091 2.85063 33.8661 1.71038 32.78C0.570126 31.6939 0 29.994 0 27.6802V16.3472C0 13.8681 0.58252 12.0737 1.74756 10.964C2.93739 9.83069 4.83367 9.26404 7.43642 9.26404H20.822V14.2222H8.9237C7.43642 14.2222 6.69278 14.9305 6.69278 16.3472V27.6802C6.69278 28.2232 6.8539 28.66 7.17615 28.9905C7.52318 29.2975 7.95697 29.4509 8.47752 29.4509C8.99807 29.4509 9.56819 29.4509 10.1879 29.4509C10.8076 29.4273 11.4521 29.4037 12.1214 29.3801C12.7906 29.3565 13.4599 29.3329 14.1292 29.3093C14.8233 29.2857 15.7032 29.2384 16.7691 29.1676C17.8598 29.0968 19.2108 29.0141 20.822 28.9197V33.7008Z" fill="#EAEBF3"/>
    <path d="M23.8009 9.26404H39.4174C42.0201 9.26404 43.904 9.83069 45.0691 10.964C46.2589 12.0737 46.8538 13.8681 46.8538 16.3472V19.5346C46.8538 21.4942 46.5068 23.0171 45.8127 24.1032C45.1434 25.1893 44.0652 25.9094 42.5779 26.2635L47.2256 34.055H39.9751L35.6992 26.6177H30.4937V34.055H23.8009V9.26404ZM40.161 16.3472C40.161 14.9305 39.4174 14.2222 37.9301 14.2222H30.4937V21.6595H37.9301C39.4174 21.6595 40.161 20.9512 40.161 19.5346V16.3472Z" fill="#EAEBF3"/>
    <path d="M55.2096 34.055H47.9591L57.8124 9.26404H65.2488L75.102 34.055H67.8515L66.1783 29.628H56.8828L55.2096 34.055ZM58.556 25.024H64.5051L61.5306 16.7013L58.556 25.024Z" fill="#EAEBF3"/>
    <path d="M96.6662 14.2222L83.6525 29.0968H96.6662V34.055H75.4724V29.0968L88.4861 14.2222H75.4724V9.26404H96.6662V14.2222Z" fill="#EAEBF3"/>
    <path d="M96.6793 9.26404H103.744L109.879 21.3053L116.014 9.26404H123.079L113.225 27.5031V34.055H106.533V27.5031L96.6793 9.26404Z" fill="#EAEBF3"/>
</svg>
