<svg width="287" height="193" viewBox="0 0 287 193" fill="none" xmlns="http://www.w3.org/2000/svg">
    <rect width="287" height="193" rx="9" fill="url(#paint0_linear_171_98001)"/>
    <path d="M129.154 77H121.789L143.523 100.281L147.401 96.5466C147.38 96.5202 129.184 77.0293 129.154 77Z" fill="#6E6A97" fill-opacity="0.2"/>
    <path d="M156.469 105.84C158.908 108.501 163.443 113.41 167.447 117.739H160.079L152.053 109.063L140.328 117.739H125.281L160.162 92.1299C164.987 92.7662 168.585 93.6416 171.848 94.6155L156.469 105.84Z" fill="#6E6A97" fill-opacity="0.2"/>
    <path d="M132.12 90.3409L125.141 82.7089C111.766 84.8519 102.46 90.0991 102.017 96.8148C101.541 103.96 111.237 110.804 125.629 114.622L128.051 112.852C104.95 106.417 108.868 93.9345 132.12 90.3409ZM155.425 115.825C152.275 115.863 147.943 115.747 146.961 115.684L144.398 117.559C148.762 117.818 152.988 117.795 156.971 117.52L155.425 115.825ZM183.765 108.494C181.737 110.127 177.999 112.882 169.11 114.443L170.092 115.514C176.358 113.941 181.204 111.756 184.02 108.778C184.179 108.605 183.949 108.345 183.765 108.494ZM185.809 99.4056C182.878 90.8244 166.957 83.3118 145.924 81.8911C143.617 81.7359 141.346 81.6583 139.128 81.6553L146.175 89.3619C147.718 89.3708 149.292 89.4126 150.883 89.4932C174.947 90.702 183.425 97.5073 185.498 99.6026C185.637 99.7488 185.874 99.5966 185.809 99.4056Z" fill="#6E6A97" fill-opacity="0.4"/>
    <defs>
        <linearGradient id="paint0_linear_171_98001" x1="143.5" y1="0" x2="143.5" y2="193" gradientUnits="userSpaceOnUse">
            <stop stop-color="#131126"/>
            <stop offset="1" stop-color="#252152"/>
        </linearGradient>
    </defs>
</svg>
