<svg width="970" height="171" viewBox="0 0 970 171" fill="none" xmlns="http://www.w3.org/2000/svg">
	<path opacity="0.8" d="M982.488 6.55382L705.816 -323.171C705.104 -324.019 703.84 -324.13 702.991 -323.418C702.143 -322.706 702.032 -321.442 702.744 -320.593L979.416 9.13151C980.128 9.97982 981.393 10.0905 982.241 9.37865C983.089 8.66685 983.2 7.40213 982.488 6.55382Z" fill="url(#paint0_linear_1810_98318)"/>
	<path opacity="0.79" d="M154.063 86.6018L63.8435 -20.9171C63.1317 -21.7654 61.867 -21.8761 61.0187 -21.1643C60.1704 -20.4525 60.0598 -19.1878 60.7716 -18.3394L150.991 89.1795C151.703 90.0278 152.967 90.1385 153.816 89.4267C154.664 88.7149 154.774 87.4501 154.063 86.6018Z" fill="url(#paint1_linear_1810_98318)"/>
	<path opacity="0.26" d="M472.826 70.2769L392.058 -25.9782C391.347 -26.8265 390.082 -26.9371 389.234 -26.2253C388.385 -25.5135 388.275 -24.2488 388.986 -23.4005L469.754 72.8546C470.466 73.7029 471.731 73.8135 472.579 73.1017C473.427 72.3899 473.538 71.1252 472.826 70.2769Z" fill="url(#paint2_linear_1810_98318)"/>
	<path opacity="0.77" d="M891.684 81.9801L596.109 -270.273C595.397 -271.121 594.133 -271.232 593.284 -270.52C592.436 -269.808 592.325 -268.543 593.037 -267.695L888.612 84.5577C889.324 85.406 890.589 85.5167 891.437 84.8049C892.285 84.0931 892.396 82.8283 891.684 81.9801Z" fill="url(#paint3_linear_1810_98318)"/>
	<path opacity="0.97" d="M44.7842 101.849L-75.508 -41.5099C-76.2198 -42.3582 -77.4846 -42.4689 -78.3329 -41.7571C-79.1812 -41.0452 -79.2918 -39.7805 -78.58 -38.9322L41.7122 104.426C42.424 105.275 43.6887 105.385 44.537 104.674C45.3853 103.962 45.496 102.697 44.7842 101.849Z" fill="url(#paint4_linear_1810_98318)"/>
	<path opacity="0.74" d="M788.518 128.794L504.113 -210.147C503.401 -210.995 502.137 -211.106 501.288 -210.394C500.44 -209.682 500.329 -208.418 501.041 -207.569L785.446 131.371C786.158 132.22 787.423 132.33 788.271 131.618C789.119 130.907 789.23 129.642 788.518 128.794Z" fill="url(#paint5_linear_1810_98318)"/>
	<path opacity="0.23" d="M608.491 158.48L395.402 -95.4694C394.69 -96.3177 393.426 -96.4283 392.577 -95.7165C391.729 -95.0047 391.618 -93.74 392.33 -92.8917L605.419 161.058C606.131 161.906 607.396 162.017 608.244 161.305C609.092 160.593 609.203 159.329 608.491 158.48Z" fill="url(#paint6_linear_1810_98318)"/>
	<path opacity="0.37" d="M1090.81 205.157L792.656 -150.167C791.944 -151.015 790.68 -151.126 789.831 -150.414C788.983 -149.702 788.872 -148.438 789.584 -147.589L1087.74 207.735C1088.45 208.583 1089.71 208.694 1090.56 207.982C1091.41 207.271 1091.52 206.006 1090.81 205.157Z" fill="url(#paint7_linear_1810_98318)"/>
	<path opacity="0.18" d="M278.28 134.619L62.6131 -122.402C61.9013 -123.251 60.6365 -123.361 59.7882 -122.65C58.9399 -121.938 58.8293 -120.673 59.5411 -119.825L275.208 137.197C275.92 138.045 277.184 138.156 278.033 137.444C278.881 136.732 278.992 135.467 278.28 134.619Z" fill="url(#paint8_linear_1810_98318)"/>
	<path opacity="0.18" d="M658.295 110.068L535.426 -36.3625C534.714 -37.2108 533.449 -37.3214 532.601 -36.6096C531.752 -35.8978 531.642 -34.6331 532.354 -33.7848L655.223 112.646C655.935 113.494 657.2 113.605 658.048 112.893C658.897 112.181 659.007 110.916 658.295 110.068Z" fill="url(#paint9_linear_1810_98318)"/>
	<path opacity="0.62" d="M275.853 86.0041L193.367 -12.299C192.655 -13.1473 191.39 -13.2579 190.542 -12.5461C189.694 -11.8343 189.583 -10.5696 190.295 -9.72129L272.781 88.5818C273.493 89.4301 274.758 89.5407 275.606 88.8289C276.454 88.1171 276.565 86.8524 275.853 86.0041Z" fill="url(#paint10_linear_1810_98318)"/>
	<path opacity="0.95" d="M348.175 86.3749L249.363 -31.3839C248.651 -32.2322 247.387 -32.3429 246.538 -31.6311C245.69 -30.9193 245.579 -29.6545 246.291 -28.8062L345.103 88.9526C345.814 89.8009 347.079 89.9116 347.927 89.1998C348.776 88.488 348.886 87.2232 348.175 86.3749Z" fill="url(#paint11_linear_1810_98318)"/>
	<path opacity="0.14" d="M367.602 16.4149L211.222 -169.951C210.511 -170.8 209.246 -170.91 208.398 -170.198C207.549 -169.487 207.439 -168.222 208.15 -167.374L364.53 18.9926C365.242 19.8409 366.507 19.9516 367.355 19.2397C368.203 18.5279 368.314 17.2632 367.602 16.4149Z" fill="url(#paint12_linear_1810_98318)"/>
	<path opacity="0.65" d="M931.692 169.034L703.137 -103.348C702.425 -104.196 701.16 -104.307 700.312 -103.595C699.463 -102.883 699.353 -101.618 700.065 -100.77L928.62 171.611C929.331 172.46 930.596 172.57 931.445 171.858C932.293 171.147 932.403 169.882 931.692 169.034Z" fill="url(#paint13_linear_1810_98318)"/>
	<path opacity="0.98" d="M87.4631 55.8292L-13.926 -65.0016C-14.6378 -65.8499 -15.9025 -65.9606 -16.7508 -65.2488C-17.5991 -64.5369 -17.7098 -63.2722 -16.998 -62.4239L84.3912 58.4069C85.103 59.2552 86.3677 59.3659 87.216 58.6541C88.0643 57.9423 88.1749 56.6775 87.4631 55.8292Z" fill="url(#paint14_linear_1810_98318)"/>
	<path opacity="0.27" d="M114.575 28.7026L-62.426 -182.239C-63.1378 -183.088 -64.4025 -183.198 -65.2508 -182.487C-66.0991 -181.775 -66.2098 -180.51 -65.498 -179.662L111.503 31.2803C112.215 32.1286 113.48 32.2392 114.328 31.5274C115.177 30.8156 115.287 29.5509 114.575 28.7026Z" fill="url(#paint15_linear_1810_98318)"/>
	<path opacity="0.07" d="M298.142 38.9391L144.34 -144.355C143.628 -145.203 142.363 -145.314 141.515 -144.602C140.666 -143.89 140.556 -142.626 141.268 -141.777L295.07 41.5168C295.782 42.3651 297.046 42.4758 297.895 41.7639C298.743 41.0521 298.854 39.7874 298.142 38.9391Z" fill="url(#paint16_linear_1810_98318)"/>
	<path opacity="0.77" d="M745.994 54.9166L691.004 -10.6188C690.292 -11.4671 689.027 -11.5777 688.179 -10.8659C687.331 -10.1541 687.22 -8.88941 687.932 -8.04111L742.922 57.4943C743.634 58.3426 744.899 58.4532 745.747 57.7414C746.596 57.0296 746.706 55.7649 745.994 54.9166Z" fill="url(#paint17_linear_1810_98318)"/>
	<path opacity="0.8" d="M462.698 51.3403L292.57 -151.41C291.858 -152.258 290.594 -152.369 289.745 -151.657C288.897 -150.945 288.786 -149.68 289.498 -148.832L459.626 53.9179C460.337 54.7663 461.602 54.8769 462.45 54.1651C463.299 53.4533 463.409 52.1886 462.698 51.3403Z" fill="url(#paint18_linear_1810_98318)"/>
	<path opacity="0.95" d="M382.215 62.7661L340.972 13.6146C340.261 12.7663 338.996 12.6556 338.148 13.3675C337.299 14.0793 337.189 15.344 337.9 16.1923L379.144 65.3438C379.855 66.1921 381.12 66.3028 381.968 65.591C382.817 64.8792 382.927 63.6144 382.215 62.7661Z" fill="url(#paint19_linear_1810_98318)"/>
	<defs>
		<linearGradient id="paint0_linear_1810_98318" x1="844.152" y1="-158.309" x2="841.08" y2="-155.731" gradientUnits="userSpaceOnUse">
			<stop stop-color="#7331FF"/>
			<stop offset="1" stop-color="#874FF8"/>
		</linearGradient>
		<linearGradient id="paint1_linear_1810_98318" x1="108.953" y1="32.8423" x2="105.881" y2="35.42" gradientUnits="userSpaceOnUse">
			<stop stop-color="#7331FF"/>
			<stop offset="1" stop-color="#874FF8"/>
		</linearGradient>
		<linearGradient id="paint2_linear_1810_98318" x1="432.442" y1="22.1494" x2="429.37" y2="24.7271" gradientUnits="userSpaceOnUse">
			<stop stop-color="#7331FF"/>
			<stop offset="1" stop-color="#874FF8"/>
		</linearGradient>
		<linearGradient id="paint3_linear_1810_98318" x1="743.897" y1="-94.1463" x2="740.825" y2="-91.5686" gradientUnits="userSpaceOnUse">
			<stop stop-color="#7331FF"/>
			<stop offset="1" stop-color="#874FF8"/>
		</linearGradient>
		<linearGradient id="paint4_linear_1810_98318" x1="-15.3619" y1="30.1694" x2="-18.4339" y2="32.7471" gradientUnits="userSpaceOnUse">
			<stop stop-color="#7331FF"/>
			<stop offset="1" stop-color="#874FF8"/>
		</linearGradient>
		<linearGradient id="paint5_linear_1810_98318" x1="646.316" y1="-40.6767" x2="643.244" y2="-38.099" gradientUnits="userSpaceOnUse">
			<stop stop-color="#7331FF"/>
			<stop offset="1" stop-color="#874FF8"/>
		</linearGradient>
		<linearGradient id="paint6_linear_1810_98318" x1="501.947" y1="31.5054" x2="498.875" y2="34.0831" gradientUnits="userSpaceOnUse">
			<stop stop-color="#7331FF"/>
			<stop offset="1" stop-color="#874FF8"/>
		</linearGradient>
		<linearGradient id="paint7_linear_1810_98318" x1="941.732" y1="27.4952" x2="938.66" y2="30.0729" gradientUnits="userSpaceOnUse">
			<stop stop-color="#7331FF"/>
			<stop offset="1" stop-color="#874FF8"/>
		</linearGradient>
		<linearGradient id="paint8_linear_1810_98318" x1="170.446" y1="6.10829" x2="167.374" y2="8.68598" gradientUnits="userSpaceOnUse">
			<stop stop-color="#7331FF"/>
			<stop offset="1" stop-color="#874FF8"/>
		</linearGradient>
		<linearGradient id="paint9_linear_1810_98318" x1="596.861" y1="36.8529" x2="593.789" y2="39.4305" gradientUnits="userSpaceOnUse">
			<stop stop-color="#7331FF"/>
			<stop offset="1" stop-color="#874FF8"/>
		</linearGradient>
		<linearGradient id="paint10_linear_1810_98318" x1="234.61" y1="36.8526" x2="231.538" y2="39.4302" gradientUnits="userSpaceOnUse">
			<stop stop-color="#7331FF"/>
			<stop offset="1" stop-color="#874FF8"/>
		</linearGradient>
		<linearGradient id="paint11_linear_1810_98318" x1="298.769" y1="27.4955" x2="295.697" y2="30.0732" gradientUnits="userSpaceOnUse">
			<stop stop-color="#7331FF"/>
			<stop offset="1" stop-color="#874FF8"/>
		</linearGradient>
		<linearGradient id="paint12_linear_1810_98318" x1="289.412" y1="-76.7682" x2="286.34" y2="-74.1905" gradientUnits="userSpaceOnUse">
			<stop stop-color="#7331FF"/>
			<stop offset="1" stop-color="#874FF8"/>
		</linearGradient>
		<linearGradient id="paint13_linear_1810_98318" x1="817.414" y1="32.8429" x2="814.342" y2="35.4206" gradientUnits="userSpaceOnUse">
			<stop stop-color="#7331FF"/>
			<stop offset="1" stop-color="#874FF8"/>
		</linearGradient>
		<linearGradient id="paint14_linear_1810_98318" x1="36.7686" y1="-4.58619" x2="33.6966" y2="-2.0085" gradientUnits="userSpaceOnUse">
			<stop stop-color="#7331FF"/>
			<stop offset="1" stop-color="#874FF8"/>
		</linearGradient>
		<linearGradient id="paint15_linear_1810_98318" x1="26.0747" y1="-76.7684" x2="23.0027" y2="-74.1907" gradientUnits="userSpaceOnUse">
			<stop stop-color="#7331FF"/>
			<stop offset="1" stop-color="#874FF8"/>
		</linearGradient>
		<linearGradient id="paint16_linear_1810_98318" x1="221.241" y1="-52.708" x2="218.169" y2="-50.1303" gradientUnits="userSpaceOnUse">
			<stop stop-color="#7331FF"/>
			<stop offset="1" stop-color="#874FF8"/>
		</linearGradient>
		<linearGradient id="paint17_linear_1810_98318" x1="718.499" y1="22.1489" x2="715.427" y2="24.7266" gradientUnits="userSpaceOnUse">
			<stop stop-color="#7331FF"/>
			<stop offset="1" stop-color="#874FF8"/>
		</linearGradient>
		<linearGradient id="paint18_linear_1810_98318" x1="377.634" y1="-50.0348" x2="374.562" y2="-47.4571" gradientUnits="userSpaceOnUse">
			<stop stop-color="#7331FF"/>
			<stop offset="1" stop-color="#874FF8"/>
		</linearGradient>
		<linearGradient id="paint19_linear_1810_98318" x1="361.594" y1="38.1904" x2="358.522" y2="40.7681" gradientUnits="userSpaceOnUse">
			<stop stop-color="#7331FF"/>
			<stop offset="1" stop-color="#874FF8"/>
		</linearGradient>
	</defs>
</svg>
