<svg width="17" height="24" viewBox="0 0 17 24" fill="none" xmlns="http://www.w3.org/2000/svg">
<path d="M9.46609 9.35074C6.86826 9.5122 8.03471 12.8956 10.9067 12.717C13.7161 12.5423 12.234 9.17873 9.46609 9.35074Z" fill="#F19021"/>
<path d="M8.36949 7.26102C6.71416 7.26102 5.09601 7.75189 3.71965 8.67154C2.3433 9.59119 1.27056 10.8983 0.637091 12.4276C0.00362441 13.957 -0.162117 15.6398 0.160822 17.2633C0.48376 18.8868 1.28087 20.3781 2.45137 21.5486C3.62186 22.7191 5.11316 23.5162 6.73669 23.8392C8.36021 24.1621 10.043 23.9964 11.5724 23.3629C13.1017 22.7294 14.4088 21.6567 15.3285 20.2803C16.2481 18.904 16.739 17.2858 16.739 15.6305C16.739 13.4108 15.8572 11.282 14.2876 9.71239C12.718 8.14281 10.5892 7.26102 8.36949 7.26102ZM8.36949 23.1228C6.88798 23.1231 5.43967 22.684 4.20771 21.8611C2.97575 21.0382 2.01549 19.8685 1.44836 18.4998C0.881228 17.1312 0.732707 15.6251 1.02158 14.172C1.31044 12.7189 2.02373 11.3841 3.07122 10.3365C4.11872 9.28879 5.45337 8.57527 6.90639 8.28615C8.35942 7.99702 9.86554 8.14528 11.2343 8.71217C12.6031 9.27906 13.773 10.2391 14.5961 11.4709C15.4192 12.7027 15.8585 14.151 15.8585 15.6325C15.8585 17.6188 15.0696 19.5238 13.6651 20.9285C12.2607 22.3332 10.3558 23.1225 8.36949 23.1228ZM8.11709 1.4182C6.13016 2.92009 6.47548 5.22335 6.47548 5.22335C6.47548 5.22335 5.22665 1.98166 3.60481 0C3.38602 2.55105 4.18541 5.93113 4.18541 5.93113C4.18541 5.93113 3.16986 3.83547 0.681425 3.71816C2.74546 4.90439 3.54616 7.04157 3.72937 7.61491C4.95939 6.85565 6.36603 6.43001 7.81065 6.37992C7.64787 5.84612 7.06926 3.5969 8.11709 1.4182Z" fill="#F19021"/>
</svg>
