<svg width="17.6639042px" height="20px" viewBox="0 0 17.6639042 20" version="1.1" xmlns="http://www.w3.org/2000/svg" xmlns:xlink="http://www.w3.org/1999/xlink">
    <g id="Page-1" stroke="none" stroke-width="1" fill="none" fill-rule="evenodd">
        <g id="MacBook-Pro-14&quot;" transform="translate(-806.576132, -427.000000)" fill="#FFD569">
            <path d="M815.469494,432.097762 C816.877202,432.097762 818.018375,430.956589 818.018375,429.548881 C818.018375,428.141173 816.877202,427 815.469494,427 C814.061786,427 812.920613,428.141173 812.920613,429.548881 C812.920613,430.956589 814.061786,432.097762 815.469494,432.097762 Z M824.240036,439.044336 L824.240036,442.185418 L815.865983,446.846711 C815.670244,446.948904 815.499516,447 815.353799,447 C815.208083,447 815.006345,446.948904 814.748587,446.846711 L806.576132,442.185418 L806.576132,439.044336 L815.353799,443.382383 L824.240036,439.044336 Z M816.224326,432.877503 L823.611657,436.420159 C823.90636,436.606629 824.053712,436.801111 824.053712,437.003607 C824.053712,437.206103 823.90636,437.43733 823.611657,437.697286 L815.905011,441.504933 C815.641637,441.631554 815.475208,441.694864 815.405723,441.694864 C815.336238,441.694864 815.175432,441.631554 814.923305,441.504933 L807.006121,437.60149 C806.771298,437.490925 806.653887,437.291631 806.653887,437.003607 C806.653887,436.715584 806.771298,436.521101 807.006121,436.420159 L814.550094,432.877503 L814.550094,436.827066 C814.746955,437.198326 815.053421,437.383957 815.469494,437.383957 C815.885566,437.383957 816.137177,437.198326 816.224326,436.827066 L816.224326,432.877503 Z" id="Combined-Shape"></path>
        </g>
    </g>
</svg>