
<svg width="228px" height="227px" viewBox="0 0 228 227" version="1.1" xmlns="http://www.w3.org/2000/svg" xmlns:xlink="http://www.w3.org/1999/xlink">
    <defs>
        <linearGradient x1="50%" y1="100%" x2="50%" y2="0%" id="linearGradient-jy37l12pm1-1">
            <stop stop-color="#7331FF" offset="0%"></stop>
            <stop stop-color="#874FF8" offset="100%"></stop>
        </linearGradient>
        <linearGradient x1="50.0032798%" y1="100%" x2="50.0032798%" y2="0%" id="linearGradient-jy37l12pm1-2">
            <stop stop-color="#7331FF" offset="0%"></stop>
            <stop stop-color="#874FF8" offset="100%"></stop>
        </linearGradient>
        <linearGradient x1="50.0023004%" y1="100%" x2="50.0023004%" y2="0%" id="linearGradient-jy37l12pm1-3">
            <stop stop-color="#FFEA31" offset="0%"></stop>
            <stop stop-color="#FF7B31" offset="100%"></stop>
        </linearGradient>
        <linearGradient x1="50%" y1="100%" x2="50%" y2="0%" id="linearGradient-jy37l12pm1-4">
            <stop stop-color="#FFEA31" offset="0%"></stop>
            <stop stop-color="#FF7B31" offset="100%"></stop>
        </linearGradient>
    </defs>
    <g id="Page-2" stroke="none" stroke-width="1" fill="none" fill-rule="evenodd">
        <g id="Desktop-HD" transform="translate(-444.000000, -474.000000)" fill-rule="nonzero">
            <g id="Group" transform="translate(444.000000, 474.000000)">
                <ellipse id="Oval" fill-opacity="0.58" fill="#FFAD62" cx="91" cy="128.5" rx="68" ry="67.5"></ellipse>
                <path d="M113.999032,0 C51.0387569,0 0,50.8156796 0,113.499879 C0,176.18432 51.0387569,227 113.999032,227 C176.959307,227 228,176.18432 228,113.499879 C228,50.8156796 176.959307,0 113.999032,0 Z" id="Path" fill="#453C99"></path>
                <path d="M0,113.499879 C0,176.082132 51.1435487,227 114,227 L114,0 C51.1435487,0 0,50.9178677 0,113.499879 Z" id="Path" fill="#453C99"></path>
                <path d="M114,114 L106.476727,53.5388887 L77.1357226,25 C53.6106838,34.7804989 34.7795288,53.6107098 25,77.134206 L54.6215253,106.924767 L114,114 Z" id="Path" fill="#E2D9FB"></path>
                <path d="M114,114 L166.896044,109.609222 L203,77.1345891 C193.218319,53.6103038 174.390093,34.7800417 150.865694,25 L117.944109,62.1819565 L114,114 Z" id="Path" fill="#F2F2FC"></path>
                <path d="M25,149.865711 C34.7816813,173.389947 53.6123247,192.218186 77.1343062,202 L104.356157,178.581684 L114,113 L48.8508585,122.465749 L25,149.865711 Z" id="Path" fill="#E2D9FB"></path>
                <path d="M150.865694,202 C174.390093,192.218186 193.220737,173.389947 203,149.865469 L169.311841,118.390517 L114,113 L125.575997,183.241648 L150.865694,202 Z" id="Path" fill="#F2F2FC"></path>
                <path d="M24.4098574,150 L114,113.500718 L114,113.499521 L24.4098574,77 C19.6533327,88.2526302 17,100.573326 17,113.499521 C17,126.425477 19.6533327,138.74737 24.4098574,150 L24.4098574,150 Z" id="Path" fill="url(#linearGradient-jy37l12pm1-1)"></path>
                <path d="M114,113.500718 L203.587894,150 C208.344299,138.74737 211,126.425477 211,113.499521 C211,100.573326 208.344299,88.2526302 203.587894,77 L114,113.499521 L114,113.500718 Z" id="Path" fill="#FF9932"></path>
                <path d="M114.001214,113 L151,24.3348575 C139.592607,19.6266817 127.102726,17 114.001214,17 C100.897274,17 88.4073928,19.6266817 77,24.3348575 L114.001214,113 Z" id="Path" fill="#7331FF"></path>
                <path d="M114,113 L114,17 C100.896491,17 88.4070187,19.6266817 77,24.3348575 L114,113 Z" id="Path" fill="url(#linearGradient-jy37l12pm1-2)"></path>
                <path d="M114.001214,210 C127.102726,210 139.592607,207.371612 151,202.664124 L114.001214,114 L77,202.664124 C88.4073928,207.371612 100.897274,210 114.001214,210 Z" id="Path" fill="#7331FF"></path>
                <path d="M114,210 L114,114 L77,202.664124 C88.4070187,207.371612 100.896491,210 114,210 Z" id="Path" fill="url(#linearGradient-jy37l12pm1-2)"></path>
                <path d="M114,70 C89.6983382,70 70,89.4755614 70,113.5 C70,137.524439 89.6983382,157 114,157 C138.299233,157 158,137.524439 158,113.5 C158,89.4755614 138.299233,70 114,70 Z" id="Path" fill="#453C99"></path>
                <path d="M70,113.5 C70,137.484812 89.7396341,157 114,157 L114,70 C89.7396341,70 70,89.515428 70,113.5 Z" id="Path" fill="#453C99"></path>
                <path d="M114.501219,88 C99.8655625,88 88,99.6406984 88,114.00012 C88,128.359541 99.8655625,140 114.501219,140 C129.136876,140 141,128.359541 141,114.00012 C141,99.6406984 129.136876,88 114.501219,88 Z" id="Path" fill="url(#linearGradient-jy37l12pm1-3)"></path>
                <path d="M88,114.00012 C88,99.6139037 99.61244,88 114,88 L114,140 C99.61244,140 88,128.387293 88,114.00012 Z" id="Path" fill="url(#linearGradient-jy37l12pm1-4)"></path>
            </g>
        </g>
    </g>
</svg>