<svg width="18" height="18" viewBox="0 0 18 18" fill="none" xmlns="http://www.w3.org/2000/svg">
<path d="M18 9C18 13.9706 13.9706 18 9 18C6.37971 18 4.02098 16.8803 2.37637 15.0932C1.94437 14.6241 1.56196 14.1087 1.23649 13.5558C0.450735 12.2194 0 10.6622 0 9C0 4.02943 4.02943 0 9 0C10.6626 0 12.2198 0.450735 13.5558 1.23686C14.1087 1.56196 14.6237 1.94437 15.0928 2.37673C16.88 4.02061 18 6.37971 18 9Z" fill="#A39DEE"/>
<path d="M17.9999 8.99961C17.9999 13.8581 14.1504 17.8174 9.3349 17.9934C4.51935 17.8174 0.669922 13.8581 0.669922 8.99961C0.669922 4.14108 4.51935 0.181819 9.3349 0.00585938C14.1504 0.181819 17.9999 4.14108 17.9999 8.99961Z" fill="#A39DEE"/>
<path d="M15.0927 2.37718L2.37621 15.0936C1.94421 14.6245 1.5618 14.1091 1.23633 13.5563L13.5557 1.2373C14.1085 1.56241 14.6236 1.94481 15.0927 2.37718Z" fill="#685FD7"/>
<path d="M17.3782 5.70968L5.70834 17.3796C4.88218 17.0548 4.11552 16.6114 3.42969 16.0703L16.0694 3.43066C16.6105 4.1165 17.0539 4.88315 17.3782 5.70968Z" fill="#685FD7"/>
<path d="M15.993 9.00039C15.993 12.8627 12.8617 15.9939 8.99941 15.9939C7.65419 15.9939 6.39786 15.6141 5.33145 14.9558C4.86676 14.6693 4.43843 14.3295 4.05419 13.9452C3.7717 13.6631 3.51308 13.3564 3.28202 13.0291C2.9639 12.5783 2.69757 12.0883 2.49223 11.5678C2.18806 10.7982 2.01688 9.96137 2.00659 9.08635C2.00586 9.05769 2.00586 9.02904 2.00586 9.00039C2.00586 5.1381 5.13676 2.00684 8.99941 2.00684C9.02806 2.00684 9.05708 2.00684 9.08574 2.00757C9.96076 2.01786 10.7972 2.18941 11.5668 2.4932C12.0873 2.69892 12.5774 2.96488 13.0281 3.283C13.3554 3.51443 13.6618 3.77267 13.9443 4.05516C14.3285 4.43904 14.6683 4.86773 14.9548 5.33243C15.6131 6.39884 15.993 7.65516 15.993 9.00039Z" fill="#867DF2"/>
<path d="M13.9443 4.05516L4.05419 13.9452C3.7717 13.6631 3.51308 13.3564 3.28202 13.0291C2.9639 12.5783 2.69757 12.0883 2.49223 11.5678C2.18806 10.7982 2.01688 9.96137 2.00659 9.08635C2.00586 9.05769 2.00586 9.02904 2.00586 9.00039C2.00586 5.1381 5.13676 2.00684 8.99941 2.00684C9.02806 2.00684 9.05708 2.00684 9.08574 2.00757C9.96076 2.01786 10.7972 2.18941 11.5668 2.4932C12.0873 2.69892 12.5774 2.96488 13.0281 3.283C13.3554 3.51443 13.6618 3.77267 13.9443 4.05516Z" fill="#867DF2"/>
<path d="M15.9939 9.00039C15.9939 12.8627 12.8627 15.9939 9.00037 15.9939C8.86775 15.9939 8.73624 15.9903 8.60547 15.9829C12.2841 15.7783 15.2038 12.7301 15.2038 9.00039C15.2038 5.27071 12.2841 2.22247 8.60547 2.01786C8.73624 2.01051 8.86775 2.00684 9.00037 2.00684C12.8627 2.00684 15.9939 5.1381 15.9939 9.00039Z" fill="#685FD7"/>
<g clip-path="url(#clip0_2149_84119)">
<path d="M9.80467 9.98423C11.1142 9.98423 12.1718 8.9244 12.1718 7.61711C12.1718 6.31188 11.1099 5.25 9.80467 5.25H7.42173C7.29886 5.25 7.19926 5.34961 7.19926 5.47247V8.5861H6.70685C6.58398 8.5861 6.48438 8.68571 6.48438 8.80858V9.76176C6.48438 9.88462 6.58398 9.98423 6.70685 9.98423H7.19926V10.4925H6.70685C6.58398 10.4925 6.48438 10.5921 6.48438 10.7149V11.6681C6.48438 11.791 6.58398 11.8906 6.70685 11.8906H7.19926V12.6213C7.19926 12.7441 7.29886 12.8438 7.42173 12.8438H8.37491C8.49777 12.8438 8.59738 12.7441 8.59738 12.6213V11.8906H10.043C10.1658 11.8906 10.2654 11.791 10.2654 11.6681V10.7149C10.2654 10.5921 10.1658 10.4924 10.043 10.4924H8.59737V9.98423H9.80467ZM8.59737 6.64813H9.80465C10.3389 6.64813 10.7736 7.08282 10.7736 7.61711C10.7736 8.15141 10.3389 8.5861 9.80465 8.5861H8.59737V6.64813Z" fill="white"/>
</g>
<defs>
<clipPath id="clip0_2149_84119">
<rect width="7.59375" height="7.59375" fill="white" transform="translate(5.53125 5.25)"/>
</clipPath>
</defs>
</svg>
