<svg width="18" height="16" viewBox="0 0 18 16" fill="none" xmlns="http://www.w3.org/2000/svg">
<path d="M1.72596 1.80903C1.88681 1.16387 2.14213 0.743226 2.46128 0.485161C2.74979 0.258064 3.1634 0.129032 3.74043 0.0645161C4.18723 0 4.98638 0 6.13787 0H18C17.8085 1.48645 17.617 2.48774 17.4562 2.94194C17.2647 3.55613 16.9455 3.97677 16.4962 4.20387C16.2409 4.3329 15.9217 4.39742 15.4723 4.46194C15.0894 4.52645 14.354 4.56 13.3302 4.56H7.06723C6.62043 4.56 6.29872 4.56 6.17106 4.59097C6.0434 4.59097 5.91574 4.65548 5.85191 4.75355C5.78808 4.81806 5.75489 4.91613 5.72426 5.04516C5.72426 5.14065 5.69106 5.36774 5.62723 5.72387H12.6613C13.9404 5.72387 14.7702 5.72387 15.1557 5.78839C15.8579 5.8529 16.3072 6.04645 16.5319 6.30452C16.7566 6.56258 16.8511 6.98323 16.8511 7.56387V7.75742C16.8511 8.14452 16.7566 8.98581 16.5957 10.2787L16.4349 11.4735C16.2434 12.8955 16.0519 13.8323 15.9243 14.2865C15.7966 14.7071 15.6689 15.0297 15.4774 15.2877C15.2221 15.5458 14.8698 15.7394 14.3898 15.871C13.943 15.9355 12.886 16 11.257 16H4.22043C2.5583 16 1.53447 15.9355 1.08766 15.871C0.704681 15.7419 0.41617 15.5794 0.224681 15.3548C0.0638298 15.0968 0 14.7406 0 14.2555C0 13.8039 0.0970213 12.8981 0.288511 11.4761H10.8077C11.1906 11.4761 11.4485 11.4452 11.543 11.4452C11.6706 11.4116 11.7677 11.3471 11.8315 11.2826C11.8953 11.1871 11.9591 11.0555 11.9591 10.8955C11.9923 10.7665 12.023 10.5729 12.0562 10.2813H4.22043C3.35745 10.2813 2.7166 10.2477 2.33362 10.2168C1.69277 10.1523 1.27915 9.98968 1.02128 9.76516C0.829787 9.53806 0.702128 9.18451 0.702128 8.66581V8.27871C0.765957 7.85806 0.893617 7.01677 1.08511 5.72645L1.24596 4.56258C1.43745 3.17161 1.5983 2.26839 1.72596 1.81419V1.80903Z" fill="white"/>
</svg>
