<svg width="15" height="16" viewBox="0 0 15 16" fill="none" xmlns="http://www.w3.org/2000/svg">
<g clip-path="url(#clip0_43_2558)">
<mask id="mask0_43_2558" style="mask-type:alpha" maskUnits="userSpaceOnUse" x="0" y="3" width="15" height="11">
<path d="M0 3H14.6667V13.076H0V3Z" fill="black"/>
</mask>
<g mask="url(#mask0_43_2558)">
<path d="M14.6667 6.97867H0V10.9267H14.6667V6.97867ZM2.01167 3.961C1.85033 3.82633 1.64367 3.73633 1.42833 3.73633C1.26633 3.73633 1.05067 3.83067 1.05067 4.01967C1.05067 4.217 1.28867 4.29333 1.44167 4.34267L1.666 4.41C2.13767 4.54933 2.50133 4.78733 2.50133 5.335C2.50133 5.67167 2.42033 6.01767 2.15133 6.24667C1.886 6.47133 1.53133 6.56567 1.19 6.56567C0.763333 6.56567 0.345667 6.422 0 6.17933L0.377333 5.47C0.597333 5.663 0.857667 5.82 1.15867 5.82C1.36533 5.82 1.58533 5.71667 1.58533 5.47867C1.58533 5.232 1.23933 5.14667 1.05067 5.09267C0.498333 4.93533 0.134667 4.79167 0.134667 4.136C0.134667 3.44933 0.624333 3 1.30233 3C1.64367 3 2.06133 3.10767 2.36233 3.27833L2.01167 3.961ZM5.856 3.09V4.994C5.856 5.42933 5.838 5.86067 5.501 6.18833C5.21833 6.46667 4.77367 6.56567 4.37867 6.56567C3.98333 6.56567 3.53867 6.46667 3.256 6.18833C2.91933 5.86067 2.901 5.42933 2.901 4.99367V3.09H3.781V4.873C3.781 5.313 3.81267 5.79333 4.37867 5.79333C4.94433 5.79333 4.97567 5.313 4.97567 4.873V3.08967H5.85567L5.856 3.09ZM6.41267 3.09H7.76C8.48733 3.09 8.99033 3.42667 8.99033 4.20333C8.99033 5.003 8.55933 5.35333 7.79133 5.35333H7.29333V6.47567H6.41333V3.09H6.41267ZM7.29267 4.64333H7.441C7.76 4.64333 8.07433 4.64333 8.07433 4.23033C8.07433 3.80367 7.78233 3.79933 7.441 3.79933H7.293V4.64367L7.29267 4.64333ZM10.2613 3.83533V4.401H11.2537V5.14633H10.2613V5.73033H11.3077V6.47567H9.381V3.09H11.3077V3.83567H10.261L10.2613 3.83533ZM14.6667 6.47567H13.571L12.74 5.17333H12.731V6.47567H11.8507V3.09H13.1667C13.836 3.09 14.3433 3.409 14.3433 4.132C14.3433 4.599 14.083 5.00333 13.6023 5.08867L14.6667 6.47567ZM12.7313 4.60767H12.8163C13.104 4.60767 13.4273 4.55367 13.4273 4.18567C13.4273 3.81733 13.104 3.76333 12.8167 3.76333H12.731L12.7313 4.60767Z" fill="#B6276E"/>
<path d="M1.21272 9.83766H2.20305V10.5373H0.386719V7.35933H1.21305L1.21272 9.83766ZM5.82805 8.88933C5.82805 9.91766 5.09039 10.6427 4.07039 10.6427C3.05039 10.6427 2.31272 9.91766 2.31272 8.88933C2.31272 7.92833 3.15605 7.254 4.07039 7.254C4.98472 7.254 5.82805 7.92833 5.82805 8.88933ZM3.17272 8.89333C3.17272 9.44133 3.57705 9.842 4.07039 9.842C4.56372 9.842 4.96805 9.44133 4.96805 8.89333C4.96805 8.455 4.56339 8.05466 4.07039 8.05466C3.57705 8.05466 3.17272 8.455 3.17272 8.89333ZM7.47605 10.5373H6.65005V8.059H5.96672V7.359H8.15872V8.059H7.47572L7.47605 10.5373ZM9.94339 10.5373H9.11672V8.059H8.43405V7.359H10.6261V8.059H9.94305L9.94339 10.5373ZM14.2801 8.88933C14.2801 9.91766 13.5427 10.6427 12.5227 10.6427C11.5027 10.6427 10.7651 9.91766 10.7651 8.88933C10.7651 7.92833 11.6081 7.254 12.5227 7.254C13.4374 7.254 14.2801 7.92833 14.2801 8.88933ZM11.6247 8.89333C11.6247 9.44133 12.0294 9.842 12.5227 9.842C13.0161 9.842 13.4204 9.44133 13.4204 8.89333C13.4204 8.455 13.0157 8.05466 12.5227 8.05466C12.0294 8.05466 11.6247 8.455 11.6247 8.89333Z" fill="white"/>
<path d="M1.601 12.172C1.597 12.3953 1.581 12.5853 1.445 12.776C1.295 12.9847 1.07 13.076 0.814667 13.076C0.334667 13.076 0 12.7497 0 12.2693C0 11.7727 0.336667 11.4467 0.829 11.4467C1.143 11.4467 1.386 11.5887 1.518 11.8743L1.141 12.0323C1.08633 11.8863 0.971 11.789 0.810667 11.789C0.549333 11.789 0.413333 12.0383 0.413333 12.2717C0.413333 12.5083 0.555333 12.7497 0.816667 12.7497C0.989 12.7497 1.12067 12.6607 1.13667 12.4843H0.812667V12.1723L1.601 12.172ZM3.85433 12.76L3.749 13.0253H3.32733L3.915 11.4973H4.349L4.92433 13.0253H4.501L4.40167 12.7597L3.85433 12.76ZM4.132 11.9693H4.128L3.96367 12.456H4.294L4.132 11.9693ZM6.75333 11.4973H7.14433L7.45433 12.314L7.78267 11.4973H8.178L8.409 13.0253H8.01167L7.90033 12.1457H7.896L7.52933 13.0253H7.37133L7.02067 12.1457H7.01667L6.889 13.0253H6.494L6.75333 11.4973ZM10.7393 11.8337V12.089H11.1873V12.4257H10.7393V12.689H11.2113V13.0253H10.342V11.4973H11.2113V11.8333L10.7393 11.8337ZM14.4457 11.8903C14.3723 11.827 14.279 11.7913 14.1823 11.789C14.1093 11.789 14.0123 11.8317 14.0123 11.9167C14.0123 12.006 14.1193 12.0403 14.1883 12.0627L14.2897 12.093C14.5027 12.156 14.6667 12.263 14.6667 12.5103C14.6667 12.6623 14.63 12.8187 14.5087 12.922C14.389 13.0233 14.2287 13.0657 14.075 13.0657C13.8824 13.0638 13.695 13.0029 13.538 12.8913L13.708 12.5713C13.8073 12.6583 13.925 12.7293 14.0607 12.7293C14.154 12.7293 14.2533 12.6827 14.2533 12.5753C14.2533 12.464 14.0973 12.4253 14.0123 12.401C13.763 12.33 13.599 12.2653 13.599 11.9693C13.599 11.6593 13.8197 11.4567 14.1257 11.4567C14.293 11.46 14.457 11.5027 14.604 11.5823L14.4457 11.8903Z" fill="#B6276E"/>
</g>
</g>
<defs>
<clipPath id="clip0_43_2558">
<rect width="14.6667" height="16" fill="white"/>
</clipPath>
</defs>
</svg>
