<svg width="300" height="200" viewBox="0 0 300 200" fill="none" xmlns="http://www.w3.org/2000/svg">
    <mask id="path-1-outside-1_1810_116499" maskUnits="userSpaceOnUse" x="-1" y="-56" width="673" height="366" fill="black">
        <rect fill="white" x="-1" y="-56" width="673" height="366"/>
        <path d="M74.8137 -45.1436C75.3491 -47.1404 77.4032 -48.3254 79.4016 -47.7904L101.112 -41.9776C103.11 -41.4425 104.296 -39.39 103.761 -37.3932L97.9434 -15.6995C97.4079 -13.7027 95.3538 -12.5177 93.3555 -13.0527L71.6453 -18.8655C69.6469 -19.4006 68.461 -21.4531 68.9964 -23.4499L74.8137 -45.1436Z"/>
        <path d="M219.607 -6.37587C220.143 -8.37271 222.197 -9.55774 224.195 -9.02268L245.905 -3.20989C247.904 -2.67484 249.09 -0.622326 248.554 1.37452L242.737 23.0682C242.201 25.065 240.147 26.25 238.149 25.715L216.439 19.9022C214.44 19.3671 213.254 17.3146 213.79 15.3178L219.607 -6.37587Z"/>
        <path d="M147.181 -25.7675C147.716 -27.7644 149.77 -28.9494 151.769 -28.4144L173.479 -22.6016C175.477 -22.0665 176.663 -20.014 176.128 -18.0172L170.311 3.67648C169.775 5.67332 167.721 6.85834 165.723 6.32329L144.013 0.510502C142.014 -0.0245514 140.828 -2.07706 141.364 -4.07391L147.181 -25.7675Z"/>
        <path d="M291.974 13.0001C292.51 11.0033 294.564 9.81824 296.562 10.3533L318.272 16.1661C320.271 16.7011 321.457 18.7536 320.921 20.7505L315.104 42.4441C314.569 44.441 312.515 45.626 310.516 45.0909L288.806 39.2782C286.808 38.7431 285.622 36.6906 286.157 34.6937L291.974 13.0001Z"/>
        <path d="M110.997 -35.4556C111.533 -37.4524 113.587 -38.6374 115.585 -38.1024L137.296 -32.2896C139.294 -31.7545 140.48 -29.702 139.944 -27.7052L134.127 -6.01154C133.592 -4.01469 131.538 -2.82967 129.539 -3.36473L107.829 -9.17752C105.831 -9.71257 104.645 -11.7651 105.18 -13.7619L110.997 -35.4556Z"/>
        <path d="M255.791 3.31208C256.326 1.31524 258.38 0.130219 260.379 0.665272L282.089 6.47807C284.087 7.01312 285.273 9.06562 284.738 11.0625L278.921 32.7561C278.385 34.753 276.331 35.938 274.333 35.4029L252.622 29.5901C250.624 29.0551 249.438 27.0026 249.974 25.0057L255.791 3.31208Z"/>
        <path d="M183.365 -16.0796C183.9 -18.0765 185.954 -19.2615 187.953 -18.7264L209.663 -12.9137C211.661 -12.3786 212.847 -10.3261 212.312 -8.32924L206.494 13.3644C205.959 15.3612 203.905 16.5463 201.906 16.0112L180.196 10.1984C178.198 9.66336 177.012 7.61086 177.547 5.61401L183.365 -16.0796Z"/>
        <path d="M328.158 22.6881C328.694 20.6912 330.748 19.5062 332.746 20.0413L354.456 25.854C356.455 26.3891 357.641 28.4416 357.105 30.4385L351.288 52.1321C350.752 54.1289 348.698 55.314 346.7 54.7789L324.99 48.9661C322.991 48.4311 321.805 46.3785 322.341 44.3817L328.158 22.6881Z"/>
        <path d="M55.4228 27.1685C55.9582 25.1717 58.0123 23.9867 60.0107 24.5217L81.7209 30.3345C83.7192 30.8696 84.9052 32.9221 84.3697 34.9189L78.5525 56.6126C78.017 58.6094 75.9629 59.7944 73.9646 59.2594L52.2544 53.4466C50.256 52.9115 49.0701 50.859 49.6055 48.8622L55.4228 27.1685Z"/>
        <path d="M200.216 65.9362C200.752 63.9394 202.806 62.7543 204.804 63.2894L226.514 69.1022C228.513 69.6372 229.699 71.6898 229.163 73.6866L223.346 95.3802C222.81 97.3771 220.756 98.5621 218.758 98.027L197.048 92.2142C195.049 91.6792 193.864 89.6267 194.399 87.6299L200.216 65.9362Z"/>
        <path d="M127.79 46.5445C128.326 44.5477 130.38 43.3627 132.378 43.8977L154.088 49.7105C156.087 50.2456 157.273 52.2981 156.737 54.2949L150.92 75.9886C150.384 77.9854 148.33 79.1704 146.332 78.6354L124.622 72.8226C122.623 72.2876 121.438 70.235 121.973 68.2382L127.79 46.5445Z"/>
        <path d="M272.584 85.3122C273.119 83.3154 275.173 82.1303 277.172 82.6654L298.882 88.4782C300.88 89.0132 302.066 91.0658 301.531 93.0626L295.713 114.756C295.178 116.753 293.124 117.938 291.125 117.403L269.415 111.59C267.417 111.055 266.231 109.003 266.766 107.006L272.584 85.3122Z"/>
        <path d="M91.6065 36.8566C92.142 34.8597 94.196 33.6747 96.1944 34.2098L117.905 40.0226C119.903 40.5576 121.089 42.6101 120.553 44.607L114.736 66.3006C114.201 68.2975 112.147 69.4825 110.148 68.9474L88.4381 63.1346C86.4397 62.5996 85.2538 60.5471 85.7893 58.5502L91.6065 36.8566Z"/>
        <path d="M236.4 75.6242C236.935 73.6274 238.989 72.4424 240.988 72.9774L262.698 78.7902C264.696 79.3253 265.882 81.3778 265.347 83.3746L259.53 105.068C258.994 107.065 256.94 108.25 254.942 107.715L233.232 101.902C231.233 101.367 230.047 99.3147 230.583 97.3179L236.4 75.6242Z"/>
        <path d="M163.974 56.2325C164.509 54.2357 166.563 53.0507 168.562 53.5857L190.272 59.3985C192.27 59.9336 193.456 61.9861 192.921 63.9829L187.104 85.6765C186.568 87.6734 184.514 88.8584 182.516 88.3234L160.805 82.5106C158.807 81.9755 157.621 79.923 158.157 77.9262L163.974 56.2325Z"/>
        <path d="M308.767 95.0002C309.303 93.0034 311.357 91.8183 313.355 92.3534L335.065 98.1662C337.064 98.7012 338.25 100.754 337.714 102.751L331.897 124.444C331.362 126.441 329.308 127.626 327.309 127.091L305.599 121.278C303.601 120.743 302.415 118.691 302.95 116.694L308.767 95.0002Z"/>
        <path d="M65.1183 -8.98746C65.6537 -10.9843 67.7078 -12.1693 69.7062 -11.6343L91.4164 -5.82148C93.4148 -5.28642 94.6007 -3.23391 94.0652 -1.23706L88.248 20.4566C87.7125 22.4534 85.6585 23.6384 83.6601 23.1034L61.9499 17.2906C59.9515 16.7555 58.7656 14.703 59.301 12.7062L65.1183 -8.98746Z"/>
        <path d="M209.912 29.7802C210.447 27.7834 212.501 26.5983 214.5 27.1334L236.21 32.9462C238.208 33.4812 239.394 35.5337 238.859 37.5306L233.041 59.2242C232.506 61.2211 230.452 62.4061 228.454 61.871L206.743 56.0582C204.745 55.5232 203.559 53.4707 204.094 51.4738L209.912 29.7802Z"/>
        <path d="M137.486 10.3885C138.021 8.3917 140.075 7.20669 142.074 7.74174L163.784 13.5545C165.782 14.0896 166.968 16.1421 166.433 18.1389L160.615 39.8326C160.08 41.8294 158.026 43.0144 156.027 42.4794L134.317 36.6666C132.319 36.1315 131.133 34.079 131.668 32.0822L137.486 10.3885Z"/>
        <path d="M282.279 49.1562C282.815 47.1594 284.869 45.9744 286.867 46.5094L308.577 52.3222C310.576 52.8573 311.762 54.9098 311.226 56.9066L305.409 78.6003C304.873 80.5971 302.819 81.7821 300.821 81.2471L279.111 75.4343C277.112 74.8992 275.926 72.8467 276.462 70.8499L282.279 49.1562Z"/>
        <path d="M101.302 0.700584C101.837 -1.29626 103.892 -2.48129 105.89 -1.94623L127.6 3.86656C129.598 4.40162 130.784 6.45413 130.249 8.45097L124.432 30.1446C123.896 32.1415 121.842 33.3265 119.844 32.7914L98.1336 26.9786C96.1352 26.4436 94.9493 24.3911 95.4847 22.3942L101.302 0.700584Z"/>
        <path d="M246.095 39.4682C246.631 37.4714 248.685 36.2864 250.683 36.8214L272.393 42.6342C274.392 43.1693 275.578 45.2218 275.042 47.2186L269.225 68.9123C268.69 70.9091 266.636 72.0941 264.637 71.5591L242.927 65.7463C240.929 65.2112 239.743 63.1587 240.278 61.1619L246.095 39.4682Z"/>
        <path d="M173.669 20.0765C174.205 18.0797 176.259 16.8946 178.257 17.4297L199.968 23.2425C201.966 23.7775 203.152 25.8301 202.616 27.8269L196.799 49.5205C196.264 51.5174 194.21 52.7024 192.211 52.1674L170.501 46.3546C168.503 45.8195 167.317 43.767 167.852 41.7701L173.669 20.0765Z"/>
        <path d="M318.463 58.8442C318.998 56.8473 321.052 55.6623 323.051 56.1973L344.761 62.0101C346.759 62.5452 347.945 64.5977 347.41 66.5946L341.593 88.2882C341.057 90.285 339.003 91.4701 337.005 90.935L315.294 85.1222C313.296 84.5872 312.11 82.5347 312.646 80.5378L318.463 58.8442Z"/>
        <path d="M45.7273 63.3247C46.2627 61.3278 48.3168 60.1428 50.3152 60.6779L72.0254 66.4907C74.0238 67.0257 75.2097 69.0782 74.6742 71.0751L68.857 92.7687C68.3215 94.7656 66.2675 95.9506 64.2691 95.4155L42.5589 89.6027C40.5605 89.0677 39.3746 87.0152 39.91 85.0183L45.7273 63.3247Z"/>
        <path d="M190.521 102.092C191.056 100.096 193.11 98.9105 195.109 99.4455L216.819 105.258C218.817 105.793 220.003 107.846 219.468 109.843L213.65 131.536C213.115 133.533 211.061 134.718 209.063 134.183L187.352 128.37C185.354 127.835 184.168 125.783 184.703 123.786L190.521 102.092Z"/>
        <path d="M118.095 82.7007C118.63 80.7038 120.684 79.5188 122.683 80.0538L144.393 85.8666C146.391 86.4017 147.577 88.4542 147.042 90.451L141.224 112.145C140.689 114.142 138.635 115.327 136.637 114.791L114.926 108.979C112.928 108.444 111.742 106.391 112.278 104.394L118.095 82.7007Z"/>
        <path d="M262.888 121.468C263.424 119.471 265.478 118.286 267.476 118.822L289.186 124.634C291.185 125.169 292.371 127.222 291.835 129.219L286.018 150.912C285.482 152.909 283.428 154.094 281.43 153.559L259.72 147.746C257.721 147.211 256.535 145.159 257.071 143.162L262.888 121.468Z"/>
        <path d="M81.911 73.0126C82.4465 71.0158 84.5005 69.8308 86.4989 70.3658L108.209 76.1786C110.207 76.7137 111.393 78.7662 110.858 80.763L105.041 102.457C104.505 104.454 102.451 105.639 100.453 105.103L78.7426 99.2907C76.7442 98.7556 75.5583 96.7031 76.0938 94.7063L81.911 73.0126Z"/>
        <path d="M226.704 111.78C227.24 109.784 229.294 108.598 231.292 109.134L253.003 114.946C255.001 115.481 256.187 117.534 255.651 119.531L249.834 141.224C249.299 143.221 247.245 144.406 245.246 143.871L223.536 138.058C221.538 137.523 220.352 135.471 220.887 133.474L226.704 111.78Z"/>
        <path d="M154.278 92.3886C154.814 90.3918 156.868 89.2068 158.866 89.7418L180.577 95.5546C182.575 96.0897 183.761 98.1422 183.225 100.139L177.408 121.833C176.873 123.829 174.819 125.015 172.82 124.479L151.11 118.667C149.112 118.132 147.926 116.079 148.461 114.082L154.278 92.3886Z"/>
        <path d="M299.072 131.156C299.607 129.159 301.661 127.974 303.66 128.509L325.37 134.322C327.368 134.857 328.554 136.91 328.019 138.907L322.202 160.6C321.666 162.597 319.612 163.782 317.614 163.247L295.903 157.434C293.905 156.899 292.719 154.847 293.255 152.85L299.072 131.156Z"/>
        <path d="M36.0322 99.4808C36.5677 97.4839 38.6217 96.2989 40.6201 96.834L62.3303 102.647C64.3287 103.182 65.5146 105.234 64.9791 107.231L59.1619 128.925C58.6265 130.922 56.5724 132.107 54.574 131.572L32.8638 125.759C30.8654 125.224 29.6795 123.171 30.215 121.174L36.0322 99.4808Z"/>
        <path d="M180.826 138.248C181.361 136.252 183.415 135.067 185.414 135.602L207.124 141.414C209.122 141.949 210.308 144.002 209.773 145.999L203.955 167.692C203.42 169.689 201.366 170.874 199.367 170.339L177.657 164.526C175.659 163.991 174.473 161.939 175.008 159.942L180.826 138.248Z"/>
        <path d="M108.4 118.857C108.935 116.86 110.989 115.675 112.988 116.21L134.698 122.023C136.696 122.558 137.882 124.61 137.347 126.607L131.529 148.301C130.994 150.298 128.94 151.483 126.941 150.948L105.231 145.135C103.233 144.6 102.047 142.547 102.582 140.55L108.4 118.857Z"/>
        <path d="M253.193 157.624C253.728 155.628 255.782 154.443 257.781 154.978L279.491 160.79C281.489 161.326 282.675 163.378 282.14 165.375L276.323 187.068C275.787 189.065 273.733 190.25 271.735 189.715L250.024 183.903C248.026 183.367 246.84 181.315 247.376 179.318L253.193 157.624Z"/>
        <path d="M72.216 109.169C72.7514 107.172 74.8055 105.987 76.8039 106.522L98.5141 112.335C100.512 112.87 101.698 114.922 101.163 116.919L95.3457 138.613C94.8102 140.61 92.7561 141.795 90.7578 141.26L69.0476 135.447C67.0492 134.912 65.8633 132.859 66.3987 130.862L72.216 109.169Z"/>
        <path d="M217.009 147.936C217.545 145.94 219.599 144.755 221.597 145.29L243.307 151.102C245.306 151.637 246.492 153.69 245.956 155.687L240.139 177.38C239.604 179.377 237.55 180.562 235.551 180.027L213.841 174.215C211.843 173.679 210.657 171.627 211.192 169.63L217.009 147.936Z"/>
        <path d="M144.583 128.545C145.119 126.548 147.173 125.363 149.171 125.898L170.881 131.711C172.88 132.246 174.066 134.298 173.53 136.295L167.713 157.989C167.177 159.986 165.123 161.171 163.125 160.636L141.415 154.823C139.416 154.288 138.23 152.235 138.766 150.238L144.583 128.545Z"/>
        <path d="M289.377 167.312C289.912 165.316 291.966 164.131 293.965 164.666L315.675 170.478C317.673 171.013 318.859 173.066 318.324 175.063L312.506 196.756C311.971 198.753 309.917 199.938 307.918 199.403L286.208 193.59C284.21 193.055 283.024 191.003 283.559 189.006L289.377 167.312Z"/>
        <path d="M16.6413 171.793C17.1767 169.796 19.2308 168.611 21.2292 169.146L42.9394 174.959C44.9378 175.494 46.1237 177.546 45.5882 179.543L39.771 201.237C39.2355 203.234 37.1815 204.419 35.1831 203.884L13.4729 198.071C11.4745 197.536 10.2886 195.483 10.824 193.487L16.6413 171.793Z"/>
        <path d="M161.435 210.561C161.97 208.564 164.024 207.379 166.023 207.914L187.733 213.727C189.731 214.262 190.917 216.314 190.382 218.311L184.564 240.005C184.029 242.001 181.975 243.186 179.977 242.651L158.266 236.839C156.268 236.304 155.082 234.251 155.617 232.254L161.435 210.561Z"/>
        <path d="M89.0087 191.169C89.5442 189.172 91.5983 187.987 93.5966 188.522L115.307 194.335C117.305 194.87 118.491 196.922 117.956 198.919L112.138 220.613C111.603 222.61 109.549 223.795 107.551 223.26L85.8403 217.447C83.8419 216.912 82.656 214.859 83.1915 212.863L89.0087 191.169Z"/>
        <path d="M233.802 229.937C234.338 227.94 236.392 226.755 238.39 227.29L260.1 233.103C262.099 233.638 263.285 235.69 262.749 237.687L256.932 259.381C256.396 261.377 254.342 262.562 252.344 262.027L230.634 256.215C228.635 255.68 227.449 253.627 227.985 251.63L233.802 229.937Z"/>
        <path d="M52.825 181.481C53.3604 179.484 55.4145 178.299 57.4129 178.834L79.1231 184.647C81.1214 185.182 82.3074 187.234 81.7719 189.231L75.9547 210.925C75.4192 212.922 73.3651 214.107 71.3668 213.572L49.6566 207.759C47.6582 207.224 46.4723 205.171 47.0077 203.175L52.825 181.481Z"/>
        <path d="M197.618 220.249C198.154 218.252 200.208 217.067 202.206 217.602L223.917 223.415C225.915 223.95 227.101 226.002 226.565 227.999L220.748 249.693C220.213 251.689 218.159 252.874 216.16 252.339L194.45 246.527C192.452 245.992 191.266 243.939 191.801 241.942L197.618 220.249Z"/>
        <path d="M125.192 200.857C125.728 198.86 127.782 197.675 129.78 198.21L151.491 204.023C153.489 204.558 154.675 206.61 154.139 208.607L148.322 230.301C147.787 232.298 145.733 233.483 143.734 232.948L122.024 227.135C120.026 226.6 118.84 224.547 119.375 222.55L125.192 200.857Z"/>
        <path d="M269.986 239.624C270.521 237.628 272.575 236.443 274.574 236.978L296.284 242.79C298.282 243.326 299.468 245.378 298.933 247.375L293.115 269.068C292.58 271.065 290.526 272.25 288.527 271.715L266.817 265.903C264.819 265.367 263.633 263.315 264.168 261.318L269.986 239.624Z"/>
        <path d="M26.3367 135.637C26.8722 133.64 28.9263 132.455 30.9246 132.99L52.6349 138.803C54.6332 139.338 55.8191 141.39 55.2837 143.387L49.4665 165.081C48.931 167.078 46.8769 168.263 44.8785 167.728L23.1683 161.915C21.17 161.38 19.984 159.327 20.5195 157.33L26.3367 135.637Z"/>
        <path d="M171.13 174.404C171.666 172.408 173.72 171.223 175.718 171.758L197.428 177.57C199.427 178.105 200.613 180.158 200.077 182.155L194.26 203.848C193.724 205.845 191.67 207.03 189.672 206.495L167.962 200.682C165.963 200.147 164.777 198.095 165.313 196.098L171.13 174.404Z"/>
        <path d="M98.7042 155.013C99.2396 153.016 101.294 151.831 103.292 152.366L125.002 158.179C127.001 158.714 128.187 160.766 127.651 162.763L121.834 184.457C121.298 186.454 119.244 187.639 117.246 187.104L95.5358 181.291C93.5374 180.756 92.3515 178.703 92.887 176.706L98.7042 155.013Z"/>
        <path d="M243.497 193.78C244.033 191.784 246.087 190.599 248.085 191.134L269.796 196.946C271.794 197.481 272.98 199.534 272.444 201.531L266.627 223.224C266.092 225.221 264.038 226.406 262.039 225.871L240.329 220.058C238.331 219.523 237.145 217.471 237.68 215.474L243.497 193.78Z"/>
        <path d="M62.5204 145.325C63.0559 143.328 65.11 142.143 67.1083 142.678L88.8185 148.491C90.8169 149.026 92.0028 151.078 91.4674 153.075L85.6501 174.769C85.1147 176.766 83.0606 177.951 81.0622 177.416L59.352 171.603C57.3537 171.068 56.1677 169.015 56.7032 167.018L62.5204 145.325Z"/>
        <path d="M207.314 184.092C207.849 182.096 209.903 180.911 211.902 181.446L233.612 187.258C235.61 187.794 236.796 189.846 236.261 191.843L230.444 213.537C229.908 215.533 227.854 216.718 225.856 216.183L204.146 210.371C202.147 209.835 200.961 207.783 201.497 205.786L207.314 184.092Z"/>
        <path d="M134.888 164.701C135.423 162.704 137.477 161.519 139.476 162.054L161.186 167.867C163.184 168.402 164.37 170.454 163.835 172.451L158.017 194.145C157.482 196.142 155.428 197.327 153.43 196.792L131.719 190.979C129.721 190.444 128.535 188.391 129.07 186.394L134.888 164.701Z"/>
        <path d="M279.681 203.468C280.217 201.472 282.271 200.287 284.269 200.822L305.979 206.634C307.978 207.169 309.164 209.222 308.628 211.219L302.811 232.912C302.275 234.909 300.221 236.094 298.223 235.559L276.513 229.746C274.514 229.211 273.328 227.159 273.864 225.162L279.681 203.468Z"/>
        <path d="M6.9458 207.949C7.48126 205.952 9.53534 204.767 11.5337 205.302L33.2439 211.115C35.2423 211.65 36.4282 213.703 35.8927 215.699L30.0755 237.393C29.5401 239.39 27.486 240.575 25.4876 240.04L3.7774 234.227C1.77904 233.692 0.59311 231.639 1.12857 229.643L6.9458 207.949Z"/>
        <path d="M151.739 246.717C152.275 244.72 154.329 243.535 156.327 244.07L178.037 249.883C180.036 250.418 181.222 252.47 180.686 254.467L174.869 276.161C174.333 278.157 172.279 279.342 170.281 278.807L148.571 272.995C146.572 272.46 145.387 270.407 145.922 268.41L151.739 246.717Z"/>
        <path d="M79.3133 227.325C79.8487 225.328 81.9028 224.143 83.9012 224.678L105.611 230.491C107.61 231.026 108.796 233.079 108.26 235.075L102.443 256.769C101.908 258.766 99.8534 259.951 97.8551 259.416L76.1449 253.603C74.1465 253.068 72.9606 251.015 73.496 249.019L79.3133 227.325Z"/>
        <path d="M224.107 266.093C224.642 264.096 226.696 262.911 228.695 263.446L250.405 269.259C252.403 269.794 253.589 271.846 253.054 273.843L247.236 295.537C246.701 297.534 244.647 298.719 242.648 298.184L220.938 292.371C218.94 291.836 217.754 289.783 218.289 287.786L224.107 266.093Z"/>
        <path d="M43.1295 217.637C43.665 215.64 45.7191 214.455 47.7174 214.99L69.4276 220.803C71.426 221.338 72.6119 223.391 72.0765 225.387L66.2592 247.081C65.7238 249.078 63.6697 250.263 61.6713 249.728L39.9611 243.915C37.9628 243.38 36.7768 241.327 37.3123 239.331L43.1295 217.637Z"/>
        <path d="M187.923 256.405C188.458 254.408 190.513 253.223 192.511 253.758L214.221 259.571C216.219 260.106 217.405 262.158 216.87 264.155L211.053 285.849C210.517 287.846 208.463 289.031 206.465 288.496L184.755 282.683C182.756 282.148 181.57 280.095 182.106 278.098L187.923 256.405Z"/>
        <path d="M115.497 237.013C116.032 235.016 118.086 233.831 120.085 234.366L141.795 240.179C143.793 240.714 144.979 242.767 144.444 244.763L138.627 266.457C138.091 268.454 136.037 269.639 134.039 269.104L112.329 263.291C110.33 262.756 109.144 260.703 109.68 258.707L115.497 237.013Z"/>
        <path d="M260.29 275.781C260.826 273.784 262.88 272.599 264.878 273.134L286.589 278.947C288.587 279.482 289.773 281.534 289.237 283.531L283.42 305.225C282.885 307.222 280.831 308.407 278.832 307.872L257.122 302.059C255.124 301.524 253.938 299.471 254.473 297.474L260.29 275.781Z"/>
        <path d="M387.58 -51.2247C388.116 -53.2216 390.17 -54.4066 392.168 -53.8715L413.878 -48.0587C415.877 -47.5237 417.062 -45.4712 416.527 -43.4743L410.71 -21.7807C410.174 -19.7838 408.12 -18.5988 406.122 -19.1339L384.412 -24.9467C382.413 -25.4817 381.227 -27.5342 381.763 -29.5311L387.58 -51.2247Z"/>
        <path d="M532.374 -12.457C532.909 -14.4539 534.963 -15.6389 536.961 -15.1038L558.672 -9.29104C560.67 -8.75599 561.856 -6.70348 561.32 -4.70663L555.503 16.987C554.968 18.9839 552.914 20.1689 550.915 19.6338L529.205 13.821C527.207 13.286 526.021 11.2335 526.556 9.23662L532.374 -12.457Z"/>
        <path d="M459.947 -31.8487C460.483 -33.8455 462.537 -35.0306 464.535 -34.4955L486.245 -28.6827C488.244 -28.1477 489.43 -26.0952 488.894 -24.0983L483.077 -2.40467C482.542 -0.407825 480.487 0.777195 478.489 0.242142L456.779 -5.57065C454.781 -6.10571 453.595 -8.15821 454.13 -10.1551L459.947 -31.8487Z"/>
        <path d="M604.741 6.91894C605.276 4.9221 607.33 3.73708 609.329 4.27213L631.039 10.0849C633.037 10.62 634.223 12.6725 633.688 14.6693L627.871 36.363C627.335 38.3598 625.281 39.5448 623.283 39.0098L601.572 33.197C599.574 32.6619 598.388 30.6094 598.924 28.6126L604.741 6.91894Z"/>
        <path d="M423.764 -41.5367C424.299 -43.5336 426.353 -44.7186 428.352 -44.1835L450.062 -38.3707C452.06 -37.8357 453.246 -35.7832 452.711 -33.7863L446.894 -12.0927C446.358 -10.0958 444.304 -8.91082 442.306 -9.44588L420.595 -15.2587C418.597 -15.7937 417.411 -17.8462 417.947 -19.8431L423.764 -41.5367Z"/>
        <path d="M568.557 -2.76907C569.093 -4.76591 571.147 -5.95093 573.145 -5.41588L594.855 0.396915C596.854 0.931969 598.04 2.98447 597.504 4.98132L591.687 26.675C591.151 28.6718 589.097 29.8568 587.099 29.3218L565.389 23.509C563.391 22.9739 562.205 20.9214 562.74 18.9246L568.557 -2.76907Z"/>
        <path d="M496.131 -22.1608C496.667 -24.1576 498.721 -25.3426 500.719 -24.8076L522.429 -18.9948C524.428 -18.4597 525.613 -16.4072 525.078 -14.4104L519.261 7.28325C518.725 9.28009 516.671 10.4651 514.673 9.93006L492.963 4.11726C490.964 3.58221 489.778 1.5297 490.314 -0.467144L496.131 -22.1608Z"/>
        <path d="M640.924 16.6069C641.46 14.6101 643.514 13.425 645.512 13.9601L667.223 19.7729C669.221 20.3079 670.407 22.3605 669.871 24.3573L664.054 46.0509C663.519 48.0478 661.465 49.2328 659.466 48.6978L637.756 42.885C635.758 42.3499 634.572 40.2974 635.107 38.3006L640.924 16.6069Z"/>
        <path d="M368.189 21.0874C368.725 19.0906 370.779 17.9055 372.777 18.4406L394.487 24.2534C396.486 24.7884 397.672 26.8409 397.136 28.8378L391.319 50.5314C390.783 52.5283 388.729 53.7133 386.731 53.1782L365.021 47.3654C363.022 46.8304 361.836 44.7779 362.372 42.781L368.189 21.0874Z"/>
        <path d="M512.983 59.855C513.518 57.8582 515.572 56.6732 517.57 57.2082L539.281 63.021C541.279 63.5561 542.465 65.6086 541.93 67.6054L536.112 89.2991C535.577 91.2959 533.523 92.4809 531.524 91.9459L509.814 86.1331C507.816 85.5981 506.63 83.5455 507.165 81.5487L512.983 59.855Z"/>
        <path d="M440.557 40.4634C441.092 38.4666 443.146 37.2815 445.144 37.8166L466.855 43.6294C468.853 44.1644 470.039 46.2169 469.504 48.2138L463.686 69.9074C463.151 71.9043 461.097 73.0893 459.098 72.5542L437.388 66.7415C435.39 66.2064 434.204 64.1539 434.739 62.157L440.557 40.4634Z"/>
        <path d="M585.35 79.231C585.885 77.2342 587.94 76.0492 589.938 76.5842L611.648 82.397C613.646 82.9321 614.832 84.9846 614.297 86.9814L608.48 108.675C607.944 110.672 605.89 111.857 603.892 111.322L582.182 105.509C580.183 104.974 578.997 102.922 579.533 100.925L585.35 79.231Z"/>
        <path d="M404.373 30.7754C404.908 28.7786 406.962 27.5936 408.961 28.1286L430.671 33.9414C432.669 34.4765 433.855 36.529 433.32 38.5258L427.503 60.2195C426.967 62.2163 424.913 63.4013 422.915 62.8663L401.204 57.0535C399.206 56.5184 398.02 54.4659 398.556 52.4691L404.373 30.7754Z"/>
        <path d="M549.166 69.5431C549.702 67.5462 551.756 66.3612 553.754 66.8963L575.464 72.7091C577.463 73.2441 578.649 75.2966 578.113 77.2935L572.296 98.9871C571.761 100.984 569.706 102.169 567.708 101.634L545.998 95.8211C544 95.2861 542.814 93.2336 543.349 91.2367L549.166 69.5431Z"/>
        <path d="M476.74 50.1514C477.276 48.1545 479.33 46.9695 481.328 47.5046L503.038 53.3173C505.037 53.8524 506.223 55.9049 505.687 57.9018L499.87 79.5954C499.335 81.5922 497.28 82.7773 495.282 82.2422L473.572 76.4294C471.574 75.8944 470.388 73.8419 470.923 71.845L476.74 50.1514Z"/>
        <path d="M621.534 88.919C622.069 86.9222 624.123 85.7372 626.122 86.2722L647.832 92.085C649.83 92.6201 651.016 94.6726 650.481 96.6694L644.663 118.363C644.128 120.36 642.074 121.545 640.075 121.01L618.365 115.197C616.367 114.662 615.181 112.61 615.716 110.613L621.534 88.919Z"/>
        <path d="M377.885 -15.0686C378.42 -17.0655 380.474 -18.2505 382.473 -17.7154L404.183 -11.9026C406.181 -11.3676 407.367 -9.31506 406.832 -7.31822L401.014 14.3754C400.479 16.3723 398.425 17.5573 396.426 17.0222L374.716 11.2094C372.718 10.6744 371.532 8.62188 372.067 6.62503L377.885 -15.0686Z"/>
        <path d="M522.678 23.6991C523.214 21.7022 525.268 20.5172 527.266 21.0522L548.976 26.865C550.975 27.4001 552.16 29.4526 551.625 31.4494L545.808 53.1431C545.272 55.1399 543.218 56.3249 541.22 55.7899L519.51 49.9771C517.511 49.442 516.325 47.3895 516.861 45.3927L522.678 23.6991Z"/>
        <path d="M450.252 4.3074C450.788 2.31055 452.842 1.12553 454.84 1.66059L476.55 7.47338C478.549 8.00843 479.734 10.0609 479.199 12.0578L473.382 33.7514C472.846 35.7483 470.792 36.9333 468.794 36.3982L447.084 30.5854C445.085 30.0504 443.899 27.9979 444.435 26.001L450.252 4.3074Z"/>
        <path d="M595.045 43.0751C595.581 41.0782 597.635 39.8932 599.633 40.4283L621.344 46.2411C623.342 46.7761 624.528 48.8286 623.992 50.8255L618.175 72.5191C617.64 74.516 615.586 75.701 613.587 75.1659L591.877 69.3531C589.879 68.8181 588.693 66.7656 589.228 64.7687L595.045 43.0751Z"/>
        <path d="M414.068 -5.38057C414.604 -7.37741 416.658 -8.56244 418.656 -8.02738L440.366 -2.21458C442.365 -1.67953 443.551 0.372978 443.015 2.36982L437.198 24.0635C436.663 26.0603 434.609 27.2453 432.61 26.7103L410.9 20.8975C408.902 20.3624 407.716 18.3099 408.251 16.3131L414.068 -5.38057Z"/>
        <path d="M558.862 33.3871C559.397 31.3902 561.451 30.2052 563.45 30.7403L585.16 36.5531C587.158 37.0881 588.344 39.1406 587.809 41.1375L581.992 62.8311C581.456 64.828 579.402 66.013 577.404 65.4779L555.693 59.6651C553.695 59.1301 552.509 57.0776 553.045 55.0807L558.862 33.3871Z"/>
        <path d="M486.436 13.9954C486.971 11.9985 489.025 10.8135 491.024 11.3485L512.734 17.1613C514.732 17.6964 515.918 19.7489 515.383 21.7458L509.565 43.4394C509.03 45.4362 506.976 46.6213 504.978 46.0862L483.267 40.2734C481.269 39.7384 480.083 37.6858 480.619 35.689L486.436 13.9954Z"/>
        <path d="M631.229 52.763C631.765 50.7662 633.819 49.5812 635.817 50.1162L657.527 55.929C659.526 56.4641 660.712 58.5166 660.176 60.5134L654.359 82.207C653.823 84.2039 651.769 85.3889 649.771 84.8539L628.061 79.0411C626.062 78.506 624.876 76.4535 625.412 74.4566L631.229 52.763Z"/>
        <path d="M358.494 57.2435C359.029 55.2467 361.083 54.0617 363.082 54.5967L384.792 60.4095C386.79 60.9446 387.976 62.9971 387.441 64.9939L381.623 86.6876C381.088 88.6844 379.034 89.8694 377.035 89.3344L355.325 83.5216C353.327 82.9865 352.141 80.934 352.676 78.9372L358.494 57.2435Z"/>
        <path d="M503.287 96.0112C503.823 94.0143 505.877 92.8293 507.875 93.3644L529.585 99.1772C531.584 99.7122 532.769 101.765 532.234 103.762L526.417 125.455C525.881 127.452 523.827 128.637 521.829 128.102L500.119 122.289C498.12 121.754 496.934 119.702 497.47 117.705L503.287 96.0112Z"/>
        <path d="M430.861 76.6195C431.397 74.6227 433.451 73.4376 435.449 73.9727L457.159 79.7855C459.158 80.3205 460.344 82.373 459.808 84.3699L453.991 106.064C453.455 108.06 451.401 109.245 449.403 108.71L427.693 102.898C425.694 102.363 424.508 100.31 425.044 98.3132L430.861 76.6195Z"/>
        <path d="M575.655 115.387C576.19 113.39 578.244 112.205 580.242 112.74L601.953 118.553C603.951 119.088 605.137 121.141 604.602 123.138L598.784 144.831C598.249 146.828 596.195 148.013 594.196 147.478L572.486 141.665C570.488 141.13 569.302 139.078 569.837 137.081L575.655 115.387Z"/>
        <path d="M394.677 66.9315C395.213 64.9346 397.267 63.7496 399.265 64.2847L420.975 70.0975C422.974 70.6325 424.16 72.685 423.624 74.6819L417.807 96.3755C417.272 98.3724 415.218 99.5574 413.219 99.0223L391.509 93.2095C389.511 92.6745 388.325 90.622 388.86 88.6251L394.677 66.9315Z"/>
        <path d="M539.471 105.699C540.006 103.702 542.06 102.517 544.059 103.052L565.769 108.865C567.767 109.4 568.953 111.453 568.418 113.45L562.601 135.143C562.065 137.14 560.011 138.325 558.013 137.79L536.302 131.977C534.304 131.442 533.118 129.39 533.654 127.393L539.471 105.699Z"/>
        <path d="M467.045 86.3075C467.58 84.3106 469.634 83.1256 471.633 83.6607L493.343 89.4734C495.341 90.0085 496.527 92.061 495.992 94.0579L490.174 115.751C489.639 117.748 487.585 118.933 485.587 118.398L463.876 112.586C461.878 112.05 460.692 109.998 461.228 108.001L467.045 86.3075Z"/>
        <path d="M611.838 125.075C612.374 123.078 614.428 121.893 616.426 122.428L638.136 128.241C640.135 128.776 641.321 130.829 640.785 132.826L634.968 154.519C634.432 156.516 632.378 157.701 630.38 157.166L608.67 151.353C606.671 150.818 605.485 148.766 606.021 146.769L611.838 125.075Z"/>
        <path d="M348.799 93.3996C349.334 91.4028 351.388 90.2178 353.386 90.7528L375.097 96.5656C377.095 97.1006 378.281 99.1532 377.746 101.15L371.928 122.844C371.393 124.84 369.339 126.026 367.34 125.49L345.63 119.678C343.632 119.143 342.446 117.09 342.981 115.093L348.799 93.3996Z"/>
        <path d="M493.592 132.167C494.127 130.17 496.182 128.985 498.18 129.52L519.89 135.333C521.888 135.868 523.074 137.921 522.539 139.918L516.722 161.611C516.186 163.608 514.132 164.793 512.134 164.258L490.424 158.445C488.425 157.91 487.239 155.858 487.775 153.861L493.592 132.167Z"/>
        <path d="M421.166 112.776C421.702 110.779 423.756 109.594 425.754 110.129L447.464 115.942C449.463 116.477 450.648 118.529 450.113 120.526L444.296 142.22C443.76 144.217 441.706 145.402 439.708 144.867L417.998 139.054C415.999 138.519 414.813 136.466 415.349 134.469L421.166 112.776Z"/>
        <path d="M565.959 151.543C566.495 149.546 568.549 148.361 570.547 148.897L592.257 154.709C594.256 155.244 595.442 157.297 594.906 159.294L589.089 180.987C588.554 182.984 586.499 184.169 584.501 183.634L562.791 177.821C560.793 177.286 559.607 175.234 560.142 173.237L565.959 151.543Z"/>
        <path d="M384.982 103.088C385.518 101.091 387.572 99.9058 389.57 100.441L411.28 106.254C413.279 106.789 414.465 108.841 413.929 110.838L408.112 132.532C407.577 134.529 405.522 135.714 403.524 135.178L381.814 129.366C379.816 128.831 378.63 126.778 379.165 124.781L384.982 103.088Z"/>
        <path d="M529.776 141.855C530.311 139.858 532.365 138.673 534.364 139.208L556.074 145.021C558.072 145.556 559.258 147.609 558.723 149.606L552.905 171.299C552.37 173.296 550.316 174.481 548.318 173.946L526.607 168.133C524.609 167.598 523.423 165.546 523.959 163.549L529.776 141.855Z"/>
        <path d="M457.35 122.464C457.885 120.467 459.939 119.282 461.937 119.817L483.648 125.63C485.646 126.165 486.832 128.217 486.297 130.214L480.479 151.908C479.944 153.904 477.89 155.089 475.891 154.554L454.181 148.742C452.183 148.207 450.997 146.154 451.532 144.157L457.35 122.464Z"/>
        <path d="M602.143 161.231C602.679 159.234 604.733 158.049 606.731 158.584L628.441 164.397C630.44 164.932 631.625 166.985 631.09 168.982L625.273 190.675C624.737 192.672 622.683 193.857 620.685 193.322L598.975 187.509C596.976 186.974 595.79 184.922 596.326 182.925L602.143 161.231Z"/>
        <path d="M329.408 165.712C329.943 163.715 331.997 162.53 333.996 163.065L355.706 168.878C357.704 169.413 358.89 171.465 358.355 173.462L352.537 195.156C352.002 197.153 349.948 198.338 347.949 197.803L326.239 191.99C324.241 191.455 323.055 189.402 323.59 187.405L329.408 165.712Z"/>
        <path d="M474.201 204.479C474.737 202.483 476.791 201.298 478.789 201.833L500.499 207.645C502.498 208.18 503.683 210.233 503.148 212.23L497.331 233.923C496.795 235.92 494.741 237.105 492.743 236.57L471.033 230.757C469.034 230.222 467.848 228.17 468.384 226.173L474.201 204.479Z"/>
        <path d="M401.775 185.088C402.311 183.091 404.365 181.906 406.363 182.441L428.073 188.254C430.072 188.789 431.258 190.841 430.722 192.838L424.905 214.532C424.369 216.529 422.315 217.714 420.317 217.179L398.607 211.366C396.608 210.831 395.422 208.778 395.958 206.781L401.775 185.088Z"/>
        <path d="M546.568 223.855C547.104 221.859 549.158 220.674 551.156 221.209L572.867 227.021C574.865 227.556 576.051 229.609 575.515 231.606L569.698 253.299C569.163 255.296 567.109 256.481 565.11 255.946L543.4 250.133C541.402 249.598 540.216 247.546 540.751 245.549L546.568 223.855Z"/>
        <path d="M365.591 175.4C366.127 173.403 368.181 172.218 370.179 172.753L391.889 178.566C393.888 179.101 395.074 181.153 394.538 183.15L388.721 204.844C388.186 206.841 386.132 208.026 384.133 207.491L362.423 201.678C360.425 201.143 359.239 199.09 359.774 197.093L365.591 175.4Z"/>
        <path d="M510.385 214.167C510.92 212.171 512.974 210.986 514.973 211.521L536.683 217.333C538.681 217.868 539.867 219.921 539.332 221.918L533.515 243.611C532.979 245.608 530.925 246.793 528.927 246.258L507.216 240.445C505.218 239.91 504.032 237.858 504.568 235.861L510.385 214.167Z"/>
        <path d="M437.959 194.776C438.494 192.779 440.548 191.594 442.547 192.129L464.257 197.942C466.255 198.477 467.441 200.529 466.906 202.526L461.089 224.22C460.553 226.217 458.499 227.402 456.501 226.867L434.79 221.054C432.792 220.519 431.606 218.466 432.142 216.469L437.959 194.776Z"/>
        <path d="M582.752 233.543C583.288 231.546 585.342 230.361 587.34 230.896L609.05 236.709C611.049 237.244 612.234 239.297 611.699 241.294L605.882 262.987C605.346 264.984 603.292 266.169 601.294 265.634L579.584 259.821C577.585 259.286 576.399 257.234 576.935 255.237L582.752 233.543Z"/>
        <path d="M339.103 129.556C339.639 127.559 341.693 126.374 343.691 126.909L365.401 132.722C367.4 133.257 368.586 135.309 368.05 137.306L362.233 159C361.697 160.996 359.643 162.182 357.645 161.646L335.935 155.834C333.936 155.299 332.75 153.246 333.286 151.249L339.103 129.556Z"/>
        <path d="M483.897 168.323C484.432 166.326 486.486 165.141 488.484 165.676L510.195 171.489C512.193 172.024 513.379 174.077 512.843 176.074L507.026 197.767C506.491 199.764 504.437 200.949 502.438 200.414L480.728 194.601C478.73 194.066 477.544 192.014 478.079 190.017L483.897 168.323Z"/>
        <path d="M411.471 148.932C412.006 146.935 414.06 145.75 416.058 146.285L437.769 152.098C439.767 152.633 440.953 154.685 440.418 156.682L434.6 178.376C434.065 180.372 432.011 181.557 430.012 181.022L408.302 175.21C406.304 174.675 405.118 172.622 405.653 170.625L411.471 148.932Z"/>
        <path d="M556.264 187.699C556.799 185.702 558.853 184.517 560.852 185.052L582.562 190.865C584.56 191.4 585.746 193.453 585.211 195.45L579.394 217.143C578.858 219.14 576.804 220.325 574.806 219.79L553.095 213.977C551.097 213.442 549.911 211.39 550.447 209.393L556.264 187.699Z"/>
        <path d="M375.287 139.244C375.822 137.247 377.876 136.062 379.875 136.597L401.585 142.41C403.583 142.945 404.769 144.997 404.234 146.994L398.417 168.688C397.881 170.685 395.827 171.87 393.829 171.334L372.118 165.522C370.12 164.987 368.934 162.934 369.47 160.937L375.287 139.244Z"/>
        <path d="M520.08 178.011C520.616 176.014 522.67 174.829 524.668 175.365L546.378 181.177C548.377 181.712 549.563 183.765 549.027 185.762L543.21 207.455C542.674 209.452 540.62 210.637 538.622 210.102L516.912 204.289C514.914 203.754 513.728 201.702 514.263 199.705L520.08 178.011Z"/>
        <path d="M447.654 158.62C448.19 156.623 450.244 155.438 452.242 155.973L473.952 161.786C475.951 162.321 477.136 164.373 476.601 166.37L470.784 188.064C470.248 190.06 468.194 191.246 466.196 190.71L444.486 184.898C442.487 184.363 441.301 182.31 441.837 180.313L447.654 158.62Z"/>
        <path d="M592.448 197.387C592.983 195.39 595.037 194.205 597.035 194.74L618.746 200.553C620.744 201.088 621.93 203.141 621.394 205.138L615.577 226.831C615.042 228.828 612.988 230.013 610.989 229.478L589.279 223.665C587.281 223.13 586.095 221.078 586.63 219.081L592.448 197.387Z"/>
        <path d="M319.712 201.868C320.248 199.871 322.302 198.686 324.3 199.221L346.01 205.034C348.009 205.569 349.195 207.621 348.659 209.618L342.842 231.312C342.306 233.309 340.252 234.494 338.254 233.959L316.544 228.146C314.545 227.611 313.359 225.558 313.895 223.561L319.712 201.868Z"/>
        <path d="M464.506 240.635C465.041 238.639 467.095 237.454 469.094 237.989L490.804 243.801C492.802 244.336 493.988 246.389 493.453 248.386L487.635 270.079C487.1 272.076 485.046 273.261 483.047 272.726L461.337 266.914C459.339 266.378 458.153 264.326 458.688 262.329L464.506 240.635Z"/>
        <path d="M392.08 221.244C392.615 219.247 394.669 218.062 396.668 218.597L418.378 224.41C420.376 224.945 421.562 226.997 421.027 228.994L415.209 250.688C414.674 252.685 412.62 253.87 410.621 253.335L388.911 247.522C386.913 246.987 385.727 244.934 386.262 242.937L392.08 221.244Z"/>
        <path d="M536.873 260.012C537.409 258.015 539.463 256.83 541.461 257.365L563.171 263.177C565.169 263.713 566.355 265.765 565.82 267.762L560.003 289.456C559.467 291.452 557.413 292.637 555.415 292.102L533.705 286.29C531.706 285.754 530.52 283.702 531.056 281.705L536.873 260.012Z"/>
        <path d="M355.896 211.556C356.431 209.559 358.485 208.374 360.484 208.909L382.194 214.722C384.192 215.257 385.378 217.309 384.843 219.306L379.026 241C378.49 242.997 376.436 244.182 374.438 243.647L352.728 237.834C350.729 237.299 349.543 235.246 350.079 233.249L355.896 211.556Z"/>
        <path d="M500.689 250.324C501.225 248.327 503.279 247.142 505.277 247.677L526.987 253.49C528.986 254.025 530.172 256.077 529.636 258.074L523.819 279.768C523.284 281.764 521.23 282.949 519.231 282.414L497.521 276.602C495.523 276.067 494.337 274.014 494.872 272.017L500.689 250.324Z"/>
        <path d="M428.263 230.932C428.799 228.935 430.853 227.75 432.851 228.285L454.561 234.098C456.56 234.633 457.746 236.685 457.21 238.682L451.393 260.376C450.858 262.373 448.804 263.558 446.805 263.023L425.095 257.21C423.097 256.675 421.911 254.622 422.446 252.625L428.263 230.932Z"/>
        <path d="M573.057 269.7C573.592 267.703 575.646 266.518 577.645 267.053L599.355 272.866C601.353 273.401 602.539 275.453 602.004 277.45L596.186 299.144C595.651 301.14 593.597 302.325 591.599 301.79L569.888 295.978C567.89 295.443 566.704 293.39 567.24 291.393L573.057 269.7Z"/>
    </mask>
    <path d="M74.8137 -45.1436C75.3491 -47.1404 77.4032 -48.3254 79.4016 -47.7904L101.112 -41.9776C103.11 -41.4425 104.296 -39.39 103.761 -37.3932L97.9434 -15.6995C97.4079 -13.7027 95.3538 -12.5177 93.3555 -13.0527L71.6453 -18.8655C69.6469 -19.4006 68.461 -21.4531 68.9964 -23.4499L74.8137 -45.1436Z" stroke="white" stroke-opacity="0.2" stroke-width="2" mask="url(#path-1-outside-1_1810_116499)"/>
    <path d="M219.607 -6.37587C220.143 -8.37271 222.197 -9.55774 224.195 -9.02268L245.905 -3.20989C247.904 -2.67484 249.09 -0.622326 248.554 1.37452L242.737 23.0682C242.201 25.065 240.147 26.25 238.149 25.715L216.439 19.9022C214.44 19.3671 213.254 17.3146 213.79 15.3178L219.607 -6.37587Z" stroke="white" stroke-opacity="0.2" stroke-width="2" mask="url(#path-1-outside-1_1810_116499)"/>
    <path d="M147.181 -25.7675C147.716 -27.7644 149.77 -28.9494 151.769 -28.4144L173.479 -22.6016C175.477 -22.0665 176.663 -20.014 176.128 -18.0172L170.311 3.67648C169.775 5.67332 167.721 6.85834 165.723 6.32329L144.013 0.510502C142.014 -0.0245514 140.828 -2.07706 141.364 -4.07391L147.181 -25.7675Z" stroke="white" stroke-opacity="0.2" stroke-width="2" mask="url(#path-1-outside-1_1810_116499)"/>
    <path d="M291.974 13.0001C292.51 11.0033 294.564 9.81824 296.562 10.3533L318.272 16.1661C320.271 16.7011 321.457 18.7536 320.921 20.7505L315.104 42.4441C314.569 44.441 312.515 45.626 310.516 45.0909L288.806 39.2782C286.808 38.7431 285.622 36.6906 286.157 34.6937L291.974 13.0001Z" stroke="white" stroke-opacity="0.2" stroke-width="2" mask="url(#path-1-outside-1_1810_116499)"/>
    <path d="M110.997 -35.4556C111.533 -37.4524 113.587 -38.6374 115.585 -38.1024L137.296 -32.2896C139.294 -31.7545 140.48 -29.702 139.944 -27.7052L134.127 -6.01154C133.592 -4.01469 131.538 -2.82967 129.539 -3.36473L107.829 -9.17752C105.831 -9.71257 104.645 -11.7651 105.18 -13.7619L110.997 -35.4556Z" stroke="white" stroke-opacity="0.2" stroke-width="2" mask="url(#path-1-outside-1_1810_116499)"/>
    <path d="M255.791 3.31208C256.326 1.31524 258.38 0.130219 260.379 0.665272L282.089 6.47807C284.087 7.01312 285.273 9.06562 284.738 11.0625L278.921 32.7561C278.385 34.753 276.331 35.938 274.333 35.4029L252.622 29.5901C250.624 29.0551 249.438 27.0026 249.974 25.0057L255.791 3.31208Z" stroke="white" stroke-opacity="0.2" stroke-width="2" mask="url(#path-1-outside-1_1810_116499)"/>
    <path d="M183.365 -16.0796C183.9 -18.0765 185.954 -19.2615 187.953 -18.7264L209.663 -12.9137C211.661 -12.3786 212.847 -10.3261 212.312 -8.32924L206.494 13.3644C205.959 15.3612 203.905 16.5463 201.906 16.0112L180.196 10.1984C178.198 9.66336 177.012 7.61086 177.547 5.61401L183.365 -16.0796Z" stroke="white" stroke-opacity="0.2" stroke-width="2" mask="url(#path-1-outside-1_1810_116499)"/>
    <path d="M328.158 22.6881C328.694 20.6912 330.748 19.5062 332.746 20.0413L354.456 25.854C356.455 26.3891 357.641 28.4416 357.105 30.4385L351.288 52.1321C350.752 54.1289 348.698 55.314 346.7 54.7789L324.99 48.9661C322.991 48.4311 321.805 46.3785 322.341 44.3817L328.158 22.6881Z" stroke="white" stroke-opacity="0.2" stroke-width="2" mask="url(#path-1-outside-1_1810_116499)"/>
    <path d="M55.4228 27.1685C55.9582 25.1717 58.0123 23.9867 60.0107 24.5217L81.7209 30.3345C83.7192 30.8696 84.9052 32.9221 84.3697 34.9189L78.5525 56.6126C78.017 58.6094 75.9629 59.7944 73.9646 59.2594L52.2544 53.4466C50.256 52.9115 49.0701 50.859 49.6055 48.8622L55.4228 27.1685Z" stroke="white" stroke-opacity="0.2" stroke-width="2" mask="url(#path-1-outside-1_1810_116499)"/>
    <path d="M200.216 65.9362C200.752 63.9394 202.806 62.7543 204.804 63.2894L226.514 69.1022C228.513 69.6372 229.699 71.6898 229.163 73.6866L223.346 95.3802C222.81 97.3771 220.756 98.5621 218.758 98.027L197.048 92.2142C195.049 91.6792 193.864 89.6267 194.399 87.6299L200.216 65.9362Z" stroke="white" stroke-opacity="0.2" stroke-width="2" mask="url(#path-1-outside-1_1810_116499)"/>
    <path d="M127.79 46.5445C128.326 44.5477 130.38 43.3627 132.378 43.8977L154.088 49.7105C156.087 50.2456 157.273 52.2981 156.737 54.2949L150.92 75.9886C150.384 77.9854 148.33 79.1704 146.332 78.6354L124.622 72.8226C122.623 72.2876 121.438 70.235 121.973 68.2382L127.79 46.5445Z" stroke="white" stroke-opacity="0.2" stroke-width="2" mask="url(#path-1-outside-1_1810_116499)"/>
    <path d="M272.584 85.3122C273.119 83.3154 275.173 82.1303 277.172 82.6654L298.882 88.4782C300.88 89.0132 302.066 91.0658 301.531 93.0626L295.713 114.756C295.178 116.753 293.124 117.938 291.125 117.403L269.415 111.59C267.417 111.055 266.231 109.003 266.766 107.006L272.584 85.3122Z" stroke="white" stroke-opacity="0.2" stroke-width="2" mask="url(#path-1-outside-1_1810_116499)"/>
    <path d="M91.6065 36.8566C92.142 34.8597 94.196 33.6747 96.1944 34.2098L117.905 40.0226C119.903 40.5576 121.089 42.6101 120.553 44.607L114.736 66.3006C114.201 68.2975 112.147 69.4825 110.148 68.9474L88.4381 63.1346C86.4397 62.5996 85.2538 60.5471 85.7893 58.5502L91.6065 36.8566Z" stroke="white" stroke-opacity="0.2" stroke-width="2" mask="url(#path-1-outside-1_1810_116499)"/>
    <path d="M236.4 75.6242C236.935 73.6274 238.989 72.4424 240.988 72.9774L262.698 78.7902C264.696 79.3253 265.882 81.3778 265.347 83.3746L259.53 105.068C258.994 107.065 256.94 108.25 254.942 107.715L233.232 101.902C231.233 101.367 230.047 99.3147 230.583 97.3179L236.4 75.6242Z" stroke="white" stroke-opacity="0.2" stroke-width="2" mask="url(#path-1-outside-1_1810_116499)"/>
    <path d="M163.974 56.2325C164.509 54.2357 166.563 53.0507 168.562 53.5857L190.272 59.3985C192.27 59.9336 193.456 61.9861 192.921 63.9829L187.104 85.6765C186.568 87.6734 184.514 88.8584 182.516 88.3234L160.805 82.5106C158.807 81.9755 157.621 79.923 158.157 77.9262L163.974 56.2325Z" stroke="white" stroke-opacity="0.2" stroke-width="2" mask="url(#path-1-outside-1_1810_116499)"/>
    <path d="M308.767 95.0002C309.303 93.0034 311.357 91.8183 313.355 92.3534L335.065 98.1662C337.064 98.7012 338.25 100.754 337.714 102.751L331.897 124.444C331.362 126.441 329.308 127.626 327.309 127.091L305.599 121.278C303.601 120.743 302.415 118.691 302.95 116.694L308.767 95.0002Z" stroke="white" stroke-opacity="0.2" stroke-width="2" mask="url(#path-1-outside-1_1810_116499)"/>
    <path d="M65.1183 -8.98746C65.6537 -10.9843 67.7078 -12.1693 69.7062 -11.6343L91.4164 -5.82148C93.4148 -5.28642 94.6007 -3.23391 94.0652 -1.23706L88.248 20.4566C87.7125 22.4534 85.6585 23.6384 83.6601 23.1034L61.9499 17.2906C59.9515 16.7555 58.7656 14.703 59.301 12.7062L65.1183 -8.98746Z" stroke="white" stroke-opacity="0.2" stroke-width="2" mask="url(#path-1-outside-1_1810_116499)"/>
    <path d="M209.912 29.7802C210.447 27.7834 212.501 26.5983 214.5 27.1334L236.21 32.9462C238.208 33.4812 239.394 35.5337 238.859 37.5306L233.041 59.2242C232.506 61.2211 230.452 62.4061 228.454 61.871L206.743 56.0582C204.745 55.5232 203.559 53.4707 204.094 51.4738L209.912 29.7802Z" stroke="white" stroke-opacity="0.2" stroke-width="2" mask="url(#path-1-outside-1_1810_116499)"/>
    <path d="M137.486 10.3885C138.021 8.3917 140.075 7.20669 142.074 7.74174L163.784 13.5545C165.782 14.0896 166.968 16.1421 166.433 18.1389L160.615 39.8326C160.08 41.8294 158.026 43.0144 156.027 42.4794L134.317 36.6666C132.319 36.1315 131.133 34.079 131.668 32.0822L137.486 10.3885Z" stroke="white" stroke-opacity="0.2" stroke-width="2" mask="url(#path-1-outside-1_1810_116499)"/>
    <path d="M282.279 49.1562C282.815 47.1594 284.869 45.9744 286.867 46.5094L308.577 52.3222C310.576 52.8573 311.762 54.9098 311.226 56.9066L305.409 78.6003C304.873 80.5971 302.819 81.7821 300.821 81.2471L279.111 75.4343C277.112 74.8992 275.926 72.8467 276.462 70.8499L282.279 49.1562Z" stroke="white" stroke-opacity="0.2" stroke-width="2" mask="url(#path-1-outside-1_1810_116499)"/>
    <path d="M101.302 0.700584C101.837 -1.29626 103.892 -2.48129 105.89 -1.94623L127.6 3.86656C129.598 4.40162 130.784 6.45413 130.249 8.45097L124.432 30.1446C123.896 32.1415 121.842 33.3265 119.844 32.7914L98.1336 26.9786C96.1352 26.4436 94.9493 24.3911 95.4847 22.3942L101.302 0.700584Z" stroke="white" stroke-opacity="0.2" stroke-width="2" mask="url(#path-1-outside-1_1810_116499)"/>
    <path d="M246.095 39.4682C246.631 37.4714 248.685 36.2864 250.683 36.8214L272.393 42.6342C274.392 43.1693 275.578 45.2218 275.042 47.2186L269.225 68.9123C268.69 70.9091 266.636 72.0941 264.637 71.5591L242.927 65.7463C240.929 65.2112 239.743 63.1587 240.278 61.1619L246.095 39.4682Z" stroke="white" stroke-opacity="0.2" stroke-width="2" mask="url(#path-1-outside-1_1810_116499)"/>
    <path d="M173.669 20.0765C174.205 18.0797 176.259 16.8946 178.257 17.4297L199.968 23.2425C201.966 23.7775 203.152 25.8301 202.616 27.8269L196.799 49.5205C196.264 51.5174 194.21 52.7024 192.211 52.1674L170.501 46.3546C168.503 45.8195 167.317 43.767 167.852 41.7701L173.669 20.0765Z" stroke="white" stroke-opacity="0.2" stroke-width="2" mask="url(#path-1-outside-1_1810_116499)"/>
    <path d="M318.463 58.8442C318.998 56.8473 321.052 55.6623 323.051 56.1973L344.761 62.0101C346.759 62.5452 347.945 64.5977 347.41 66.5946L341.593 88.2882C341.057 90.285 339.003 91.4701 337.005 90.935L315.294 85.1222C313.296 84.5872 312.11 82.5347 312.646 80.5378L318.463 58.8442Z" stroke="white" stroke-opacity="0.2" stroke-width="2" mask="url(#path-1-outside-1_1810_116499)"/>
    <path d="M45.7273 63.3247C46.2627 61.3278 48.3168 60.1428 50.3152 60.6779L72.0254 66.4907C74.0238 67.0257 75.2097 69.0782 74.6742 71.0751L68.857 92.7687C68.3215 94.7656 66.2675 95.9506 64.2691 95.4155L42.5589 89.6027C40.5605 89.0677 39.3746 87.0152 39.91 85.0183L45.7273 63.3247Z" stroke="white" stroke-opacity="0.2" stroke-width="2" mask="url(#path-1-outside-1_1810_116499)"/>
    <path d="M190.521 102.092C191.056 100.096 193.11 98.9105 195.109 99.4455L216.819 105.258C218.817 105.793 220.003 107.846 219.468 109.843L213.65 131.536C213.115 133.533 211.061 134.718 209.063 134.183L187.352 128.37C185.354 127.835 184.168 125.783 184.703 123.786L190.521 102.092Z" stroke="white" stroke-opacity="0.2" stroke-width="2" mask="url(#path-1-outside-1_1810_116499)"/>
    <path d="M118.095 82.7007C118.63 80.7038 120.684 79.5188 122.683 80.0538L144.393 85.8666C146.391 86.4017 147.577 88.4542 147.042 90.451L141.224 112.145C140.689 114.142 138.635 115.327 136.637 114.791L114.926 108.979C112.928 108.444 111.742 106.391 112.278 104.394L118.095 82.7007Z" stroke="white" stroke-opacity="0.2" stroke-width="2" mask="url(#path-1-outside-1_1810_116499)"/>
    <path d="M262.888 121.468C263.424 119.471 265.478 118.286 267.476 118.822L289.186 124.634C291.185 125.169 292.371 127.222 291.835 129.219L286.018 150.912C285.482 152.909 283.428 154.094 281.43 153.559L259.72 147.746C257.721 147.211 256.535 145.159 257.071 143.162L262.888 121.468Z" stroke="white" stroke-opacity="0.2" stroke-width="2" mask="url(#path-1-outside-1_1810_116499)"/>
    <path d="M81.911 73.0126C82.4465 71.0158 84.5005 69.8308 86.4989 70.3658L108.209 76.1786C110.207 76.7137 111.393 78.7662 110.858 80.763L105.041 102.457C104.505 104.454 102.451 105.639 100.453 105.103L78.7426 99.2907C76.7442 98.7556 75.5583 96.7031 76.0938 94.7063L81.911 73.0126Z" stroke="white" stroke-opacity="0.2" stroke-width="2" mask="url(#path-1-outside-1_1810_116499)"/>
    <path d="M226.704 111.78C227.24 109.784 229.294 108.598 231.292 109.134L253.003 114.946C255.001 115.481 256.187 117.534 255.651 119.531L249.834 141.224C249.299 143.221 247.245 144.406 245.246 143.871L223.536 138.058C221.538 137.523 220.352 135.471 220.887 133.474L226.704 111.78Z" stroke="white" stroke-opacity="0.2" stroke-width="2" mask="url(#path-1-outside-1_1810_116499)"/>
    <path d="M154.278 92.3886C154.814 90.3918 156.868 89.2068 158.866 89.7418L180.577 95.5546C182.575 96.0897 183.761 98.1422 183.225 100.139L177.408 121.833C176.873 123.829 174.819 125.015 172.82 124.479L151.11 118.667C149.112 118.132 147.926 116.079 148.461 114.082L154.278 92.3886Z" stroke="white" stroke-opacity="0.2" stroke-width="2" mask="url(#path-1-outside-1_1810_116499)"/>
    <path d="M299.072 131.156C299.607 129.159 301.661 127.974 303.66 128.509L325.37 134.322C327.368 134.857 328.554 136.91 328.019 138.907L322.202 160.6C321.666 162.597 319.612 163.782 317.614 163.247L295.903 157.434C293.905 156.899 292.719 154.847 293.255 152.85L299.072 131.156Z" stroke="white" stroke-opacity="0.2" stroke-width="2" mask="url(#path-1-outside-1_1810_116499)"/>
    <path d="M36.0322 99.4808C36.5677 97.4839 38.6217 96.2989 40.6201 96.834L62.3303 102.647C64.3287 103.182 65.5146 105.234 64.9791 107.231L59.1619 128.925C58.6265 130.922 56.5724 132.107 54.574 131.572L32.8638 125.759C30.8654 125.224 29.6795 123.171 30.215 121.174L36.0322 99.4808Z" stroke="white" stroke-opacity="0.2" stroke-width="2" mask="url(#path-1-outside-1_1810_116499)"/>
    <path d="M180.826 138.248C181.361 136.252 183.415 135.067 185.414 135.602L207.124 141.414C209.122 141.949 210.308 144.002 209.773 145.999L203.955 167.692C203.42 169.689 201.366 170.874 199.367 170.339L177.657 164.526C175.659 163.991 174.473 161.939 175.008 159.942L180.826 138.248Z" stroke="white" stroke-opacity="0.2" stroke-width="2" mask="url(#path-1-outside-1_1810_116499)"/>
    <path d="M108.4 118.857C108.935 116.86 110.989 115.675 112.988 116.21L134.698 122.023C136.696 122.558 137.882 124.61 137.347 126.607L131.529 148.301C130.994 150.298 128.94 151.483 126.941 150.948L105.231 145.135C103.233 144.6 102.047 142.547 102.582 140.55L108.4 118.857Z" stroke="white" stroke-opacity="0.2" stroke-width="2" mask="url(#path-1-outside-1_1810_116499)"/>
    <path d="M253.193 157.624C253.728 155.628 255.782 154.443 257.781 154.978L279.491 160.79C281.489 161.326 282.675 163.378 282.14 165.375L276.323 187.068C275.787 189.065 273.733 190.25 271.735 189.715L250.024 183.903C248.026 183.367 246.84 181.315 247.376 179.318L253.193 157.624Z" stroke="white" stroke-opacity="0.2" stroke-width="2" mask="url(#path-1-outside-1_1810_116499)"/>
    <path d="M72.216 109.169C72.7514 107.172 74.8055 105.987 76.8039 106.522L98.5141 112.335C100.512 112.87 101.698 114.922 101.163 116.919L95.3457 138.613C94.8102 140.61 92.7561 141.795 90.7578 141.26L69.0476 135.447C67.0492 134.912 65.8633 132.859 66.3987 130.862L72.216 109.169Z" stroke="white" stroke-opacity="0.2" stroke-width="2" mask="url(#path-1-outside-1_1810_116499)"/>
    <path d="M217.009 147.936C217.545 145.94 219.599 144.755 221.597 145.29L243.307 151.102C245.306 151.637 246.492 153.69 245.956 155.687L240.139 177.38C239.604 179.377 237.55 180.562 235.551 180.027L213.841 174.215C211.843 173.679 210.657 171.627 211.192 169.63L217.009 147.936Z" stroke="white" stroke-opacity="0.2" stroke-width="2" mask="url(#path-1-outside-1_1810_116499)"/>
    <path d="M144.583 128.545C145.119 126.548 147.173 125.363 149.171 125.898L170.881 131.711C172.88 132.246 174.066 134.298 173.53 136.295L167.713 157.989C167.177 159.986 165.123 161.171 163.125 160.636L141.415 154.823C139.416 154.288 138.23 152.235 138.766 150.238L144.583 128.545Z" stroke="white" stroke-opacity="0.2" stroke-width="2" mask="url(#path-1-outside-1_1810_116499)"/>
    <path d="M289.377 167.312C289.912 165.316 291.966 164.131 293.965 164.666L315.675 170.478C317.673 171.013 318.859 173.066 318.324 175.063L312.506 196.756C311.971 198.753 309.917 199.938 307.918 199.403L286.208 193.59C284.21 193.055 283.024 191.003 283.559 189.006L289.377 167.312Z" stroke="white" stroke-opacity="0.2" stroke-width="2" mask="url(#path-1-outside-1_1810_116499)"/>
    <path d="M16.6413 171.793C17.1767 169.796 19.2308 168.611 21.2292 169.146L42.9394 174.959C44.9378 175.494 46.1237 177.546 45.5882 179.543L39.771 201.237C39.2355 203.234 37.1815 204.419 35.1831 203.884L13.4729 198.071C11.4745 197.536 10.2886 195.483 10.824 193.487L16.6413 171.793Z" stroke="white" stroke-opacity="0.2" stroke-width="2" mask="url(#path-1-outside-1_1810_116499)"/>
    <path d="M161.435 210.561C161.97 208.564 164.024 207.379 166.023 207.914L187.733 213.727C189.731 214.262 190.917 216.314 190.382 218.311L184.564 240.005C184.029 242.001 181.975 243.186 179.977 242.651L158.266 236.839C156.268 236.304 155.082 234.251 155.617 232.254L161.435 210.561Z" stroke="white" stroke-opacity="0.2" stroke-width="2" mask="url(#path-1-outside-1_1810_116499)"/>
    <path d="M89.0087 191.169C89.5442 189.172 91.5983 187.987 93.5966 188.522L115.307 194.335C117.305 194.87 118.491 196.922 117.956 198.919L112.138 220.613C111.603 222.61 109.549 223.795 107.551 223.26L85.8403 217.447C83.8419 216.912 82.656 214.859 83.1915 212.863L89.0087 191.169Z" stroke="white" stroke-opacity="0.2" stroke-width="2" mask="url(#path-1-outside-1_1810_116499)"/>
    <path d="M233.802 229.937C234.338 227.94 236.392 226.755 238.39 227.29L260.1 233.103C262.099 233.638 263.285 235.69 262.749 237.687L256.932 259.381C256.396 261.377 254.342 262.562 252.344 262.027L230.634 256.215C228.635 255.68 227.449 253.627 227.985 251.63L233.802 229.937Z" stroke="white" stroke-opacity="0.2" stroke-width="2" mask="url(#path-1-outside-1_1810_116499)"/>
    <path d="M52.825 181.481C53.3604 179.484 55.4145 178.299 57.4129 178.834L79.1231 184.647C81.1214 185.182 82.3074 187.234 81.7719 189.231L75.9547 210.925C75.4192 212.922 73.3651 214.107 71.3668 213.572L49.6566 207.759C47.6582 207.224 46.4723 205.171 47.0077 203.175L52.825 181.481Z" stroke="white" stroke-opacity="0.2" stroke-width="2" mask="url(#path-1-outside-1_1810_116499)"/>
    <path d="M197.618 220.249C198.154 218.252 200.208 217.067 202.206 217.602L223.917 223.415C225.915 223.95 227.101 226.002 226.565 227.999L220.748 249.693C220.213 251.689 218.159 252.874 216.16 252.339L194.45 246.527C192.452 245.992 191.266 243.939 191.801 241.942L197.618 220.249Z" stroke="white" stroke-opacity="0.2" stroke-width="2" mask="url(#path-1-outside-1_1810_116499)"/>
    <path d="M125.192 200.857C125.728 198.86 127.782 197.675 129.78 198.21L151.491 204.023C153.489 204.558 154.675 206.61 154.139 208.607L148.322 230.301C147.787 232.298 145.733 233.483 143.734 232.948L122.024 227.135C120.026 226.6 118.84 224.547 119.375 222.55L125.192 200.857Z" stroke="white" stroke-opacity="0.2" stroke-width="2" mask="url(#path-1-outside-1_1810_116499)"/>
    <path d="M269.986 239.624C270.521 237.628 272.575 236.443 274.574 236.978L296.284 242.79C298.282 243.326 299.468 245.378 298.933 247.375L293.115 269.068C292.58 271.065 290.526 272.25 288.527 271.715L266.817 265.903C264.819 265.367 263.633 263.315 264.168 261.318L269.986 239.624Z" stroke="white" stroke-opacity="0.2" stroke-width="2" mask="url(#path-1-outside-1_1810_116499)"/>
    <path d="M26.3367 135.637C26.8722 133.64 28.9263 132.455 30.9246 132.99L52.6349 138.803C54.6332 139.338 55.8191 141.39 55.2837 143.387L49.4665 165.081C48.931 167.078 46.8769 168.263 44.8785 167.728L23.1683 161.915C21.17 161.38 19.984 159.327 20.5195 157.33L26.3367 135.637Z" stroke="white" stroke-opacity="0.2" stroke-width="2" mask="url(#path-1-outside-1_1810_116499)"/>
    <path d="M171.13 174.404C171.666 172.408 173.72 171.223 175.718 171.758L197.428 177.57C199.427 178.105 200.613 180.158 200.077 182.155L194.26 203.848C193.724 205.845 191.67 207.03 189.672 206.495L167.962 200.682C165.963 200.147 164.777 198.095 165.313 196.098L171.13 174.404Z" stroke="white" stroke-opacity="0.2" stroke-width="2" mask="url(#path-1-outside-1_1810_116499)"/>
    <path d="M98.7042 155.013C99.2396 153.016 101.294 151.831 103.292 152.366L125.002 158.179C127.001 158.714 128.187 160.766 127.651 162.763L121.834 184.457C121.298 186.454 119.244 187.639 117.246 187.104L95.5358 181.291C93.5374 180.756 92.3515 178.703 92.887 176.706L98.7042 155.013Z" stroke="white" stroke-opacity="0.2" stroke-width="2" mask="url(#path-1-outside-1_1810_116499)"/>
    <path d="M243.497 193.78C244.033 191.784 246.087 190.599 248.085 191.134L269.796 196.946C271.794 197.481 272.98 199.534 272.444 201.531L266.627 223.224C266.092 225.221 264.038 226.406 262.039 225.871L240.329 220.058C238.331 219.523 237.145 217.471 237.68 215.474L243.497 193.78Z" stroke="white" stroke-opacity="0.2" stroke-width="2" mask="url(#path-1-outside-1_1810_116499)"/>
    <path d="M62.5204 145.325C63.0559 143.328 65.11 142.143 67.1083 142.678L88.8185 148.491C90.8169 149.026 92.0028 151.078 91.4674 153.075L85.6501 174.769C85.1147 176.766 83.0606 177.951 81.0622 177.416L59.352 171.603C57.3537 171.068 56.1677 169.015 56.7032 167.018L62.5204 145.325Z" stroke="white" stroke-opacity="0.2" stroke-width="2" mask="url(#path-1-outside-1_1810_116499)"/>
    <path d="M207.314 184.092C207.849 182.096 209.903 180.911 211.902 181.446L233.612 187.258C235.61 187.794 236.796 189.846 236.261 191.843L230.444 213.537C229.908 215.533 227.854 216.718 225.856 216.183L204.146 210.371C202.147 209.835 200.961 207.783 201.497 205.786L207.314 184.092Z" stroke="white" stroke-opacity="0.2" stroke-width="2" mask="url(#path-1-outside-1_1810_116499)"/>
    <path d="M134.888 164.701C135.423 162.704 137.477 161.519 139.476 162.054L161.186 167.867C163.184 168.402 164.37 170.454 163.835 172.451L158.017 194.145C157.482 196.142 155.428 197.327 153.43 196.792L131.719 190.979C129.721 190.444 128.535 188.391 129.07 186.394L134.888 164.701Z" stroke="white" stroke-opacity="0.2" stroke-width="2" mask="url(#path-1-outside-1_1810_116499)"/>
    <path d="M279.681 203.468C280.217 201.472 282.271 200.287 284.269 200.822L305.979 206.634C307.978 207.169 309.164 209.222 308.628 211.219L302.811 232.912C302.275 234.909 300.221 236.094 298.223 235.559L276.513 229.746C274.514 229.211 273.328 227.159 273.864 225.162L279.681 203.468Z" stroke="white" stroke-opacity="0.2" stroke-width="2" mask="url(#path-1-outside-1_1810_116499)"/>
    <path d="M6.9458 207.949C7.48126 205.952 9.53534 204.767 11.5337 205.302L33.2439 211.115C35.2423 211.65 36.4282 213.703 35.8927 215.699L30.0755 237.393C29.5401 239.39 27.486 240.575 25.4876 240.04L3.7774 234.227C1.77904 233.692 0.59311 231.639 1.12857 229.643L6.9458 207.949Z" stroke="white" stroke-opacity="0.2" stroke-width="2" mask="url(#path-1-outside-1_1810_116499)"/>
    <path d="M151.739 246.717C152.275 244.72 154.329 243.535 156.327 244.07L178.037 249.883C180.036 250.418 181.222 252.47 180.686 254.467L174.869 276.161C174.333 278.157 172.279 279.342 170.281 278.807L148.571 272.995C146.572 272.46 145.387 270.407 145.922 268.41L151.739 246.717Z" stroke="white" stroke-opacity="0.2" stroke-width="2" mask="url(#path-1-outside-1_1810_116499)"/>
    <path d="M79.3133 227.325C79.8487 225.328 81.9028 224.143 83.9012 224.678L105.611 230.491C107.61 231.026 108.796 233.079 108.26 235.075L102.443 256.769C101.908 258.766 99.8534 259.951 97.8551 259.416L76.1449 253.603C74.1465 253.068 72.9606 251.015 73.496 249.019L79.3133 227.325Z" stroke="white" stroke-opacity="0.2" stroke-width="2" mask="url(#path-1-outside-1_1810_116499)"/>
    <path d="M224.107 266.093C224.642 264.096 226.696 262.911 228.695 263.446L250.405 269.259C252.403 269.794 253.589 271.846 253.054 273.843L247.236 295.537C246.701 297.534 244.647 298.719 242.648 298.184L220.938 292.371C218.94 291.836 217.754 289.783 218.289 287.786L224.107 266.093Z" stroke="white" stroke-opacity="0.2" stroke-width="2" mask="url(#path-1-outside-1_1810_116499)"/>
    <path d="M43.1295 217.637C43.665 215.64 45.7191 214.455 47.7174 214.99L69.4276 220.803C71.426 221.338 72.6119 223.391 72.0765 225.387L66.2592 247.081C65.7238 249.078 63.6697 250.263 61.6713 249.728L39.9611 243.915C37.9628 243.38 36.7768 241.327 37.3123 239.331L43.1295 217.637Z" stroke="white" stroke-opacity="0.2" stroke-width="2" mask="url(#path-1-outside-1_1810_116499)"/>
    <path d="M187.923 256.405C188.458 254.408 190.513 253.223 192.511 253.758L214.221 259.571C216.219 260.106 217.405 262.158 216.87 264.155L211.053 285.849C210.517 287.846 208.463 289.031 206.465 288.496L184.755 282.683C182.756 282.148 181.57 280.095 182.106 278.098L187.923 256.405Z" stroke="white" stroke-opacity="0.2" stroke-width="2" mask="url(#path-1-outside-1_1810_116499)"/>
    <path d="M115.497 237.013C116.032 235.016 118.086 233.831 120.085 234.366L141.795 240.179C143.793 240.714 144.979 242.767 144.444 244.763L138.627 266.457C138.091 268.454 136.037 269.639 134.039 269.104L112.329 263.291C110.33 262.756 109.144 260.703 109.68 258.707L115.497 237.013Z" stroke="white" stroke-opacity="0.2" stroke-width="2" mask="url(#path-1-outside-1_1810_116499)"/>
    <path d="M260.29 275.781C260.826 273.784 262.88 272.599 264.878 273.134L286.589 278.947C288.587 279.482 289.773 281.534 289.237 283.531L283.42 305.225C282.885 307.222 280.831 308.407 278.832 307.872L257.122 302.059C255.124 301.524 253.938 299.471 254.473 297.474L260.29 275.781Z" stroke="white" stroke-opacity="0.2" stroke-width="2" mask="url(#path-1-outside-1_1810_116499)"/>
    <path d="M387.58 -51.2247C388.116 -53.2216 390.17 -54.4066 392.168 -53.8715L413.878 -48.0587C415.877 -47.5237 417.062 -45.4712 416.527 -43.4743L410.71 -21.7807C410.174 -19.7838 408.12 -18.5988 406.122 -19.1339L384.412 -24.9467C382.413 -25.4817 381.227 -27.5342 381.763 -29.5311L387.58 -51.2247Z" stroke="white" stroke-opacity="0.2" stroke-width="2" mask="url(#path-1-outside-1_1810_116499)"/>
    <path d="M532.374 -12.457C532.909 -14.4539 534.963 -15.6389 536.961 -15.1038L558.672 -9.29104C560.67 -8.75599 561.856 -6.70348 561.32 -4.70663L555.503 16.987C554.968 18.9839 552.914 20.1689 550.915 19.6338L529.205 13.821C527.207 13.286 526.021 11.2335 526.556 9.23662L532.374 -12.457Z" stroke="white" stroke-opacity="0.2" stroke-width="2" mask="url(#path-1-outside-1_1810_116499)"/>
    <path d="M459.947 -31.8487C460.483 -33.8455 462.537 -35.0306 464.535 -34.4955L486.245 -28.6827C488.244 -28.1477 489.43 -26.0952 488.894 -24.0983L483.077 -2.40467C482.542 -0.407825 480.487 0.777195 478.489 0.242142L456.779 -5.57065C454.781 -6.10571 453.595 -8.15821 454.13 -10.1551L459.947 -31.8487Z" stroke="white" stroke-opacity="0.2" stroke-width="2" mask="url(#path-1-outside-1_1810_116499)"/>
    <path d="M604.741 6.91894C605.276 4.9221 607.33 3.73708 609.329 4.27213L631.039 10.0849C633.037 10.62 634.223 12.6725 633.688 14.6693L627.871 36.363C627.335 38.3598 625.281 39.5448 623.283 39.0098L601.572 33.197C599.574 32.6619 598.388 30.6094 598.924 28.6126L604.741 6.91894Z" stroke="white" stroke-opacity="0.2" stroke-width="2" mask="url(#path-1-outside-1_1810_116499)"/>
    <path d="M423.764 -41.5367C424.299 -43.5336 426.353 -44.7186 428.352 -44.1835L450.062 -38.3707C452.06 -37.8357 453.246 -35.7832 452.711 -33.7863L446.894 -12.0927C446.358 -10.0958 444.304 -8.91082 442.306 -9.44588L420.595 -15.2587C418.597 -15.7937 417.411 -17.8462 417.947 -19.8431L423.764 -41.5367Z" stroke="white" stroke-opacity="0.2" stroke-width="2" mask="url(#path-1-outside-1_1810_116499)"/>
    <path d="M568.557 -2.76907C569.093 -4.76591 571.147 -5.95093 573.145 -5.41588L594.855 0.396915C596.854 0.931969 598.04 2.98447 597.504 4.98132L591.687 26.675C591.151 28.6718 589.097 29.8568 587.099 29.3218L565.389 23.509C563.391 22.9739 562.205 20.9214 562.74 18.9246L568.557 -2.76907Z" stroke="white" stroke-opacity="0.2" stroke-width="2" mask="url(#path-1-outside-1_1810_116499)"/>
    <path d="M496.131 -22.1608C496.667 -24.1576 498.721 -25.3426 500.719 -24.8076L522.429 -18.9948C524.428 -18.4597 525.613 -16.4072 525.078 -14.4104L519.261 7.28325C518.725 9.28009 516.671 10.4651 514.673 9.93006L492.963 4.11726C490.964 3.58221 489.778 1.5297 490.314 -0.467144L496.131 -22.1608Z" stroke="white" stroke-opacity="0.2" stroke-width="2" mask="url(#path-1-outside-1_1810_116499)"/>
    <path d="M640.924 16.6069C641.46 14.6101 643.514 13.425 645.512 13.9601L667.223 19.7729C669.221 20.3079 670.407 22.3605 669.871 24.3573L664.054 46.0509C663.519 48.0478 661.465 49.2328 659.466 48.6978L637.756 42.885C635.758 42.3499 634.572 40.2974 635.107 38.3006L640.924 16.6069Z" stroke="white" stroke-opacity="0.2" stroke-width="2" mask="url(#path-1-outside-1_1810_116499)"/>
    <path d="M368.189 21.0874C368.725 19.0906 370.779 17.9055 372.777 18.4406L394.487 24.2534C396.486 24.7884 397.672 26.8409 397.136 28.8378L391.319 50.5314C390.783 52.5283 388.729 53.7133 386.731 53.1782L365.021 47.3654C363.022 46.8304 361.836 44.7779 362.372 42.781L368.189 21.0874Z" stroke="white" stroke-opacity="0.2" stroke-width="2" mask="url(#path-1-outside-1_1810_116499)"/>
    <path d="M512.983 59.855C513.518 57.8582 515.572 56.6732 517.57 57.2082L539.281 63.021C541.279 63.5561 542.465 65.6086 541.93 67.6054L536.112 89.2991C535.577 91.2959 533.523 92.4809 531.524 91.9459L509.814 86.1331C507.816 85.5981 506.63 83.5455 507.165 81.5487L512.983 59.855Z" stroke="white" stroke-opacity="0.2" stroke-width="2" mask="url(#path-1-outside-1_1810_116499)"/>
    <path d="M440.557 40.4634C441.092 38.4666 443.146 37.2815 445.144 37.8166L466.855 43.6294C468.853 44.1644 470.039 46.2169 469.504 48.2138L463.686 69.9074C463.151 71.9043 461.097 73.0893 459.098 72.5542L437.388 66.7415C435.39 66.2064 434.204 64.1539 434.739 62.157L440.557 40.4634Z" stroke="white" stroke-opacity="0.2" stroke-width="2" mask="url(#path-1-outside-1_1810_116499)"/>
    <path d="M585.35 79.231C585.885 77.2342 587.94 76.0492 589.938 76.5842L611.648 82.397C613.646 82.9321 614.832 84.9846 614.297 86.9814L608.48 108.675C607.944 110.672 605.89 111.857 603.892 111.322L582.182 105.509C580.183 104.974 578.997 102.922 579.533 100.925L585.35 79.231Z" stroke="white" stroke-opacity="0.2" stroke-width="2" mask="url(#path-1-outside-1_1810_116499)"/>
    <path d="M404.373 30.7754C404.908 28.7786 406.962 27.5936 408.961 28.1286L430.671 33.9414C432.669 34.4765 433.855 36.529 433.32 38.5258L427.503 60.2195C426.967 62.2163 424.913 63.4013 422.915 62.8663L401.204 57.0535C399.206 56.5184 398.02 54.4659 398.556 52.4691L404.373 30.7754Z" stroke="white" stroke-opacity="0.2" stroke-width="2" mask="url(#path-1-outside-1_1810_116499)"/>
    <path d="M549.166 69.5431C549.702 67.5462 551.756 66.3612 553.754 66.8963L575.464 72.7091C577.463 73.2441 578.649 75.2966 578.113 77.2935L572.296 98.9871C571.761 100.984 569.706 102.169 567.708 101.634L545.998 95.8211C544 95.2861 542.814 93.2336 543.349 91.2367L549.166 69.5431Z" stroke="white" stroke-opacity="0.2" stroke-width="2" mask="url(#path-1-outside-1_1810_116499)"/>
    <path d="M476.74 50.1514C477.276 48.1545 479.33 46.9695 481.328 47.5046L503.038 53.3173C505.037 53.8524 506.223 55.9049 505.687 57.9018L499.87 79.5954C499.335 81.5922 497.28 82.7773 495.282 82.2422L473.572 76.4294C471.574 75.8944 470.388 73.8419 470.923 71.845L476.74 50.1514Z" stroke="white" stroke-opacity="0.2" stroke-width="2" mask="url(#path-1-outside-1_1810_116499)"/>
    <path d="M621.534 88.919C622.069 86.9222 624.123 85.7372 626.122 86.2722L647.832 92.085C649.83 92.6201 651.016 94.6726 650.481 96.6694L644.663 118.363C644.128 120.36 642.074 121.545 640.075 121.01L618.365 115.197C616.367 114.662 615.181 112.61 615.716 110.613L621.534 88.919Z" stroke="white" stroke-opacity="0.2" stroke-width="2" mask="url(#path-1-outside-1_1810_116499)"/>
    <path d="M377.885 -15.0686C378.42 -17.0655 380.474 -18.2505 382.473 -17.7154L404.183 -11.9026C406.181 -11.3676 407.367 -9.31506 406.832 -7.31822L401.014 14.3754C400.479 16.3723 398.425 17.5573 396.426 17.0222L374.716 11.2094C372.718 10.6744 371.532 8.62188 372.067 6.62503L377.885 -15.0686Z" stroke="white" stroke-opacity="0.2" stroke-width="2" mask="url(#path-1-outside-1_1810_116499)"/>
    <path d="M522.678 23.6991C523.214 21.7022 525.268 20.5172 527.266 21.0522L548.976 26.865C550.975 27.4001 552.16 29.4526 551.625 31.4494L545.808 53.1431C545.272 55.1399 543.218 56.3249 541.22 55.7899L519.51 49.9771C517.511 49.442 516.325 47.3895 516.861 45.3927L522.678 23.6991Z" stroke="white" stroke-opacity="0.2" stroke-width="2" mask="url(#path-1-outside-1_1810_116499)"/>
    <path d="M450.252 4.3074C450.788 2.31055 452.842 1.12553 454.84 1.66059L476.55 7.47338C478.549 8.00843 479.734 10.0609 479.199 12.0578L473.382 33.7514C472.846 35.7483 470.792 36.9333 468.794 36.3982L447.084 30.5854C445.085 30.0504 443.899 27.9979 444.435 26.001L450.252 4.3074Z" stroke="white" stroke-opacity="0.2" stroke-width="2" mask="url(#path-1-outside-1_1810_116499)"/>
    <path d="M595.045 43.0751C595.581 41.0782 597.635 39.8932 599.633 40.4283L621.344 46.2411C623.342 46.7761 624.528 48.8286 623.992 50.8255L618.175 72.5191C617.64 74.516 615.586 75.701 613.587 75.1659L591.877 69.3531C589.879 68.8181 588.693 66.7656 589.228 64.7687L595.045 43.0751Z" stroke="white" stroke-opacity="0.2" stroke-width="2" mask="url(#path-1-outside-1_1810_116499)"/>
    <path d="M414.068 -5.38057C414.604 -7.37741 416.658 -8.56244 418.656 -8.02738L440.366 -2.21458C442.365 -1.67953 443.551 0.372978 443.015 2.36982L437.198 24.0635C436.663 26.0603 434.609 27.2453 432.61 26.7103L410.9 20.8975C408.902 20.3624 407.716 18.3099 408.251 16.3131L414.068 -5.38057Z" stroke="white" stroke-opacity="0.2" stroke-width="2" mask="url(#path-1-outside-1_1810_116499)"/>
    <path d="M558.862 33.3871C559.397 31.3902 561.451 30.2052 563.45 30.7403L585.16 36.5531C587.158 37.0881 588.344 39.1406 587.809 41.1375L581.992 62.8311C581.456 64.828 579.402 66.013 577.404 65.4779L555.693 59.6651C553.695 59.1301 552.509 57.0776 553.045 55.0807L558.862 33.3871Z" stroke="white" stroke-opacity="0.2" stroke-width="2" mask="url(#path-1-outside-1_1810_116499)"/>
    <path d="M486.436 13.9954C486.971 11.9985 489.025 10.8135 491.024 11.3485L512.734 17.1613C514.732 17.6964 515.918 19.7489 515.383 21.7458L509.565 43.4394C509.03 45.4362 506.976 46.6213 504.978 46.0862L483.267 40.2734C481.269 39.7384 480.083 37.6858 480.619 35.689L486.436 13.9954Z" stroke="white" stroke-opacity="0.2" stroke-width="2" mask="url(#path-1-outside-1_1810_116499)"/>
    <path d="M631.229 52.763C631.765 50.7662 633.819 49.5812 635.817 50.1162L657.527 55.929C659.526 56.4641 660.712 58.5166 660.176 60.5134L654.359 82.207C653.823 84.2039 651.769 85.3889 649.771 84.8539L628.061 79.0411C626.062 78.506 624.876 76.4535 625.412 74.4566L631.229 52.763Z" stroke="white" stroke-opacity="0.2" stroke-width="2" mask="url(#path-1-outside-1_1810_116499)"/>
    <path d="M358.494 57.2435C359.029 55.2467 361.083 54.0617 363.082 54.5967L384.792 60.4095C386.79 60.9446 387.976 62.9971 387.441 64.9939L381.623 86.6876C381.088 88.6844 379.034 89.8694 377.035 89.3344L355.325 83.5216C353.327 82.9865 352.141 80.934 352.676 78.9372L358.494 57.2435Z" stroke="white" stroke-opacity="0.2" stroke-width="2" mask="url(#path-1-outside-1_1810_116499)"/>
    <path d="M503.287 96.0112C503.823 94.0143 505.877 92.8293 507.875 93.3644L529.585 99.1772C531.584 99.7122 532.769 101.765 532.234 103.762L526.417 125.455C525.881 127.452 523.827 128.637 521.829 128.102L500.119 122.289C498.12 121.754 496.934 119.702 497.47 117.705L503.287 96.0112Z" stroke="white" stroke-opacity="0.2" stroke-width="2" mask="url(#path-1-outside-1_1810_116499)"/>
    <path d="M430.861 76.6195C431.397 74.6227 433.451 73.4376 435.449 73.9727L457.159 79.7855C459.158 80.3205 460.344 82.373 459.808 84.3699L453.991 106.064C453.455 108.06 451.401 109.245 449.403 108.71L427.693 102.898C425.694 102.363 424.508 100.31 425.044 98.3132L430.861 76.6195Z" stroke="white" stroke-opacity="0.2" stroke-width="2" mask="url(#path-1-outside-1_1810_116499)"/>
    <path d="M575.655 115.387C576.19 113.39 578.244 112.205 580.242 112.74L601.953 118.553C603.951 119.088 605.137 121.141 604.602 123.138L598.784 144.831C598.249 146.828 596.195 148.013 594.196 147.478L572.486 141.665C570.488 141.13 569.302 139.078 569.837 137.081L575.655 115.387Z" stroke="white" stroke-opacity="0.2" stroke-width="2" mask="url(#path-1-outside-1_1810_116499)"/>
    <path d="M394.677 66.9315C395.213 64.9346 397.267 63.7496 399.265 64.2847L420.975 70.0975C422.974 70.6325 424.16 72.685 423.624 74.6819L417.807 96.3755C417.272 98.3724 415.218 99.5574 413.219 99.0223L391.509 93.2095C389.511 92.6745 388.325 90.622 388.86 88.6251L394.677 66.9315Z" stroke="white" stroke-opacity="0.2" stroke-width="2" mask="url(#path-1-outside-1_1810_116499)"/>
    <path d="M539.471 105.699C540.006 103.702 542.06 102.517 544.059 103.052L565.769 108.865C567.767 109.4 568.953 111.453 568.418 113.45L562.601 135.143C562.065 137.14 560.011 138.325 558.013 137.79L536.302 131.977C534.304 131.442 533.118 129.39 533.654 127.393L539.471 105.699Z" stroke="white" stroke-opacity="0.2" stroke-width="2" mask="url(#path-1-outside-1_1810_116499)"/>
    <path d="M467.045 86.3075C467.58 84.3106 469.634 83.1256 471.633 83.6607L493.343 89.4734C495.341 90.0085 496.527 92.061 495.992 94.0579L490.174 115.751C489.639 117.748 487.585 118.933 485.587 118.398L463.876 112.586C461.878 112.05 460.692 109.998 461.228 108.001L467.045 86.3075Z" stroke="white" stroke-opacity="0.2" stroke-width="2" mask="url(#path-1-outside-1_1810_116499)"/>
    <path d="M611.838 125.075C612.374 123.078 614.428 121.893 616.426 122.428L638.136 128.241C640.135 128.776 641.321 130.829 640.785 132.826L634.968 154.519C634.432 156.516 632.378 157.701 630.38 157.166L608.67 151.353C606.671 150.818 605.485 148.766 606.021 146.769L611.838 125.075Z" stroke="white" stroke-opacity="0.2" stroke-width="2" mask="url(#path-1-outside-1_1810_116499)"/>
    <path d="M348.799 93.3996C349.334 91.4028 351.388 90.2178 353.386 90.7528L375.097 96.5656C377.095 97.1006 378.281 99.1532 377.746 101.15L371.928 122.844C371.393 124.84 369.339 126.026 367.34 125.49L345.63 119.678C343.632 119.143 342.446 117.09 342.981 115.093L348.799 93.3996Z" stroke="white" stroke-opacity="0.2" stroke-width="2" mask="url(#path-1-outside-1_1810_116499)"/>
    <path d="M493.592 132.167C494.127 130.17 496.182 128.985 498.18 129.52L519.89 135.333C521.888 135.868 523.074 137.921 522.539 139.918L516.722 161.611C516.186 163.608 514.132 164.793 512.134 164.258L490.424 158.445C488.425 157.91 487.239 155.858 487.775 153.861L493.592 132.167Z" stroke="white" stroke-opacity="0.2" stroke-width="2" mask="url(#path-1-outside-1_1810_116499)"/>
    <path d="M421.166 112.776C421.702 110.779 423.756 109.594 425.754 110.129L447.464 115.942C449.463 116.477 450.648 118.529 450.113 120.526L444.296 142.22C443.76 144.217 441.706 145.402 439.708 144.867L417.998 139.054C415.999 138.519 414.813 136.466 415.349 134.469L421.166 112.776Z" stroke="white" stroke-opacity="0.2" stroke-width="2" mask="url(#path-1-outside-1_1810_116499)"/>
    <path d="M565.959 151.543C566.495 149.546 568.549 148.361 570.547 148.897L592.257 154.709C594.256 155.244 595.442 157.297 594.906 159.294L589.089 180.987C588.554 182.984 586.499 184.169 584.501 183.634L562.791 177.821C560.793 177.286 559.607 175.234 560.142 173.237L565.959 151.543Z" stroke="white" stroke-opacity="0.2" stroke-width="2" mask="url(#path-1-outside-1_1810_116499)"/>
    <path d="M384.982 103.088C385.518 101.091 387.572 99.9058 389.57 100.441L411.28 106.254C413.279 106.789 414.465 108.841 413.929 110.838L408.112 132.532C407.577 134.529 405.522 135.714 403.524 135.178L381.814 129.366C379.816 128.831 378.63 126.778 379.165 124.781L384.982 103.088Z" stroke="white" stroke-opacity="0.2" stroke-width="2" mask="url(#path-1-outside-1_1810_116499)"/>
    <path d="M529.776 141.855C530.311 139.858 532.365 138.673 534.364 139.208L556.074 145.021C558.072 145.556 559.258 147.609 558.723 149.606L552.905 171.299C552.37 173.296 550.316 174.481 548.318 173.946L526.607 168.133C524.609 167.598 523.423 165.546 523.959 163.549L529.776 141.855Z" stroke="white" stroke-opacity="0.2" stroke-width="2" mask="url(#path-1-outside-1_1810_116499)"/>
    <path d="M457.35 122.464C457.885 120.467 459.939 119.282 461.937 119.817L483.648 125.63C485.646 126.165 486.832 128.217 486.297 130.214L480.479 151.908C479.944 153.904 477.89 155.089 475.891 154.554L454.181 148.742C452.183 148.207 450.997 146.154 451.532 144.157L457.35 122.464Z" stroke="white" stroke-opacity="0.2" stroke-width="2" mask="url(#path-1-outside-1_1810_116499)"/>
    <path d="M602.143 161.231C602.679 159.234 604.733 158.049 606.731 158.584L628.441 164.397C630.44 164.932 631.625 166.985 631.09 168.982L625.273 190.675C624.737 192.672 622.683 193.857 620.685 193.322L598.975 187.509C596.976 186.974 595.79 184.922 596.326 182.925L602.143 161.231Z" stroke="white" stroke-opacity="0.2" stroke-width="2" mask="url(#path-1-outside-1_1810_116499)"/>
    <path d="M329.408 165.712C329.943 163.715 331.997 162.53 333.996 163.065L355.706 168.878C357.704 169.413 358.89 171.465 358.355 173.462L352.537 195.156C352.002 197.153 349.948 198.338 347.949 197.803L326.239 191.99C324.241 191.455 323.055 189.402 323.59 187.405L329.408 165.712Z" stroke="white" stroke-opacity="0.2" stroke-width="2" mask="url(#path-1-outside-1_1810_116499)"/>
    <path d="M474.201 204.479C474.737 202.483 476.791 201.298 478.789 201.833L500.499 207.645C502.498 208.18 503.683 210.233 503.148 212.23L497.331 233.923C496.795 235.92 494.741 237.105 492.743 236.57L471.033 230.757C469.034 230.222 467.848 228.17 468.384 226.173L474.201 204.479Z" stroke="white" stroke-opacity="0.2" stroke-width="2" mask="url(#path-1-outside-1_1810_116499)"/>
    <path d="M401.775 185.088C402.311 183.091 404.365 181.906 406.363 182.441L428.073 188.254C430.072 188.789 431.258 190.841 430.722 192.838L424.905 214.532C424.369 216.529 422.315 217.714 420.317 217.179L398.607 211.366C396.608 210.831 395.422 208.778 395.958 206.781L401.775 185.088Z" stroke="white" stroke-opacity="0.2" stroke-width="2" mask="url(#path-1-outside-1_1810_116499)"/>
    <path d="M546.568 223.855C547.104 221.859 549.158 220.674 551.156 221.209L572.867 227.021C574.865 227.556 576.051 229.609 575.515 231.606L569.698 253.299C569.163 255.296 567.109 256.481 565.11 255.946L543.4 250.133C541.402 249.598 540.216 247.546 540.751 245.549L546.568 223.855Z" stroke="white" stroke-opacity="0.2" stroke-width="2" mask="url(#path-1-outside-1_1810_116499)"/>
    <path d="M365.591 175.4C366.127 173.403 368.181 172.218 370.179 172.753L391.889 178.566C393.888 179.101 395.074 181.153 394.538 183.15L388.721 204.844C388.186 206.841 386.132 208.026 384.133 207.491L362.423 201.678C360.425 201.143 359.239 199.09 359.774 197.093L365.591 175.4Z" stroke="white" stroke-opacity="0.2" stroke-width="2" mask="url(#path-1-outside-1_1810_116499)"/>
    <path d="M510.385 214.167C510.92 212.171 512.974 210.986 514.973 211.521L536.683 217.333C538.681 217.868 539.867 219.921 539.332 221.918L533.515 243.611C532.979 245.608 530.925 246.793 528.927 246.258L507.216 240.445C505.218 239.91 504.032 237.858 504.568 235.861L510.385 214.167Z" stroke="white" stroke-opacity="0.2" stroke-width="2" mask="url(#path-1-outside-1_1810_116499)"/>
    <path d="M437.959 194.776C438.494 192.779 440.548 191.594 442.547 192.129L464.257 197.942C466.255 198.477 467.441 200.529 466.906 202.526L461.089 224.22C460.553 226.217 458.499 227.402 456.501 226.867L434.79 221.054C432.792 220.519 431.606 218.466 432.142 216.469L437.959 194.776Z" stroke="white" stroke-opacity="0.2" stroke-width="2" mask="url(#path-1-outside-1_1810_116499)"/>
    <path d="M582.752 233.543C583.288 231.546 585.342 230.361 587.34 230.896L609.05 236.709C611.049 237.244 612.234 239.297 611.699 241.294L605.882 262.987C605.346 264.984 603.292 266.169 601.294 265.634L579.584 259.821C577.585 259.286 576.399 257.234 576.935 255.237L582.752 233.543Z" stroke="white" stroke-opacity="0.2" stroke-width="2" mask="url(#path-1-outside-1_1810_116499)"/>
    <path d="M339.103 129.556C339.639 127.559 341.693 126.374 343.691 126.909L365.401 132.722C367.4 133.257 368.586 135.309 368.05 137.306L362.233 159C361.697 160.996 359.643 162.182 357.645 161.646L335.935 155.834C333.936 155.299 332.75 153.246 333.286 151.249L339.103 129.556Z" stroke="white" stroke-opacity="0.2" stroke-width="2" mask="url(#path-1-outside-1_1810_116499)"/>
    <path d="M483.897 168.323C484.432 166.326 486.486 165.141 488.484 165.676L510.195 171.489C512.193 172.024 513.379 174.077 512.843 176.074L507.026 197.767C506.491 199.764 504.437 200.949 502.438 200.414L480.728 194.601C478.73 194.066 477.544 192.014 478.079 190.017L483.897 168.323Z" stroke="white" stroke-opacity="0.2" stroke-width="2" mask="url(#path-1-outside-1_1810_116499)"/>
    <path d="M411.471 148.932C412.006 146.935 414.06 145.75 416.058 146.285L437.769 152.098C439.767 152.633 440.953 154.685 440.418 156.682L434.6 178.376C434.065 180.372 432.011 181.557 430.012 181.022L408.302 175.21C406.304 174.675 405.118 172.622 405.653 170.625L411.471 148.932Z" stroke="white" stroke-opacity="0.2" stroke-width="2" mask="url(#path-1-outside-1_1810_116499)"/>
    <path d="M556.264 187.699C556.799 185.702 558.853 184.517 560.852 185.052L582.562 190.865C584.56 191.4 585.746 193.453 585.211 195.45L579.394 217.143C578.858 219.14 576.804 220.325 574.806 219.79L553.095 213.977C551.097 213.442 549.911 211.39 550.447 209.393L556.264 187.699Z" stroke="white" stroke-opacity="0.2" stroke-width="2" mask="url(#path-1-outside-1_1810_116499)"/>
    <path d="M375.287 139.244C375.822 137.247 377.876 136.062 379.875 136.597L401.585 142.41C403.583 142.945 404.769 144.997 404.234 146.994L398.417 168.688C397.881 170.685 395.827 171.87 393.829 171.334L372.118 165.522C370.12 164.987 368.934 162.934 369.47 160.937L375.287 139.244Z" stroke="white" stroke-opacity="0.2" stroke-width="2" mask="url(#path-1-outside-1_1810_116499)"/>
    <path d="M520.08 178.011C520.616 176.014 522.67 174.829 524.668 175.365L546.378 181.177C548.377 181.712 549.563 183.765 549.027 185.762L543.21 207.455C542.674 209.452 540.62 210.637 538.622 210.102L516.912 204.289C514.914 203.754 513.728 201.702 514.263 199.705L520.08 178.011Z" stroke="white" stroke-opacity="0.2" stroke-width="2" mask="url(#path-1-outside-1_1810_116499)"/>
    <path d="M447.654 158.62C448.19 156.623 450.244 155.438 452.242 155.973L473.952 161.786C475.951 162.321 477.136 164.373 476.601 166.37L470.784 188.064C470.248 190.06 468.194 191.246 466.196 190.71L444.486 184.898C442.487 184.363 441.301 182.31 441.837 180.313L447.654 158.62Z" stroke="white" stroke-opacity="0.2" stroke-width="2" mask="url(#path-1-outside-1_1810_116499)"/>
    <path d="M592.448 197.387C592.983 195.39 595.037 194.205 597.035 194.74L618.746 200.553C620.744 201.088 621.93 203.141 621.394 205.138L615.577 226.831C615.042 228.828 612.988 230.013 610.989 229.478L589.279 223.665C587.281 223.13 586.095 221.078 586.63 219.081L592.448 197.387Z" stroke="white" stroke-opacity="0.2" stroke-width="2" mask="url(#path-1-outside-1_1810_116499)"/>
    <path d="M319.712 201.868C320.248 199.871 322.302 198.686 324.3 199.221L346.01 205.034C348.009 205.569 349.195 207.621 348.659 209.618L342.842 231.312C342.306 233.309 340.252 234.494 338.254 233.959L316.544 228.146C314.545 227.611 313.359 225.558 313.895 223.561L319.712 201.868Z" stroke="white" stroke-opacity="0.2" stroke-width="2" mask="url(#path-1-outside-1_1810_116499)"/>
    <path d="M464.506 240.635C465.041 238.639 467.095 237.454 469.094 237.989L490.804 243.801C492.802 244.336 493.988 246.389 493.453 248.386L487.635 270.079C487.1 272.076 485.046 273.261 483.047 272.726L461.337 266.914C459.339 266.378 458.153 264.326 458.688 262.329L464.506 240.635Z" stroke="white" stroke-opacity="0.2" stroke-width="2" mask="url(#path-1-outside-1_1810_116499)"/>
    <path d="M392.08 221.244C392.615 219.247 394.669 218.062 396.668 218.597L418.378 224.41C420.376 224.945 421.562 226.997 421.027 228.994L415.209 250.688C414.674 252.685 412.62 253.87 410.621 253.335L388.911 247.522C386.913 246.987 385.727 244.934 386.262 242.937L392.08 221.244Z" stroke="white" stroke-opacity="0.2" stroke-width="2" mask="url(#path-1-outside-1_1810_116499)"/>
    <path d="M536.873 260.012C537.409 258.015 539.463 256.83 541.461 257.365L563.171 263.177C565.169 263.713 566.355 265.765 565.82 267.762L560.003 289.456C559.467 291.452 557.413 292.637 555.415 292.102L533.705 286.29C531.706 285.754 530.52 283.702 531.056 281.705L536.873 260.012Z" stroke="white" stroke-opacity="0.2" stroke-width="2" mask="url(#path-1-outside-1_1810_116499)"/>
    <path d="M355.896 211.556C356.431 209.559 358.485 208.374 360.484 208.909L382.194 214.722C384.192 215.257 385.378 217.309 384.843 219.306L379.026 241C378.49 242.997 376.436 244.182 374.438 243.647L352.728 237.834C350.729 237.299 349.543 235.246 350.079 233.249L355.896 211.556Z" stroke="white" stroke-opacity="0.2" stroke-width="2" mask="url(#path-1-outside-1_1810_116499)"/>
    <path d="M500.689 250.324C501.225 248.327 503.279 247.142 505.277 247.677L526.987 253.49C528.986 254.025 530.172 256.077 529.636 258.074L523.819 279.768C523.284 281.764 521.23 282.949 519.231 282.414L497.521 276.602C495.523 276.067 494.337 274.014 494.872 272.017L500.689 250.324Z" stroke="white" stroke-opacity="0.2" stroke-width="2" mask="url(#path-1-outside-1_1810_116499)"/>
    <path d="M428.263 230.932C428.799 228.935 430.853 227.75 432.851 228.285L454.561 234.098C456.56 234.633 457.746 236.685 457.21 238.682L451.393 260.376C450.858 262.373 448.804 263.558 446.805 263.023L425.095 257.21C423.097 256.675 421.911 254.622 422.446 252.625L428.263 230.932Z" stroke="white" stroke-opacity="0.2" stroke-width="2" mask="url(#path-1-outside-1_1810_116499)"/>
    <path d="M573.057 269.7C573.592 267.703 575.646 266.518 577.645 267.053L599.355 272.866C601.353 273.401 602.539 275.453 602.004 277.45L596.186 299.144C595.651 301.14 593.597 302.325 591.599 301.79L569.888 295.978C567.89 295.443 566.704 293.39 567.24 291.393L573.057 269.7Z" stroke="white" stroke-opacity="0.2" stroke-width="2" mask="url(#path-1-outside-1_1810_116499)"/>
</svg>
