<svg width="36" height="48" viewBox="0 0 36 48" fill="none" xmlns="http://www.w3.org/2000/svg">
    <path d="M33.1085 19.7604H30.8341V12.835C30.8341 5.75844 25.0769 0 18.0008 0C10.922 0 5.1659 5.75767 5.1659 12.835V19.7604H2.89224C1.58366 19.7604 0.523438 20.8211 0.523438 22.1292V45.6313C0.523438 46.9394 1.58366 48 2.89224 48H33.1086C34.4145 48 35.4774 46.9394 35.4774 45.6313V22.1292C35.4774 20.8211 34.4144 19.7604 33.1085 19.7604ZM9.903 12.835C9.903 8.36916 13.5349 4.73722 18.0006 4.73722C22.4653 4.73722 26.0974 8.36916 26.0974 12.835V19.7604H9.903V12.835Z" fill="#EAEBF3"/>
</svg>