<svg width="116" height="104" viewBox="0 0 116 104" fill="none" xmlns="http://www.w3.org/2000/svg">
    <g opacity="0.3" clip-path="url(#clip0_398_22061)">
        <path d="M88.8717 14.0351L86.1281 13.4769C85.3324 13.315 84.536 13.1552 83.7412 12.9898C83.6869 12.972 83.628 12.9756 83.5765 12.9999C83.525 13.0241 83.4848 13.0671 83.4641 13.1201C82.6334 14.6093 81.8006 16.0971 80.9656 17.5836C80.9477 17.6156 80.9298 17.6461 80.8963 17.7021L80.7465 16.4466C80.5868 15.1188 80.4287 13.7923 80.2723 12.4671C80.2727 12.4082 80.2507 12.3513 80.2107 12.3079C80.1707 12.2645 80.1158 12.2379 80.0572 12.2334C78.3984 11.8989 76.7402 11.561 75.0827 11.2197C75.0386 11.2112 74.9947 11.1984 74.9176 11.1797C75.2102 11.0434 75.4664 10.9267 75.7242 10.8071C75.7756 10.7874 75.8255 10.7643 75.8738 10.738C76.2824 10.481 76.7442 10.4862 77.2011 10.4708C79.5303 10.3913 81.841 10.6065 84.1417 10.9864C84.1916 10.9952 84.2422 11.0018 84.2929 11.0084C84.2929 11.0084 84.3042 10.998 84.3287 10.9852C84.1468 10.8724 83.9679 10.7567 83.7867 10.6432C82.5926 9.90178 81.3364 9.30319 79.9743 8.94227C79.9309 8.93326 79.8921 8.90912 79.8648 8.87416C79.8375 8.83921 79.8234 8.79573 79.8252 8.75153C79.6464 7.22446 79.4662 5.69635 79.2846 4.16721L79.2031 3.50349L79.3149 3.62488L82.7539 7.36018C82.9062 7.52558 82.9097 7.52938 83.1105 7.43565L87.7537 5.31821C87.7766 5.30831 87.8003 5.29917 87.8543 5.27609C87.8206 5.33937 87.7994 5.37991 87.776 5.42109C86.944 6.90484 86.1121 8.3886 85.2801 9.87236C85.2495 9.91635 85.2374 9.97067 85.2464 10.0237C85.2554 10.0767 85.2848 10.1243 85.3282 10.1561C86.4836 11.4111 87.6386 12.6656 88.7931 13.9195L88.886 14.0204L88.8717 14.0351Z" fill="#6E6A97"/>
    </g>
    <g opacity="0.3" clip-path="url(#clip1_398_22061)">
        <path d="M8.29652 86.142L6.93918 83.6932C6.54555 82.9831 6.14977 82.2737 5.75944 81.5619C5.73764 81.5091 5.69664 81.4666 5.64478 81.4432C5.59292 81.4198 5.53411 81.4172 5.48033 81.4358C3.80848 81.7713 2.13624 82.1043 0.463604 82.4348C0.427642 82.4419 0.392821 82.4481 0.328514 82.4591L1.18591 81.5297C2.09184 80.5459 2.99787 79.5643 3.90399 78.5847C3.94899 78.5468 3.97797 78.493 3.98502 78.4344C3.99207 78.3759 3.97668 78.3168 3.94196 78.2693C3.11904 76.7907 2.29908 75.3104 1.48209 73.8283C1.45994 73.7893 1.44121 73.7476 1.40533 73.6768C1.69897 73.8108 1.95415 73.9298 2.2125 74.0482C2.26085 74.0744 2.31085 74.0974 2.36218 74.1171C2.82296 74.2609 3.11897 74.6154 3.42737 74.9528C5.00053 76.6723 6.33758 78.5691 7.54288 80.5653C7.56861 80.609 7.59649 80.6518 7.62438 80.6946C7.62438 80.6946 7.63965 80.6965 7.66525 80.7068C7.6329 80.4952 7.60463 80.284 7.5733 80.0725C7.3616 78.683 7.00091 77.339 6.39074 76.0689C6.36943 76.03 6.36258 75.9848 6.37141 75.9414C6.38024 75.8979 6.40417 75.859 6.43892 75.8316C7.48402 74.7039 8.52899 73.5745 9.57383 72.4433L10.0256 71.9502L10.0058 72.1141L9.39901 77.155C9.37214 77.3783 9.37152 77.3834 9.57318 77.4752L14.1988 79.6307C14.2212 79.6417 14.2435 79.6538 14.2962 79.6798C14.2261 79.6953 14.1815 79.7055 14.135 79.7145C12.4665 80.0455 10.7979 80.3765 9.12935 80.7075C9.07604 80.7128 9.02688 80.7389 8.99238 80.7802C8.95789 80.8214 8.9408 80.8746 8.94478 80.9284C8.7409 82.622 8.53711 84.315 8.33339 86.0072L8.317 86.1434L8.29652 86.142Z" fill="#6E6A97"/>
    </g>
    <g opacity="0.3" clip-path="url(#clip2_398_22061)">
        <path d="M63.4445 52.1461L55.6099 51.302C53.3378 51.0572 51.0641 50.8187 48.7935 50.5636C48.6367 50.5282 48.4725 50.5538 48.3344 50.6352C48.1962 50.7167 48.0945 50.8478 48.05 51.0019C46.1026 55.3951 44.149 59.7853 42.189 64.1723C42.1468 64.2666 42.1045 64.3568 42.0251 64.5226L41.2833 61.042C40.4954 57.3614 39.7124 53.684 38.9344 50.0098C38.9205 49.8447 38.8441 49.6909 38.7209 49.5797C38.5978 49.4685 38.437 49.4082 38.2714 49.4111C33.5353 48.9092 28.8 48.3976 24.0656 47.8764C23.9399 47.8642 23.8136 47.8396 23.5925 47.8075C24.378 47.3486 25.0664 46.954 25.7585 46.551C25.8974 46.4822 26.0316 46.4044 26.1603 46.3181C27.2399 45.4902 28.5359 45.3833 29.8127 45.22C36.3223 44.3851 42.8555 44.3812 49.403 44.8418C49.545 44.8532 49.6888 44.8585 49.8326 44.8637C49.8326 44.8637 49.8616 44.8315 49.927 44.7893C49.388 44.5207 48.8568 44.2435 48.3197 43.9728C44.7823 42.208 41.107 40.8599 37.1959 40.206C37.072 40.1921 36.957 40.1346 36.8714 40.0438C36.7859 39.953 36.7353 39.8348 36.7289 39.7104C35.8365 35.4761 34.9399 31.2393 34.0391 26.9999L33.6404 25.1606L33.9849 25.4715L44.5834 35.04C45.0527 35.4637 45.0635 35.4735 45.6023 35.1579L58.0771 28.0014C58.1389 27.9676 58.2028 27.9358 58.3483 27.8569C58.27 28.0432 58.2209 28.1624 58.1659 28.284C56.2136 32.6624 54.2614 37.0409 52.3092 41.4193C52.2347 41.5507 52.2147 41.7062 52.2534 41.8525C52.2922 41.9988 52.3867 42.1244 52.5166 42.2023C56.0775 45.4171 59.6368 48.6306 63.1948 51.8427L63.4811 52.1012L63.4445 52.1461Z" fill="#6E6A97"/>
    </g>
    <g opacity="0.3" clip-path="url(#clip3_398_22061)">
        <path d="M108.35 33.5433L106.861 37.7132C106.429 38.9225 106 40.1335 105.563 41.3406C105.523 41.4216 105.516 41.5147 105.542 41.6009C105.568 41.6871 105.627 41.7599 105.705 41.8045C107.85 43.4465 109.992 45.0916 112.132 46.7397C112.178 46.7751 112.221 46.8101 112.302 46.8753L110.303 46.8227C108.188 46.7691 106.076 46.7131 103.967 46.6548C103.875 46.6407 103.781 46.6622 103.704 46.7149C103.627 46.7676 103.573 46.8475 103.553 46.9384C102.657 49.4602 101.756 51.9803 100.85 54.4986C100.827 54.5657 100.797 54.6315 100.75 54.7481C100.603 54.2585 100.477 53.8304 100.348 53.3993C100.329 53.3143 100.304 53.2308 100.273 53.1491C99.9627 52.4503 100.074 51.728 100.153 51.0089C100.551 47.3421 101.406 43.7718 102.517 40.2548C102.542 40.1787 102.563 40.1008 102.585 40.023C102.585 40.023 102.571 40.0029 102.557 39.9616C102.34 40.2207 102.118 40.4746 101.9 40.7324C100.472 42.4331 99.2527 44.264 98.3821 46.315C98.3583 46.3809 98.3118 46.4362 98.251 46.471C98.1901 46.5058 98.1189 46.5178 98.0501 46.505C95.6195 46.4355 93.187 46.3681 90.7525 46.3026L89.6953 46.2784L89.9104 46.1311L96.5291 41.5988C96.8222 41.3981 96.8289 41.3935 96.7272 41.0576L94.4542 33.2997C94.4438 33.2615 94.4348 33.2224 94.4108 33.1325C94.5023 33.1998 94.561 33.2423 94.6202 33.2884C96.7562 34.9311 98.8923 36.5739 101.028 38.2166C101.09 38.2746 101.173 38.306 101.258 38.304C101.343 38.3021 101.424 38.267 101.483 38.2062C103.707 36.6835 105.93 35.1614 108.152 33.6398L108.331 33.5174L108.35 33.5433Z" fill="#6E6A97"/>
    </g>
    <g opacity="0.3">
        <path d="M58.5571 100.663L57.3285 96.2276C56.9722 94.9413 56.6122 93.6554 56.2618 92.3677C56.2473 92.2749 56.198 92.1913 56.1241 92.1338C56.0501 92.0764 55.957 92.0494 55.8638 92.0584C53.0592 91.947 50.255 91.8315 47.451 91.7119C47.3908 91.7093 47.3327 91.7057 47.2255 91.6984L48.9556 90.5462C50.7843 89.3259 52.6124 88.1091 54.4397 86.8956C54.5264 86.8524 54.5934 86.7779 54.6273 86.687C54.6611 86.5962 54.6593 86.496 54.622 86.4066C53.8748 83.7271 53.133 81.046 52.3967 78.3633C52.3762 78.2924 52.3624 78.2185 52.3322 78.0916C52.7505 78.4193 53.1129 78.7081 53.4808 78.997C53.548 79.0576 53.6192 79.1137 53.6937 79.165C54.3757 79.5729 54.7128 80.2536 55.0763 80.9117C56.9312 84.2663 58.34 87.8126 59.4997 91.4667C59.524 91.5462 59.5521 91.6254 59.5803 91.7046C59.5803 91.7046 59.604 91.7135 59.641 91.7399C59.6708 91.3894 59.7069 91.0413 59.7382 90.6914C59.9348 88.3908 59.8754 86.1051 59.3883 83.8408C59.3692 83.7705 59.3756 83.6957 59.4065 83.6297C59.4374 83.5637 59.4907 83.5108 59.5569 83.4805C61.6637 82.0843 63.771 80.6853 65.8788 79.2834L66.7916 78.6709L66.6969 78.9249L63.7838 86.7395C63.6548 87.0855 63.6518 87.0935 63.9391 87.3181L70.5107 92.5503C70.5423 92.5766 70.5733 92.6044 70.6475 92.6664C70.5295 92.664 70.4542 92.6631 70.3763 92.6594C67.5788 92.5421 64.7812 92.4249 61.9836 92.3077C61.8962 92.2955 61.8075 92.3181 61.7364 92.3707C61.6653 92.4232 61.6175 92.5016 61.6031 92.5889C60.6244 95.2144 59.646 97.8388 58.6681 100.462L58.5894 100.673L58.5571 100.663Z" fill="#6E6A97"/>
    </g>
    <defs>
        <clipPath id="clip0_398_22061">
            <rect width="14.3033" height="13.5484" fill="white" transform="translate(83.0059) rotate(47.3642)"/>
        </clipPath>
        <clipPath id="clip1_398_22061">
            <rect width="14.3033" height="13.5484" fill="white" transform="translate(15.1602 72.5674) rotate(96.8642)"/>
        </clipPath>
        <clipPath id="clip2_398_22061">
            <rect width="40.2243" height="38.1905" fill="white" transform="translate(43.4062 14.3398) rotate(42.0762)"/>
        </clipPath>
        <clipPath id="clip3_398_22061">
            <rect width="22.5979" height="21.468" fill="white" transform="translate(85.0645 39.5186) rotate(-34.4024)"/>
        </clipPath>
    </defs>
</svg>