<svg width="116" height="104" viewBox="0 0 116 104" fill="none" xmlns="http://www.w3.org/2000/svg">
    <g opacity="0.3" clip-path="url(#clip0_398_22076)">
        <path d="M26.9682 14.0351L29.7118 13.4769C30.5074 13.315 31.3038 13.1552 32.0986 12.9898C32.1529 12.972 32.2118 12.9756 32.2633 12.9999C32.3148 13.0241 32.355 13.0671 32.3757 13.1201C33.2064 14.6093 34.0393 16.0971 34.8742 17.5836C34.8922 17.6156 34.9101 17.6461 34.9435 17.7021L35.0934 16.4466C35.2531 15.1188 35.4111 13.7923 35.5675 12.4671C35.5671 12.4082 35.5892 12.3513 35.6291 12.3079C35.6691 12.2645 35.724 12.2379 35.7827 12.2334C37.4415 11.8989 39.0996 11.561 40.7572 11.2197C40.8012 11.2112 40.8451 11.1984 40.9223 11.1797C40.6296 11.0434 40.3734 10.9267 40.1156 10.8071C40.0643 10.7874 40.0143 10.7643 39.966 10.738C39.5574 10.481 39.0956 10.4862 38.6388 10.4708C36.3096 10.3913 33.9989 10.6065 31.6981 10.9864C31.6483 10.9952 31.5976 11.0018 31.5469 11.0084C31.5469 11.0084 31.5356 10.998 31.5111 10.9852C31.6931 10.8724 31.872 10.7567 32.0532 10.6432C33.2472 9.90178 34.5034 9.30319 35.8656 8.94227C35.9089 8.93326 35.9477 8.90912 35.9751 8.87416C36.0024 8.83921 36.0164 8.79573 36.0147 8.75153C36.1934 7.22446 36.3736 5.69635 36.5552 4.16721L36.6368 3.50349L36.525 3.62488L33.0859 7.36018C32.9336 7.52558 32.9301 7.52938 32.7293 7.43565L28.0861 5.31821C28.0632 5.30831 28.0396 5.29917 27.9856 5.27609C28.0193 5.33937 28.0405 5.37991 28.0639 5.42109C28.8958 6.90484 29.7278 8.3886 30.5597 9.87236C30.5903 9.91635 30.6024 9.97067 30.5934 10.0237C30.5844 10.0767 30.5551 10.1243 30.5116 10.1561C29.3562 11.4111 28.2012 12.6656 27.0467 13.9195L26.9538 14.0204L26.9682 14.0351Z" fill="#6E6A97"/>
    </g>
    <g opacity="0.3" clip-path="url(#clip1_398_22076)">
        <path d="M107.543 86.142L108.901 83.6932C109.294 82.9831 109.69 82.2737 110.08 81.5619C110.102 81.5091 110.143 81.4666 110.195 81.4432C110.247 81.4198 110.306 81.4172 110.36 81.4358C112.031 81.7713 113.704 82.1043 115.376 82.4348C115.412 82.4419 115.447 82.4481 115.511 82.4591L114.654 81.5297C113.748 80.5459 112.842 79.5643 111.936 78.5847C111.891 78.5468 111.862 78.493 111.855 78.4344C111.848 78.3759 111.863 78.3168 111.898 78.2693C112.721 76.7907 113.541 75.3104 114.358 73.8283C114.38 73.7893 114.399 73.7476 114.435 73.6768C114.141 73.8108 113.886 73.9298 113.627 74.0482C113.579 74.0744 113.529 74.0974 113.478 74.1171C113.017 74.2609 112.721 74.6154 112.412 74.9528C110.839 76.6723 109.502 78.5691 108.297 80.5653C108.271 80.609 108.243 80.6518 108.215 80.6946C108.215 80.6946 108.2 80.6965 108.175 80.7068C108.207 80.4952 108.235 80.284 108.267 80.0725C108.478 78.683 108.839 77.339 109.449 76.0689C109.47 76.03 109.477 75.9848 109.468 75.9414C109.46 75.8979 109.436 75.859 109.401 75.8316C108.356 74.7039 107.311 73.5745 106.266 72.4433L105.814 71.9502L105.834 72.1141L106.441 77.155C106.468 77.3783 106.468 77.3834 106.267 77.4752L101.641 79.6307C101.619 79.6417 101.596 79.6538 101.544 79.6798C101.614 79.6953 101.658 79.7055 101.705 79.7145C103.373 80.0455 105.042 80.3765 106.71 80.7075C106.764 80.7128 106.813 80.7389 106.847 80.7802C106.882 80.8214 106.899 80.8746 106.895 80.9284C107.099 82.622 107.303 84.315 107.506 86.0072L107.523 86.1434L107.543 86.142Z" fill="#6E6A97"/>
    </g>
    <g opacity="0.3" clip-path="url(#clip2_398_22076)">
        <path d="M52.3953 52.1461L60.23 51.302C62.502 51.0572 64.7758 50.8187 67.0463 50.5636C67.2031 50.5282 67.3674 50.5538 67.5055 50.6352C67.6436 50.7167 67.7453 50.8478 67.7899 51.0019C69.7372 55.3951 71.6909 59.7853 73.6509 64.1723C73.693 64.2666 73.7354 64.3568 73.8148 64.5226L74.5566 61.042C75.3445 57.3614 76.1274 53.684 76.9054 50.0098C76.9194 49.8447 76.9957 49.6909 77.1189 49.5797C77.2421 49.4685 77.4028 49.4082 77.5685 49.4111C82.3046 48.9092 87.0398 48.3976 91.7742 47.8764C91.8999 47.8642 92.0263 47.8396 92.2473 47.8075C91.4618 47.3486 90.7734 46.954 90.0814 46.551C89.9425 46.4822 89.8083 46.4044 89.6796 46.3181C88.6 45.4902 87.3039 45.3833 86.0272 45.22C79.5175 44.3851 72.9844 44.3812 66.4369 44.8418C66.2948 44.8532 66.1511 44.8585 66.0073 44.8637C66.0073 44.8637 65.9782 44.8315 65.9128 44.7893C66.4518 44.5207 66.9831 44.2435 67.5202 43.9728C71.0576 42.208 74.7328 40.8599 78.644 40.206C78.7678 40.1921 78.8828 40.1346 78.9684 40.0438C79.054 39.953 79.1045 39.8348 79.1109 39.7104C80.0033 35.4761 80.8999 31.2393 81.8007 26.9999L82.1994 25.1606L81.855 25.4715L71.2565 35.04C70.7872 35.4637 70.7764 35.4735 70.2375 35.1579L57.7627 28.0014C57.701 27.9676 57.6371 27.9358 57.4916 27.8569C57.5699 28.0432 57.6189 28.1624 57.674 28.284C59.6262 32.6624 61.5785 37.0409 63.5307 41.4193C63.6052 41.5507 63.6252 41.7062 63.5864 41.8525C63.5476 41.9988 63.4532 42.1244 63.3232 42.2023C59.7624 45.4171 56.203 48.6306 52.645 51.8427L52.3587 52.1012L52.3953 52.1461Z" fill="#6E6A97"/>
    </g>
    <g opacity="0.3" clip-path="url(#clip3_398_22076)">
        <path d="M7.48952 33.5433L8.97881 37.7132C9.4107 38.9225 9.83942 40.1335 10.2768 41.3406C10.3167 41.4216 10.3242 41.5147 10.2979 41.6009C10.2715 41.6871 10.2132 41.7599 10.1348 41.8045C7.99007 43.4465 5.84783 45.0916 3.70812 46.7397C3.66212 46.7751 3.61839 46.8101 3.5382 46.8753L5.53724 46.8227C7.65158 46.7691 9.76353 46.7131 11.8731 46.6548C11.9651 46.6407 12.0592 46.6622 12.1361 46.7149C12.213 46.7676 12.2671 46.8475 12.2872 46.9384C13.183 49.4602 14.0839 51.9803 14.9899 54.4986C15.0131 54.5657 15.0431 54.6315 15.0896 54.7481C15.2373 54.2585 15.3625 53.8304 15.4919 53.3993C15.5113 53.3143 15.5362 53.2308 15.5664 53.1491C15.8771 52.4503 15.7654 51.728 15.6871 51.0089C15.289 47.3421 14.4338 43.7718 13.323 40.2548C13.2981 40.1787 13.2763 40.1008 13.2546 40.023C13.2546 40.023 13.2684 40.0029 13.2828 39.9616C13.5003 40.2207 13.7215 40.4746 13.9399 40.7324C15.3683 42.4331 16.5872 44.264 17.4577 46.315C17.4815 46.3809 17.528 46.4362 17.5889 46.471C17.6497 46.5058 17.721 46.5178 17.7898 46.505C20.2203 46.4355 22.6528 46.3681 25.0873 46.3026L26.1446 46.2784L25.9295 46.1311L19.3108 41.5988C19.0177 41.3981 19.011 41.3935 19.1126 41.0576L21.3857 33.2997C21.396 33.2615 21.405 33.2224 21.4291 33.1325C21.3376 33.1998 21.2788 33.2423 21.2196 33.2884C19.0836 34.9311 16.9476 36.5739 14.8115 38.2166C14.7495 38.2746 14.6672 38.306 14.5822 38.304C14.4971 38.3021 14.4161 38.267 14.3565 38.2062C12.1328 36.6835 9.90995 35.1614 7.68803 33.6398L7.50922 33.5174L7.48952 33.5433Z" fill="#6E6A97"/>
    </g>
    <g opacity="0.3">
        <path d="M57.2827 100.663L58.5113 96.2276C58.8676 94.9413 59.2277 93.6554 59.578 92.3677C59.5926 92.2749 59.6418 92.1913 59.7158 92.1338C59.7897 92.0764 59.8828 92.0494 59.9761 92.0584C62.7807 91.947 65.5849 91.8315 68.3888 91.7119C68.4491 91.7093 68.5072 91.7057 68.6143 91.6984L66.8842 90.5462C65.0555 89.3259 63.2275 88.1091 61.4001 86.8956C61.3135 86.8524 61.2464 86.7779 61.2126 86.687C61.1787 86.5962 61.1806 86.496 61.2178 86.4066C61.965 83.7271 62.7068 81.046 63.4432 78.3633C63.4636 78.2924 63.4775 78.2185 63.5076 78.0916C63.0894 78.4193 62.7269 78.7081 62.3591 78.997C62.2918 79.0576 62.2207 79.1137 62.1461 79.165C61.4642 79.5729 61.1271 80.2536 60.7635 80.9117C58.9086 84.2663 57.4998 87.8126 56.3402 91.4667C56.3158 91.5462 56.2877 91.6254 56.2596 91.7046C56.2596 91.7046 56.2359 91.7135 56.1989 91.7399C56.1691 91.3894 56.133 91.0413 56.1016 90.6914C55.9051 88.3908 55.9644 86.1051 56.4515 83.8408C56.4706 83.7705 56.4642 83.6957 56.4333 83.6297C56.4024 83.5637 56.3491 83.5108 56.283 83.4805C54.1761 82.0843 52.0688 80.6853 49.961 79.2834L49.0482 78.6709L49.1429 78.9249L52.0561 86.7395C52.1851 87.0855 52.1881 87.0935 51.9007 87.3181L45.3292 92.5503C45.2976 92.5766 45.2665 92.6044 45.1923 92.6664C45.3103 92.664 45.3856 92.6631 45.4635 92.6594C48.2611 92.5421 51.0587 92.4249 53.8563 92.3077C53.9436 92.2955 54.0323 92.3181 54.1034 92.3707C54.1745 92.4232 54.2224 92.5016 54.2367 92.5889C55.2155 95.2144 56.1938 97.8388 57.1718 100.462L57.2505 100.673L57.2827 100.663Z" fill="#6E6A97"/>
    </g>
    <defs>
        <clipPath id="clip0_398_22076">
            <rect width="14.3033" height="13.5484" fill="white" transform="matrix(-0.677336 0.735674 0.735674 0.677336 32.834 0)"/>
        </clipPath>
        <clipPath id="clip1_398_22076">
            <rect width="14.3033" height="13.5484" fill="white" transform="matrix(0.119516 0.992832 0.992832 -0.119516 100.68 72.5674)"/>
        </clipPath>
        <clipPath id="clip2_398_22076">
            <rect width="40.2243" height="38.1905" fill="white" transform="matrix(-0.742254 0.670119 0.670119 0.742254 72.4336 14.3398)"/>
        </clipPath>
        <clipPath id="clip3_398_22076">
            <rect width="22.5979" height="21.468" fill="white" transform="matrix(-0.82509 -0.565002 -0.565002 0.82509 30.7754 39.5186)"/>
        </clipPath>
    </defs>
</svg>