<svg width="143" height="87" viewBox="0 0 143 87" fill="none" xmlns="http://www.w3.org/2000/svg">
    <path d="M139.142 54.2012C139.118 53.8575 139.229 53.5181 139.45 53.2546C139.671 52.991 139.985 52.8239 140.326 52.7882L140.182 51.4158C139.832 51.4525 139.482 51.3483 139.209 51.1261C138.935 50.9039 138.761 50.5819 138.724 50.2309C138.687 49.8799 138.791 49.5287 139.012 49.2545C139.233 48.9803 139.554 48.8056 139.904 48.7689L139.754 47.3474C139.405 47.3842 139.055 47.28 138.781 47.0578C138.508 46.8356 138.334 46.5136 138.297 46.1626C138.26 45.8116 138.363 45.4603 138.585 45.1862C138.806 44.912 139.127 44.7373 139.476 44.7005L139.337 43.3771C138.987 43.4139 138.637 43.3097 138.364 43.0875C138.091 42.8653 137.916 42.5433 137.879 42.1923C137.842 41.8413 137.946 41.49 138.167 41.2159C138.388 40.9417 138.709 40.767 139.059 40.7302L138.915 39.3578C138.565 39.3945 138.215 39.2904 137.942 39.0681C137.668 38.8459 137.494 38.5239 137.457 38.1729C137.42 37.8219 137.524 37.4707 137.745 37.1965C137.966 36.9223 138.287 36.7477 138.637 36.7109L138.497 35.3875C138.31 35.4449 138.113 35.4602 137.919 35.432C137.726 35.4039 137.541 35.3331 137.377 35.2247C137.214 35.1163 137.077 34.9731 136.975 34.8052C136.873 34.6373 136.81 34.449 136.79 34.2537C136.769 34.0584 136.792 33.861 136.856 33.6757C136.921 33.4903 137.025 33.3216 137.163 33.1817C137.3 33.0417 137.466 32.934 137.65 32.8662C137.833 32.7984 138.029 32.7723 138.224 32.7896L138.08 31.4171C137.73 31.4539 137.38 31.3497 137.107 31.1275C136.834 30.9053 136.659 30.5833 136.622 30.2323C136.585 29.8813 136.689 29.5301 136.91 29.2559C137.131 28.9817 137.452 28.807 137.802 28.7703L137.663 27.4468C137.313 27.4836 136.963 27.3794 136.69 27.1572C136.416 26.935 136.242 26.613 136.205 26.262C136.168 25.911 136.272 25.5598 136.493 25.2856C136.714 25.0114 137.035 24.8367 137.385 24.8L137.246 23.4765C136.896 23.5133 136.546 23.4091 136.272 23.1869C135.999 22.9647 135.825 22.6427 135.788 22.2917C135.751 21.9407 135.854 21.5895 136.076 21.3153C136.297 21.0411 136.618 20.8664 136.967 20.8296L136.854 19.7513C136.504 19.788 136.154 19.6839 135.881 19.4617C135.607 19.2395 135.433 18.9174 135.396 18.5665C135.359 18.2155 135.463 17.8642 135.684 17.59C135.905 17.3159 136.226 17.1412 136.576 17.1044L136.432 15.732C132.312 16.1649 128.189 14.9379 124.97 12.3209C121.75 9.70382 119.697 5.91115 119.262 1.77718L16.113 12.6186C16.5475 16.7526 15.3279 20.8892 12.7225 24.1185C10.1171 27.3478 6.33938 29.4052 2.22031 29.8381L2.3388 30.9655C2.72091 30.9253 3.10339 31.0392 3.40209 31.2819C3.70079 31.5247 3.89124 31.8766 3.93155 32.26C3.97185 32.6435 3.85871 33.0273 3.61702 33.3269C3.37532 33.6264 3.02487 33.8173 2.64276 33.8575H2.64276L2.78701 35.2299C3.12841 35.1938 3.47057 35.292 3.7415 35.5038C4.01242 35.7157 4.19099 36.0246 4.23962 36.3657C4.21429 36.6788 4.07939 36.9728 3.85879 37.1955C3.63819 37.4182 3.34613 37.5554 3.03429 37.5827V37.5827L3.15794 38.7591C3.50767 38.7223 3.85773 38.8265 4.13112 39.0487C4.4045 39.2709 4.57881 39.5929 4.6157 39.9439C4.6526 40.2949 4.54905 40.6461 4.32783 40.9203C4.10662 41.1945 3.78587 41.3692 3.43613 41.406L3.57523 42.7294C3.92497 42.6926 4.27503 42.7968 4.54841 43.019C4.8218 43.2412 4.99611 43.5632 5.033 43.9142C5.06989 44.2652 4.96634 44.6165 4.74513 44.8906C4.52392 45.1648 4.20316 45.3395 3.85343 45.3763V45.3763L3.99253 46.6997C4.36817 46.6602 4.74416 46.7721 5.0378 47.0108C5.33143 47.2494 5.51866 47.5953 5.55828 47.9723C5.5979 48.3493 5.48668 48.7265 5.24909 49.021C5.01149 49.3155 4.66697 49.5032 4.29133 49.5426H4.29133L4.43043 50.8661C4.61748 50.8086 4.81492 50.7934 5.00858 50.8215C5.20225 50.8497 5.38734 50.9205 5.55058 51.0288C5.71382 51.1372 5.85117 51.2805 5.95277 51.4484C6.05437 51.6162 6.1177 51.8046 6.13823 51.9999C6.15875 52.1952 6.13596 52.3925 6.07149 52.5779C6.00701 52.7632 5.90245 52.9319 5.76531 53.0719C5.62817 53.2118 5.46184 53.3195 5.27826 53.3873C5.09468 53.4551 4.89839 53.4813 4.70348 53.4639V53.4639L4.84773 54.8364C5.01786 54.8118 5.1912 54.822 5.35736 54.8663C5.52353 54.9106 5.6791 54.9881 5.81474 55.0942C5.95039 55.2002 6.06331 55.3327 6.14676 55.4836C6.2302 55.6344 6.28244 55.8006 6.30035 55.9722C6.32561 56.1494 6.315 56.3299 6.26916 56.5028C6.22331 56.6757 6.14317 56.8375 6.03352 56.9786C5.92388 57.1197 5.78699 57.2371 5.63104 57.3238C5.4751 57.4105 5.3033 57.4647 5.12593 57.4833V57.4833L5.27018 58.8557C5.61991 58.819 5.96998 58.9231 6.24336 59.1453C6.51674 59.3675 6.69106 59.6896 6.72795 60.0406C6.76484 60.3916 6.66129 60.7428 6.44008 61.017C6.21886 61.2912 5.89811 61.4658 5.54838 61.5026V61.5026L5.68748 62.826C6.03721 62.7893 6.38727 62.8935 6.66066 63.1157C6.93404 63.3379 7.10835 63.6599 7.14524 64.0109C7.18214 64.3619 7.07858 64.7131 6.85737 64.9873C6.63616 65.2615 6.31541 65.4362 5.96567 65.4729V65.4729L6.10477 66.7963C6.45451 66.7596 6.80457 66.8638 7.07795 67.086C7.35134 67.3082 7.52565 67.6302 7.56254 67.9812C7.59943 68.3322 7.49588 68.6834 7.27467 68.9576C7.05346 69.2318 6.7327 69.4065 6.38297 69.4432V69.4432L6.52207 70.7667C10.6411 70.3337 14.7641 71.5607 17.984 74.1778C21.2038 76.7948 23.2568 80.5875 23.6913 84.7214L126.841 73.88C126.419 69.7487 127.644 65.6191 130.247 62.3929C132.85 59.1667 136.62 57.1059 140.733 56.6605L140.594 55.3371C140.253 55.3732 139.911 55.275 139.64 55.0631C139.369 54.8513 139.19 54.5423 139.142 54.2012V54.2012Z" fill="url(#paint0_linear_2540_108512)"/>
    <g style="mix-blend-mode:multiply">
        <path d="M120.594 67.1034L29.6057 76.6666L29.5799 76.4215C28.0788 73.2971 25.8993 70.5493 23.2018 68.3801C20.5043 66.2109 17.3573 64.6754 13.9919 63.8864V63.8864L10.9678 35.1139C14.0939 33.6209 16.8438 31.4394 19.0128 28.7318C21.1819 26.0241 22.7142 22.8601 23.4959 19.475L23.4701 19.2299L114.556 9.65637L114.582 9.90145C116.069 13.0245 118.232 15.7757 120.913 17.9544C123.594 20.1332 126.724 21.6847 130.077 22.4959L130.321 22.4702L133.335 51.1447L133.091 51.1703C129.974 52.6636 127.23 54.8391 125.061 57.5369C122.892 60.2347 121.353 63.3864 120.558 66.7603L120.594 67.1034ZM30.0271 75.9781L120.039 66.5175C120.888 63.1182 122.472 59.9486 124.678 57.233C126.884 54.5175 129.659 52.3226 132.806 50.8039L129.895 23.1097C126.529 22.2512 123.389 20.6676 120.694 18.4691C117.998 16.2705 115.812 13.5097 114.286 10.3785L24.1283 19.8545C23.29 23.2358 21.7264 26.3923 19.5466 29.1037C17.3668 31.815 14.6234 34.0159 11.5077 35.5527L14.4184 63.2469C17.7869 64.0992 20.9294 65.6804 23.6257 67.8797C26.322 70.0789 28.5069 72.843 30.0271 75.9781V75.9781Z" fill="url(#paint1_linear_2540_108512)"/>
    </g>
    <defs>
        <linearGradient id="paint0_linear_2540_108512" x1="-4.89173" y1="33.1131" x2="139.812" y2="52.0631" gradientUnits="userSpaceOnUse">
            <stop stop-color="#7E2CBF"/>
            <stop offset="0.17" stop-color="#B643DF"/>
            <stop offset="0.31" stop-color="#B957C9"/>
            <stop offset="0.58" stop-color="#FD8BF2"/>
            <stop offset="0.77" stop-color="#CD42BF"/>
            <stop offset="0.86" stop-color="#BA2CBD"/>
            <stop offset="1" stop-color="#A539B6"/>
        </linearGradient>
        <linearGradient id="paint1_linear_2540_108512" x1="11.6907" y1="49.5088" x2="131.543" y2="36.9118" gradientUnits="userSpaceOnUse">
            <stop offset="0.15" stop-color="#4C112C"/>
            <stop offset="0.31" stop-color="#653A11"/>
            <stop offset="0.53" stop-color="#FDB25C"/>
            <stop offset="0.77" stop-color="#6D4709"/>
            <stop offset="1" stop-color="#4C112C"/>
        </linearGradient>
    </defs>
</svg>
