<svg width="40" height="40" viewBox="0 0 40 40" fill="none" xmlns="http://www.w3.org/2000/svg">
    <path d="M20 4L33.8564 12V28L20 36L6.14359 28V12L20 4Z" fill="url(#paint0_linear_2540_108522)"/>
    <path d="M3.17949 10.2887L20 0.57735L36.8205 10.2887V29.7113L20 39.4226L3.17949 29.7113V10.2887Z" stroke="url(#paint1_linear_2540_108522)"/>
    <g clip-path="url(#clip0_2540_108522)">
        <path d="M17.4242 26.8729C17.6212 27.1021 17.462 27.465 17.1684 27.465C17.0741 27.465 16.9802 27.4249 16.9125 27.3461C16.5612 26.9376 16.2398 26.5147 15.9487 26.0788C15.4965 26.3744 15.104 26.663 14.3845 26.663C13.598 26.663 12.8426 26.258 12.3995 25.529L12.0296 24.9206C11.9287 24.7545 11.9767 24.535 12.1368 24.4303C12.4478 24.2908 13.3642 23.3023 14.7575 23.8138C14.5258 23.2291 14.3374 22.6237 14.1943 21.9568L13.8278 22.0223C12.5581 22.2494 11.3426 21.3642 11.1229 20.0423L11.005 19.3335C10.9729 19.14 11.098 18.9561 11.2846 18.9228C11.6088 18.9205 12.8251 18.3682 13.9236 19.383C13.9227 18.8848 13.9501 18.3796 14.0058 17.8681L13.6417 17.8057C12.3681 17.5871 11.5035 16.3347 11.7142 15.0139L11.8275 14.3044C11.8584 14.1107 12.0348 13.9795 12.2216 14.0117L12.9058 14.1292C14.1794 14.3477 15.0441 15.6001 14.8333 16.9209C14.2292 20.7061 14.922 23.9632 17.4242 26.8729ZM28.7154 18.9228C28.392 18.9205 27.1749 18.3684 26.0763 19.383C26.0773 18.8848 26.0499 18.3796 25.9942 17.8681L26.3583 17.8056C27.6348 17.5865 28.4971 16.3379 28.2858 15.0139L28.1725 14.3043C28.1416 14.1106 27.9651 13.9796 27.7784 14.0117L27.0942 14.1291C25.8176 14.3482 24.9554 15.5968 25.1667 16.9209C25.2368 17.3605 25.2273 17.3002 25.2317 17.3281C25.7748 20.8491 24.9381 24.1263 22.5757 26.8732C22.3786 27.1024 22.5378 27.4653 22.8313 27.4653C22.9256 27.4653 23.0196 27.4252 23.0873 27.3464C23.4387 26.9378 23.7602 26.5148 24.0514 26.0788C24.5036 26.3744 24.8959 26.663 25.6156 26.663C26.402 26.663 27.1574 26.258 27.6006 25.529L27.9704 24.9206C28.0714 24.7545 28.0234 24.535 27.8633 24.4303C27.1625 23.9722 26.4315 23.3773 25.2426 23.8138C25.4743 23.229 25.6626 22.6237 25.8057 21.9568C26.2976 22.0447 27.0674 22.2375 27.9202 21.6132C28.8183 20.9558 28.8668 20.1046 28.995 19.3335C29.0271 19.14 28.902 18.9561 28.7154 18.9228Z" fill="#EAEBF3"/>
    </g>
    <defs>
        <linearGradient id="paint0_linear_2540_108522" x1="20" y1="4" x2="20" y2="36" gradientUnits="userSpaceOnUse">
            <stop stop-color="#7331FF"/>
            <stop offset="1" stop-color="#874FF8"/>
        </linearGradient>
        <linearGradient id="paint1_linear_2540_108522" x1="20" y1="0" x2="20" y2="40" gradientUnits="userSpaceOnUse">
            <stop stop-color="#7331FF"/>
            <stop offset="1" stop-color="#874FF8"/>
        </linearGradient>
        <clipPath id="clip0_2540_108522">
            <rect width="18" height="14" fill="white" transform="translate(11 14)"/>
        </clipPath>
    </defs>
</svg>
