<svg width="66" height="85" viewBox="0 0 66 85" fill="none" xmlns="http://www.w3.org/2000/svg">
    <path d="M16.8118 11.0592C16.5463 11.0592 16.331 10.8439 16.331 10.5784V2.40418C16.331 1.07639 15.2546 0 13.9268 0C12.599 0 11.5226 1.07639 11.5226 2.40418V10.5784C11.5226 10.8439 11.3073 11.0592 11.0418 11.0592H2.86756C1.53977 11.0592 0.463379 12.1356 0.463379 13.4634C0.463379 14.7912 1.53977 15.8676 2.86756 15.8676H11.0418C11.3073 15.8676 11.5226 16.0829 11.5226 16.3484V24.5226C11.5226 25.8504 12.599 26.9268 13.9268 26.9268C15.2546 26.9268 16.331 25.8504 16.331 24.5226V16.3484C16.331 16.0829 16.5463 15.8676 16.8118 15.8676H24.986C26.3138 15.8676 27.3902 14.7912 27.3902 13.4634C27.3902 12.1356 26.3138 11.0592 24.986 11.0592H16.8118Z" fill="white" fill-opacity="0.03"/>
    <path d="M50.5504 31.1321C50.1742 31.1321 49.8692 30.8271 49.8692 30.4509V18.8708C49.8692 16.9897 48.3443 15.4648 46.4633 15.4648C44.5823 15.4648 43.0574 16.9897 43.0574 18.8708V30.4509C43.0574 30.8271 42.7524 31.1321 42.3762 31.1321H30.7961C28.915 31.1321 27.3901 32.657 27.3901 34.538C27.3901 36.4191 28.915 37.9439 30.7961 37.9439H42.3762C42.7524 37.9439 43.0574 38.2489 43.0574 38.6251V50.2053C43.0574 52.0863 44.5823 53.6112 46.4633 53.6112C48.3443 53.6112 49.8692 52.0863 49.8692 50.2053V38.6251C49.8692 38.2489 50.1742 37.9439 50.5504 37.9439H62.1306C64.0116 37.9439 65.5365 36.4191 65.5365 34.538C65.5365 32.657 64.0116 31.1321 62.1306 31.1321H50.5504Z" fill="white" fill-opacity="0.03"/>
    <path d="M40.3309 69.5208C39.9548 69.5208 39.6497 69.2158 39.6497 68.8396V57.2594C39.6497 55.3784 38.1249 53.8535 36.2438 53.8535C34.3628 53.8535 32.8379 55.3784 32.8379 57.2594V68.8396C32.8379 69.2158 32.5329 69.5208 32.1567 69.5208H20.5766C18.6955 69.5208 17.1707 71.0456 17.1707 72.9267C17.1707 74.8077 18.6955 76.3326 20.5766 76.3326H32.1567C32.5329 76.3326 32.8379 76.6376 32.8379 77.0138V88.5939C32.8379 90.475 34.3628 91.9999 36.2438 91.9999C38.1249 91.9999 39.6497 90.475 39.6497 88.5939V77.0138C39.6497 76.6376 39.9548 76.3326 40.3309 76.3326H51.9111C53.7921 76.3326 55.317 74.8077 55.317 72.9267C55.317 71.0456 53.7921 69.5208 51.9111 69.5208H40.3309Z" fill="url(#paint0_linear_0_1)" fill-opacity="0.5"/>
    <defs>
        <linearGradient id="paint0_linear_0_1" x1="36.2438" y1="66.195" x2="36.2438" y2="89.195" gradientUnits="userSpaceOnUse">
            <stop stop-color="white" stop-opacity="0.1"/>
            <stop offset="1" stop-color="#1F1937" stop-opacity="0"/>
        </linearGradient>
    </defs>
</svg>
