<svg width="116" height="104" viewBox="0 0 116 104" fill="none" xmlns="http://www.w3.org/2000/svg">
<g opacity="0.3" clip-path="url(#clip0_2540_146391)">
<path d="M88.8697 14.0351L86.1261 13.4769C85.3305 13.315 84.5341 13.1552 83.7393 12.9898C83.685 12.972 83.6261 12.9756 83.5746 12.9999C83.5231 13.0241 83.4829 13.0671 83.4622 13.1201C82.6315 14.6093 81.7986 16.0971 80.9637 17.5836C80.9457 17.6156 80.9278 17.6461 80.8944 17.7021L80.7445 16.4466C80.5848 15.1188 80.4268 13.7923 80.2704 12.4671C80.2708 12.4082 80.2487 12.3513 80.2088 12.3079C80.1688 12.2645 80.1139 12.2379 80.0552 12.2334C78.3964 11.8989 76.7383 11.561 75.0807 11.2197C75.0367 11.2112 74.9928 11.1984 74.9156 11.1797C75.2083 11.0434 75.4645 10.9267 75.7223 10.8071C75.7736 10.7874 75.8236 10.7643 75.8719 10.738C76.2805 10.481 76.7423 10.4862 77.1991 10.4708C79.5283 10.3913 81.839 10.6065 84.1397 10.9864C84.1896 10.9952 84.2403 11.0018 84.291 11.0084C84.291 11.0084 84.3023 10.998 84.3268 10.9852C84.1448 10.8724 83.9659 10.7567 83.7847 10.6432C82.5907 9.90178 81.3344 9.30319 79.9723 8.94227C79.929 8.93326 79.8902 8.90912 79.8628 8.87416C79.8355 8.83921 79.8215 8.79573 79.8232 8.75153C79.6444 7.22446 79.4643 5.69635 79.2827 4.16721L79.2011 3.50349L79.3129 3.62488L82.752 7.36018C82.9043 7.52558 82.9078 7.52938 83.1085 7.43565L87.7517 5.31821C87.7747 5.30831 87.7983 5.29917 87.8523 5.27609C87.8186 5.33937 87.7974 5.37991 87.774 5.42109C86.9421 6.90484 86.1101 8.3886 85.2782 9.87236C85.2476 9.91635 85.2355 9.97067 85.2445 10.0237C85.2535 10.0767 85.2828 10.1243 85.3262 10.1561C86.4817 11.4111 87.6367 12.6656 88.7912 13.9195L88.8841 14.0204L88.8697 14.0351Z" fill="#6E6A97"/>
</g>
<g opacity="0.3" clip-path="url(#clip1_2540_146391)">
<path d="M8.30043 86.142L6.94309 83.6932C6.54946 82.9831 6.15367 82.2737 5.76334 81.5619C5.74155 81.5091 5.70054 81.4666 5.64869 81.4432C5.59683 81.4198 5.53802 81.4172 5.48423 81.4358C3.81238 81.7713 2.14014 82.1043 0.46751 82.4348C0.431548 82.4419 0.396727 82.4481 0.332421 82.4591L1.18981 81.5297C2.09575 80.5459 3.00178 79.5643 3.9079 78.5847C3.9529 78.5468 3.98187 78.493 3.98893 78.4344C3.99598 78.3759 3.98058 78.3168 3.94586 78.2693C3.12295 76.7907 2.30299 75.3104 1.48599 73.8283C1.46384 73.7893 1.44512 73.7476 1.40924 73.6768C1.70288 73.8108 1.95805 73.9298 2.2164 74.0482C2.26475 74.0744 2.31476 74.0974 2.36609 74.1171C2.82687 74.2609 3.12287 74.6154 3.43127 74.9528C5.00444 76.6723 6.34148 78.5691 7.54678 80.5653C7.57251 80.609 7.6004 80.6518 7.62828 80.6946C7.62828 80.6946 7.64355 80.6965 7.66915 80.7068C7.63681 80.4952 7.60853 80.284 7.57721 80.0725C7.36551 78.683 7.00482 77.339 6.39464 76.0689C6.37334 76.03 6.36648 75.9848 6.37531 75.9414C6.38414 75.8979 6.40808 75.859 6.44283 75.8316C7.48793 74.7039 8.5329 73.5745 9.57773 72.4433L10.0295 71.9502L10.0097 72.1141L9.40292 77.155C9.37604 77.3783 9.37543 77.3834 9.57709 77.4752L14.2027 79.6307C14.2251 79.6417 14.2474 79.6538 14.3001 79.6798C14.23 79.6953 14.1855 79.7055 14.1389 79.7145C12.4704 80.0455 10.8018 80.3765 9.13326 80.7075C9.07994 80.7128 9.03078 80.7389 8.99629 80.7802C8.96179 80.8214 8.94471 80.8746 8.94869 80.9284C8.74481 82.622 8.54101 84.315 8.3373 86.0072L8.32091 86.1434L8.30043 86.142Z" fill="#6E6A97"/>
</g>
<g opacity="0.3" clip-path="url(#clip2_2540_146391)">
<path d="M63.4406 52.1461L55.606 51.302C53.3339 51.0572 51.0601 50.8187 48.7896 50.5636C48.6328 50.5282 48.4686 50.5538 48.3304 50.6352C48.1923 50.7167 48.0906 50.8478 48.0461 51.0019C46.0987 55.3951 44.1451 59.7853 42.1851 64.1723C42.1429 64.2666 42.1005 64.3568 42.0212 64.5226L41.2794 61.042C40.4915 57.3614 39.7085 53.684 38.9305 50.0098C38.9166 49.8447 38.8402 49.6909 38.717 49.5797C38.5939 49.4685 38.4331 49.4082 38.2675 49.4111C33.5314 48.9092 28.7961 48.3976 24.0617 47.8764C23.936 47.8642 23.8097 47.8396 23.5886 47.8075C24.3741 47.3486 25.0625 46.954 25.7546 46.551C25.8935 46.4822 26.0277 46.4044 26.1564 46.3181C27.2359 45.4902 28.532 45.3833 29.8088 45.22C36.3184 44.3851 42.8516 44.3812 49.3991 44.8418C49.5411 44.8532 49.6849 44.8585 49.8287 44.8637C49.8287 44.8637 49.8577 44.8315 49.9231 44.7893C49.3841 44.5207 48.8528 44.2435 48.3158 43.9728C44.7784 42.208 41.1031 40.8599 37.192 40.206C37.0681 40.1921 36.9531 40.1346 36.8675 40.0438C36.782 39.953 36.7314 39.8348 36.725 39.7104C35.8326 35.4761 34.936 31.2393 34.0352 26.9999L33.6365 25.1606L33.981 25.4715L44.5795 35.04C45.0488 35.4637 45.0595 35.4735 45.5984 35.1579L58.0732 28.0014C58.135 27.9676 58.1989 27.9358 58.3444 27.8569C58.2661 28.0432 58.217 28.1624 58.162 28.284C56.2097 32.6624 54.2575 37.0409 52.3052 41.4193C52.2308 41.5507 52.2108 41.7062 52.2495 41.8525C52.2883 41.9988 52.3828 42.1244 52.5127 42.2023C56.0736 45.4171 59.6329 48.6306 63.1909 51.8427L63.4772 52.1012L63.4406 52.1461Z" fill="#6E6A97"/>
</g>
<g opacity="0.3" clip-path="url(#clip3_2540_146391)">
<path d="M108.348 33.5433L106.859 37.7132C106.427 38.9225 105.998 40.1335 105.561 41.3406C105.521 41.4216 105.514 41.5147 105.54 41.6009C105.566 41.6871 105.625 41.7599 105.703 41.8045C107.848 43.4465 109.99 45.0916 112.13 46.7397C112.176 46.7751 112.22 46.8101 112.3 46.8753L110.301 46.8227C108.186 46.7691 106.074 46.7131 103.965 46.6548C103.873 46.6407 103.779 46.6622 103.702 46.7149C103.625 46.7676 103.571 46.8475 103.551 46.9384C102.655 49.4602 101.754 51.9803 100.848 54.4986C100.825 54.5657 100.795 54.6315 100.748 54.7481C100.601 54.2585 100.475 53.8304 100.346 53.3993C100.327 53.3143 100.302 53.2308 100.271 53.1491C99.9608 52.4503 100.072 51.728 100.151 51.0089C100.549 47.3421 101.404 43.7718 102.515 40.2548C102.54 40.1787 102.562 40.1008 102.583 40.023C102.583 40.023 102.569 40.0029 102.555 39.9616C102.338 40.2207 102.116 40.4746 101.898 40.7324C100.47 42.4331 99.2507 44.264 98.3802 46.315C98.3563 46.3809 98.3098 46.4362 98.249 46.471C98.1882 46.5058 98.1169 46.5178 98.0481 46.505C95.6176 46.4355 93.185 46.3681 90.7506 46.3026L89.6933 46.2784L89.9084 46.1311L96.5271 41.5988C96.8202 41.3981 96.8269 41.3935 96.7253 41.0576L94.4522 33.2997C94.4419 33.2615 94.4328 33.2224 94.4088 33.1325C94.5003 33.1998 94.559 33.2423 94.6182 33.2884C96.7543 34.9311 98.8903 36.5739 101.026 38.2166C101.088 38.2746 101.171 38.306 101.256 38.304C101.341 38.3021 101.422 38.267 101.481 38.2062C103.705 36.6835 105.928 35.1614 108.15 33.6398L108.329 33.5174L108.348 33.5433Z" fill="#6E6A97"/>
</g>
<g opacity="0.3">
<path d="M58.5571 100.663L57.3285 96.2276C56.9722 94.9413 56.6122 93.6554 56.2618 92.3677C56.2473 92.2749 56.198 92.1913 56.1241 92.1338C56.0501 92.0764 55.957 92.0494 55.8638 92.0584C53.0592 91.947 50.255 91.8315 47.451 91.7119C47.3908 91.7093 47.3327 91.7057 47.2255 91.6984L48.9556 90.5462C50.7843 89.3259 52.6124 88.1091 54.4397 86.8956C54.5264 86.8524 54.5934 86.7779 54.6273 86.687C54.6611 86.5962 54.6593 86.496 54.622 86.4066C53.8748 83.7271 53.133 81.046 52.3967 78.3633C52.3762 78.2924 52.3624 78.2185 52.3322 78.0916C52.7505 78.4193 53.1129 78.7081 53.4808 78.997C53.548 79.0576 53.6192 79.1137 53.6937 79.165C54.3757 79.5729 54.7128 80.2536 55.0763 80.9117C56.9312 84.2663 58.34 87.8126 59.4997 91.4667C59.524 91.5462 59.5521 91.6254 59.5803 91.7046C59.5803 91.7046 59.604 91.7135 59.641 91.7399C59.6708 91.3894 59.7069 91.0413 59.7382 90.6914C59.9348 88.3908 59.8754 86.1051 59.3883 83.8408C59.3692 83.7705 59.3756 83.6957 59.4065 83.6297C59.4374 83.5637 59.4907 83.5108 59.5569 83.4805C61.6637 82.0843 63.771 80.6853 65.8788 79.2834L66.7916 78.6709L66.6969 78.9249L63.7838 86.7395C63.6548 87.0855 63.6518 87.0935 63.9391 87.3181L70.5107 92.5503C70.5423 92.5766 70.5733 92.6044 70.6475 92.6664C70.5295 92.664 70.4542 92.6631 70.3763 92.6594C67.5788 92.5421 64.7812 92.4249 61.9836 92.3077C61.8962 92.2955 61.8075 92.3181 61.7364 92.3707C61.6653 92.4232 61.6175 92.5016 61.6031 92.5889C60.6244 95.2144 59.646 97.8388 58.6681 100.462L58.5894 100.673L58.5571 100.663Z" fill="#6E6A97"/>
</g>
<defs>
<clipPath id="clip0_2540_146391">
<rect width="14.3033" height="13.5484" fill="white" transform="translate(83.0078) rotate(47.3642)"/>
</clipPath>
<clipPath id="clip1_2540_146391">
<rect width="14.3033" height="13.5484" fill="white" transform="translate(15.1641 72.5674) rotate(96.8642)"/>
</clipPath>
<clipPath id="clip2_2540_146391">
<rect width="40.2243" height="38.1905" fill="white" transform="translate(43.4062 14.3398) rotate(42.0762)"/>
</clipPath>
<clipPath id="clip3_2540_146391">
<rect width="22.5979" height="21.468" fill="white" transform="translate(85.0625 39.5186) rotate(-34.4024)"/>
</clipPath>
</defs>
</svg>
