<svg width="116" height="104" viewBox="0 0 116 104" fill="none" xmlns="http://www.w3.org/2000/svg">
<g opacity="0.3" clip-path="url(#clip0_2540_146376)">
<path d="M26.974 14.036L29.7176 13.4778C30.5133 13.3159 31.3097 13.1562 32.1045 12.9907C32.1588 12.973 32.2177 12.9766 32.2692 13.0008C32.3207 13.0251 32.3609 13.0681 32.3816 13.1211C33.2123 14.6102 34.0451 16.0981 34.8801 17.5846C34.898 17.6166 34.9159 17.6471 34.9494 17.7031L35.0992 16.4476C35.2589 15.1198 35.417 13.7933 35.5734 12.4681C35.573 12.4092 35.595 12.3523 35.635 12.3089C35.675 12.2655 35.7299 12.2388 35.7885 12.2344C37.4473 11.8999 39.1055 11.562 40.763 11.2207C40.8071 11.2122 40.851 11.1993 40.9281 11.1806C40.6355 11.0444 40.3793 10.9277 40.1215 10.8081C40.0701 10.7883 40.0202 10.7653 39.9719 10.739C39.5633 10.482 39.1015 10.4872 38.6446 10.4718C36.3154 10.3923 34.0047 10.6074 31.704 10.9874C31.6541 10.9961 31.6035 11.0027 31.5528 11.0094C31.5528 11.0094 31.5415 10.9989 31.517 10.9862C31.6989 10.8733 31.8778 10.7577 32.059 10.6441C33.2531 9.90275 34.5093 9.30416 35.8714 8.94325C35.9148 8.93424 35.9536 8.91009 35.9809 8.87514C36.0082 8.84019 36.0223 8.79671 36.0205 8.75251C36.1993 7.22543 36.3795 5.69733 36.5611 4.16819L36.6426 3.50446L36.5308 3.62586L33.0918 7.36115C32.9395 7.52656 32.936 7.53035 32.7352 7.43663L28.092 5.31919C28.0691 5.30929 28.0454 5.30014 27.9914 5.27706C28.0251 5.34034 28.0463 5.38089 28.0698 5.42206C28.9017 6.90582 29.7336 8.38958 30.5656 9.87333C30.5962 9.91732 30.6083 9.97165 30.5993 10.0247C30.5903 10.0777 30.5609 10.1253 30.5175 10.1571C29.3621 11.4121 28.2071 12.6665 27.0526 13.9205L26.9597 14.0214L26.974 14.036Z" fill="#6E6A97"/>
</g>
<g opacity="0.3" clip-path="url(#clip1_2540_146376)">
<path d="M107.543 86.143L108.901 83.6942C109.294 82.9841 109.69 82.2747 110.08 81.5629C110.102 81.5101 110.143 81.4676 110.195 81.4442C110.247 81.4208 110.306 81.4181 110.36 81.4368C112.031 81.7723 113.704 82.1053 115.376 82.4358C115.412 82.4429 115.447 82.4491 115.511 82.46L114.654 81.5307C113.748 80.5469 112.842 79.5652 111.936 78.5856C111.891 78.5477 111.862 78.494 111.855 78.4354C111.848 78.3768 111.863 78.3178 111.898 78.2703C112.721 76.7917 113.541 75.3114 114.358 73.8293C114.38 73.7903 114.399 73.7486 114.435 73.6778C114.141 73.8118 113.886 73.9308 113.627 74.0492C113.579 74.0754 113.529 74.0984 113.478 74.1181C113.017 74.2619 112.721 74.6164 112.412 74.9537C110.839 76.6733 109.502 78.5701 108.297 80.5663C108.271 80.6099 108.243 80.6528 108.215 80.6956C108.215 80.6956 108.2 80.6974 108.175 80.7078C108.207 80.4961 108.235 80.285 108.267 80.0734C108.478 78.684 108.839 77.34 109.449 76.0698C109.47 76.031 109.477 75.9858 109.468 75.9423C109.46 75.8989 109.436 75.8599 109.401 75.8326C108.356 74.7049 107.311 73.5754 106.266 72.4443L105.814 71.9512L105.834 72.115L106.441 77.156C106.468 77.3792 106.468 77.3844 106.267 77.4762L101.641 79.6317C101.619 79.6427 101.596 79.6548 101.544 79.6808C101.614 79.6963 101.658 79.7065 101.705 79.7154C103.373 80.0465 105.042 80.3775 106.71 80.7085C106.764 80.7138 106.813 80.7399 106.847 80.7811C106.882 80.8224 106.899 80.8756 106.895 80.9293C107.099 82.623 107.303 84.3159 107.506 86.0082L107.523 86.1444L107.543 86.143Z" fill="#6E6A97"/>
</g>
<g opacity="0.3" clip-path="url(#clip2_2540_146376)">
<path d="M52.4031 52.1471L60.2378 51.303C62.5098 51.0582 64.7836 50.8197 67.0542 50.5646C67.211 50.5291 67.3752 50.5548 67.5133 50.6362C67.6514 50.7176 67.7531 50.8488 67.7977 51.0029C69.745 55.3961 71.6987 59.7862 73.6587 64.1733C73.7008 64.2676 73.7432 64.3578 73.8226 64.5236L74.5644 61.043C75.3523 57.3624 76.1352 53.685 76.9132 50.0108C76.9272 49.8457 77.0035 49.6919 77.1267 49.5807C77.2499 49.4695 77.4107 49.4092 77.5763 49.4121C82.3124 48.9102 87.0476 48.3986 91.782 47.8774C91.9077 47.8651 92.0341 47.8406 92.2551 47.8084C91.4697 47.3496 90.7812 46.955 90.0892 46.552C89.9503 46.4832 89.8161 46.4053 89.6874 46.319C88.6078 45.4911 87.3117 45.3843 86.035 45.221C79.5253 44.3861 72.9922 44.3821 66.4447 44.8428C66.3026 44.8542 66.1589 44.8594 66.0151 44.8647C66.0151 44.8647 65.986 44.8325 65.9206 44.7903C66.4596 44.5217 66.9909 44.2445 67.528 43.9738C71.0654 42.209 74.7406 40.8609 78.6518 40.2069C78.7756 40.1931 78.8906 40.1356 78.9762 40.0448C79.0618 39.954 79.1123 39.8358 79.1187 39.7114C80.0111 35.4771 80.9077 31.2403 81.8086 27.0009L82.2072 25.1615L81.8628 25.4725L71.2643 35.041C70.795 35.4647 70.7842 35.4744 70.2454 35.1589L57.7705 28.0024C57.7088 27.9686 57.6449 27.9368 57.4994 27.8579C57.5777 28.0442 57.6267 28.1634 57.6818 28.285C59.634 32.6634 61.5863 37.0419 63.5385 41.4203C63.613 41.5517 63.633 41.7071 63.5942 41.8535C63.5554 41.9998 63.461 42.1254 63.331 42.2033C59.7702 45.4181 56.2108 48.6315 52.6529 51.8437L52.3665 52.1022L52.4031 52.1471Z" fill="#6E6A97"/>
</g>
<g opacity="0.3" clip-path="url(#clip3_2540_146376)">
<path d="M7.49538 33.5443L8.98467 37.7142C9.41656 38.9234 9.84528 40.1345 10.2826 41.3416C10.3225 41.4226 10.3301 41.5157 10.3037 41.6019C10.2774 41.6881 10.2191 41.7609 10.1407 41.8055C7.99593 43.4475 5.85369 45.0925 3.71398 46.7406C3.66798 46.7761 3.62425 46.8111 3.54406 46.8763L5.5431 46.8237C7.65744 46.77 9.76939 46.7141 11.879 46.6558C11.971 46.6417 12.065 46.6632 12.142 46.7159C12.2189 46.7685 12.2729 46.8485 12.2931 46.9393C13.1888 49.4612 14.0897 51.9812 14.9958 54.4996C15.0189 54.5667 15.0489 54.6325 15.0955 54.749C15.2431 54.2595 15.3684 53.8314 15.4978 53.4002C15.5171 53.3153 15.542 53.2317 15.5723 53.1501C15.883 52.4512 15.7713 51.729 15.6929 51.0099C15.2949 47.3431 14.4397 43.7728 13.3288 40.2558C13.3039 40.1797 13.2822 40.1018 13.2605 40.0239C13.2605 40.0239 13.2743 40.0038 13.2887 39.9625C13.5062 40.2217 13.7274 40.4755 13.9458 40.7334C15.3742 42.4341 16.593 44.2649 17.4636 46.316C17.4874 46.3818 17.5339 46.4371 17.5948 46.4719C17.6556 46.5068 17.7268 46.5188 17.7956 46.506C20.2262 46.4365 22.6587 46.369 25.0932 46.3036L26.1504 46.2794L25.9353 46.1321L19.3166 41.5998C19.0235 41.3991 19.0168 41.3945 19.1185 41.0585L21.3915 33.3007C21.4019 33.2625 21.4109 33.2234 21.4349 33.1335C21.3434 33.2008 21.2847 33.2433 21.2255 33.2894C19.0895 34.9321 16.9534 36.5748 14.8174 38.2176C14.7554 38.2756 14.673 38.3069 14.588 38.305C14.503 38.3031 14.422 38.268 14.3623 38.2072C12.1386 36.6845 9.91581 35.1623 7.69389 33.6408L7.51508 33.5184L7.49538 33.5443Z" fill="#6E6A97"/>
</g>
<g opacity="0.3">
<path d="M57.2866 100.664L58.5152 96.2286C58.8715 94.9423 59.2316 93.6564 59.5819 92.3687C59.5965 92.2759 59.6457 92.1923 59.7197 92.1348C59.7936 92.0773 59.8867 92.0504 59.98 92.0594C62.7846 91.948 65.5888 91.8325 68.3927 91.7129C68.453 91.7103 68.5111 91.7067 68.6182 91.6993L66.8882 90.5472C65.0594 89.3269 63.2314 88.11 61.404 86.8965C61.3174 86.8534 61.2503 86.7788 61.2165 86.688C61.1826 86.5972 61.1845 86.4969 61.2217 86.4076C61.9689 83.7281 62.7107 81.047 63.4471 78.3643C63.4675 78.2934 63.4814 78.2195 63.5115 78.0926C63.0933 78.4202 62.7308 78.709 62.363 78.998C62.2957 79.0586 62.2246 79.1147 62.15 79.166C61.4681 79.5739 61.131 80.2546 60.7674 80.9126C58.9125 84.2673 57.5037 87.8135 56.3441 91.4676C56.3197 91.5472 56.2916 91.6264 56.2635 91.7056C56.2635 91.7056 56.2398 91.7144 56.2028 91.7409C56.173 91.3904 56.1369 91.0423 56.1055 90.6924C55.909 88.3918 55.9684 86.1061 56.4554 83.8417C56.4745 83.7715 56.4681 83.6967 56.4372 83.6307C56.4063 83.5646 56.353 83.5118 56.2869 83.4815C54.18 82.0853 52.0727 80.6863 49.965 79.2844L49.0521 78.6719L49.1468 78.9259L52.06 86.7404C52.189 87.0865 52.192 87.0944 51.9046 87.3191L45.3331 92.5513C45.3015 92.5776 45.2704 92.6054 45.1962 92.6674C45.3142 92.665 45.3895 92.6641 45.4674 92.6603C48.265 92.5431 51.0626 92.4259 53.8602 92.3086C53.9475 92.2965 54.0362 92.3191 54.1073 92.3717C54.1784 92.4242 54.2263 92.5025 54.2406 92.5899C55.2194 95.2154 56.1977 97.8398 57.1757 100.463L57.2544 100.674L57.2866 100.664Z" fill="#6E6A97"/>
</g>
<defs>
<clipPath id="clip0_2540_146376">
<rect width="14.3033" height="13.5484" fill="white" transform="matrix(-0.677336 0.735674 0.735674 0.677336 32.8359 0.000976562)"/>
</clipPath>
<clipPath id="clip1_2540_146376">
<rect width="14.3033" height="13.5484" fill="white" transform="matrix(0.119516 0.992832 0.992832 -0.119516 100.68 72.5684)"/>
</clipPath>
<clipPath id="clip2_2540_146376">
<rect width="40.2243" height="38.1905" fill="white" transform="matrix(-0.742254 0.670119 0.670119 0.742254 72.4375 14.3408)"/>
</clipPath>
<clipPath id="clip3_2540_146376">
<rect width="22.5979" height="21.468" fill="white" transform="matrix(-0.82509 -0.565002 -0.565002 0.82509 30.7812 39.5195)"/>
</clipPath>
</defs>
</svg>
