<svg width="144" height="31" viewBox="0 0 144 31" fill="none" xmlns="http://www.w3.org/2000/svg">
    <path d="M127.601 15.5711C127.601 11.5733 124.576 8.33961 120.304 8.33961C116.116 8.33961 113.134 11.4491 113.134 15.7214C113.134 20.0153 116.2 23.1464 120.6 23.1464C123.392 23.1464 125.739 21.8981 127.199 19.3592L124.238 17.984C123.541 19.253 122.017 20.0783 120.6 20.0783C118.803 20.0783 116.73 18.7247 116.602 16.8428H127.495C127.565 16.4225 127.6 15.9977 127.601 15.5711ZM116.665 14.3489C116.92 12.4454 118.231 11.198 120.325 11.198C122.398 11.198 123.667 12.4202 123.836 14.3489H116.665ZM86.8278 8.33691C82.5339 8.33691 79.4883 11.4257 79.4883 15.7835C79.4883 20.0981 82.5339 23.1446 86.8701 23.1446C91.227 23.1446 94.2726 20.0981 94.2726 15.8474C94.2735 11.468 91.1433 8.33691 86.8278 8.33691ZM86.871 19.9073C84.7128 19.9073 83.3808 18.2999 83.3808 15.8042C83.3808 13.2662 84.7344 11.5319 86.871 11.5319C89.0283 11.5319 90.3819 13.2446 90.3819 15.8042C90.3819 18.3215 89.049 19.9073 86.871 19.9073ZM71.5386 8.34051C69.78 8.34051 68.4543 8.94171 67.1295 10.4312H66.6948C65.8047 9.08571 64.3521 8.34051 62.7231 8.34051C61.0725 8.32431 59.5146 9.10191 58.5363 10.4312H58.1016L58.08 10.4105V8.63031H54.4395V22.8323H58.3725V15.5234C58.3725 13.1636 59.3661 11.7767 61.0851 11.7767C62.679 11.7767 63.714 12.9575 63.714 14.7575V22.8323H67.6677V15.5234C67.6677 13.1807 68.6613 11.7767 70.401 11.7767C71.9733 11.7767 72.9876 12.9575 72.9876 14.7791V22.8323H76.9422V14.3021C76.9422 10.5977 74.9541 8.34051 71.5386 8.34051ZM136.348 17.9075H136.068C136.068 17.6546 134.352 13.1573 133.228 10.3709L132.525 8.62851H128.563L134.185 22.88L131.97 28.3106H135.906L144 8.63301H140.035L139.388 10.1234L137.195 15.5486C136.577 17.0642 136.324 17.7671 136.348 17.9075ZM105.182 8.34051C103.422 8.34051 101.911 9.10641 100.897 10.4735H100.482L100.441 10.4528V8.63031H96.7989V22.8323H100.732V15.5657C100.732 13.2473 101.852 11.7974 103.693 11.7974C105.411 11.7974 106.674 13.0808 106.674 15.1094V22.8314H110.607V14.2625C110.608 10.784 108.331 8.34051 105.182 8.34051Z" fill="#EAEBF3"/>
    <path d="M27.7245 0.199951C19.2258 0.199951 12.3975 7.07505 12.3975 15.4775C12.3975 23.9492 19.2933 30.7549 27.7227 30.7549C36.1521 30.7549 43.0542 23.8799 43.0542 15.4775C43.0542 7.07505 36.1539 0.199951 27.7245 0.199951ZM27.7245 21.1718C24.5898 21.1718 22.0131 18.6023 22.0131 15.4775C22.0131 12.3527 24.5898 9.78315 27.7245 9.78315C30.8592 9.78315 33.4368 12.3527 33.4368 15.4775C33.3666 18.6023 30.8592 21.1718 27.7245 21.1718ZM12.3975 4.63875V26.8606H6.9669L0 4.63875H12.3975Z" fill="#EAEBF3"/>
</svg>
